<?xml version="1.0" encoding="UTF-8"?><svg xmlns="http://www.w3.org/2000/svg" xmlns:xlink="http://www.w3.org/1999/xlink" viewBox="0 0 944 624"><defs><style>.cls-1{fill:#db9840;}.cls-2{opacity:.7;}.cls-3{fill:#96704a;}.cls-4{fill:#fff;}.cls-5{fill:#343e50;}.cls-6{stroke:#333;stroke-width:1.19px;}.cls-6,.cls-7,.cls-8,.cls-9,.cls-10{fill:none;}.cls-6,.cls-8,.cls-9{stroke-linecap:round;stroke-linejoin:round;}.cls-11{opacity:.5;}.cls-12{fill:#7d888e;}.cls-13{fill:#11436e;}.cls-14{fill:#fff255;}.cls-15{fill:#ac804e;}.cls-16{fill:#b7d49a;}.cls-17{fill:#023156;}.cls-18{fill:#9da9b2;}.cls-19{fill:#f4b450;}.cls-20{fill:#281609;}.cls-21{clip-path:url(#clippath);}.cls-22{fill:#7d9b6b;opacity:.48;}.cls-23{fill:#171b21;}.cls-24{fill:#edeef1;}.cls-8{stroke:#db9840;stroke-width:1.29px;}.cls-25{fill:#bccad3;opacity:.51;}.cls-9{stroke:#023156;stroke-width:1.08px;}.cls-26{fill:#98c283;}.cls-27{fill:#ebf8ff;}.cls-10{stroke:#232323;stroke-miterlimit:10;stroke-width:11px;}</style><clipPath id="clippath"><polygon class="cls-7" points="171.75 374 191.22 379.55 208.83 412.06 197.09 426.13 170.5 414.57 163.89 403.39 171.75 374"/></clipPath></defs><g id="Bkgd"><rect class="cls-27" x="-9.4" y="-5.11" width="961.02" height="447.31"/><rect class="cls-16" x="-9.4" y="303.95" width="961.02" height="153.71"/><circle class="cls-16" cx="422.23" cy="264.77" r="84.51"/><circle class="cls-16" cx="-3.64" cy="300.01" r="84.51"/><circle class="cls-16" cx="709.47" cy="324.54" r="84.51"/><circle class="cls-16" cx="994.91" cy="314.57" r="84.51"/><circle class="cls-16" cx="328.01" cy="262.23" r="52.34"/><circle class="cls-16" cx="533.29" cy="292.36" r="52.34"/><circle class="cls-16" cx="604.27" cy="305.63" r="52.34"/><circle class="cls-16" cx="884.61" cy="300.01" r="52.34"/><circle class="cls-16" cx="281.54" cy="314.57" r="52.34"/><circle class="cls-16" cx="119.16" cy="302.31" r="52.34"/><circle class="cls-16" cx="197.29" cy="307.54" r="41.49"/><circle class="cls-16" cx="818.73" cy="330.52" r="41.49"/><rect class="cls-26" x="-9.4" y="426.13" width="961.02" height="205.02"/><ellipse class="cls-16" cx="57.38" cy="599.49" rx="37.91" ry="4.6"/><ellipse class="cls-16" cx="884.61" cy="540.1" rx="37.91" ry="4.6"/><ellipse class="cls-16" cx="408.19" cy="550.09" rx="19.53" ry="3.45"/><ellipse class="cls-16" cx="138.69" cy="473.6" rx="19.53" ry="3.45"/><ellipse class="cls-16" cx="541.92" cy="597.74" rx="19.53" ry="3.45"/><ellipse class="cls-16" cx="523.85" cy="466.97" rx="38.68" ry="6.63"/><path class="cls-4" d="m751.73,65.92s0-.04,0-.06c0,0,0,0,0,0,0-.03,0-.06,0-.09,0-.09-.01-.17-.02-.26,0-.06-.01-.13-.02-.19,0-.07-.02-.14-.03-.21-.01-.07-.02-.14-.04-.21-.01-.06-.02-.12-.03-.18-.02-.08-.03-.16-.05-.24-.01-.05-.02-.1-.03-.14-.02-.09-.04-.17-.07-.26-.01-.04-.02-.07-.03-.11-.03-.1-.06-.19-.09-.29,0-.02-.01-.04-.02-.06-.04-.11-.07-.22-.12-.32,0,0,0,0,0,0-.91-2.37-2.85-4.22-5.27-5.02-.01,0-.02,0-.04-.01-.1-.03-.19-.06-.29-.09-.03,0-.06-.02-.09-.03-.09-.02-.17-.05-.26-.07-.04-.01-.09-.02-.13-.03-.08-.02-.16-.03-.24-.05-.06-.01-.11-.02-.17-.03-.07-.01-.15-.02-.22-.04-.07,0-.13-.02-.2-.03-.06,0-.13-.02-.19-.02-.08,0-.17-.01-.25-.02-.05,0-.1,0-.15-.01-.14,0-.27-.01-.41-.01-.96,0-1.86.2-2.72.49-2.44-3.23-6.28-5.36-10.64-5.36-3.85,0-7.3,1.65-9.74,4.26-.98-3.93-4.51-6.86-8.75-6.86-1.43,0-2.76.36-3.97.95-3.88-7.87-11.96-13.3-21.34-13.3-2.48,0-4.88.38-7.13,1.09-2.44-6.15-8.4-10.51-15.43-10.51-2.72,0-5.25.71-7.52,1.87-4.69-8.4-13.66-14.1-23.97-14.1-8.45,0-15.99,3.82-21.02,9.82-1.13-.42-2.34-.68-3.62-.68-5.79,0-10.48,4.69-10.48,10.48,0,.6.08,1.17.18,1.74-2.66,1.26-4.94,3.15-6.66,5.5-3.22-3.22-7.67-5.22-12.59-5.22-7.81,0-14.37,5.06-16.77,12.06-2.21-.99-4.64-1.56-7.22-1.56-.27,0-.53,0-.8.02-.08,0-.15,0-.23.01-.2.01-.4.03-.6.04-.07,0-.14.01-.2.02-.26.03-.52.06-.77.1-.03,0-.07.01-.1.02-.23.03-.45.07-.67.12-.07.01-.14.03-.21.04-.21.04-.42.09-.63.14-.04.01-.09.02-.13.03-.25.06-.5.13-.75.21-.04.01-.07.02-.11.04-.21.07-.42.14-.63.21-.05.02-.11.04-.16.06-.24.09-.47.18-.71.27,0,0,0,0,0,0-.25.1-.49.21-.73.32-.03.01-.06.03-.09.04-.21.1-.42.2-.63.31-.03.02-.06.03-.1.05-.47.25-.92.52-1.36.81-.02.01-.04.03-.06.04-.21.14-.42.28-.62.43,0,0-.02.01-.03.02-.44.32-.86.65-1.26,1.01-.01.01-.03.03-.04.04-1.74,1.53-3.19,3.4-4.23,5.5-1.13-.35-2.3-.59-3.54-.59-.76,0-1.51.07-2.23.21-.04,0-.08.01-.11.02-.13.03-.26.06-.4.09-.05.01-.11.02-.16.04-.12.03-.25.06-.37.1-.06.02-.12.03-.18.05-.12.03-.23.07-.35.11-.06.02-.12.04-.18.06-.11.04-.23.08-.34.12-.06.02-.12.05-.18.07-.11.04-.22.09-.33.14-.06.03-.12.05-.18.08-.11.05-.22.1-.32.15-.06.03-.11.06-.17.09-.11.06-.22.11-.32.17-.05.03-.09.05-.14.08-.11.06-.23.13-.34.2,0,0,0,0,0,0-.28.17-.55.36-.82.55-.02.01-.04.03-.06.04-.09.07-.19.14-.28.22-.05.04-.11.08-.16.13-.08.07-.17.14-.25.21-.06.05-.12.1-.17.15-.08.07-.15.14-.23.21-.06.06-.12.11-.18.17-.07.07-.14.14-.21.21-.06.06-.12.12-.18.18-.07.07-.13.14-.2.22-.06.07-.11.13-.17.2-.06.07-.12.15-.18.22-.06.07-.11.14-.17.21-.06.07-.11.15-.17.22-.06.08-.11.15-.16.23-.05.07-.1.15-.15.22-.06.08-.11.17-.16.25-.04.07-.09.14-.13.21-.07.12-.14.23-.2.35-.04.08-.09.16-.13.24-.07.13-.13.25-.19.38-.03.07-.06.14-.09.2-.05.1-.09.2-.14.31-.03.07-.06.15-.09.22-.04.1-.08.2-.12.3-.03.08-.06.16-.08.23-.04.1-.07.2-.1.3-.03.08-.05.16-.07.24-.03.1-.06.2-.09.31-.02.08-.04.16-.06.24-.03.11-.05.21-.07.32-.02.08-.04.16-.05.25-.02.11-.04.22-.06.33-.01.08-.03.16-.04.24-.02.12-.03.23-.04.35,0,.08-.02.15-.03.23,0,.08-.01.16-.02.23,0,0,0,0,0,0,0,0,0,.01,0,.02,0,.05,0,.09,0,.14,0,.06-.01.13-.01.19,0,.04,0,.07,0,.11,0,.16-.01.32-.01.49,0,6.67,5.4,12.07,12.07,12.07,2.8,0,5.34-.99,7.39-2.59.02.02.04.03.05.05.25,5.57,4.81,10.01,10.43,10.01,1.56,0,3.03-.36,4.36-.97,2.84,4.26,7.68,7.07,13.19,7.07s10.72-3.08,13.5-7.64c3.03,2.49,6.79,4.06,10.94,4.35.82,4.97,5.1,8.78,10.31,8.78,3.02,0,5.72-1.29,7.63-3.34,2.6,1.64,5.66,2.62,8.96,2.62,4.54,0,8.65-1.81,11.68-4.73,4.58,5.55,11.52,9.09,19.28,9.09,8.52,0,16.03-4.27,20.54-10.77.02,0,.04,0,.06,0,3.83,0,7.14-2.07,8.97-5.14,3.6,4.11,8.83,6.77,14.72,6.77,8.43,0,15.57-5.34,18.35-12.8,2.05,4.81,6.81,8.19,12.37,8.19,7.42,0,13.44-6.02,13.44-13.44,0-.99-.12-1.95-.32-2.88.07-.09.15-.18.22-.27.86.29,1.76.48,2.72.48,4.69,0,8.49-3.8,8.49-8.49,0-.14,0-.28-.01-.42Z"/><path class="cls-4" d="m222.15,92.63c0-.12-.02-.25-.02-.37-.02-.25-.03-.5-.06-.74-.01-.15-.03-.29-.05-.43-.03-.22-.05-.44-.08-.66-.02-.15-.05-.3-.07-.45-.03-.21-.07-.42-.11-.63-.03-.15-.06-.31-.09-.46-.04-.2-.09-.4-.14-.61-.04-.15-.07-.3-.11-.46-.05-.2-.11-.4-.17-.59-.04-.15-.09-.3-.13-.44-.06-.2-.13-.4-.2-.6-.05-.14-.09-.28-.15-.42-.08-.22-.17-.44-.26-.66-.08-.2-.17-.4-.25-.6-.1-.22-.19-.44-.3-.65-.08-.16-.16-.32-.24-.47-.08-.15-.15-.31-.23-.46-.09-.17-.18-.33-.28-.5-.08-.14-.15-.27-.23-.41-.1-.17-.21-.34-.31-.51-.08-.12-.16-.25-.24-.37-.11-.17-.23-.34-.35-.51-.08-.11-.15-.22-.23-.33-.13-.18-.25-.35-.39-.52-.07-.09-.14-.18-.22-.28-.14-.18-.29-.36-.44-.54-.05-.06-.11-.12-.16-.19-1.01-1.18-2.14-2.25-3.37-3.21-.02-.02-.04-.04-.07-.05-.24-.18-.48-.36-.72-.53-.03-.02-.06-.04-.09-.07-.24-.17-.49-.34-.74-.5-.03-.02-.05-.03-.08-.05-.26-.17-.53-.33-.79-.49,0,0-.01,0-.02-.01-1.84-1.08-3.85-1.9-5.97-2.43-.02,0-.04,0-.07-.02-.33-.08-.67-.16-1.01-.23-.06-.01-.11-.02-.17-.03-.09-.02-.18-.03-.26-.05,0,0,0,0,0,0,0,0,0,0,0,0,0,0,0,0,0,0h0c-.22-.04-.44-.08-.67-.11-.1-.02-.21-.03-.31-.04-.27-.04-.53-.07-.81-.1-.18-.02-.37-.03-.55-.04-.2-.01-.39-.03-.59-.04-.39-.02-.77-.03-1.16-.03-2.34,0-4.56.45-6.69,1.1-.05-.06-.09-.13-.15-.19.57-1.71.95-3.49.95-5.39,0-9.46-7.67-17.12-17.12-17.12-1.72,0-3.35.33-4.91.8-6.9-12.89-20.48-21.66-36.12-21.66-11.68,0-22.19,4.91-29.65,12.75-4.13-3.95-9.71-6.42-15.89-6.42-12.02,0-21.77,9.25-22.8,21-2.58-1.72-5.67-2.73-9-2.73-.3,0-.59,0-.89.03-.1,0-.19.02-.29.02-.2.01-.39.03-.59.05-.11.01-.22.03-.33.04-.18.02-.36.05-.53.08-.12.02-.23.04-.35.06-.17.03-.34.07-.51.1-.11.03-.23.05-.34.08-.17.04-.33.08-.5.13-.11.03-.22.06-.33.09-.17.05-.34.11-.51.16-.1.03-.2.07-.3.1-.18.07-.36.14-.54.21-.08.03-.16.06-.24.1-.25.1-.49.21-.73.33-.01,0-.02.01-.04.02-.26.12-.51.25-.76.39-.05.03-.1.06-.15.09-.19.11-.39.22-.58.34-.07.05-.15.09-.22.14-.16.1-.32.21-.48.32-.08.05-.16.11-.23.17-.15.11-.3.22-.44.33-.08.06-.15.12-.23.18-.14.11-.29.23-.42.35-.07.06-.15.13-.22.19-.14.13-.28.25-.42.38-.07.06-.13.12-.2.19-.15.14-.29.29-.43.44-.05.05-.1.1-.15.16-.18.19-.35.39-.51.59-.01.01-.02.02-.03.04,0,0,0,0,0,0-2.33,2.81-3.74,6.42-3.74,10.36,0,.36.08.7.1,1.05-.84-.09-1.66-.25-2.52-.25-2.47,0-4.86.39-7.09,1.12-.02,0-.05.01-.09.03,0,0,0,0,0,0,0,0,0,0,0,0,0,0,0,0,0,0,0,0-.01,0-.02,0-1.12.37-2.21.82-3.24,1.35-.03.02-.07.04-.1.05-.24.13-.49.26-.73.39-.02,0-.03.02-.05.03-.76.43-1.49.9-2.19,1.41,0,0-.02.01-.03.02-.21.15-.41.31-.62.47-.05.04-.1.08-.16.12-.19.15-.38.31-.57.47-.05.04-.1.08-.14.12-.59.51-1.16,1.05-1.69,1.62-.05.05-.11.11-.16.16-.15.16-.29.32-.43.48-.08.09-.15.17-.23.26-.13.16-.26.31-.39.47-.08.1-.16.2-.23.3-.12.16-.25.32-.37.48-.07.1-.14.2-.22.3-.2.28-.39.57-.58.86-.09.13-.18.27-.26.41-.09.15-.18.29-.26.44-.09.15-.17.29-.25.44-.08.14-.16.29-.24.43-.09.16-.17.33-.25.49-.07.13-.14.27-.2.4-.12.26-.24.52-.35.78-.05.12-.1.24-.15.36-.09.23-.19.46-.27.69-.05.13-.09.25-.14.38-.07.2-.14.4-.21.61-.04.13-.08.26-.12.39-.07.22-.13.43-.19.65-.03.12-.06.23-.09.35-.08.33-.16.67-.23,1,0,.03-.01.07-.02.1-.06.31-.12.62-.17.94-.02.11-.03.23-.05.34-.03.24-.07.48-.09.72-.01.13-.03.25-.04.38-.02.25-.04.49-.06.74,0,.11-.02.23-.02.34-.02.36-.03.72-.03,1.08,0,12.71,10.3,23.01,23.01,23.01,1.54,0,3.03-.16,4.48-.45,6.48,7.78,16.23,12.74,27.14,12.74,6.79,0,13.1-1.95,18.48-5.27,4.39,3.27,9.77,5.27,15.66,5.27,6.72,0,12.79-2.6,17.44-6.74,3.14,3.55,7.67,5.83,12.78,5.83,4.09,0,7.78-1.49,10.73-3.87,5.47,3.48,11.94,5.53,18.91,5.53,11.19,0,21.14-5.22,27.61-13.34,2.16.67,4.4,1.13,6.78,1.13,12.71,0,23.01-10.3,23.01-23.01,0-.38-.01-.75-.03-1.12Z"/></g><g id="Sad"><circle class="cls-20" cx="272.23" cy="152.59" r="8.68"/><path class="cls-20" d="m271.37,151.12c1.33-.92,2.56-2.11,3.23-3.52.45-.93.6-2.17-.12-2.91,3.31-3.26,5.18-9.45,3.01-13.77-1.17-2.33-3.4-4.11-5.93-4.74-1.53-.38-3.35-.27-4.41.89-.42-.71-.48-1.55-1-2.14-.54-.62-1.61-1.02-2.4-1.13-.43-.06-3.75.42-3.36,1.34-1.52-3.6-5.32-6.01-9.22-6.21-6.25-.32-10.3,3.7-11.78,9.38-1.44-.24-2.6-.89-4.08,0-1.23.74-1.96,2.23-1.78,3.66-3.32-.43-7.15.45-8.87,3.31-.9,1.48-1.1,3.32-.79,5.02.31,1.7,1.09,3.29,2.05,4.74-.31-.47-1.57,1.34-1.61,1.55-.08.45.02.92.14,1.36.02.07.04.14,0,.2-.04.08-.13.1-.22.12-3.29.79-4.58,4.15-3.35,7.16.54,1.31,1.44,2.49,2.57,3.35.37.29,1.66.73,1.84,1.11.16.36-.38.73-.55,1.06-.24.44-.37.95-.36,1.46.02,1.01.61,1.99,1.48,2.49.26.15.54.25.77.44.39.31.6.79.81,1.24.57,1.23,1.4,2.29,2.04,3.47.6,1.13,1.39,1.87,2.2,2.86,1.2,1.47,2.6,2.75,4.23,3.75.67.41,1.75-.12,2.37-.39,4.61-2.02,8.73-5.59,12.64-8.69,4.83-3.82,9.54-7.81,14.18-11.85,1.55-1.35,3.1-2.82,4.9-3.78.46-.24.92-.52,1.38-.83Z"/><ellipse class="cls-22" cx="227.29" cy="611.22" rx="100.47" ry="11.55"/><polygon class="cls-13" points="278 411.31 223.24 420.12 190.62 412.06 189.54 335.09 216.9 329.33 265.4 329.33 281.35 339.65 282.77 397.75 274.77 453.85 255.42 434.29 278 411.31"/><path class="cls-15" d="m229.57,172.8l-5.77,13.01,8.65,15.4,1.15,8.73h7.49l2.8-6.67.49-9.39,2.31-6.75s9.88,3.95,14.74-2.47c4.86-6.42,11.78-22.98,11.7-34.84,0,0-8.07.41-14.25-3.46-6.18-3.87-11.04-8.07-11.04-8.07,0,0-.91-.49-.58,2.47s-10.05,11.28-10.05,11.28c0,0-.91-6.34-6.67-5.52s-10.95,13.75-.91,17.63l-.08,8.65Z"/><path class="cls-24" d="m234.06,207.14l-2.29,4.31,6.2,38.27,4.5-7.36-1.37-34.81s-4.2,1.2-7.04-.42Z"/><path class="cls-15" d="m281.35,376.78s6.26-2.2,8.79-4.06c0,0,2.42,7.69,0,13.62-2.42,5.93-6.26,11.86-7.36,11.42l-1.43-20.97Z"/><path class="cls-19" d="m276.02,335.05l5.33,41.73c3.84-1.1,9.05-3.07,13.12-6.48,4.07-3.41,1.32-9.22,0-28.66-1.32-19.44-10.21-100.31-12.52-111.02-2.31-10.71-3.13-14.82-7.74-17.46s-25.04-10.87-25.04-10.87l.82-7.74s-2.47-2.64-5.6-3.29v2.64l2.64,1.32-4.12,3.46-1.81,8.89-3.13,40.36-4.61-48.1s4.61,1.81,5.44-1.65.33-5.77-7.74-9.06-7.25-3.29-7.25-3.29l2.14-4.12s-8.57-1.98-9.55,0-.99,8.24-.99,8.24c0,0-26.68.16-33.27,2.64s-8.07,4.12-11.04,14.5-12.19,54.19-12.19,54.19c0,0-1.32,16.31-.82,30.64s5.77,71.32,5.77,71.32c0,0,.33,6.64,5.11,9.5,4.78,2.86,23.56,7.14,23.56,7.14l.33-43.98s51.56,4.61,83.18-.82Z"/><ellipse class="cls-1" cx="235.42" cy="195.61" rx="1.24" ry="1.89"/><path class="cls-8" d="m238.3,333.4s.99-50.4.99-57.49-1.32-28-1.32-28"/><line class="cls-8" x1="271.74" y1="250.88" x2="276.02" y2="335.05"/><line class="cls-8" x1="268.11" y1="244.78" x2="277.97" y2="216.83"/><path class="cls-8" d="m179.35,193.72s14.31,18.78,18.26,32.45"/><polyline class="cls-8" points="192.84 335.87 189.54 280.33 195.31 228.97"/><line class="cls-8" x1="215.4" y1="189.93" x2="230.56" y2="198.82"/><line class="cls-8" x1="243.9" y1="205.58" x2="247.85" y2="202.78"/><polygon class="cls-1" points="244.39 193.88 242.91 198.66 247.03 195.2 244.39 193.88"/><path class="cls-1" d="m223.8,185.81s-10.05-5.44,2.14-4.12l-2.14,4.12Z"/><polygon class="cls-15" points="244.39 193.88 245.31 191.2 243.9 191.2 243.46 193.88 244.39 193.88"/><path class="cls-3" d="m231.13,175.93s6.26,10.28,15.57,11.2l-1.73,5.07s-16.55-5.72-13.84-16.27Z"/><polygon class="cls-15" points="223.8 185.81 226.26 180.26 226.93 183.65 223.8 185.81"/><path class="cls-17" d="m250.98,572.52s13.42-1.56,14.43,4.4c0,0-.74,2.93-15.23,4.31,0,0-1.89-6.24.8-8.71Z"/><path class="cls-15" d="m191.6,574.65s-1.79,11.87-3.03,14.95,20.22,16.01,21.94,12.43c0,0-.89-12.59-.55-16.92s.55-5.78.55-5.78c0,0,3.03-6.05-18.92-4.68Z"/><path class="cls-15" d="m252.69,587.76s-2.28-1.48-2.48-5.33.78-9.9.78-9.9c0,0-23.2-1.65-23.4,3.99s.07,6.88-1.31,11.24-3.21,10.4-3.02,14.37,18.97,3.21,18.97,3.21l10.46-17.57Z"/><path class="cls-5" d="m179.64,610.49s17.46,1.31,31.08.41c0,0,1.79.69,1.79-3.65s-.48-5.5-1.99-5.23c-1.51.28-2.75.79-3.85-2.39s-4.95-12.3-11.49-12.3-10.25,5.54-13.21,10.56-3.58,3.95-3.99,6.07-1.5,6.52,1.66,6.52Z"/><path class="cls-5" d="m223.34,610.91l52.46.78s5.5,1.65,5.5-3.58-1.03-5.71-3.16-5.92c0,0-9.01-3.51-13.34-8.53-4.33-5.02-9.7-6.12-9.7-6.12,0,0-1.72-1.03-3.85,1.44s-11.49,13.55-12.45,13.76-16.58-.69-16.58-.69l-1.31,5.3s-1.4,3.19,2.43,3.55Z"/><path class="cls-23" d="m240.44,602.55v1.44s33.43,3.65,38.72,0c0,0-4.61,1.51-38.72-1.44Z"/><path class="cls-23" d="m205.91,602.89v1.44s-23.73,2.34-26.27-1.44c0,0,10.52,1.38,26.27,0Z"/><path class="cls-13" d="m189.69,411.31c-.66,13.17-1.17,22.55-1.17,22.55l-12.49,144.9c.37-3.35,15.57-4.1,15.57-4.1l8.47-.16c10.42-.13,10.45,4.83,10.45,4.83l22.51-143.09-5.46,140.27c2.61-4.08,8.96-3.9,23.4-3.99,14.45-.08,14.43,4.4,14.43,4.4l12.6-165.61h-88.31Z"/><path class="cls-17" d="m190.32,582.23s-15.07.47-14.29-3.47,15.57-4.1,15.57-4.1l-1.28,7.58Z"/><path class="cls-9" d="m213.41,345.4s-.83,14.58-14.86,20.63"/><line class="cls-9" x1="243.67" y1="357.1" x2="238.72" y2="393.14"/><path class="cls-9" d="m249.45,367.83s-2.48,5.78-8.25,7.29"/><g class="cls-21"><path class="cls-15" d="m183.42,333.37s3.73,32.36,3.91,35.74,2.67,9.42,4.62,12.27c1.96,2.85,3.73,6.22,3.56,11.74s.89,12.8-2.13,11.74v4.53s.27,2.67-2.76,2.67-15.11-7.65-16.89-9.16c-1.78-1.51-1.69-2.85-1.69-7.38,0-4.53.8-13.78,0-19.74-.8-5.96-8.89-42.41-8.89-42.41"/></g><path class="cls-20" d="m237.23,152.04s11.67-6.62,11.85-12.73-6.17-2.46-6.17-2.46l-5.68,15.19Z"/><path class="cls-18" d="m91,132.64c0-9.24,7.49-16.73,16.74-16.73,3.07,0,5.92.89,8.39,2.33,1.31-4.38,5.32-7.6,10.13-7.6.89,0,1.74.14,2.56.35,1.93-9.79,10.56-17.17,20.92-17.17,9.7,0,17.87,6.48,20.46,15.34.29-.02.57-.09.87-.09,4.54,0,8.53,2.23,11.02,5.63,2.5-2.51,5.96-4.06,9.79-4.06,7.64,0,13.84,6.19,13.84,13.84,0,1.35-.25,2.63-.61,3.87,5.7,2.22,9.74,7.72,9.74,14.2,0,8.43-6.83,15.27-15.26,15.27-1.56,0-3.03-.3-4.45-.74-4.22,5.16-10.63,8.46-17.81,8.46-4,0-7.76-1.02-11.04-2.82-2.76,4.08-7.42,6.76-12.71,6.76s-10-2.71-12.74-6.82c-4.1,3.77-9.55,6.1-15.56,6.1-11.79,0-21.5-8.88-22.82-20.31-6.63-2.23-11.44-8.42-11.44-15.8Z"/><path class="cls-25" d="m123.53,124.94c-.27.02-4.49-1.87-7.33,2.03,1.72-5.19-1.37-9.08-3.35-10.22,1.15.38,2.24.89,3.27,1.49,1.31-4.38,5.32-7.6,10.13-7.6.89,0,1.74.14,2.56.35,1.93-9.79,10.56-17.17,20.92-17.17,9.7,0,17.87,6.48,20.46,15.34.29-.02.57-.09.87-.09,4.54,0,8.53,2.23,11.02,5.63,2.5-2.51,5.96-4.06,9.79-4.06,7.64,0,13.84,6.19,13.84,13.84,0,.86-.1,1.69-.27,2.49-4.84-16.55-22.84-9.06-24.73-4.93.43-6.14-13.43-9.39-15.76-4.91-.43-7.66-8.16-12.04-15.96-10.2-4.85,1.14-9.01,4.32-11.07,8.89-.44.98-.81,1.98-1.11,3-2.05-1.12-9.75-.68-13.27,6.12Z"/><path class="cls-12" d="m103.52,116.45c-13.32,5.68-9.17,32.26,8.38,22.39-.69,11.08,17.57,16.19,23.6,3.25,1.38,4.73,8.96,5.32,11.71,2.09,2.93,15.2,17.28,12.45,16.97,8.39,3.34,3.81,22.98,2.97,21.26-14.54,4.65,11.89,20.27,11.89,23.24.13.64-2.54.05-5.81-1.02-8.52,4.31,2.69,7.18,7.45,7.18,12.91,0,8.43-6.83,15.27-15.26,15.27-1.56,0-3.03-.3-4.45-.74-4.22,5.16-10.63,8.46-17.81,8.46-4,0-7.76-1.02-11.04-2.82-2.76,4.08-7.42,6.76-12.71,6.76s-10-2.71-12.74-6.82c-4.1,3.77-9.55,6.1-15.56,6.1-11.79,0-21.5-8.88-22.82-20.31-6.63-2.23-11.44-8.42-11.44-15.8,0-7.78,5.31-14.32,12.51-16.19Z"/><path class="cls-12" d="m105.07,145.66c-.92,12.17,8.41,20.67,20.2,20.67,6.01,0,11.46-2.32,15.56-6.1,2.75,4.11,7.43,6.82,12.74,6.82s9.95-2.68,12.71-6.76c3.28,1.8,7.04,2.82,11.04,2.82,7.18,0,13.59-3.3,17.81-8.46,1.41.43,2.89.74,4.45.74,8.02,0,14.6-6.19,15.21-14.06.03.4.05.8.05,1.2,0,8.43-6.83,15.27-15.26,15.27-1.56,0-3.03-.3-4.45-.74-4.22,5.16-10.63,8.46-17.81,8.46-4,0-7.76-1.02-11.04-2.82-2.76,4.08-7.42,6.76-12.71,6.76s-10-2.71-12.74-6.82c-4.1,3.77-9.55,6.1-15.56,6.1-11.79,0-21.5-8.88-22.82-20.31-6.63-2.23-11.44-8.42-11.44-15.8,0-.43.02-.86.05-1.28.59,7.15,6.59,15.4,14.01,14.31Z"/><path class="cls-18" d="m165.41,76.77c.86,0,1.68.18,2.45.44,2.2-2.92,5.66-4.83,9.59-4.83,3.48,0,6.58,1.49,8.78,3.84.89-3.55,4.07-6.18,7.89-6.18,1.29,0,2.49.33,3.58.86,3.5-7.1,10.78-11.99,19.24-11.99,2.24,0,4.4.35,6.43.98,2.2-5.55,7.58-9.48,13.91-9.48,2.45,0,4.73.64,6.78,1.69,4.23-7.58,12.32-12.71,21.61-12.71,7.62,0,14.42,3.45,18.96,8.86,1.02-.38,2.11-.62,3.27-.62,5.22,0,9.45,4.23,9.45,9.45,0,.54-.07,1.06-.16,1.57,2.4,1.14,4.45,2.84,6.01,4.96,2.9-2.91,6.92-4.7,11.35-4.7,7.04,0,12.96,4.56,15.12,10.87,1.99-.89,4.19-1.4,6.51-1.4,6.3,0,11.69,3.66,14.32,8.93,1.02-.31,2.07-.53,3.19-.53,6.01,0,10.88,4.87,10.88,10.88s-4.87,10.88-10.88,10.88c-2.52,0-4.82-.9-6.67-2.34-.02.01-.03.03-.05.04-.23,5.02-4.33,9.03-9.41,9.03-1.41,0-2.73-.33-3.93-.88-2.56,3.84-6.93,6.38-11.89,6.38-5.18,0-9.67-2.77-12.18-6.89-2.73,2.25-6.12,3.66-9.87,3.92-.74,4.48-4.6,7.92-9.3,7.92-2.72,0-5.16-1.17-6.88-3.01-2.34,1.48-5.1,2.36-8.08,2.36-4.09,0-7.8-1.63-10.53-4.26-4.13,5.01-10.38,8.2-17.38,8.2-7.68,0-14.45-3.85-18.52-9.71-.02,0-.03,0-.05,0-3.45,0-6.44-1.87-8.09-4.63-3.25,3.71-7.96,6.1-13.28,6.1-7.6,0-14.04-4.82-16.54-11.54-1.84,4.34-6.14,7.38-11.16,7.38-6.69,0-12.12-5.42-12.12-12.12,0-.89.11-1.76.29-2.59-.07-.08-.14-.16-.2-.24-.77.26-1.59.44-2.45.44-4.23,0-7.65-3.43-7.65-7.65s3.42-7.65,7.65-7.65Z"/><path class="cls-12" d="m159.66,79.38c-.08,2.26.58,4.52,2.23,6.38.35.4.75.78,1.17,1.14,1.33,1.24,4.81,2.61,8.81-.35-1.34,4.53,2.58,9.93,7.24,10.98,5.99,1.35,14.05-.53,17.22-5.8,2.27.97,6.26.98,7.81-1.82,3.84,4.12,10.34,5.56,16.02,4.42,3.87-.77,7.84-2.97,10.3-6.09.95-1.21,1.77-2.53,2.35-3.95,2.06,2.48,12.74,1.64,18.2-2.68,0,0-5.32,9.31-13.95,10.12,3.46,4.05,8.26,7.09,12.95,8.1,4.28.92,8.99.66,13.2-.52,2.43-.68,4.71-1.74,6.46-3.29,1.43,1.49,17.47,5.83,23.25-8.33-10.86,4.49-19.92,1.93-25.48-6.64,0,0,16.67,9.06,26.22-7.28,0,0,7.28,17.48,20.88,11.49-.16,10.52,12.62,17.8,15.95,9.04,3.44,2.17,7.5,3.16,10.98,1.02,1.52-.93,2.58-2.22,3.26-3.71,10.55,8.09,22.08-10.48,10.56-14.72,5.25.78,9.28,5.3,9.28,10.77,0,6.01-4.87,10.88-10.88,10.88-2.52,0-4.82-.9-6.67-2.34-.02.01-.03.03-.05.04-.23,5.02-4.33,9.03-9.41,9.03-1.41,0-2.73-.33-3.93-.88-2.56,3.84-6.93,6.38-11.89,6.38-5.18,0-9.67-2.77-12.18-6.89-2.73,2.25-6.12,3.66-9.87,3.92-.74,4.48-4.6,7.92-9.3,7.92-2.72,0-5.16-1.17-6.88-3.01-2.34,1.48-5.1,2.36-8.08,2.36-4.09,0-7.8-1.63-10.53-4.26-4.13,5.01-10.38,8.2-17.38,8.2-7.68,0-14.45-3.85-18.52-9.71-.02,0-.03,0-.05,0-3.45,0-6.44-1.87-8.09-4.63-3.25,3.71-7.96,6.1-13.28,6.1-7.6,0-14.04-4.82-16.54-11.54-1.84,4.34-6.14,7.38-11.16,7.38-6.69,0-12.12-5.42-12.12-12.12,0-.89.11-1.76.29-2.59-.07-.08-.14-.16-.2-.24-.77.26-1.59.44-2.45.44-4.23,0-7.65-3.43-7.65-7.65,0-1.94.72-3.7,1.91-5.05Z"/><path class="cls-12" d="m169.29,89.79c-.18.84-.89,2.59-.89,3.48,0,6.7,4.79,11.63,11.49,11.63,5.01,0,9.31-3.04,11.16-7.38,2.51,6.73,8.94,11.54,16.54,11.54,5.32,0,10.03-2.39,13.28-6.1,1.65,2.76,5.15,5.2,8.79,3.74,4.07,5.86,10.19,10.6,17.87,10.6,7,0,13.25-3.19,17.38-8.2,2.74,2.63,6.44,4.26,10.53,4.26,2.98,0,5.73-.89,8.08-2.36,1.73,1.84,4.16,3.01,6.88,3.01,4.69,0,9.09-2.86,7.39-8.2,4.53,2.02,9.89-.59,11.57-4.53,2.51,4.12,7.2,7.79,12.38,7.79,4.97,0,9.33-2.53,11.89-6.38,1.2.55,2.97,1.5,4.37,1.5,5.07,0,8.04-4.27,8.33-10.44h0c1.85,1.44,4.82,3.08,7.34,3.08,5.73,0,10.42-4.42,10.85-10.04.02.28.04.57.04.86,0,6.01-4.87,10.88-10.88,10.88-2.52,0-4.82-.9-6.67-2.34-.02.01-.03.03-.05.04-.23,5.02-4.33,9.03-9.41,9.03-1.41,0-2.73-.33-3.93-.88-2.56,3.84-6.93,6.38-11.89,6.38-5.18,0-9.67-2.77-12.18-6.89-2.73,2.25-6.12,3.66-9.87,3.92-.74,4.48-4.6,7.92-9.3,7.92-2.72,0-5.16-1.17-6.88-3.01-2.34,1.48-5.1,2.36-8.08,2.36-4.09,0-7.8-1.63-10.53-4.26-4.13,5.01-10.38,8.2-17.38,8.2-7.68,0-14.45-3.85-18.52-9.71-.02,0-.03,0-.05,0-3.45,0-6.44-1.87-8.09-4.63-3.25,3.71-7.96,6.1-13.28,6.1-7.6,0-14.04-4.82-16.54-11.54-1.84,4.34-6.14,7.38-11.16,7.38-6.69,0-12.12-5.42-12.12-12.12,0-.89.11-1.76.29-2.59-.07-.08-.14-.16-.2-.24-.77.26-1.59.44-2.45.44-4.23,0-7.65-3.43-7.65-7.65,0-.29.02-.57.05-.85.47,4.16,4.3,9.47,11.48,6.22Z"/><path class="cls-12" d="m346.33,93.76h0s0,0,0,0Z"/><path class="cls-12" d="m346.34,93.76h0s0,0,0,0Z"/><path class="cls-25" d="m165.41,76.77c.86,0,1.68.18,2.45.44,2.2-2.92,5.66-4.83,9.59-4.83,3.48,0,6.58,1.49,8.78,3.84.89-3.55,4.07-6.18,7.89-6.18,1.29,0,2.49.33,3.58.86,3.5-7.1,10.78-11.99,19.24-11.99,2.24,0,4.4.35,6.43.98,2.2-5.55,7.58-9.48,13.91-9.48,2.45,0,4.73.64,6.78,1.69,4.23-7.58,12.32-12.71,21.61-12.71,7.62,0,14.42,3.45,18.96,8.86,1.02-.38,2.11-.62,3.27-.62,5.22,0,9.45,4.23,9.45,9.45,0,.54-.07,1.06-.16,1.57,2.4,1.14,4.45,2.84,6.01,4.96,2.9-2.91,6.92-4.7,11.35-4.7,7.04,0,12.96,4.56,15.12,10.87,1.99-.89,4.19-1.4,6.51-1.4,4.29,0,8.16,1.7,11.03,4.45-2.74-1.94-9.15-3.46-13.67-1.63,3.69.03,4.94,3.5,4.94,3.5,11.11-1.7,11.96,9.35,11.96,9.35-3.22-8.01-13.11-5.58-13.11-5.58-.12-2.31-4.15-4.8-8.14-2.81-2.62-3.53-6.22-6.23-10.58-7.58-4.83-1.49-9.71-1.01-14.05,1.06-1.5-4.27-17.52-12.85-28.37.91-9.71-5.02-19.29-.39-19.29-.39,4.16-6.39,10.52-8.59,18.42-7.44-4.77-9.93-23.14-11.17-26.27-1.22-3.77-6.49-21.25-2.77-22.22,7.75-.02.02-9.87-8.05-20.77,2.88-2.62-.68-5.46-.34-8.05,1.05-2.52,1.36-4.66,3.48-6.12,5.97-1.45-.15-2.93-.02-4.35.49-1.44.52-2.76,1.24-3.89,2.17-1.21-.54-2.55-.8-3.96-.67-1.64.15-3.3.57-4.74,1.37-.03-.02-.07-.03-.1-.05-1.61-1.66-3.66-2.92-5.88-3.71-2.02-.71-4.12-.94-6.23-1.01.83-.31,1.74-.48,2.68-.48Z"/><path class="cls-18" d="m400.75,124.63c0-6.68-5.33-12.08-11.97-12.26-1.25-1.83-3.35-3.03-5.74-3.03-.47,0-.93.05-1.37.14-1.2-5.5-6.08-9.61-11.94-9.61-1.98,0-3.82.52-5.48,1.35-3.69-4.49-9.22-7.41-15.48-7.41-7.06,0-13.25,3.65-16.84,9.15-1.43-.75-3.03-1.21-4.77-1.21-5.49,0-9.94,4.29-10.28,9.69-.65-.21-1.34-.35-2.06-.35-1.91,0-3.62.79-4.86,2.06-.63-.09-1.26-.19-1.92-.19-7,0-12.67,5.67-12.67,12.67s5.67,12.67,12.67,12.67c.82,0,1.63-.09,2.41-.24.89,4.33,4.72,7.58,9.31,7.58,2.29,0,4.35-.84,5.99-2.19,3.07,3.04,7.3,4.92,11.96,4.92,3.11,0,5.98-.89,8.49-2.35,1.45,3.27,4.71,5.56,8.52,5.56,4.04,0,7.44-2.58,8.74-6.16,2.32,1.69,5.15,2.71,8.24,2.71,5.18,0,9.65-2.83,12.09-6.99.96.65,2.12,1.03,3.37,1.03,3.34,0,6.04-2.7,6.04-6.04,0-.05-.01-.1-.02-.15,4.44-1.85,7.56-6.23,7.56-11.35Z"/><path class="cls-12" d="m400.75,124.63c0-3.62-1.57-6.86-4.06-9.11,4.3,5.45-.91,17.24-7.83,11.9-.24-1.27,1.72,8.6-8.21,6.45-.99,11.37-12.76,9.65-18.27,5.01-3.96,4.17-9.55.94-13.25-4.71,8.48,4.33,14.02-1.79,14.02-1.79,12.31,4.47,13.67-7.98,13.67-7.98-6.9,9.15-14.41,2.3-14.41,2.3-7.44,4.47-13.53,2.84-16.98-2.3-3.52,11.5-15.09,7.92-18,3.65-1.15,6.83-12.99,7.24-14.34,1.35-13.13,7.24-16.36-7.24-16.16-9.84-.98,1.8-1.54,3.86-1.54,6.06,0,7,5.67,12.67,12.67,12.67.82,0,1.63-.09,2.41-.24.89,4.33,4.72,7.58,9.31,7.58,2.29,0,4.35-.84,5.99-2.19,3.07,3.04,7.3,4.92,11.96,4.92,3.11,0,5.98-.89,8.49-2.35,1.45,3.27,4.71,5.56,8.52,5.56,4.04,0,7.44-2.58,8.74-6.16,2.32,1.69,5.15,2.71,8.24,2.71,5.18,0,9.65-2.83,12.09-6.99.96.65,2.12,1.03,3.37,1.03,3.34,0,6.04-2.7,6.04-6.04,0-.05-.01-.1-.02-.15,4.44-1.85,7.56-6.23,7.56-11.35Z"/><path class="cls-12" d="m392.64,135.16s0,.03,0,0c0,3.34-2.13,5.93-5.47,5.93-1.25,0-2.41-.38-3.37-1.03-2.44,4.17-6.92,6.99-12.09,6.99-3.09,0-5.92-1.03-8.24-2.71-1.3,3.59-4.7,6.16-8.74,6.16-3.81,0-7.07-2.29-8.52-5.56-2.51,1.46-5.38,2.35-8.49,2.35-4.66,0-8.89-1.88-11.96-4.92-1.64,1.34-3.71,2.19-5.99,2.19-4.59,0-7.69-3.31-8.59-7.64-.78.15-2.31.3-3.13.3-6.79,0-12.34-5.35-12.65-12.07,0,.16-.02.32-.02.48,0,7,5.67,12.67,12.67,12.67.82,0,1.63-.09,2.41-.24.89,4.33,4.72,7.58,9.31,7.58,2.29,0,4.35-.84,5.99-2.19,3.07,3.04,7.3,4.92,11.96,4.92,3.11,0,5.98-.89,8.49-2.35,1.45,3.27,4.71,5.56,8.52,5.56,4.04,0,7.44-2.58,8.74-6.16,2.32,1.69,5.15,2.71,8.24,2.71,5.18,0,9.65-2.83,12.09-6.99.96.65,2.12,1.03,3.37,1.03,3.34,0,6.04-2.7,6.04-6.04,0-.05-.01-.1-.02-.15,4.44-1.85,7.56-6.23,7.56-11.35,0-.18,0-.36-.01-.54-.25,4.9-3.81,9.29-8.09,11.07Z"/><path class="cls-12" d="m392.64,135.16s0,0,0,0c0-.01,0-.02,0,0Z"/><path class="cls-25" d="m388.78,112.37c-1.25-1.83-3.35-3.03-5.74-3.03-.47,0-.93.05-1.37.14-1.2-5.5-6.08-9.61-11.94-9.61-1.98,0-3.82.52-5.48,1.35-3.69-4.49-9.22-7.41-15.48-7.41-7.06,0-13.25,3.65-16.84,9.15-1.43-.75-3.03-1.21-4.77-1.21-5.49,0-9.94,4.29-10.28,9.69-.65-.21-1.34-.35-2.06-.35-1.91,0-3.62.79-4.86,2.06-.63-.09-1.26-.19-1.92-.19-2.79,0-5.37.91-7.47,2.44,2.35-1.1,7.26-.55,9.83,2.38-.45-4.62,6.27-5.37,8.17-3.61,0-.1.02-.19.04-.28l-.04.28c13.24-5.28,25.62,4.76,25.62,4.76,5.75-5.52,13.53-3.72,13.53-3.72-7.37-5.01-13.54-.5-13.54-.5-5.21-5.68-13.97-7.22-19.74-6.73,1.7-2.15,5.03-3.65,8.46-2.85,4.87-7.64,24.69-10.89,30.38,1.43,1.99-.77,4.21-.81,6.29-.27,2.23.58,4.54,1.81,5.98,3.66.55.7,1.01,1.39,1.38,2.15,3.66-.34,7.46.98,9.98,3.63.51-.26,1.03-.49,1.58-.7,1.94-.74,4.2-.9,6.25-.64.17.02.35.05.52.07-1.87-1.25-4.1-2-6.5-2.06Z"/><line class="cls-10" x1="471" y1="-25.53" x2="471" y2="686.3"/><path class="cls-20" d="m249.08,139.31s8.84,14.9,23.53,16.94,0-9.57,0-9.57l-14.92-6.77-8.6-.61Z"/><circle class="cls-20" cx="271.8" cy="156.93" r="4.34"/><circle class="cls-20" cx="239.66" cy="150.41" r="2.97"/><circle class="cls-20" cx="266.95" cy="147.85" r="8.54"/><circle class="cls-20" cx="241.31" cy="141.37" r="8.54"/><circle class="cls-20" cx="270.6" cy="142.96" r="8.54"/><circle class="cls-20" cx="258.29" cy="141.25" r="8.65"/></g><g id="Happy"><path class="cls-1" d="m682.51,182.89h5.47l-3.02,5.53s-2.8-2.47-2.44-5.53"/><polygon class="cls-13" points="653.28 409.77 704.79 420.66 741.6 409.77 744.97 333.58 653.1 335.2 653.28 409.77"/><path class="cls-6" d="m253.15,161.44s-4.01.76-5.09-2.81"/><path class="cls-6" d="m268.47,167.54s-4.01.76-5.09-2.81"/><line class="cls-6" x1="251.56" y1="177.38" x2="245.38" y2="174.48"/><path class="cls-6" d="m253.79,170.53s2.1.69,3.07-.55-1.31-1.83-1.31-1.83l.83-1.12"/><ellipse class="cls-22" cx="690.88" cy="609.68" rx="100.47" ry="11.55"/><path class="cls-17" d="m714.57,570.98s13.42-1.56,14.43,4.4c0,0-.74,2.93-15.23,4.31,0,0-1.89-6.24.8-8.71Z"/><path class="cls-15" d="m655.19,573.12s-1.79,11.87-3.03,14.95,20.22,16.01,21.94,12.43c0,0-.89-12.59-.55-16.92s.55-5.78.55-5.78c0,0,3.03-6.05-18.92-4.68Z"/><path class="cls-15" d="m716.28,586.22s-2.28-1.48-2.48-5.33.78-9.9.78-9.9c0,0-23.2-1.65-23.4,3.99s.07,6.88-1.31,11.24-3.21,10.4-3.02,14.37,18.97,3.21,18.97,3.21l10.46-17.57Z"/><path class="cls-5" d="m643.23,608.95s17.46,1.31,31.08.41c0,0,1.79.69,1.79-3.65s-.48-5.5-1.99-5.23c-1.51.28-2.75.79-3.85-2.39-1.1-3.18-4.95-12.3-11.49-12.3s-10.25,5.54-13.21,10.56-3.58,3.95-3.99,6.07-1.5,6.52,1.66,6.52Z"/><path class="cls-5" d="m686.93,609.38l52.46.78s5.5,1.65,5.5-3.58-1.03-5.71-3.16-5.92c0,0-9.01-3.51-13.34-8.53s-9.7-6.12-9.7-6.12c0,0-1.72-1.03-3.85,1.44s-11.49,13.55-12.45,13.76-16.58-.69-16.58-.69l-1.31,5.3s-1.4,3.19,2.43,3.55Z"/><path class="cls-23" d="m704.04,601.01v1.44s33.43,3.65,38.72,0c0,0-4.61,1.51-38.72-1.44Z"/><path class="cls-23" d="m669.51,601.35v1.44s-23.73,2.34-26.27-1.44c0,0,10.52,1.38,26.27,0Z"/><path class="cls-13" d="m653.28,409.77c-.66,13.17-1.17,22.55-1.17,22.55l-12.49,144.9c.37-3.35,15.57-4.1,15.57-4.1l8.47-.16c10.42-.13,10.45,4.83,10.45,4.83l22.51-143.09-5.46,140.27c2.61-4.08,8.96-3.9,23.4-3.99,14.45-.08,14.43,4.4,14.43,4.4l12.6-165.61h-88.31Z"/><path class="cls-17" d="m653.91,580.69s-15.07.47-14.29-3.47c.78-3.94,15.57-4.1,15.57-4.1l-1.28,7.58Z"/><path class="cls-9" d="m677,343.87s-.83,14.58-14.86,20.63"/><line class="cls-9" x1="707.26" y1="355.56" x2="702.31" y2="391.6"/><path class="cls-9" d="m713.04,366.29s-2.48,5.78-8.25,7.29"/><polyline class="cls-1" points="715.84 182.3 711.76 182.3 714.06 187.21 715.84 182.3"/></g><g id="Layer_1"><g class="cls-11"><circle class="cls-14" cx="869.34" cy="70.56" r="58.41"/></g><g class="cls-2"><circle class="cls-14" cx="869.34" cy="70.56" r="50.13" transform="translate(6.55 198.33) rotate(-13.06)"/></g></g><g id="_ëîé_1"><polygon class="cls-19" points="748.44 253.91 744.97 333.58 723.04 293.74 737.34 264.4 748.44 253.91"/><polygon class="cls-19" points="653.1 335.2 656.71 249.83 674.87 281.7 675.72 317.79 653.1 335.2"/><path class="cls-15" d="m619.38,239.02s-4.05,5.51-6.03,9.48c-1.99,3.97-7.76,7.6-8.35,13.89-.59,6.3,2.72,11.59,2.72,11.59l18.2-7.94s5.63-3.97,11.25-9.93c5.63-5.96-17.8-17.1-17.8-17.1Z"/><path class="cls-19" d="m752.09,230.39c2.16-7.44,3.56-15,4.51-22.67-1.12-1.42-2.21-2.75-3.24-3.9-5.63-6.29-22.84-9.27-28.13-10.92s-8.61-3.64-8.61-3.64c0,0-31.77-1.32-36.08.66-4.3,1.99-23.17,6.95-29.46,11.25-6.29,4.3-10.26,12.91-13.57,17.54-3.31,4.63-21.51,22.51-21.51,25.48s22.17,18.87,24.82,18.2,14.56-12.91,15.89-12.58c1.32.33,1.32,20.52,1.32,24.82s.33,19.86.99,22.51c.66,2.65,0,5.3-.33,7.61-.33,2.32.99,3.97.99,3.97,0,0-2.32,7.28-3.97,12.25-1.14,3.41-2.12,10.26-2.62,14.21,1.29.45,2.6.87,3.92,1.24,14.31,4.1,29.46,3.8,44.33,3.15,14.33-.62,30.08-.75,43.63-6.02-.04-1.29-.15-2.74-.39-4.15-.66-3.97-2.32-7.28-2.32-7.28,0,0-4.96-15.56-4.3-17.87.66-2.32-.33-3.31-.33-5.63s3.64-19.2,4.96-22.51c1.32-3.31,5.3-21.51,5.63-22.17.04-.09.29.02.69.27,1.23-8.04.87-15.91,3.17-23.84Z"/><path class="cls-20" d="m711.06,136.56c.74-1.44,1.26-3.07,1.18-4.63-.05-1.03-.5-2.19-1.48-2.51,1.37-4.43.09-10.78-3.87-13.55-2.14-1.5-4.94-2.01-7.47-1.37-1.53.39-3.08,1.35-3.46,2.88-.71-.42-1.15-1.14-1.9-1.41-.77-.29-1.9-.13-2.65.14-.41.15-3.11,2.15-2.33,2.77-3.04-2.45-7.53-2.77-11.06-1.1-5.66,2.68-7.32,8.13-5.94,13.84-1.38.47-2.71.45-3.59,1.93-.74,1.23-.67,2.9.16,4.07-3.12,1.19-6.08,3.78-6.25,7.12-.09,1.73.6,3.44,1.68,4.8,1.08,1.36,2.52,2.38,4.05,3.2-.5-.27-.75,1.92-.68,2.12.15.44.45.8.77,1.13.05.05.1.11.1.18,0,.09-.07.15-.13.21-2.53,2.25-2.07,5.82.44,7.89,1.09.9,2.45,1.51,3.85,1.73.46.08,1.81-.14,2.14.11.32.24.01.82.01,1.19,0,.51.12,1.01.37,1.46.5.88,1.47,1.47,2.48,1.49.3,0,.6-.03.89.02.49.09.9.41,1.3.71,1.09.82,2.32,1.35,3.44,2.1,1.07.71,2.11.99,3.3,1.48,1.76.72,3.59,1.19,5.5,1.3.78.05,1.48-.93,1.9-1.46,3.1-3.96,5.04-9.06,7.02-13.64,2.45-5.65,4.7-11.39,6.88-17.15.73-1.92,1.39-3.95,2.53-5.65.29-.43.57-.9.82-1.39Z"/><path class="cls-15" d="m695.93,228.15c.81-2.96,4.26-19.3,5.13-21.02.85-1.67,12.78-15.16,14.79-18.11-4.05-6.07-4.61-10.43-5.17-13.47-.06-.31-.13-.61-.17-.92-3.33-2.06-7.87-4.82-12.2-7.43-6.89-4.15-15.37-6.68-15.37-6.68,0,0,13.55,18.49-.34,28.22,1.11,3.3,7.67,15.34,9.19,19.06,1.54,3.75,3.88,18.53,4.14,20.35Z"/><path class="cls-3" d="m710.68,175.57c-.04-.18-.08-.36-.11-.54l-16.12-.1c2.52,4.38,7.25,8.06,12.37,8.35,1.89.11,3.91.12,5.82-.2-1.26-3.1-1.62-5.57-1.97-7.5Z"/><path class="cls-15" d="m713.58,138.42c1.26,2.59,11.22,20.26,9.39,28.64-.97,4.43-5.87,7.98-9.46,9.44-11.06,4.5-21.11-.51-26.93-7.22,0,0-10.38.11-10.32-10.18.04-7.56,9.06-.65,9.06-.65,0,0-.22-3.83-1.51-9.49-.56-2.47.61-5.02,2.87-6.18,6.81-3.5,15.89-10.03,16.59-15.85,0,0,8.25,7.25,10.32,11.5Z"/><path class="cls-15" d="m656.71,324.3c1.65-.33,9.6,5.96,10.92,6.62.45.22.89-.04,1.29-.49.35-.63.72-1.25,1.1-1.86.16-.37.26-.63.26-.63,0,0,.09-.05.24-.15.64-.98,1.31-1.94,1.99-2.9-.61-1.46-4.12-4.11-6.52-6.22-2.65-2.32-7.61-4.63-7.61-4.63,0,0,.66-.66,1.65-.99.99-.33,3.31,1.65,6.29,2.98,2.98,1.32,4.96-.99,3.97-1.99-.99-.99-6.95-6.95-9.6-6.95s-12.25,5.3-16.22,4.3c-3.97-.99-9.6-16.88-13.24-30.12-3.64-13.24-6.95-21.84-6.95-21.84,0,0-16.88-4.3-18.87,1.32-1.99,5.63,1.32,16.55,11.25,34.42,9.93,17.87,18.53,26.48,19.2,27.14.66.66,2.94,3.38,6.29,5.3,4.63,2.65,8.27,1.99,8.94,1.99s6.95,3.64,7.94,4.3c.99.66,6.62,1.32,6.62,0s-3.64-2.98-4.96-3.64c-1.32-.66-4.96-3.64-5.3-4.3-.33-.66-.33-1.32,1.32-1.65Z"/><path class="cls-6" d="m709.4,155.55s1.34-1.76.49-3.08-2.16.63-2.16.63l-.79-1.15"/><path class="cls-6" d="m693.01,150.14s2.31-4.45,6.59-2.78"/><path class="cls-6" d="m709.57,145.04s1.88-3.62,5.36-2.26"/><path class="cls-6" d="m706.42,162.6s6.09,3.15,10.52-1.88"/><path class="cls-24" d="m695.93,228.15l5.13-21.02s-2.56,2.67-9.27.66l4.14,20.35Z"/><path class="cls-19" d="m619.38,239.02l-13.11,17.48s-4.77,6.54-.68,17.48,19.74,46.18,28.26,55.37l13.96-24.51s-9.87-14.3-12.09-26.38,7.16-17.29,7.16-17.29l-14.99-19.14-8.51-3.02Z"/><path class="cls-19" d="m739.73,241.24c-3.8-5.69-7.4-11.42-10.63-17.46-5.39-10.07-10.1-20.47-14.69-30.92,4.66.12,8.46.42,9.75,1.02,4.3,1.99,23.17,6.95,29.46,11.25,6.29,4.3,10.26,12.91,13.57,17.54,3.31,4.63,21.51,22.51,21.51,25.48s-22.17,18.87-24.82,18.2c-2.46-.61-12.88-11.19-15.43-12.45-2.21-4.53-6.03-8.65-8.71-12.67Z"/><path class="cls-15" d="m764.5,320.03c-1.29-3.46-2.97-6.73-4.24-10.14-1.06,1.51-1.8,2.48-2.04,2.72-.93.93-13.33-3.72-16.12-3.72s-13.02,5.27-14.26,5.58c-1.24.31-.62,3.41,2.79,2.79,3.41-.62,8.37-2.79,9.61-2.17,0,0-5.27,1.55-7.75,3.41s-8.06,4.96-8.06,6.82,2.48,2.79,2.48,2.79c0,0,0,2.48,1.86,2.79,1.86.31,3.72-.31,3.72,0s.31,2.17,4.03,1.55c3.72-.62,10.54-3.72,12.71-3.41,2.17.31,3.41,2.48,8.99.31,1.91-.74,4.57-2.61,7.69-5.35-.46-1.33-.92-2.66-1.41-3.98Z"/><path class="cls-19" d="m785.32,242.98l13.11,17.48s4.77,6.54.68,17.48c-4.09,10.95-19.74,46.18-28.26,55.37l-13.96-24.51s9.87-14.3,12.09-26.38-7.16-17.29-7.16-17.29l14.99-19.14,8.51-3.02Z"/><line class="cls-8" x1="653.1" y1="205.52" x2="658.87" y2="240.03"/><line class="cls-8" x1="747.04" y1="245.45" x2="747.04" y2="210.04"/><line class="cls-8" x1="696.31" y1="233.46" x2="696.43" y2="333.32"/><circle class="cls-20" cx="694.84" cy="128.53" r="8.54"/><circle class="cls-20" cx="687.32" cy="136.5" r="8.54"/><path class="cls-20" d="m711.97,133.89c.04-.28.1-.55.2-.81,0-.11.03-.22.04-.33-.04-.23-.05-.47-.04-.7-1.85-3.58-4.27-7.12-7.94-8.07-.2-.05-.37-.12-.54-.2-.35.93-.54,1.93-.54,2.98,0,4.68,3.77,8.48,8.45,8.53.04-.49.16-.97.38-1.4Z"/><circle class="cls-20" cx="682.6" cy="146.99" r="3.43"/><circle class="cls-20" cx="683.23" cy="152.78" r="3.43"/><circle class="cls-20" cx="703.37" cy="130.35" r="3.43"/></g><g id="Isolation_Mode"><path class="cls-19" d="m695.93,228.15l8.39-35.29s9.26-4.6,11.53-10.56l.77,6.96-20.69,38.89Z"/><line class="cls-8" x1="715.84" y1="191.97" x2="707.68" y2="197.96"/><polygon class="cls-19" points="695.93 228.15 689.55 196.25 684.96 198.06 688.25 210.04 695.93 228.15"/><path class="cls-19" d="m695.93,230.15l-3.68-35.5s-8.31-5.66-9.74-11.76l-1.6,6.7,15.01,40.56Z"/><path class="cls-19" d="m697.25,199.83c.84-1.91-.18-4.28-2.28-5.29l-10.93-5.27-4.22,6.35,12.11,5.84c2.1,1.01,4.48.28,5.32-1.63Z"/><ellipse class="cls-1" cx="694.01" cy="198.33" rx="1.89" ry="1.24" transform="translate(266.02 779.54) rotate(-69.58)"/><line class="cls-8" x1="680.55" y1="192.49" x2="687.32" y2="200.02"/></g></svg>