<?xml version="1.0" encoding="UTF-8"?>
<svg xmlns="http://www.w3.org/2000/svg" xmlns:xlink="http://www.w3.org/1999/xlink" viewBox="0 0 944 580.83">
  <defs>
    <style>
      .cls-1 {
        fill: #db9840;
      }

      .cls-2, .cls-3, .cls-4, .cls-5, .cls-6, .cls-7, .cls-8, .cls-9, .cls-10, .cls-11, .cls-12, .cls-13, .cls-14, .cls-15, .cls-16 {
        fill: none;
      }

      .cls-2, .cls-3, .cls-4, .cls-5, .cls-6, .cls-8, .cls-11, .cls-13, .cls-14, .cls-16 {
        stroke-linecap: round;
      }

      .cls-2, .cls-3, .cls-17, .cls-6, .cls-7, .cls-9, .cls-10, .cls-13, .cls-15 {
        stroke-miterlimit: 10;
      }

      .cls-2, .cls-10 {
        stroke: #164c7a;
      }

      .cls-18, .cls-19 {
        fill: #4a3333;
      }

      .cls-3, .cls-7 {
        stroke: #000e2f;
      }

      .cls-20 {
        opacity: .13;
      }

      .cls-20, .cls-21 {
        fill: #343e50;
      }

      .cls-4 {
        stroke: #023156;
        stroke-width: 1.08px;
      }

      .cls-4, .cls-5, .cls-8, .cls-11, .cls-14, .cls-16 {
        stroke-linejoin: round;
      }

      .cls-22 {
        fill: #96704a;
      }

      .cls-23 {
        opacity: .52;
      }

      .cls-23, .cls-24 {
        fill: #c6d5e2;
      }

      .cls-25 {
        fill: #f4f4f4;
      }

      .cls-26, .cls-27, .cls-28 {
        fill: #fff;
      }

      .cls-29 {
        fill: #6d4e4e;
      }

      .cls-30 {
        opacity: .22;
      }

      .cls-30, .cls-31 {
        fill: #333;
      }

      .cls-17 {
        stroke-width: .75px;
      }

      .cls-17, .cls-11, .cls-14 {
        stroke: #333;
      }

      .cls-17, .cls-32 {
        fill: #fcfcfc;
      }

      .cls-33 {
        fill: #000e2f;
      }

      .cls-34 {
        fill: #848484;
      }

      .cls-35 {
        fill: #1c578a;
      }

      .cls-36 {
        fill: #594141;
      }

      .cls-5 {
        stroke: #633e1b;
        stroke-width: .56px;
      }

      .cls-5, .cls-19 {
        opacity: .5;
      }

      .cls-37 {
        fill: #8dabc4;
      }

      .cls-38 {
        fill: #ffb291;
      }

      .cls-39 {
        fill: #11436e;
      }

      .cls-40 {
        clip-path: url(#clippath-2);
      }

      .cls-41 {
        opacity: .57;
      }

      .cls-41, .cls-42 {
        fill: #e5e7ea;
      }

      .cls-43 {
        fill: #805124;
      }

      .cls-44 {
        fill: #164c7a;
      }

      .cls-45 {
        fill: #6b6b6b;
      }

      .cls-46 {
        fill: #dde6ed;
      }

      .cls-6 {
        stroke: #805124;
      }

      .cls-27 {
        opacity: .19;
      }

      .cls-47 {
        fill: #ac804e;
      }

      .cls-48 {
        clip-path: url(#clippath-1);
      }

      .cls-49 {
        fill: #d89680;
      }

      .cls-50 {
        fill: #da797a;
      }

      .cls-51 {
        fill: #f1f5fb;
      }

      .cls-7 {
        stroke-width: 6px;
      }

      .cls-52 {
        fill: #332e2c;
      }

      .cls-53 {
        opacity: .47;
      }

      .cls-54 {
        fill: #023156;
      }

      .cls-8 {
        stroke: #c1676b;
        stroke-width: .89px;
      }

      .cls-55 {
        fill: #f4b450;
      }

      .cls-56 {
        fill: #5581a7;
      }

      .cls-57 {
        fill: #a3a3a3;
      }

      .cls-58 {
        opacity: .26;
      }

      .cls-59 {
        fill: #281609;
      }

      .cls-9 {
        stroke-width: 7px;
      }

      .cls-9, .cls-15 {
        stroke: #8dabc4;
      }

      .cls-60 {
        fill: #ffbc8f;
      }

      .cls-28 {
        opacity: .33;
      }

      .cls-61 {
        clip-path: url(#clippath);
      }

      .cls-62 {
        fill: #3f2a56;
      }

      .cls-63 {
        fill: #edeef1;
      }

      .cls-13 {
        opacity: .75;
        stroke: #fff;
        stroke-width: 3px;
      }

      .cls-64 {
        fill: #ccc;
      }

      .cls-65 {
        fill: #72432e;
      }

      .cls-14 {
        stroke-width: 1.2px;
      }

      .cls-66 {
        fill: #b42335;
      }

      .cls-67 {
        fill: #191919;
      }

      .cls-16 {
        stroke: #db9840;
        stroke-width: 1.29px;
      }

      .cls-68 {
        fill: #684121;
      }

      .cls-69 {
        fill: #6c4e4e;
      }

      .cls-70 {
        fill: #4e5b73;
      }
    </style>
    <clipPath id="clippath">
      <rect class="cls-9" x="512.65" y="-28.44" width="331.68" height="212.87"/>
    </clipPath>
    <clipPath id="clippath-1">
      <path class="cls-12" d="m279.48,148.04v-1.52c0-4.1-3.33-7.43-7.43-7.43h-31.98c-4.1,0-7.43,3.33-7.43,7.43v1.52c0,1.51,1.16,2.74,2.64,2.86v14.83c-1.48.13-2.64,1.35-2.64,2.86v6.07c0,1.51,1.16,2.74,2.64,2.86v14.83c-1.48.13-2.64,1.35-2.64,2.86v3.2c0,3.18,2.58,5.76,5.76,5.76h2.01c-.02.09-.03.19-.03.28v.45c0,1.71,1.38,3.09,3.09,3.09h25.19c1.71,0,3.09-1.38,3.09-3.09v-.45c0-.1-.01-.19-.03-.28h2.01c3.18,0,5.76-2.58,5.76-5.76v-3.2c0-1.51-1.16-2.74-2.64-2.86v-14.83c1.48-.13,2.64-1.35,2.64-2.86v-6.07c0-1.51-1.16-2.74-2.64-2.86v-14.83c1.48-.13,2.64-1.35,2.64-2.86Z"/>
    </clipPath>
    <clipPath id="clippath-2">
      <polygon class="cls-12" points="808.67 286.87 786.83 283.21 788.39 265.76 789.38 255.84 808.67 254.98 808.67 286.87"/>
    </clipPath>
  </defs>
  <g id="bg">
    <rect class="cls-24" x="-104.28" y="366.93" width="1198.68" height="220.39" transform="translate(990.12 954.26) rotate(180)"/>
    <rect class="cls-42" x="-103.06" y="-39.98" width="1186.26" height="408.42" transform="translate(980.13 328.45) rotate(180)"/>
    <rect class="cls-51" x="-113.55" y="363.24" width="1208.17" height="10.39" transform="translate(981.06 736.87) rotate(180)"/>
    <ellipse class="cls-20" cx="263.13" cy="433.22" rx="296.58" ry="54.69"/>
    <ellipse class="cls-20" cx="846.75" cy="529.79" rx="208.58" ry="33.86"/>
  </g>
  <g id="mirror">
    <g>
      <g class="cls-61">
        <rect class="cls-24" x="485.23" y="-46.04" width="386.53" height="248.08"/>
        <rect class="cls-57" x="489.38" y="41.7" width="93.17" height="147.32"/>
        <rect class="cls-34" x="582.56" y="11.45" width="44.88" height="189.28"/>
        <rect class="cls-57" x="627.44" y="66.58" width="72.2" height="122.44"/>
        <rect class="cls-57" x="752.87" y="33.65" width="72.2" height="155.37"/>
        <rect class="cls-34" x="699.64" y="19.26" width="25.37" height="169.76"/>
        <rect class="cls-34" x="785.49" y="49.5" width="89.27" height="141.96"/>
        <rect class="cls-45" x="678.49" y="122.19" width="143.43" height="66.83"/>
        <g class="cls-58">
          <rect class="cls-24" x="588.59" y="20.72" width="5.85" height="10"/>
        </g>
        <g class="cls-58">
          <rect class="cls-24" x="602.07" y="20.72" width="5.85" height="10"/>
        </g>
        <g class="cls-58">
          <rect class="cls-24" x="615.55" y="20.72" width="5.85" height="10"/>
        </g>
        <g class="cls-58">
          <rect class="cls-24" x="588.59" y="42.67" width="5.85" height="10"/>
        </g>
        <g class="cls-58">
          <rect class="cls-24" x="602.07" y="42.67" width="5.85" height="10"/>
        </g>
        <g class="cls-58">
          <rect class="cls-24" x="615.55" y="42.67" width="5.85" height="10"/>
        </g>
        <g class="cls-58">
          <rect class="cls-24" x="798.95" y="62.88" width="5.85" height="10"/>
        </g>
        <g class="cls-58">
          <rect class="cls-24" x="812.34" y="62.88" width="5.85" height="10"/>
        </g>
        <g class="cls-58">
          <rect class="cls-24" x="825.73" y="62.88" width="5.85" height="10"/>
        </g>
        <g class="cls-58">
          <rect class="cls-24" x="839.12" y="62.88" width="5.85" height="10"/>
        </g>
        <g class="cls-58">
          <rect class="cls-24" x="852.51" y="62.88" width="5.85" height="10"/>
        </g>
        <g class="cls-58">
          <rect class="cls-24" x="865.9" y="62.88" width="5.85" height="10"/>
        </g>
        <g class="cls-58">
          <rect class="cls-24" x="798.95" y="83.04" width="5.85" height="10"/>
        </g>
        <g class="cls-58">
          <rect class="cls-24" x="812.34" y="83.04" width="5.85" height="10"/>
        </g>
        <g class="cls-58">
          <rect class="cls-24" x="825.73" y="83.04" width="5.85" height="10"/>
        </g>
        <g class="cls-58">
          <rect class="cls-24" x="839.12" y="83.04" width="5.85" height="10"/>
        </g>
        <g class="cls-58">
          <rect class="cls-24" x="852.51" y="83.04" width="5.85" height="10"/>
        </g>
        <g class="cls-58">
          <rect class="cls-24" x="865.9" y="83.04" width="5.85" height="10"/>
        </g>
        <g class="cls-58">
          <rect class="cls-24" x="798.95" y="104.14" width="5.85" height="10"/>
        </g>
        <g class="cls-58">
          <rect class="cls-24" x="812.34" y="104.14" width="5.85" height="10"/>
        </g>
        <g class="cls-58">
          <rect class="cls-24" x="825.73" y="104.14" width="5.85" height="10"/>
        </g>
        <g class="cls-58">
          <rect class="cls-24" x="839.12" y="104.14" width="5.85" height="10"/>
        </g>
        <g class="cls-58">
          <rect class="cls-24" x="852.51" y="104.14" width="5.85" height="10"/>
        </g>
        <g class="cls-58">
          <rect class="cls-24" x="865.9" y="104.14" width="5.85" height="10"/>
        </g>
        <g class="cls-58">
          <rect class="cls-24" x="825.73" y="125.52" width="5.85" height="10"/>
        </g>
        <g class="cls-58">
          <rect class="cls-24" x="839.12" y="125.52" width="5.85" height="10"/>
        </g>
        <g class="cls-58">
          <rect class="cls-24" x="852.51" y="125.52" width="5.85" height="10"/>
        </g>
        <g class="cls-58">
          <rect class="cls-24" x="865.9" y="125.52" width="5.85" height="10"/>
        </g>
        <g class="cls-58">
          <rect class="cls-24" x="825.73" y="146.9" width="5.85" height="10"/>
        </g>
        <g class="cls-58">
          <rect class="cls-24" x="839.12" y="146.9" width="5.85" height="10"/>
        </g>
        <g class="cls-58">
          <rect class="cls-24" x="852.51" y="146.9" width="5.85" height="10"/>
        </g>
        <g class="cls-58">
          <rect class="cls-24" x="865.9" y="146.9" width="5.85" height="10"/>
        </g>
        <g class="cls-58">
          <rect class="cls-24" x="825.73" y="168.29" width="5.85" height="10"/>
        </g>
        <g class="cls-58">
          <rect class="cls-24" x="839.12" y="168.29" width="5.85" height="10"/>
        </g>
        <g class="cls-58">
          <rect class="cls-24" x="852.51" y="168.29" width="5.85" height="10"/>
        </g>
        <g class="cls-58">
          <rect class="cls-24" x="865.9" y="168.29" width="5.85" height="10"/>
        </g>
        <g class="cls-58">
          <rect class="cls-24" x="588.59" y="64.62" width="5.85" height="10"/>
        </g>
        <g class="cls-58">
          <rect class="cls-24" x="602.07" y="64.62" width="5.85" height="10"/>
        </g>
        <g class="cls-58">
          <rect class="cls-24" x="615.55" y="64.62" width="5.85" height="10"/>
        </g>
        <g class="cls-58">
          <rect class="cls-24" x="588.59" y="86.58" width="5.85" height="10"/>
        </g>
        <g class="cls-58">
          <rect class="cls-24" x="602.07" y="86.58" width="5.85" height="10"/>
        </g>
        <g class="cls-58">
          <rect class="cls-24" x="615.55" y="86.58" width="5.85" height="10"/>
        </g>
        <g class="cls-58">
          <rect class="cls-24" x="704.03" y="28.65" width="16.59" height="10"/>
        </g>
        <g class="cls-58">
          <rect class="cls-24" x="704.03" y="50.6" width="16.59" height="10"/>
        </g>
        <g class="cls-58">
          <rect class="cls-24" x="704.03" y="72.55" width="16.59" height="10"/>
        </g>
        <g class="cls-58">
          <rect class="cls-24" x="704.03" y="94.5" width="16.59" height="10"/>
        </g>
        <g class="cls-58">
          <rect class="cls-24" x="615.55" y="108.53" width="5.85" height="10"/>
        </g>
        <g class="cls-58">
          <rect class="cls-24" x="615.55" y="130.48" width="5.85" height="10"/>
        </g>
        <g class="cls-58">
          <rect class="cls-24" x="615.55" y="152.43" width="5.85" height="10"/>
        </g>
        <g class="cls-58">
          <rect class="cls-24" x="615.55" y="174.39" width="5.85" height="10"/>
        </g>
        <rect class="cls-45" x="554.75" y="93.04" width="62.69" height="107.69"/>
        <g class="cls-58">
          <rect class="cls-24" x="689.23" y="135.36" width="23.09" height="13.98"/>
        </g>
        <g class="cls-58">
          <rect class="cls-24" x="715.73" y="135.52" width="23.09" height="13.98"/>
        </g>
        <g class="cls-58">
          <rect class="cls-24" x="742.24" y="135.52" width="23.09" height="13.98"/>
        </g>
        <g class="cls-58">
          <rect class="cls-24" x="768.75" y="135.52" width="23.09" height="13.98"/>
        </g>
        <g class="cls-58">
          <rect class="cls-24" x="689.23" y="162.68" width="23.09" height="13.98"/>
        </g>
        <g class="cls-58">
          <rect class="cls-24" x="715.73" y="162.84" width="23.09" height="13.98"/>
        </g>
        <g class="cls-58">
          <rect class="cls-24" x="742.24" y="162.84" width="23.09" height="13.98"/>
        </g>
        <g class="cls-58">
          <rect class="cls-24" x="768.75" y="162.84" width="23.09" height="13.98"/>
        </g>
        <g class="cls-58">
          <rect class="cls-24" x="561.22" y="102.31" width="16.59" height="10"/>
        </g>
        <g class="cls-58">
          <rect class="cls-24" x="580.3" y="102.31" width="16.59" height="10"/>
        </g>
        <g class="cls-58">
          <rect class="cls-24" x="561.22" y="123.41" width="16.59" height="10"/>
        </g>
        <g class="cls-58">
          <rect class="cls-24" x="580.3" y="123.41" width="16.59" height="10"/>
        </g>
        <g class="cls-58">
          <rect class="cls-24" x="561.22" y="145.56" width="16.59" height="10"/>
        </g>
        <g class="cls-58">
          <rect class="cls-24" x="580.3" y="145.56" width="16.59" height="10"/>
        </g>
        <g class="cls-58">
          <rect class="cls-24" x="561.22" y="166.66" width="16.59" height="10"/>
        </g>
        <g class="cls-58">
          <rect class="cls-24" x="580.3" y="166.66" width="16.59" height="10"/>
        </g>
        <rect class="cls-23" x="477.93" y="-58.93" width="433.19" height="261.62"/>
        <line class="cls-13" x1="529.24" y1="23.58" x2="567.29" y2="-14.47"/>
        <line class="cls-13" x1="528.18" y1="57.16" x2="600.87" y2="-15.53"/>
      </g>
      <rect class="cls-9" x="512.65" y="-28.44" width="331.68" height="212.87"/>
    </g>
  </g>
  <g id="person_on_phone" data-name="person on phone">
    <g>
      <rect class="cls-33" x="754.36" y="509.98" width="9.66" height="15.37" rx="4.83" ry="4.83"/>
      <rect class="cls-33" x="857.28" y="509.98" width="9.66" height="15.37" rx="4.83" ry="4.83"/>
      <rect class="cls-33" x="805.82" y="509.98" width="9.66" height="15.37" rx="4.83" ry="4.83"/>
      <polyline class="cls-7" points="759.19 517.66 810.65 493.1 862.11 517.66"/>
      <line class="cls-7" x1="810.65" y1="517.66" x2="810.65" y2="493.1"/>
      <g>
        <polygon class="cls-60" points="836.2 484.37 822.86 479.84 813.92 506.22 825.76 510.58 836.2 484.37"/>
        <polygon class="cls-60" points="885.06 489 870.98 489 870.98 516.85 883.6 517.17 885.06 489"/>
        <polygon class="cls-31" points="846.75 467.62 827.66 460.17 815.87 494.92 833 502.15 846.75 467.62"/>
        <polygon class="cls-31" points="888.69 468.15 867.35 468.15 867.35 504.85 886.76 505.27 888.69 468.15"/>
        <path class="cls-43" d="m832.76,504.78s-3.35-2.45-6.28,0c-2.93,2.45-3.02,5.28-7.74,3.3-4.72-1.98-6.09-5-6.09-5l-2.01,8.38s12.53,13.99,27.06,16.63c0,0,10.38,1.6,14.44,0v-2.93s.19-2.17-3.3-2.55-5.1-2.45-7.74-6.13c-2.64-3.68-8.35-11.7-8.35-11.7Z"/>
        <path class="cls-43" d="m869.44,512.16s-.92,7.43-.99,15.5c0,0,3.96,1.7,22.51,2.69,18.54.99,25.2,0,25.2,0v-3.04s.14-2.19-2.19-3.11c-2.34-.92-10.9-4.67-15.64-9.27-4.74-4.6-7.93-8.21-11.89-7.01-3.96,1.2-4.18,7.22-7.29,7.29-3.11.07-9.7-3.04-9.7-3.04Z"/>
      </g>
    </g>
  </g>
  <g id="person_with_tea" data-name="person with tea">
    <g>
      <path class="cls-1" d="m362.75,139.09l-3.46-.08,1.83,3.54s1.81-1.52,1.63-3.46"/>
      <polygon class="cls-39" points="378.81 281.15 346.24 288.03 322.96 281.15 321 233.43 378.93 233.98 378.81 281.15"/>
      <path class="cls-54" d="m340.05,383.11s-8.49-.99-9.12,2.78c0,0,.47,1.86,9.63,2.73,0,0,1.19-3.94-.51-5.51Z"/>
      <path class="cls-47" d="m377.6,384.46s1.13,7.51,1.92,9.45-12.79,10.12-13.88,7.86c0,0,.57-7.96.35-10.7-.22-2.74-.35-3.65-.35-3.65,0,0-1.91-3.83,11.96-2.96Z"/>
      <path class="cls-47" d="m338.97,392.75s1.44-.93,1.57-3.37-.49-6.26-.49-6.26c0,0,14.67-1.04,14.8,2.52.13,3.57-.04,4.35.83,7.11.87,2.76,1.01,5.34.89,7.85s-10.98,3.27-10.98,3.27l-6.62-11.12Z"/>
      <path class="cls-39" d="m378.81,281.15c.42,8.33.74,14.26.74,14.26l7.9,91.65c-.23-2.12-9.85-2.6-9.85-2.6l-5.36-.1c-6.59-.08-6.61,3.06-6.61,3.06l-14.24-90.5,3.45,88.72c-1.65-2.58-5.67-2.47-14.8-2.52-9.14-.05-9.12,2.78-9.12,2.78l-7.97-104.75h55.86Z"/>
      <path class="cls-54" d="m378.41,389.25s9.53.3,9.04-2.2-9.85-2.6-9.85-2.6l.81,4.79Z"/>
      <path class="cls-4" d="m363.81,239.46s.52,9.22,9.4,13.05"/>
      <line class="cls-4" x1="344.67" y1="246.86" x2="347.8" y2="269.65"/>
      <path class="cls-4" d="m341.02,253.64s1.57,3.65,5.22,4.61"/>
      <polyline class="cls-1" points="341.68 138.21 344.27 138.27 342.74 141.35 341.68 138.21"/>
      <polygon class="cls-55" points="320 183 321 233.43 335.46 208.57 326.86 189.81 320 183"/>
      <polygon class="cls-55" points="379.07 235.84 378.06 181.8 366.1 201.68 365.02 224.49 379.07 235.84"/>
      <path class="cls-55" d="m318.05,168.08c-1.25-4.74-5.33-3.13-5.82-8,.73-.88,4.97-4.68,5.64-5.39,3.65-3.89,14.36-8.94,17.73-9.91,3.37-.97,5.5-2.17,5.5-2.17,0,0,20.11-.36,22.8.96,2.69,1.32,16.44,4.57,20.35,7.38,3.91,2.81,5.81,14.42,6.98,17.82,1.55,4.52,8.8,27.07,7.14,26.61s-19.46-13.77-20.3-13.58c-.84.19-1.14,12.96-1.21,15.68s-.51,12.55-.97,14.22c-.46,1.66-.08,3.35.1,4.82.17,1.47-.69,2.5-.69,2.5,0,0,1.36,4.64,2.33,7.8.67,2.17,1.19,6.52,1.44,9.03-.82.26-1.66.51-2.49.73-9.11,2.38-18.69,1.96-28.08,1.33-9.05-.61-19.01-.93-27.5-4.46.05-.81.14-1.73.31-2.62.48-2.5,1.57-4.57,1.57-4.57,0,0,3.37-9.76,2.99-11.24-.38-1.47.26-2.09.29-3.55s-2.01-12.19-2.8-14.31c-.79-2.11-3.03-6.85-3.23-7.27-.03-.06.18-3.92-.07-3.77-.65-5.1-.68-12.98-2.01-18.03Z"/>
      <path class="cls-59" d="m343.19,110.99c-.63-.8-1.15-1.76-1.28-2.73-.09-.65.05-1.42.62-1.73-1.38-2.59-1.34-6.69.79-8.88,1.15-1.18,2.83-1.84,4.48-1.74,1,.06,2.07.47,2.49,1.37.39-.35.58-.84,1.01-1.1.44-.27,1.17-.31,1.66-.23.27.04,2.19.96,1.78,1.45,1.6-1.89,4.35-2.62,6.74-2,3.83.99,5.52,4.18,5.34,7.89.91.13,1.74-.04,2.46.77.6.68.76,1.72.38,2.54,2.08.37,4.23,1.62,4.73,3.68.26,1.06.03,2.21-.47,3.18-.51.97-1.28,1.78-2.13,2.47.28-.23.69,1.11.68,1.24-.04.29-.18.55-.34.79-.02.04-.05.08-.04.12,0,.05.06.09.11.12,1.84,1.1,1.98,3.37.67,4.95-.57.69-1.34,1.23-2.18,1.54-.28.1-1.14.13-1.32.32-.17.19.09.51.13.74.06.31.05.64-.06.95-.2.61-.74,1.09-1.37,1.22-.18.04-.37.05-.55.12-.29.11-.51.36-.72.59-.58.64-1.28,1.11-1.89,1.71-.58.57-1.19.87-1.87,1.31-1,.66-2.09,1.17-3.26,1.46-.48.12-1.03-.4-1.35-.68-2.4-2.09-4.21-5.03-5.99-7.63-2.19-3.22-4.28-6.52-6.32-9.84-.68-1.11-1.33-2.29-2.24-3.21-.23-.23-.46-.49-.67-.76Z"/>
      <path class="cls-47" d="m353.59,167.51c-.47-1.88-2.4-12.27-2.93-13.37-.51-1.07-7.86-9.78-9.08-11.68,2.65-3.78,3.07-6.52,3.47-8.44.04-.19.09-.38.12-.58,2.14-1.25,5.05-2.93,7.82-4.52,4.42-2.52,9.82-3.99,9.82-3.99,0,0-8.85,11.49-.21,17.85-.75,2.07-5.08,9.58-6.1,11.91-1.03,2.35-2.73,11.66-2.92,12.81Z"/>
      <path class="cls-22" d="m345.05,134.03c.03-.11.06-.23.08-.34l10.19.18c-1.66,2.73-4.71,4.99-7.95,5.09-1.2.04-2.47.02-3.68-.22.84-1.94,1.11-3.5,1.36-4.72Z"/>
      <path class="cls-47" d="m341.85,112.44c-.47,1.76-4.56,13.92-2.43,18.91,1.13,2.63,4.6,4.26,7,4.74,7.41,1.48,13.05-2.83,15.87-7.69,0,0,6.46-1.17,5.2-7.56-.93-4.69-5.71.67-5.71.67,0,0-.32-2.4-.19-6.08.06-1.6-.98-3.05-2.52-3.5-4.65-1.36-11.06-4.34-12.19-7.87,0,0-4.26,5.49-5.04,8.37Z"/>
      <path class="cls-47" d="m326.13,240.13c1.02-.3,6.39,3.2,7.26,3.54.29.11.56-.08.78-.39.18-.42.38-.83.59-1.23.08-.24.13-.41.13-.41,0,0,.05-.04.14-.11.35-.65.71-1.3,1.08-1.94-.47-.88-2.83-2.35-4.47-3.54-1.8-1.31-5.06-2.48-5.06-2.48,0,0,.38-.46.99-.72.61-.27,2.18.85,4.13,1.51,1.95.66,3.07-.91,2.39-1.48-.68-.57-4.78-3.98-6.45-3.82-1.67.15-7.41,4.04-9.97,3.65-2.56-.4-7.02-10.08-10.08-18.21-3.06-8.13-5.64-13.36-5.64-13.36,0,0-10.88-1.74-11.81,1.92-.93,3.66,1.79,10.35,9.07,21.03,7.28,10.68,13.2,15.61,13.66,15.99.46.38,2.04,1.96,4.27,2.97,3.07,1.4,5.33.77,5.74.74s4.59,1.89,5.25,2.25c.66.36,4.25.45,4.17-.38s-2.46-1.67-3.34-2.01c-.87-.34-3.34-2.01-3.58-2.4-.25-.4-.28-.81.74-1.12Z"/>
      <path class="cls-11" d="m346.48,122.59s-1.04-.93-.67-1.85,1.42.14,1.42.14l.35-.81"/>
      <path class="cls-11" d="m356.02,117.27s-1.97-2.49-4.42-.94"/>
      <path class="cls-11" d="m345.13,116.08s-1.6-2.03-3.6-.77"/>
      <path class="cls-11" d="m349.17,126.61s-3.41,2.68-6.76.09"/>
      <path class="cls-63" d="m353.59,167.51l-2.93-13.37s1.58,1.73,5.85.56l-2.92,12.81Z"/>
      <path class="cls-55" d="m334.61,167.65l-15.38-13.81s-31.32,27.11-32.16,34.45c-.84,7.34,2.22,30.34,22.53,50.1l6.5-8.09s-12.23-28.04-10-35.49c2.22-7.45,20.23-18.55,20.23-18.55l6.56-6.83,1.72-1.77Z"/>
      <line class="cls-16" x1="381.01" y1="153.83" x2="376.84" y2="175.57"/>
      <line class="cls-16" x1="353.27" y1="170.86" x2="351.7" y2="233.99"/>
      <circle class="cls-59" cx="352.31" cy="104.06" r="5.4"/>
      <circle class="cls-59" cx="357.93" cy="108.13" r="5.4"/>
      <path class="cls-59" d="m342.31,109.44c-.06-.17-.13-.33-.22-.48-.01-.07-.05-.13-.07-.2,0-.15-.03-.3-.06-.44.72-2.44,1.8-4.93,3.97-5.96.12-.06.21-.12.31-.19.33.54.57,1.13.69,1.79.56,2.91-1.33,5.72-4.23,6.31-.08-.3-.21-.58-.4-.83Z"/>
      <circle class="cls-59" cx="362.11" cy="114.08" r="2.17"/>
      <circle class="cls-59" cx="362.41" cy="117.75" r="2.17"/>
      <circle class="cls-59" cx="347.23" cy="106.22" r="2.17"/>
      <path class="cls-55" d="m353.59,167.51l-4.78-22.44s-5.79-3.05-7.13-6.85l-.59,4.39,12.5,24.9Z"/>
      <line class="cls-16" x1="341.54" y1="144.33" x2="346.61" y2="148.24"/>
      <polygon class="cls-55" points="353.59 167.51 358.1 147.43 360.98 148.64 358.72 156.17 353.59 167.51"/>
      <path class="cls-55" d="m353.56,168.77l2.86-22.39s5.34-3.45,6.33-7.29l.91,4.26-10.1,25.42Z"/>
      <g>
        <path class="cls-55" d="m353.18,149.58c-.5-1.22.18-2.7,1.52-3.31l6.99-3.17,2.57,4.08-7.74,3.51c-1.34.61-2.84.11-3.34-1.11Z"/>
        <ellipse class="cls-1" cx="355.25" cy="148.67" rx=".78" ry="1.2" transform="translate(-29.07 124.16) rotate(-19.06)"/>
      </g>
      <line class="cls-16" x1="363.85" y1="145.18" x2="359.46" y2="149.84"/>
      <path class="cls-65" d="m355.95,390.43c-2.57,1.78-14.72,2.04-16.57.57-1.85-1.47-1.13,2.24-5.76,2.86-4.63.62-10.57-.72-12.75,1.23-2.18,1.96-4.13,7.08-4.13,7.08h39.21c4.94,0,0-11.74,0-11.74Z"/>
      <path class="cls-31" d="m319.12,401.99h35.35c1.31,0,2.38,1.07,2.38,2.38v1.88h-40.11v-1.88c0-1.31,1.07-2.38,2.38-2.38Z" transform="translate(673.59 808.25) rotate(180)"/>
      <path class="cls-31" d="m365.76,401.57h15.23c1.4,0,2.54,1.14,2.54,2.54v2.73h-20.31v-2.73c0-1.4,1.14-2.54,2.54-2.54Z" transform="translate(746.75 808.41) rotate(180)"/>
      <path class="cls-65" d="m375.5,389.62c-5.15,0-8.54,1.73-9.61,2.88-1.4,1.51-2.67,9.07-2.67,9.07h20.31s.46-5.53-2.83-7.82c-1.93-1.34-2.42-4.13-5.2-4.13Z"/>
      <path class="cls-55" d="m370.21,170.06c-1.08-4.05-2.04-8.07-2.72-12.21-1.12-6.89-3.32-3.16-3.89-10.12,2.76.99,3.49-1.62,4.39-1.52,3.83.43,15.16,1.95,18.02,5.68,2.86,3.73,3.44,9.5,4.46,12.84,1.01,3.34,8.17,17.28,7.55,19s-15.48,4.46-16.92,3.56c-1.34-.84-5.33-11.89-6.59-13.12-.38-3.06-3.52-1.26-4.29-4.12Z"/>
      <path class="cls-1" d="m346.16,225.23c5.52,4.06,12.3.45,14.88,2.1,2.58,1.65,3.74,7.28,8.59,3.46,3.99-3.14,9.18-3.61,9.18-3.61l.23-11.7-23.04,4.9-9.84,4.84Z"/>
      <path class="cls-26" d="m347.39,229.62l-3-.04c-3.6-.05-6.68-2.62-7.37-6.16l-1.89-9.68,22.21.31-2.45,9.8c-.86,3.43-3.96,5.82-7.5,5.77Z"/>
      <path class="cls-47" d="m369.5,220.1c-.74-2.14-1.72-4.17-2.45-6.28-.7.9-1.19,1.49-1.35,1.63-.61.55-8.34-2.52-10.1-2.57s-8.35,2.99-9.14,3.15c-.79.17-.47,2.07,1.7,1.76,2.17-.32,5.35-1.55,6.12-1.15,0,0-3.37.85-4.98,1.94s-5.21,2.89-5.25,4.02,1.5,1.75,1.5,1.75c0,0-.06,1.52,1.11,1.74,1.17.22,2.36-.12,2.35.07s.15,1.33,2.51,1.02c2.36-.31,6.75-2.08,8.11-1.85,1.36.23,2.1,1.58,5.67.35,1.23-.42,2.95-1.51,4.98-3.13-.26-.82-.52-1.64-.8-2.46Z"/>
      <path class="cls-55" d="m397.07,180.08l4.19,12.71s1.49,4.73-3.23,10.26c-4.72,5.53-21.39,22.83-28.39,26.47l-3.24-16.95s13.04-12.11,16.52-18.86c.66-1.27-2.61-6.63-2.61-6.63l11.05-6.93,5.71-.07Z"/>
      <path class="cls-16" d="m374.72,173.21l8.32,20.12c-.59,2.64-7.83,12.86-16.33,19.02"/>
      <path class="cls-28" d="m340.86,211.57c-4.96-4.71,2.54-8.99,2.92-13.65s-.96-6-.96-6c0,0,4.29,4.06,3.69,9.79s-5.64,9.85-5.64,9.85Z"/>
      <path class="cls-16" d="m319.28,181.05c8.66-3.74,11.04-22.54,11.04-22.54"/>
    </g>
    <g>
      <g>
        <rect class="cls-34" x="228.12" y="397.52" width="8.18" height="8.87" rx="2.05" ry="2.05"/>
        <rect class="cls-34" x="275.83" y="397.52" width="8.18" height="8.87" rx="2.05" ry="2.05"/>
      </g>
      <g>
        <path class="cls-26" d="m224.92,208.21h62.28c1.99,0,3.61,1.62,3.61,3.61v184.92c0,1.99-1.62,3.61-3.61,3.61h-62.28c-1.99,0-3.61-1.62-3.61-3.61v-184.92c0-1.99,1.62-3.61,3.61-3.61Z"/>
        <path class="cls-64" d="m287.2,208.71c1.72,0,3.11,1.39,3.11,3.11v184.92c0,1.72-1.39,3.11-3.11,3.11h-62.28c-1.72,0-3.11-1.39-3.11-3.11v-184.92c0-1.72,1.39-3.11,3.11-3.11h62.28m0-1h-62.28c-2.26,0-4.11,1.84-4.11,4.11v184.92c0,2.26,1.84,4.11,4.11,4.11h62.28c2.26,0,4.11-1.84,4.11-4.11v-184.92c0-2.26-1.84-4.11-4.11-4.11h0Z"/>
      </g>
      <g>
        <g>
          <rect class="cls-26" x="227.62" y="306.94" width="56.89" height="88.53" rx="2.23" ry="2.23"/>
          <path class="cls-64" d="m282.28,307.44c.95,0,1.73.77,1.73,1.73v84.07c0,.95-.77,1.73-1.73,1.73h-52.44c-.95,0-1.73-.77-1.73-1.73v-84.07c0-.95.77-1.73,1.73-1.73h52.44m0-1h-52.44c-1.5,0-2.73,1.22-2.73,2.73v84.07c0,1.5,1.22,2.73,2.73,2.73h52.44c1.5,0,2.73-1.22,2.73-2.73v-84.07c0-1.5-1.22-2.73-2.73-2.73h0Z"/>
        </g>
        <g>
          <path class="cls-25" d="m279.74,361.65c-1.43,0-2.59-1.16-2.59-2.59v-15.73c0-1.43,1.16-2.59,2.59-2.59h4.77v20.91h-4.77Z"/>
          <path class="cls-64" d="m284.01,341.25v19.9h-4.27c-1.15,0-2.09-.94-2.09-2.09v-15.73c0-1.15.94-2.09,2.09-2.09h4.27m1-1h-5.27c-1.7,0-3.09,1.39-3.09,3.09v15.73c0,1.7,1.39,3.09,3.09,3.09h5.27v-21.9h0Z"/>
        </g>
      </g>
      <g>
        <path class="cls-26" d="m229.73,297.96c-1.17,0-2.12-.95-2.12-2.12v-69.77c0-3.03,2.47-5.5,5.5-5.5h45.9c3.03,0,5.5,2.47,5.5,5.5v69.77c0,1.17-.95,2.12-2.12,2.12h-52.66Z"/>
        <path class="cls-64" d="m279.01,221.07c2.76,0,5,2.24,5,5v69.77c0,.89-.72,1.62-1.62,1.62h-52.66c-.89,0-1.62-.72-1.62-1.62v-69.77c0-2.76,2.24-5,5-5h45.9m0-1h-45.9c-3.31,0-6,2.69-6,6v69.77c0,1.44,1.17,2.62,2.62,2.62h52.66c1.44,0,2.62-1.17,2.62-2.62v-69.77c0-3.31-2.69-6-6-6h0Z"/>
      </g>
      <line class="cls-17" x1="221.82" y1="301.87" x2="290.31" y2="301.87"/>
      <line class="cls-17" x1="221.82" y1="214.79" x2="290.31" y2="214.79"/>
      <g>
        <rect class="cls-32" x="227.62" y="291.59" width="56.89" height="6.37"/>
        <path class="cls-31" d="m284.01,292.09v5.37h-55.89v-5.37h55.89m1-1h-57.89v7.37h57.89v-7.37h0Z"/>
      </g>
      <g>
        <g>
          <polygon class="cls-17" points="246.5 253.84 242.67 253.84 241.74 242.9 247.31 242.9 246.5 253.84"/>
          <path class="cls-66" d="m240.06,239.52h8.94v1.64c0,1.51-1.23,2.74-2.74,2.74h-3.45c-1.51,0-2.74-1.23-2.74-2.74v-1.64h0Z"/>
        </g>
        <g>
          <polygon class="cls-17" points="269.57 253.84 265.74 253.84 264.81 242.9 270.39 242.9 269.57 253.84"/>
          <path class="cls-39" d="m263.13,239.52h8.94v1.64c0,1.51-1.23,2.74-2.74,2.74h-3.45c-1.51,0-2.74-1.23-2.74-2.74v-1.64h0Z"/>
        </g>
      </g>
      <g class="cls-53">
        <path class="cls-64" d="m279.01,221.07h-45.9c-2.76,0-5,2.24-5,5v71.39h7.48v-60.94c0-5.69,2.32-7.72,8.36-7.72h40.05v-2.72c0-2.76-2.24-5-5-5Z"/>
      </g>
      <g>
        <rect class="cls-26" x="225.75" y="286.05" width="60.62" height="5.83"/>
        <path class="cls-64" d="m285.87,286.55v4.83h-59.62v-4.83h59.62m1-1h-61.62v6.83h61.62v-6.83h0Z"/>
      </g>
      <rect class="cls-64" x="228.14" y="292.13" width="55.86" height="2.01"/>
      <g class="cls-48">
        <rect class="cls-24" x="224.52" y="133.95" width="59.62" height="84.54"/>
        <rect class="cls-37" x="229.8" y="165.71" width="11.14" height="11.84"/>
        <rect class="cls-37" x="229.8" y="139.09" width="11.14" height="11.84"/>
        <path class="cls-37" d="m233.43,143.58h0c14.66-3.99,30.5-4,45.17-.03l.11.03v-9.63h-45.28v9.63Z"/>
        <path class="cls-37" d="m278.7,204.18h0c-14.66,3.99-30.5,4-45.17.03l-.11-.03v9.63h45.28v-9.63Z"/>
        <rect class="cls-37" x="229.8" y="146.17" width="8.52" height="53.98"/>
        <rect class="cls-37" x="229.8" y="192.34" width="11.14" height="11.84"/>
        <line class="cls-15" x1="237.11" y1="150.81" x2="279.15" y2="150.81"/>
        <line class="cls-15" x1="237.11" y1="177.55" x2="279.15" y2="177.55"/>
        <line class="cls-15" x1="238.86" y1="203.86" x2="280.41" y2="203.86"/>
        <rect class="cls-27" x="256.91" y="139.09" width="13.43" height="11.32"/>
        <rect class="cls-27" x="256.91" y="165.71" width="13.43" height="11.32"/>
        <rect class="cls-27" x="256.91" y="192.14" width="13.43" height="11.32"/>
        <rect class="cls-27" x="254.83" y="151.16" width="13.43" height="14.55"/>
        <rect class="cls-27" x="254.83" y="177.55" width="13.43" height="14.55"/>
      </g>
    </g>
  </g>
  <g id="person_on_computer" data-name="person on computer">
    <g>
      <g class="cls-40">
        <rect class="cls-60" x="766.83" y="242.13" width="59.81" height="60.04" transform="translate(1593.46 544.29) rotate(180)"/>
        <path class="cls-49" d="m804.78,274.52c-9.53.76-19.8-4.06-17.83-14.91,1.97-10.86,22.51,9.1,22.51,9.1l-4.68,5.82Z"/>
      </g>
      <path class="cls-31" d="m737.23,279.67h86.52v35.36c0,12.25-9.94,22.19-22.19,22.19h-42.14c-12.25,0-22.19-9.94-22.19-22.19v-35.36h0Z" transform="translate(1560.99 616.9) rotate(180)"/>
      <path class="cls-70" d="m808.74,272.54s-2.59,6.99-8.81,6.64c0,0-9.36-.7-11.84-9.94l-3.89.29s-19.65,4.25-25.29,10.33c-11.69,12.6-11.25,58.35-13.14,64.68-1.89,6.32,4.05,6.75,13.2,6.75,2.61,0,4.45.68,4.45.68l8.23-41.52-1.13,26.77h46.02l5.12-21.31s3.99,21.94,16.66,21.31c1.84-.09,7.35,0,7.35,0,0,0,1.11,1.28,5.39-7.9,2.4-5.15-2.08-3.67-2.08-3.67,0,0-19.87-40.99-21.57-43.63s-18.69-9.49-18.69-9.49Z"/>
      <path class="cls-3" d="m772.86,281.94c1.57,4.41,3.41,9.39-.3,24.66"/>
      <path class="cls-3" d="m823.27,288.83s-3.4,14-2.27,24.06"/>
      <path class="cls-59" d="m827.15,251.37c7.03-5.74,9.76-25.74-10.55-31.34-20.3-5.6-26.9,11.86-25.92,21.29.98,9.43,21.3,7.27,21.3,7.27l15.16,2.77Z"/>
      <path class="cls-60" d="m802.34,274.14h0c9.42,2.6,19.17-2.93,21.76-12.36l4.52-16.41c1.16-4.19,0-6.87-3.22-9.39-1.71-1.34-3.96-1.8-6.1-1.4h0s-1.18.37-1.18.37c-2.31.72-4.82.05-6.48-1.71-.44-.46-.86-.87-1.22-1.15-1.68-1.29-4.06-1.91-6.22-1.65-4.1.49-7.98,3.44-9.59,9.49h0s-4.64,12.44-4.64,12.44h0c-2.6,9.42,2.93,19.17,12.36,21.76Z"/>
      <g>
        <path class="cls-14" d="m810.29,254.52l.74,4.28c.28,1.61-1.27,2.93-2.81,2.41l-.98-.33"/>
        <path class="cls-14" d="m798.19,248.12s4.15,3.37,8.37.27"/>
        <path class="cls-14" d="m816.17,251.37s2.48,4.74,7.58,3.56"/>
        <path class="cls-5" d="m806.27,252.08s-2.82,2.2-5.38.27"/>
        <path class="cls-5" d="m814.9,254.83s.83,3.44,3.29,3.08"/>
        <path class="cls-14" d="m807.22,267.19s-4.75-1.64-7.61-.58"/>
      </g>
      <path class="cls-60" d="m831.65,280.68c1.12,9.47-1.44,41.12,2.22,46.48s6.59,10.7,12.7,10.7,7.68-10.4,7.95-17.46c.27-7.07-10.13-23.83-13.25-40.76-3.13-16.92.14-19.44-.53-22.34-.66-2.9-6.01-9.32-7.44-9.27s-5.2,0-6.37.46-4.03,3.06-4.48,4.43-2.34,4.64-1.38,5.71,1.22.54,1.22.54c0,0,1.14,3.07,1.83,3.8.74.79,2.42,1.22,2.42,1.22l.87-.03s-.88,8.9,1.83,12.09c2.72,3.19,2.36,4.06,2.4,4.44Z"/>
      <g>
        <path class="cls-5" d="m822.68,259.54c-.66-2.16,1.2-5.52,2.22-5.38s7.13,2.31,7.13,2.31"/>
        <path class="cls-5" d="m836.05,255.14c-2.24-1.05-8.87-5.13-10.5-3.84-1.63,1.29-1.88,2.14-1.88,2.14"/>
        <path class="cls-5" d="m836.76,253.17c-2.96-2.32-6.11-4.63-7.51-4.32s-3.85,1.34-3.85,1.34"/>
        <path class="cls-5" d="m828.08,273.44c-.42-2.25-.8-7.06-.46-9.28.41-2.65-1.12-4.02-1.41-4.33l.68-1.04"/>
      </g>
      <path class="cls-59" d="m807.13,220.88c3.39-7.02,12.78-5.27,20.02.08,5.34,3.95,8.7,7.73,4.99,20.74-2.35,8.24-1.77-6.54-1.77-6.54l-19.11-11.21-4.13-3.07Z"/>
      <ellipse class="cls-60" cx="791.3" cy="245.02" rx="6.48" ry="3.84" transform="translate(409.12 979.95) rotate(-79.73)"/>
    </g>
  </g>
  <g id="person_helping" data-name="person helping">
    <g>
      <ellipse class="cls-52" cx="159.37" cy="132.01" rx="4.01" ry="5.15" transform="translate(-2.68 3.3) rotate(-1.18)"/>
      <ellipse class="cls-52" cx="160.68" cy="142.96" rx="4.01" ry="5.15" transform="translate(-2.9 3.33) rotate(-1.18)"/>
      <ellipse class="cls-52" cx="163.95" cy="147.42" rx="4.01" ry="5.15" transform="translate(-2.99 3.4) rotate(-1.18)"/>
      <ellipse class="cls-52" cx="160.03" cy="151.93" rx="5.42" ry="4.42" transform="translate(-10.87 291.53) rotate(-82.76)"/>
      <ellipse class="cls-52" cx="158.44" cy="159.89" rx="5.68" ry="4.42" transform="translate(-25.15 290.12) rotate(-80.61)"/>
      <ellipse class="cls-52" cx="163.13" cy="141.59" rx="4.01" ry="5.15" transform="translate(-2.87 3.38) rotate(-1.18)"/>
      <ellipse class="cls-52" cx="159.73" cy="137.16" rx="4.01" ry="4.3" transform="translate(-2.78 3.31) rotate(-1.18)"/>
      <path class="cls-43" d="m199.1,224.09c-1.38,3.48-2.45,5.67-2.84,6.67s-4.34,17.36,2.85,17.45c3.73.05,6.51-9.96,7.11-17.32.6-7.36-7.12-6.8-7.12-6.8Z"/>
      <path class="cls-43" d="m141.45,227.27c1.17,3.56,2.1,5.81,2.43,6.83s-.26,17.97-3.91,17.25c-3.66-.72-5.88-10.34-6.04-17.72s7.52-6.35,7.52-6.35Z"/>
      <path class="cls-69" d="m208.81,398.57s.63-2.66-2.33-4.05-6.62-.94-8.02-4.06-.9-5.84-5.05-5.98c-4.16-.14-4.35,3.17-5.86,3.75s-3.24.88-3.31-2.27c0,0-2.07.49-2.46,2.91s-.59,5.97-1.8,7.57l13.36,4.76s11.52-.5,11.63-.5,3.83-2.14,3.83-2.14Z"/>
      <path class="cls-67" d="m194,398.88l14.81-.3s1.09-.04,1.12,1.29.16,2.48-1.51,2.52-9.53,1.68-20.83.61l-7.64-.29s-.85.09-.9-2.39,0-3.97,1.51-3.96,2.88-.5,6.1.88c3.22,1.38,3.71,1.72,7.34,1.65Z"/>
      <path class="cls-69" d="m145.49,401.69l-.06-3.03s.01-.86-.47-1.24-2.3-1.12-2.47-3.93c-.17-2.81.63-7.24-4.1-7.42-4.73-.18-7.01.03-7.62,2.66,0,0-1.98-.46-2.47,1.44-.49,1.9-.61,5.74-.61,5.74l.34,5.75,10.44,3.09,5.54-.89,1.7-1.29-.21-.89Z"/>
      <path class="cls-67" d="m127.87,397.1l.64,3.96s3.11,2.36,10.39,2.1c7.28-.26,6.59-1.47,6.59-1.47,0,0,.87.43.9,1.9s-.3,1.7-3.27,2.04c-2.97.34-9.44.61-12.35-.16-2.91-.77-4.04-1.84-4.05-2.45s-.37-5.92.97-7.11l.19,1.19Z"/>
      <polygon class="cls-43" points="194.17 384.82 197.63 339.01 179.86 340.19 184.25 385.97 184.24 390.9 188.46 390.81 194.17 384.82"/>
      <polygon class="cls-43" points="134.37 335.19 129.9 388.7 131.78 389.61 140.08 386.39 140 382.39 152.47 339.35 134.37 335.19"/>
      <path class="cls-46" d="m208.81,398.57s.63-2.66-2.33-4.05-6.62-.94-8.02-4.06-.9-5.84-5.05-5.98c-4.16-.14-4.35,3.17-5.86,3.75s-3.24.88-3.31-2.27c0,0-2.07.49-2.46,2.91s-.59,5.97-1.8,7.57l13.36,4.76s11.52-.5,11.63-.5,3.83-2.14,3.83-2.14Z"/>
      <path class="cls-67" d="m194,398.88l14.81-.3s1.09-.04,1.12,1.29.16,2.48-1.51,2.52-9.53,1.68-20.83.61l-7.64-.29s-.85.09-.9-2.39,0-3.97,1.51-3.96,2.88-.5,6.1.88c3.22,1.38,3.71,1.72,7.34,1.65Z"/>
      <path class="cls-46" d="m145.49,401.69l-.06-3.03s.01-.86-.47-1.24-2.3-1.12-2.47-3.93c-.17-2.81.63-7.24-4.1-7.42-4.73-.18-7.01.03-7.62,2.66,0,0-1.98-.46-2.47,1.44-.49,1.9-.61,5.74-.61,5.74l.34,5.75,10.44,3.09,5.54-.89,1.7-1.29-.21-.89Z"/>
      <path class="cls-67" d="m127.87,397.1l.64,3.96s3.11,2.36,10.39,2.1c7.28-.26,6.59-1.47,6.59-1.47,0,0,.87.43.9,1.9s-.3,1.7-3.27,2.04c-2.97.34-9.44.61-12.35-.16-2.91-.77-4.04-1.84-4.05-2.45s-.37-5.92.97-7.11l.19,1.19Z"/>
      <polygon class="cls-50" points="194.16 166.27 180.2 160.75 163.96 160.54 144.41 167.29 140.87 186.25 146.24 189.07 193.22 188.11 196.21 176.26 194.16 166.27"/>
      <path class="cls-43" d="m186.16,121.37s2.63,2.05,3.36,3.17.73,4.97.73,4.97c0,0-.12,1.01-.4,1.58-.28.57-.68-1.89-.68-1.89l-3.12-7.23.11-.61Z"/>
      <path class="cls-43" d="m163.49,137.58l.47,22.96s7.3,6.18,12.9,5.77c5.61-.4,5.72-4.14,5.72-4.14l-.21-10.15s7.83-4.55,7.7-10.96l-.26-12.81-5.17-9.61-15.89,4.57-6.97,7.63,1.71,6.73Z"/>
      <path class="cls-11" d="m179.45,142.63s3.8-.94,3.83-2.89c.03-1.94-3.9-.78-3.9-.78l-.04-1.73"/>
      <path class="cls-11" d="m168.57,135.32s3.33-2.88,6.26-.13"/>
      <path class="cls-11" d="m181.88,135.05s3.33-2.88,6.26-.13"/>
      <path class="cls-11" d="m173.75,146.09s1.65.9,4.46.84,3.9-.27,3.9-.27"/>
      <path class="cls-68" d="m182.38,152.03s-9.5,3.51-15.92-3.71c0,0,1.93,9.97,16.04,9.54l-.12-5.83Z"/>
      <path class="cls-52" d="m189.86,131.1s2.97-5.64-1.39-9.4c0,0,1.06-11.63-10.15-8.49,0,0-6.99-2.97-11.56,1.46,0,0-6.78-.46-7.61,6.5,0,0-4.36,3.3-1.45,8.05,0,0-1.66,4.11.99,6.16,0,0,4.79,3.7,5.8-.12,1.01-3.82.87-5.12,3.95-5.35,3.08-.23,6.28-.02,8.92-6.2s14.52-2.47,12.51,7.38Z"/>
      <circle class="cls-43" cx="162.84" cy="136.8" r="3.82"/>
      <path class="cls-50" d="m147.13,221.21l3.49-11.45-4.38-20.68,19.95-5.7,27.02,4.74-3.46,20.68,3.89,11.46s4.32,2.61-23.21,3.18c-27.53.57-23.32-2.22-23.32-2.22Z"/>
      <path class="cls-21" d="m193.66,220.25s-7.58,1.97-23.23,2.29c-15.64.32-23.3-1.34-23.3-1.34,0,0-9.01,21.53-10.56,37.38-1.55,15.85-7.64,98.85-13.38,115.83l27.54,3.02s1.56-41.71,4.1-60.5c2.54-18.78,12.44-53.75,12.44-53.75,0,0,10.45,49.22,9.4,60.48-1.05,11.26,1.01,42.13-3.06,53.29l30.57-4.53s-7.34-35.96-6.87-49.71c.47-13.75,7.57-73.51-3.64-102.48Z"/>
      <path class="cls-50" d="m144.41,167.29c-8.03,4.72-12.48,21.86-12.52,35.34-.04,13.47,1.63,33.9,1.63,33.9,0,0,2.28-5.62,4.64-7.2,2.36-1.58,4.21-1.32,4.21-1.32,0,0-1.13-14.66-.76-19.62s5.79-22.84,5.79-22.84"/>
      <line class="cls-3" x1="147.68" y1="232.25" x2="141.46" y2="250.51"/>
      <path class="cls-50" d="m194.16,166.27c8.21,4.38,12.17,21.36,12.76,34.82s-.24,33.94-.24,33.94c0,0-1.47-4.66-3.89-6.14-2.42-1.48-5.67-.77-5.67-.77,0,0,.9-15.93.33-20.87-.57-4.93-9.69-30.07-9.69-30.07"/>
      <line class="cls-3" x1="192.16" y1="230.4" x2="196.71" y2="249.38"/>
      <path class="cls-8" d="m184.35,164.68c-.66,4.6-6.76,6.34-12.32,4.47-5.62-1.89-9.26-4.94-9.26-4.94"/>
      <path class="cls-56" d="m163.74,149.66c-4.07-.58-8.53-2.31-7.96-4.5.58-2.19,5.63-.2,7.87.05l.09,4.45Z"/>
    </g>
  </g>
  <g id="person_chatting" data-name="person chatting">
    <g>
      <polygon class="cls-35" points="401.94 247.77 393.05 247.69 392.13 228.02 403.11 228.11 401.94 247.77"/>
      <path class="cls-49" d="m449.91,173.93s2,4.54.16,9.08c-1.84,4.54-9.06,7.4-9.06,7.4,0,0,1.41,10.95,15.26,5.59,13.85-5.36,17.24-7.81,17.24-7.81,0,0-8.7-6.5-10.27-19.91-1.57-13.4-13.32,5.65-13.32,5.65Z"/>
      <path class="cls-49" d="m435.17,150.96s.2,7.63.45,8.18c.25.56.78.85,1.03,1.41.25.56,1.92,11.79,6.72,13.91,4.8,2.12,9.6-1.74,9.6-1.74l7.34-5.93-3.87-16.77-9.02-5.03-12.24,5.98Z"/>
      <path class="cls-43" d="m441.35,154.09c2.12,4.83,3.5,4.82,3.5,4.82,0,0,.39-4.21,3.49-3.07s3.69,8.18-.41,8.64c0,0-1.03,3.95-.11,6.35,0,0,2.76,9.26,12.31,8.6,9.55-.66,12.33-7.88,9.28-12.64,0,0,6.48-.99,7.35-9.39.96-9.21-7.25-11.01-11.37-10.11,0,0-3.06-10.48-10.92-11.38-7.85-.9-13.7,2.1-16.56,5.24-2.86,3.14-9.51,5.83-2.51,13.49l.1-2.17,5.84,1.62Z"/>
      <path class="cls-49" d="m479.22,217.34s-1.36,22.34-3.81,29.42c-2.01,5.81-14.44,34.87-14.44,34.87l-6.27-46.04,17.56-22.75,6.96,4.5Z"/>
      <path class="cls-62" d="m474,217.81s6.86-.21,7.13-1.3c.29-1.17-.08-2.74-.18-3.92-.07-.85-.35-1.43-.56-2.22-.27-1-.14-2.11-.31-3.13-.14-.88-.43-1.73-.61-2.6-.46-2.25-.16-4.58-.3-6.87-.21-3.25-1.3-6.42-3.22-9.06-.95-1.31-2.08-2.47-3.36-3.46-.61-.47-1.26-.69-1.88-1.11-.7-.47-1.25-1.14-2.13-1.29-.35-.06-.72-.02-1.08.01-1.81.19-3.63.37-5.44.56-.02.64.2,1.26.41,1.87,1.14,3.21,2.4,6.39,3.28,9.67.74,2.75,1.61,5.46,2.54,8.15,1.72,4.96,3.61,9.87,5.71,14.68Z"/>
      <path class="cls-49" d="m452.25,375.66s7.72,29.63,11.71,44.44c3.99,14.81,5.82,24.27,3.79,27.37-2.03,3.1,8.02,7.79,8.02,7.79l8.31-5.72s-1.92-5.91-2.46-11.34c-.54-5.43-.91-32.82-3.25-47.17-2.33-14.34-16.41-51.3-16.41-51.3l-9.71,35.93Z"/>
      <path class="cls-21" d="m488.7,458.62c-.13-1.07-.36-2.61-1.19-2.85-3.49-.38-38.41,5.33-38.41,5.33,0,0-2.34.09-2.64.78-.31.68-.53,3.36.16,4,.69.64,22.13-.5,26.33-.95,5.52-.59,12.31-1.28,15.04-1.86,1.41-.4.9-2.86.7-4.46Z"/>
      <path class="cls-33" d="m486.35,452.03c-.72-2.32-.68-5-2.05-7.08-.38-.57-.91-1.07-1.57-1.25-.47-.13-.97-.1-1.46-.05-1.03.1-2.08.28-2.95.83-1.14.72-1.92,2.04-3.22,2.4-1.47.4-3.56-.28-4.69-1.25-.33-.28-.61-.63-.87-.98-.26-.34-.5-.7-.72-1.07-.12-.2-.25-.41-.44-.53-.78-.51-1.56.88-1.77,1.43-.42,1.05-.97,1.97-1.68,2.86-1.06,1.32-2.27,2.52-3.52,3.67-3.68,3.42-10.74,4.54-12.54,6.78-1.82,2.25-1.46,3.73-1.46,3.73,0,0,12.56,1.55,19.09-.62,1.73-.57,3.33-1.94,5.87-2.74,4.57-1.44,10.6-2.09,15.16-2.37-.39-1.17-.8-2.54-1.17-3.74Z"/>
      <path class="cls-49" d="m437.18,377.01s4.53,30.28,6.93,45.43c2.4,15.15,3.21,24.75.86,27.61-2.35,2.87,7.15,8.6,7.15,8.6l8.87-4.81s-1.29-6.08-1.25-11.53c.04-5.46,2.57-32.74,1.77-47.25-.8-14.51-10.88-52.75-10.88-52.75l-13.46,34.7Z"/>
      <path class="cls-21" d="m464.64,463.37c-.02-1.08-.08-2.63-.88-2.96-3.43-.74-38.75,1.23-38.75,1.23,0,0-2.33-.15-2.71.49-.38.64-.89,3.29-.26,4,.62.71,22.06,1.85,26.28,1.85,5.55,0,12.37.03,15.15-.25,1.45-.25,1.2-2.75,1.17-4.36Z"/>
      <path class="cls-33" d="m462.99,456.57c-.47-2.38-.15-5.04-1.29-7.26-.31-.61-.8-1.16-1.43-1.41-.45-.18-.95-.2-1.44-.21-1.03-.01-2.1.06-3.02.51-1.21.6-2.12,1.83-3.45,2.05-1.5.25-3.51-.66-4.53-1.74-.3-.32-.54-.69-.76-1.06-.22-.37-.42-.75-.61-1.14-.1-.21-.2-.43-.38-.58-.73-.59-1.64.71-1.92,1.23-.53,1-1.17,1.86-1.97,2.66-1.19,1.2-2.53,2.27-3.88,3.27-4.02,3.01-11.16,3.38-13.19,5.41-2.05,2.05-1.85,3.56-1.85,3.56,0,0,12.32,2.87,19.05,1.41,1.78-.38,3.51-1.58,6.13-2.1,4.7-.94,10.76-.96,15.33-.75-.26-1.21-.52-2.61-.77-3.84Z"/>
      <path class="cls-69" d="m469.14,244.04s5.49,12.06,14.44,46.32c7.08,27.1,18.13,75.5,17.66,91.05-.09,2.99-16.7,4.34-19.37,4.68,0,0-1,3.01-2,3.67-.53.35-15.98,2.05-31.49,1.96-13.78-.08-27.82-1.86-28.29-2.96,0,0-16.69-2.15-16.37-4.68,5.42-42.41,8.41-48.44,13.39-74.37,5-26.04,19.34-69.75,19.34-69.75l32.69,4.09Z"/>
      <path class="cls-18" d="m420.95,375.93c.24-4.5.56-8.99.94-13.48.77-8.97,6.04-48.12,6.99-57.07.04-.36-.57-.44-.64-.09-1.83,9.41-6.91,49.25-7.71,58.8-.41,4.82-.73,9.64-.97,14.47-.12,2.41-.23,4.83-.3,7.24-.04,1.46-.02,3,1.23,3.97.64.5,1.55-.39.9-.9-1.51-1.2-.82-4.34-.75-6.03.09-2.3.19-4.61.32-6.91Z"/>
      <path class="cls-18" d="m482.73,380.72c-.07-3.08-.2-6.15-.39-9.23-.36-5.98-.95-11.92-1.79-17.85-.07-.48-.91-.38-.86.12.57,5.57,1.05,11.16,1.36,16.75.15,2.74.27,5.49.35,8.24.08,2.71.63,6.18-.54,8.71-.34.74.75,1.4,1.11.65,1.1-2.3.82-4.89.76-7.38Z"/>
      <path class="cls-19" d="m453.55,258.2c3.19,23.28,6,47.31,8.06,70.72.59,6.64,1.13,13.29,1.54,19.95.05.83-1.21.81-1.28,0-2.03-23.27-4.09-46.51-6.91-69.7-.81-6.65-1.6-14.06-2.5-20.7-.12-.86.97-1.15,1.09-.27Z"/>
      <path class="cls-62" d="m435.36,248.12s10.61-2.06,16.89-2.45c13.08-.82,17.71,1.36,18.25,1.09.54-.27-.54-3-.54-3.27s2.18-1.63,1.63-3.81c-.54-2.18-.82-3-.54-4.09.27-1.09,1.91-15.8,4.63-24.25.95-2.94,1.6-5.99,1.84-9.07.18-2.42.1-4.86-.36-7.24-.21-1.08-.36-2.14-.68-3.2-.36-1.19-.79-2.38-1.38-3.48-1.21-2.26-3.11-4.14-5.38-5.33-.28-.15-.57-.28-.88-.32-.25-.03-.5,0-.75.04-2.76.37-5.61.31-8.38-.09-3.55-.52-6.96-1.47-10.58-1.24-1.18.08-2.39.25-3.54.5-1.13.25-2.28.54-3.31,1.09-1.14.6-2.15,1.54-2.56,2.75-.2.59-.25,1.22-.3,1.84-.09,1.16-.19,2.33-.08,3.49.09.9.29,1.78.33,2.68.01.31.07.6.03.91-.03.26-.06.52-.09.77-.13,1.09-.25,2.17-.36,3.26-.25,2.38-.49,4.77-.71,7.16-.24,2.56-.46,5.11-.68,7.67-.22,2.59-.43,5.19-.63,7.78-.19,2.5-.38,4.99-.56,7.49-.17,2.26-.33,4.53-.48,6.8-.13,1.9-.26,3.8-.39,5.7-.09,1.4-.18,2.8-.27,4.2-.05.77-.1,1.54-.15,2.31,0,.11-.01.21-.02.32Z"/>
      <path class="cls-62" d="m439.72,188.18s-3.54,9.81-7.63,15.8c-4.09,5.99-2.72,11.44.27,19.34,3,7.9,15.26-19.89,15.26-19.89l-7.9-15.26Z"/>
      <path class="cls-62" d="m432.91,212.71s2.72-9.81,3.54-14.71c.82-4.9.54-11.99,5.45-14.71,4.9-2.72,12.26,2.18,14.71,9.54,2.45,7.36,1.63,10.9-.54,15.53-2.18,4.63-2.45,4.09-2.72,6.81-.27,2.72-2.18,6.81-2.18,6.81l-18.25-9.26Z"/>
      <path class="cls-33" d="m447.93,217.42s4.74,1.23,4.55.38c-.12-.53-.62-1.54-3.93-2.54-3.81-1.16-.62,2.16-.62,2.16Z"/>
      <path class="cls-49" d="m403.11,236.11c.04-.05-2.73-4-3.91-4.37-1.18-.37-5.97-1.29-7.21-.33-1.23.96-2.42,4.27-1.94,4.89-.28.38-.58.78-.71,1.23-.13.46-.08,1,.26,1.33.24.24.62.4.67.74.03.21-.09.42-.17.62-.3.8.22,1.8,1.05,2.01-.1.43-.2.88-.16,1.32.07.69.49,1.3,1.03,1.74.53.44,1.17.73,1.81,1,.66.28,1.39.56,2.09.39.61-.14,1.09-.59,1.54-1.02,1.42-1.39,2.8-2.89,3.63-4.7.85-1.85,1.83-2.82,2.02-4.85Z"/>
      <path class="cls-49" d="m402.12,235.34c3.07,2.08,5.66,2.88,15.66,2.66,11.76-.25,13.52,1.95,14.32-.74.8-2.69.77-24.17.77-24.17,0,0,5.26-1.45,17.05,2.63,0,0-1.74,15.1-2.8,23.96-.3,2.52-1.5,5.14-1.55,6.17-.14,3.06-3.8,2.26-9.99,3.25-15.89,2.54-29.8-5.99-39.29-2.93"/>
      <path class="cls-33" d="m456.74,196.94c-.97-4.15-2.99-8.31-6.52-10.85-3.23-2.32-7.77-2.88-11.12-.46-.23.17-.01.56.23.39,3.34-2.34,7.73-1.66,10.85.7,3.35,2.54,4.95,6.43,6.07,10.35.09.31.56.18.49-.13Z"/>
      <path class="cls-11" d="m437.07,160.65c.63-.93,2.87-.62,2.87-.62"/>
      <path class="cls-11" d="m437.32,163.5c.22,2.39-.29,5.18,1.61,4.55"/>
      <path class="cls-11" d="m440.14,171.17c1.32-.12,1.8-2.09,1.8-2.09"/>
    </g>
  </g>
  <g id="person_chatting_2" data-name="person chatting 2">
    <g>
      <path class="cls-70" d="m58.68,435.12c.35,1.58,2.12,6.43-4.83,6.72-6.95.29-14.28-1.13-16.66-5.21s-2.24-9.89-1.45-11.77,17.82,5.62,17.82,5.62l5.12,4.64Z"/>
      <path class="cls-31" d="m51.25,410.96c.58,3.22,2.38,10.94,4.25,15.7,1.87,4.76,6.5,10.29,0,10.94s-15.25-.19-17.11-4.12-1.16-4.05-2.51-6.69.26-7.33.71-10.81,11.52-7.91,11.52-7.91l3.15,2.9Z"/>
      <path class="cls-70" d="m106.59,428.8c2.32-.68,4.16-1.33,3.35-5.49s-14.12-1.59-14.12-1.59l-12.13-8.92s-12.65,2.49-13.73,4.25-.43,5.19,1.72,5.92,6.91.13,12.48,2.32c5.58,2.19,17.63,4.93,22.43,3.52Z"/>
      <path class="cls-31" d="m87.03,403.28c2.49,3.43,8.24,10.38,11.84,12.35s11.58,5.32,11.32,7.72-6.2,3.77-14.38,1.89c-8.18-1.89-9.9-6.18-14.79-6.52-4.89-.34-10.72,1.37-11.58-1.72s1.72-9.69,1.72-9.69l15.87-4.03Z"/>
      <path class="cls-38" d="m99.38,223.5c1.29,4.77,2.44,10.52,3.35,16.7s-7.31,38.6-7.31,38.6l-6.85-18.02,1.37-28.53,5.47-9.17,3.96.42Z"/>
      <path class="cls-65" d="m92.3,257.05c1.29,5.02,2.95,5.93,3.46,12.1s-3.94,70.22-4.97,75.54-2.23,53.79-1.8,58.34c0,0-3.65,7.03-8.99,8.13s-11.32-.51-11.32-.51c0,0-.02-48.29.84-59.44.86-11.15-5.05-43.76-5.05-43.76,0,0-4.9,33.98-8.67,43.76-3.77,9.79-3.43,58.43-3.35,60.92,0,0-5.38-.13-8.86,1.87-3.47,1.99-6.37,4.38-9.2,3.67,0,0-5.13-42.85-2.37-64.99,2.76-22.13,6.17-38.36,5.62-48.39s-3.31-39.95-1.06-50.05,20.07-21.97,20.07-21.97l23.16,19.11,12.48,5.69Z"/>
      <path class="cls-33" d="m92.4,181.95c4.66,8.96,5.86,24.4,6.12,27.49s0,9.84,0,9.84l-7.64,2.81-3.43-30.71,4.95-9.43Z"/>
      <path class="cls-44" d="m92.13,228.27c6.01-1.72,9.27-3,9.44-3.43s-.64-7.94-.64-7.94l-10.98,2.53,2.19,8.84Z"/>
      <polyline class="cls-33" points="75.03 155.82 78.49 159.9 79.52 165.13 76.26 162.99 73.77 164.32 74.29 155.61 75.03 155.82"/>
      <path class="cls-38" d="m54.45,152.37c3.29,3.09,8.02,10.57,12.18,12.22,1.84.73,5.17,4.22,7.14,3.67,1.7-.47,1-16.56,1.48-18.18-.43-.9-.91-1.74-1.44-2.51l-3.29-2.89-10.26-12.12s2.85,11.44-5.83,19.81Z"/>
      <path class="cls-38" d="m87.92,122.76c-.14,1.35-.23,2.69-.26,4.1-.12,4.9-.35,9.93-1.47,14.72-.39,1.66-.87,3.58-2.04,4.88-2.1,2.32-7.7,2.5-10.36,2.14-8.17-1.1-12.18-3.97-13.14-12.8,0,0-6.81-2.89-4.33-8.98.4-.99,1.08-1.94,2.18-2.16,1.33-.26,1.63-.11,1.63-1.8,0-1.26.06-2.52.3-3.76,1.03-5.23,5.6-9.56,10.88-10.31,2.46-.35,5.51-.6,7.96-.05,2.57.58,3.9,2.12,5.67,3.86,1.96,1.93,3.69,4.98,3.29,7.82-.11.79-.21,1.57-.29,2.35Z"/>
      <path class="cls-43" d="m85.97,138.45c-1.05-.58-3.03-1.13-6.12-.78-3.23.37-5.51,2.38-9.35-.4-1.67-1.21-2.67-3.21-3.39-5.09-.36-.94-.63-1.91-.91-2.88-.32-1.12-.82-1.91-.36-3.12.29-.75.78-1.41,1.17-2.11.6-1.07,1-2.26,1.16-3.48.15-1.15-.51-2.5-1.3-3.3-.42-.42-.93-.77-1.22-1.28-.49-.86-.23-2,.4-2.77.63-.77,1.55-1.23,2.47-1.6,1.21-.49,2.6-.79,3.87-.41.96.29,1.67.85,2.52,1.33.98.55,1.89,1.22,2.84,1.83,1.16.74,2.41,1.39,3.77,1.56,1.41.17,2.6-.59,3.91-.96.25-.07.52-.13.77-.08.47.08,1.13.74,1.22,1.21-.08-.38-.56-3.05-2.98-5.43-1.37-1.36-3.21-2.22-5.03-2.87-3.09-1.1-6.07-1.55-9.26-.79-2.68.64-5.77,1.71-9.21,4.69-3.7,3.21-2.78,11.82-2.46,12.9,0,0,1.77-.08,2.48.29,2.02,1.04,2.04,4.11,1.87,6.08-.06.74-.13,1.51-.19,2.22-.27,3.17.06,6.38,1.13,9.38,2.34,6.56,7.09,10.47,13.13,10.33,10.65-.26,10.15-10.53,9.82-13.29-.06-.5-.35-.94-.79-1.18Z"/>
      <path class="cls-11" d="m75.62,129.71s-2.18-1.44-3.7.4"/>
      <path class="cls-11" d="m87.04,129.26s-2.18-1.44-3.7.4"/>
      <path class="cls-11" d="m80.51,144.2s-5.9.51-6.74-1.87"/>
      <path class="cls-11" d="m79.72,134.56s1.4-.25,1.57-1.23-1.29-.64-1.29-.64l.13-.88"/>
      <path class="cls-33" d="m52.86,147.67l18.98,11.11,1.29,8.79,1.42-2.96s1.54,1.97,3.99,2.1,2.9,1.93,4.95,2.38,10.75,9.07,9.72,21.3c-1.03,12.22-1.42,26.38-1.42,28.95s3.99,18.02,3.6,27.15-3.09,10.55-3.09,10.55c0,0-14.8,3.6-29.47-1.03s-22-5.15-26.25-1.8l3.43-80.94s-8.84-9.65-5.88-11.26c2.17-1.18,11.04-2.47,16.02-7.21,1.82-1.73,1.94-4.61,2.7-7.14Z"/>
      <polyline class="cls-10" points="52.02 155.91 60.9 162.02 67.08 158.29"/>
      <path class="cls-2" d="m73.39,170.45c2.23,9.52,7.98,22,6.82,30.5s.51,19.66.45,29.53c-.06,11.45-1.42,20.59-5.34,25.87"/>
      <path class="cls-33" d="m35.51,161.48c-7.25,2.88-13.34,12.32-12.82,28.62.51,16.3,1.03,32.6,1.8,35s3.85-3.77,9.04-3.43,7.36,3.09,7.36,3.09c0,0,9.07-31.49,8.56-42.98-.64-14.48-13.94-20.29-13.94-20.29Z"/>
      <path class="cls-2" d="m44.01,210.13c2.4-9.82,4.98-22.08,4.7-28.36-.45-10.15-7.12-16.04-11.07-18.66"/>
      <path class="cls-44" d="m20.28,218.15c2.14,5.15,3.34,7.35,4.59,7.47s5.67-3.82,8.37-3.39,7.38,2.66,7.38,2.66l3.15-10.8s-4.8-2.52-10.78-2.39-12.7,6.46-12.7,6.46Z"/>
      <path class="cls-38" d="m25.09,223.38c1.37,6.43,4.55,22.86,9.31,29.94s7.72,13,7.72,16.34,1.07,11.06,1.07,11.06c0,0,8.62-12.61,8.79-14.97s-4.98-13.85-5.55-17.65-.45-9.46-1.99-13.25-5.02-12.03-5.02-12.03l-8.3-3.54-6.03,4.1Z"/>
      <path class="cls-2" d="m91.84,216.19c.21-6.31-1.09-12.9-.91-25.8"/>
      <path class="cls-6" d="m78.92,266.58c-.26,10.17,1.93,19.43-4.63,20.07"/>
      <path class="cls-6" d="m56.14,262.84c-2.57,8.11-9.39,15.96-14.16,23.03"/>
      <line class="cls-6" x1="63.9" y1="258" x2="62.99" y2="264.13"/>
      <line class="cls-6" x1="65.95" y1="258" x2="65.34" y2="264.52"/>
      <line class="cls-6" x1="87.92" y1="258.91" x2="88.81" y2="265.23"/>
      <line class="cls-6" x1="89.98" y1="258.91" x2="90.97" y2="264.57"/>
    </g>
  </g>
  <g id="desk">
    <g>
      <rect class="cls-29" x="678.49" y="337.22" width="326.68" height="16.47"/>
      <rect class="cls-34" x="693.89" y="353.7" width="305.1" height="141.78"/>
      <rect class="cls-29" x="691.5" y="353.7" width="10.85" height="181.62"/>
      <rect class="cls-36" x="702.35" y="353.7" width="3.12" height="181.62"/>
      <rect class="cls-29" x="719.08" y="495.48" width="10.85" height="39.84"/>
      <rect class="cls-36" x="729.94" y="495.48" width="3.12" height="39.84"/>
      <rect class="cls-30" x="691.62" y="353.7" width="307.55" height="8.24"/>
    </g>
    <rect class="cls-34" x="856.54" y="332.87" width="30.4" height="4.36" rx="2.18" ry="2.18"/>
    <rect class="cls-57" x="876.26" y="277.04" width="79.9" height="60.19" rx="7.46" ry="7.46"/>
    <circle class="cls-41" cx="915.7" cy="306.64" r="6.27"/>
  </g>
</svg>