<?xml version="1.0" encoding="UTF-8"?><svg id="_1" xmlns="http://www.w3.org/2000/svg" viewBox="0 0 944 155.04"><defs><style>.cls-1{stroke-width:1.82px;}.cls-1,.cls-2,.cls-3,.cls-4,.cls-5,.cls-6,.cls-7{stroke:#000e2f;stroke-linecap:round;stroke-linejoin:round;}.cls-1,.cls-2,.cls-8,.cls-6{fill:#fff;}.cls-2,.cls-5,.cls-6{stroke-width:1.82px;}.cls-2,.cls-7{fill-rule:evenodd;}.cls-3,.cls-4,.cls-5,.cls-7{fill:none;}.cls-3,.cls-7{stroke-width:1.82px;}.cls-4{stroke-width:1.82px;}.cls-9{fill:#343e50;}.cls-10{fill:#000e2f;}.cls-11{fill:#11436e;}.cls-12{fill:#164c7a;}.cls-13{fill:#023156;}</style></defs><path class="cls-11" d="m768.25,86.48c-11.9,0-22.32,5.78-28.51,15.4-2.61,4.03-5.47,9.69-7.1,12.35V41.11c1.63,2.65,4.48,8.31,7.1,12.35,6.2,9.63,16.61,15.41,28.51,15.41s22.35-5.78,28.55-15.41c2.61-4.03,5.45-9.7,7.09-12.35v73.12c-1.64-2.65-4.48-8.31-7.09-12.35-6.2-9.62-16.63-15.4-28.55-15.4Z"/><path class="cls-10" d="m176.6,86.48c-11.91,0-22.33,5.78-28.53,15.4-2.61,4.03-5.45,9.69-7.09,12.35V41.11c1.63,2.65,4.48,8.31,7.09,12.35,6.2,9.63,16.62,15.41,28.53,15.41s22.33-5.78,28.53-15.41c2.6-4.03,5.45-9.7,7.09-12.35v73.12c-1.64-2.65-4.49-8.31-7.09-12.35-6.2-9.62-16.62-15.4-28.53-15.4Z"/><path class="cls-9" d="m373.77,86.48c-11.92,0-22.34,5.78-28.53,15.4-2.61,4.04-5.46,9.69-7.09,12.35V41.11c1.63,2.65,4.47,8.31,7.09,12.35,6.2,9.63,16.61,15.41,28.53,15.41s22.33-5.78,28.52-15.41c2.61-4.03,5.46-9.7,7.1-12.35v73.12c-1.64-2.65-4.49-8.3-7.1-12.35-6.19-9.62-16.61-15.4-28.52-15.4Z"/><path class="cls-13" d="m571.01,86.5c-11.91,0-22.34,5.77-28.53,15.38-2.6,4.05-5.45,9.7-7.09,12.35V41.1c1.64,2.68,4.49,8.32,7.09,12.37,6.19,9.62,16.62,15.39,28.53,15.39s22.34-5.77,28.54-15.39c2.61-4.05,5.45-9.69,7.1-12.37v73.13c-1.64-2.65-4.48-8.3-7.1-12.35-6.2-9.62-16.62-15.38-28.54-15.38Z"/><path class="cls-10" d="m151.7,77.67c0,40.7-33,73.71-73.72,73.71S4.27,118.37,4.27,77.67,37.28,3.95,77.98,3.95s73.72,33,73.72,73.72Z"/><path class="cls-8" d="m132.05,77.37c0,29.86-24.21,54.07-54.07,54.07s-54.07-24.21-54.07-54.07,24.21-54.07,54.07-54.07,54.07,24.21,54.07,54.07Z"/><path class="cls-9" d="m349.24,77.67c0,40.7-33,73.71-73.72,73.71s-73.71-33.01-73.71-73.71S234.81,3.95,275.52,3.95s73.72,33,73.72,73.72Z"/><path class="cls-8" d="m329.59,80.37c0,29.86-24.21,54.07-54.06,54.07s-54.07-24.21-54.07-54.07,24.22-54.07,54.07-54.07,54.06,24.21,54.06,54.07Z"/><path class="cls-13" d="m546.11,77.67c0,40.7-33.01,73.71-73.71,73.71s-73.72-33.01-73.72-73.71S431.69,3.95,472.4,3.95s73.71,33,73.71,73.72Z"/><path class="cls-8" d="m526.46,77.37c0,29.86-24.21,54.07-54.06,54.07s-54.07-24.21-54.07-54.07,24.2-54.07,54.07-54.07,54.06,24.21,54.06,54.07Z"/><path class="cls-11" d="m743.66,77.67c0,40.7-33.01,73.71-73.71,73.71s-73.72-33.01-73.72-73.71S629.23,3.95,669.95,3.95s73.71,33,73.71,73.72Z"/><path class="cls-8" d="m724.01,77.37c0,29.86-24.21,54.07-54.06,54.07s-54.07-24.21-54.07-54.07,24.2-54.07,54.07-54.07,54.06,24.21,54.06,54.07Z"/><path class="cls-12" d="m940.91,77.67c0,40.7-33,73.71-73.72,73.71s-73.71-33.01-73.71-73.71S826.48,3.95,867.19,3.95s73.72,33,73.72,73.72Z"/><path class="cls-8" d="m921.27,77.37c0,29.86-24.22,54.07-54.07,54.07s-54.06-24.21-54.06-54.07,24.21-54.07,54.06-54.07,54.07,24.21,54.07,54.07Z"/><polyline class="cls-1" points="874.95 126.67 847.1 98.83 862.37 83.56 890.22 111.41"/><path class="cls-8" d="m888.36,92.06l-4.06,4.18s-.44,7.1-2.09,10.52-2.66,7.04-3.17,9.13-2.54,5.39-5.01,3.87c-2.47-1.52.32-10.4.32-10.4l-13.38,13.06s-3.87.13-3.36-3.23l-3.87,2.98s-5.71-.64-2.47-4.82l1.78-1.65s-3.66-.19-3.32-2.47,2.56-4.12,2.56-4.12c0,0-5.25-1.09-2.56-4.82s16.51-15.66,16.51-15.66l6.09-2.35,5.58-4.56,10.46,10.33Z"/><path class="cls-7" d="m888.78,91.64l-4.38,4.38s-.35,7.5-2.61,11.44c-2.26,3.94-2.23,8.72-4.23,11.16s-6.75.62-2.74-9.67l-12,12s-2.19,2.85-4.38.66.33-4.12.33-4.12l8.85-8.88"/><path class="cls-7" d="m863.77,105.12l-11.96,11.96s-2.08,1.93-.11,3.9,3.82-.27,5.79-2.24"/><path class="cls-7" d="m856.55,112.33c-1.97,1.97-3.82,4.21-5.79,2.24s.11-3.9.11-3.9l10.18-10.18"/><path class="cls-7" d="m856.09,105.44c-1.97,1.97-3.82,4.21-5.79,2.24s.11-3.9.11-3.9l10.18-10.18,2.91-2.91s4.62-4.21,9.1-4.46l5.38-5.38"/><polyline class="cls-1" points="915.84 69.14 888 96.99 872.73 81.72 900.58 53.87"/><path class="cls-8" d="m881.8,56.15l4.18,4.06s7.1.44,10.52,2.09,7.04,2.66,9.13,3.17,5.39,2.54,3.87,5.01-10.4-.32-10.4-.32l13.06,13.38s.13,3.87-3.23,3.36l2.98,3.87s-.64,5.71-4.82,2.47l-1.65-1.78s-.19,3.66-2.47,3.32-4.12-2.56-4.12-2.56c0,0-1.09,5.25-4.82,2.56s-15.66-16.51-15.66-16.51l-2.35-6.09-4.56-5.58,10.33-10.46Z"/><path class="cls-7" d="m881.38,55.73l4.38,4.38s7.5.35,11.44,2.61,8.72,2.23,11.16,4.23.62,6.75-9.67,2.74l12,12s2.85,2.19.66,4.38-4.12-.33-4.12-.33l-8.88-8.85"/><path class="cls-7" d="m894.86,80.74l11.96,11.96s1.93,2.08,3.9.11-.27-3.82-2.24-5.79"/><path class="cls-7" d="m902.07,87.97c1.97,1.97,4.21,3.82,2.24,5.79s-3.9-.11-3.9-.11l-10.18-10.18"/><path class="cls-7" d="m895.18,88.43c1.97,1.97,4.21,3.82,2.24,5.79s-3.9-.11-3.9-.11l-10.18-10.18-2.91-2.91s-4.21-4.62-4.46-9.1l-5.38-5.38"/><polyline class="cls-1" points="858.88 28.67 886.73 56.51 871.46 71.78 843.62 43.93"/><path class="cls-8" d="m846.03,62.31l4.06-4.18s.44-7.1,2.09-10.52,2.66-7.04,3.17-9.13,2.54-5.39,5.01-3.87-.32,10.4-.32,10.4l13.38-13.06s3.87-.13,3.36,3.23l3.87-2.98s5.71.64,2.47,4.82l-1.78,1.65s3.66.19,3.32,2.47-2.56,4.12-2.56,4.12c0,0,5.25,1.09,2.56,4.82-2.7,3.73-16.51,15.66-16.51,15.66l-6.09,2.35-5.58,4.56-10.46-10.33Z"/><path class="cls-7" d="m845.62,62.73l4.38-4.38s.35-7.5,2.61-11.44c2.26-3.94,2.23-8.72,4.23-11.16s6.75-.62,2.74,9.67l12-12s2.19-2.85,4.38-.66-.33,4.12-.33,4.12l-8.85,8.88"/><path class="cls-7" d="m870.62,49.25l11.96-11.96s2.08-1.93.11-3.9-3.82.27-5.79,2.24"/><path class="cls-7" d="m877.85,42.04c1.97-1.97,3.82-4.21,5.79-2.24s-.11,3.9-.11,3.9l-10.18,10.18"/><path class="cls-7" d="m878.31,48.93c1.97-1.97,3.82-4.21,5.79-2.24s-.11,3.9-.11,3.9l-10.18,10.18-2.91,2.91s-4.62,4.21-9.1,4.46l-5.38,5.38"/><polyline class="cls-1" points="818.55 85.23 846.4 57.38 861.66 72.65 833.82 100.5"/><path class="cls-8" d="m852.5,99.32l-4.18-4.06s-7.1-.44-10.52-2.09-7.04-2.66-9.13-3.17-5.39-2.54-3.87-5.01,10.4.32,10.4.32l-13.06-13.38s-.13-3.87,3.23-3.36l-2.98-3.87s.64-5.71,4.82-2.47l1.65,1.78s.19-3.66,2.47-3.32,4.12,2.56,4.12,2.56c0,0,1.09-5.25,4.82-2.56s15.66,16.51,15.66,16.51l2.35,6.09,4.56,5.58-10.33,10.46Z"/><path class="cls-7" d="m852.92,99.74l-4.38-4.38s-7.5-.35-11.44-2.61c-3.94-2.26-8.72-2.23-11.16-4.23s-.62-6.75,9.67-2.74l-12-12s-2.85-2.19-.66-4.38,4.12.33,4.12.33l8.88,8.85"/><path class="cls-7" d="m839.44,74.74l-11.96-11.96s-1.93-2.08-3.9-.11.27,3.82,2.24,5.79"/><path class="cls-7" d="m832.23,67.51c-1.97-1.97-4.21-3.82-2.24-5.79s3.9.11,3.9.11l10.18,10.18"/><path class="cls-7" d="m839.12,67.05c-1.97-1.97-4.21-3.82-2.24-5.79s3.9.11,3.9.11l10.18,10.18,2.91,2.91s4.21,4.62,4.46,9.1l5.38,5.38"/><path class="cls-1" d="m866.01,87.2l-3.64-3.64-15.27,15.27,4.13,4.13,11.6-11.6s2.58-2.35,4.15-3.18l-.97-.97Z"/><path class="cls-7" d="m481.27,56.67c-7.98,0-8.98,6.38-8.98,6.38,0,0-1-6.38-8.98-6.38s-9.91,7.77-8.98,11.92c2.47,10.98,17.95,18.67,17.95,18.67,0,0,15.48-7.69,17.95-18.67.93-4.15-1.3-11.92-8.98-11.92"/><path class="cls-3" d="m502.99,45.57h-61.38c-4.33,0-7.83,3.51-7.83,7.83v36.45c0,4.33,3.51,7.83,7.83,7.83h34.05l20.52,16.99c2.12,1.75,5.23-.27,4.5-2.92l-3.92-14.07h6.23c4.33,0,7.83-3.51,7.83-7.83v-36.45c0-4.33-3.51-7.83-7.83-7.83Z"/><rect class="cls-3" x="633.55" y="76.9" width="10.96" height="30.8"/><polygon class="cls-7" points="700.88 45.47 690.4 45.47 690.4 34.99 672.77 34.99 672.77 45.47 662.29 45.47 662.29 63.09 672.77 63.09 672.77 73.57 690.4 73.57 690.4 63.09 700.88 63.09 700.88 45.47"/><path class="cls-7" d="m644.51,84.53s6.27-4.29,16.16-3.93,14.05,5.6,14.05,5.6h10.24s3.93-.48,4.29,1.91-1.15,3.81-7.66,4.88-11.87,0-11.87,0"/><path class="cls-7" d="m644.51,101.79l29.73.83s5.24.83,12.74-3.1,17.39-11.31,17.39-11.31c0,0,2.62-2.02.6-5.24-2.02-3.22-15.72,5.12-15.72,5.12"/><ellipse class="cls-5" cx="275.13" cy="59.19" rx="6.99" ry="9.12"/><line class="cls-5" x1="275.13" y1="37.33" x2="275.13" y2="45.45"/><line class="cls-5" x1="285.93" y1="40.51" x2="281.26" y2="47.15"/><line class="cls-5" x1="293.61" y1="47.95" x2="286.82" y2="52.39"/><line class="cls-5" x1="256.41" y1="48.29" x2="263.2" y2="52.73"/><line class="cls-5" x1="263.47" y1="40.51" x2="268.14" y2="47.15"/><line class="cls-5" x1="297.32" y1="59.03" x2="289.2" y2="59.03"/><line class="cls-5" x1="260.99" y1="59.03" x2="252.87" y2="59.03"/><path class="cls-2" d="m305.49,93.54c-2.94-4.12-6.81-4.93-9.18-9.43-2.37-4.5-5.62-15.3-11.24-15.3,0,0-4.1,3.85-9.88,3.87-5.78-.02-9.88-3.87-9.88-3.87-5.62,0-8.87,10.8-11.24,15.3-2.37,4.5-6.25,5.31-9.18,9.43s1.75,9.81,7.34,5.35,11.02-14.35,11.02-14.35c0,5.75,3.06,14.35,3.06,14.35h-9.69c6.86,8.61,14.36,9.48,18.56,9.11,4.2.37,11.7-.5,18.56-9.11h-9.69s3.06-8.6,3.06-14.35c0,0,5.42,9.9,11.02,14.35s10.28-1.23,7.34-5.35Z"/><rect class="cls-6" x="281.25" y="92.33" width="9.62" height="31.85" rx="4.81" ry="4.81" transform="translate(251.63 -195.66) rotate(62.81)"/><rect class="cls-6" x="258.27" y="92.33" width="9.62" height="31.85" rx="4.81" ry="4.81" transform="translate(479.59 -76.28) rotate(117.19)"/><rect class="cls-4" x="50.82" y="55.3" width="8.69" height="46.41" rx="2.13" ry="2.13"/><rect class="cls-4" x="42.13" y="59" width="8.69" height="39.01" rx="1.95" ry="1.95"/><rect class="cls-4" x="33.44" y="64.8" width="8.69" height="27.4" rx="1.64" ry="1.64"/><rect class="cls-4" x="96.3" y="55.2" width="8.69" height="46.41" rx="2.13" ry="2.13" transform="translate(201.28 156.81) rotate(180)"/><rect class="cls-4" x="104.99" y="58.9" width="8.69" height="39.01" rx="1.95" ry="1.95" transform="translate(218.66 156.81) rotate(180)"/><rect class="cls-4" x="113.67" y="64.7" width="8.69" height="27.4" rx="1.64" ry="1.64" transform="translate(236.04 156.81) rotate(180)"/><rect class="cls-4" x="59.51" y="74.78" width="36.79" height="8.28"/></svg>