<?xml version="1.0" encoding="UTF-8"?><svg xmlns="http://www.w3.org/2000/svg" viewBox="0 0 600 400"><defs><style>.cls-1,.cls-2{fill:#fff;}.cls-3{fill:#000e2f;}.cls-4{fill:#11436e;}.cls-5{fill:#442702;}.cls-6{fill:#dde6ed;}.cls-7{fill:#333;}.cls-2{opacity:.7;}.cls-8{fill:#5581a7;}.cls-9{fill:#c6d5e2;}.cls-10{fill:#ffbc8f;}.cls-11{fill:none;stroke:#333;stroke-linecap:round;stroke-linejoin:round;stroke-width:2.14px;}.cls-12{fill:#1a1a1a;}.cls-13{fill:#cecece;}.cls-14{fill:#f4aa78;}</style></defs><g id="Layer_1"><rect class="cls-8" x="-3.04" y="-10.59" width="613.79" height="420.56"/></g><g id="_ëîé_1"><rect class="cls-4" x="3.08" y="349.8" width="596.92" height="60.17"/><path class="cls-3" d="m218.25,349.69s-26.74-158.88-16.81-180.13c9.92-21.25,225.22-23.56,232.99-5.08,7.77,18.47-1.98,185.33-1.98,185.33l-214.19-.12Z"/><path class="cls-1" d="m178.57,266.34s6.04-12.51,9.06-16.83c3.02-4.31,5.18-7.77,5.18-9.06s-3.45-6.47,0-9.06c3.45-2.59,6.47-5.18,6.47-5.18,0,0,3.02-30.2,12.08-42.71,9.06-12.51,25.02-17.69,29.77-19.42,4.75-1.73,14.24-9.92,18.55-12.08,4.31-2.16,25.46-6.04,25.46-6.04,0,0,1.64-4.75,9.66-4.75s64.97,7.28,64.97,7.28c0,0,13.82-2.53,16.84-.38,3.02,2.16,4.31,7.33,6.04,6.9,1.73-.43,37.97,22.87,40.99,32.36,3.02,9.49,4.31,30.63,7.77,35.38,3.45,4.75,6.04,7.33,6.47,10.79s-2.59,9.06-1.29,12.94c1.29,3.88-1.73,69.9-1.73,69.9l-204.51-18.12s-14.24,19.85-24.59,26.32c-10.35,6.47-27.18-58.25-27.18-58.25Z"/><path class="cls-13" d="m294.2,145.96c-.43-.43-6.47.86-6.9,9.06-.43,8.2,0,11.22,0,11.22l10.36,4.31,9.06-9.92-12.51-14.67Z"/><path class="cls-14" d="m291.61,141.22s1.73,13.38-.43,18.12c-2.16,4.75-3.88,6.9-3.88,6.9,0,0,3.02,29.34,9.06,36.24,6.04,6.9,10.36,6.04,13.38,8.63,3.02,2.59,7.77,18.12,7.77,18.12,0,0,1.73-10.36,7.33-23.3,5.61-12.94,3.02-16.4,5.61-17.69,2.59-1.29,10.35-2.59,13.38-3.02,3.02-.43,2.59-42.71,2.59-42.71l-54.8-1.29Z"/><path class="cls-14" d="m370.13,81.25s6.9-3.88,7.33,3.02c.43,6.9-4.31,25.02-10.36,26.32-6.04,1.29-7.33-13.38-7.33-13.38l10.36-15.96Z"/><path class="cls-5" d="m376.61,37.24c-5.97-21.48-33.65-27.18-63.42-17.26-2.46.82-4.72,1.63-6.78,2.42-7.8,4.29-14.71,9.83-21.95,15.23-.2.15-.4.26-.61.36-.01.03-.03.07-.04.1-.07,0-.16,0-.23.01-.5.2-.99.24-1.45.17-3.35.57-9.54,2.85-10.79,11.89-1.73,12.51,7.77,38.83,7.77,38.83,0,0,2.59,28.48,3.45,34.09.86,5.61,4.75,4.75,4.75,4.75.86,12.94,3.88,28.48,14.24,35.81,10.35,7.33,42.28,6.9,55.66-8.63,7.44-8.64,8.2-22.44,9.49-32.79,1.29-10.35.92-20.26,4.31-31.07,4.75-15.1,3.88-28.04,3.88-28.04,0,0,6.04-10.35,1.73-25.89Z"/><path class="cls-14" d="m364.09,85.56c-3.02-5.61-39.26-3.45-53.93-19.85,0,0-17.69,9.49-20.28,15.53-2.59,6.04-1.73,24.59,0,31.93,1.73,7.33,9.92,25.89,12.94,25.89s20.53-8.93,27.61-7.33l19.85,3.88c3.45-2.16,11.17-12.57,12.94-19.42s3.2-26.3.86-30.63Z"/><path class="cls-14" d="m278.88,78.01s3.02,12.94,4.31,23.3c1.29,10.36.43,10.79.43,10.79,0,0-9.49,2.16-15.53-12.08-6.08-14.32,2.16-23.73,10.79-22Z"/><path class="cls-1" d="m185.04,269.79s16.83,10.79,18.55,15.1c1.73,4.31,0,11.22,0,11.22,0,0,11.65,14.67,10.36,22.87-1.29,8.2-15.96,22.44-31.5,22.87-15.53.43-18.98-3.88-18.98-3.88,0,0-2.59,3.02-4.31,2.16-1.73-.86-9.06-10.79-11.22-12.51-2.16-1.73-3.88-3.02-3.88-4.75s-1.29-28.04,1.29-34.95c2.59-6.9,39.69-18.12,39.69-18.12Z"/><path class="cls-10" d="m131.32,194.94s6.04,80.68,12.08,94.92c6.04,14.24,17.26,28.48,31.93,28.48s18.98-25.02,17.26-33.65c-1.73-8.63-3.88-13.38-5.61-15.96s-13.38-20.28-17.69-44.01c-4.31-23.73-5.18-40.56-5.18-40.56,0,0,7.12-27.83,6.04-35.81-.52-3.87-5.61-17.26-8.63-25.02-3.02-7.77-6.47-13.81-10.79-5.18-4.31,8.63-30.2,44.01-30.2,44.01l10.79,32.79Z"/><path class="cls-2" d="m156.24,140.3s4.21,3.08,11.54,2.65c7.33-.43,15.1-2.16,15.53-4.31.35-1.74,10.79-1.73,10.79-1.73,0,0,3.02,1.29,13.38-.43,10.36-1.73,15.53-4.75,14.24-7.33-1.29-2.59-28.91,6.47-28.91,6.47l-10.36,1.73-26.27,1.53.06,1.43Z"/><path class="cls-12" d="m150.52,126.12s-2.59-41.85,1.29-50.91,13.81-19.42,15.1-18.12c1.29,1.29.43,5.18-.86,6.47-1.29,1.29-11.87,11-12.73,13.16-.86,2.16,0,43.15,0,45.73,0,3.4.05,7.12.7,10.45.02.11.04.22.11.3.07.09.17.14.27.18.43.16.92.09,1.36.24.46.17.8.58,1.02,1.02.21.45.31.93.44,1.41.49,1.75,2.18,1.46,3.66,1.49,1.58.04,3.16.03,4.74.02,3.32-.04,6.64-.15,9.95-.33,1.53-.08,3.07-.17,4.6-.29.6-.05,1.51.02,2.07-.25.86-.43.86-3.45,2.16-3.88.89-.3,1.9,1.2,2.41,1.72.99,1.02,2.05,1.73,3.48.89.78-.46,1.14-1.39,1.43-2.26.26-.77.59-1.93,1.35-2.38.7-.42,1.81-.14,2.51.14,1.27.51,2.5,1.88,3.93,1.88,1.73,0,17.69-5.61,17.69-5.61,0,0,.43-3.88,1.29-4.31.86-.43,1.73-.43,1.73-.43,0,0-2.52-27.55-3.45-33.65-1.94-12.73-8.2-28.04-8.2-32.79s-.43-5.61.86-5.61,2.44,3.25,2.82,4.12c.7,1.61.93,3.69.91,5.43-.01,1.21-.13,2.43.04,3.62.19,1.33.88,2.6,1.26,3.91.38,1.32.74,2.65,1.09,3.98,1.73,6.59,2.93,11.74,4.01,18.85,1.05,6.94,2.8,39.48,2.8,39.48,0,0-3.45.43-8.63,1.73-5.18,1.29-17.69,6.47-18.98,6.04-1.29-.43-5.61-.43-6.04.43-.43.86-2.16,1.73-6.04.86-3.88-.86-26.32,2.16-28.48,1.29-2.16-.86-2.59-6.04-3.67-14.02Z"/><path class="cls-10" d="m132.18,195.8s-5.18-5.18-7.77-10.79c-2.59-5.61-8.63-15.1-10.35-17.26-2.19-2.74-2.72-7.99-2.19-11.38.57-3.64,3.02-7.2,6.59-8.09.51-3.18,1.08-6.42,2.65-9.22,1.57-2.81,4.34-5.15,7.56-5.33.22-.01.46-.02.64-.15.21-.16.28-.44.33-.7.43-1.92,1.27-3.74,2.46-5.31,0,0-.79-11.6,2.66-13.76,3.45-2.16,6.9-1.29,10.79.86,3.88,2.16,11.65,6.04,13.38,9.49,1.73,3.45-3.02,8.2-4.31,8.63,0,0,4.31,5.18,4.75,13.38.43,8.2-2.59,8.63-4.31,8.63,0,0,3.88,16.83,2.16,23.73-1.73,6.9-25.02,17.26-25.02,17.26Z"/><path class="cls-6" d="m310.16,347.89s-98.8,0-101.39,1.73c-2.59,1.73,16.83,44.87,20.71,47.46.35.23,1.04,1.67,4.31,1.73,33.52.61,206.94-8.27,209.69-9.06,3.02-.86.86-10.36.86-10.36l-134.18-31.5Z"/><path class="cls-7" d="m228.18,384.99s-10.36-22.44-9.92-24.59,28.48-1.29,28.48-1.29l-18.55,25.89Z"/><path class="cls-5" d="m283.8,38.11s11.31-14.94,37.57-20.48c26.26-5.54-21.28,28.52-21.28,28.52l-16.29-8.04Z"/></g><g id="Isolation_Mode"><path class="cls-11" d="m329.18,131.05s6.42-1.52,6.55-4.93c.12-3.41-6.55-1.52-6.55-1.52v-3.03"/><path class="cls-11" d="m360.68,114.96s-7.15-8.72-15.77-3.06"/><path class="cls-11" d="m319.55,113.46s-8.68-7.2-16.07,0"/><path class="cls-10" d="m360.21,264.18s-25.46-66.88-27.18-69.03c-1.73-2.16-22.87-15.1-28.04-23.73-5.18-8.63-15.53-30.2-15.1-33.22s1.73-6.47,1.73-6.47c0,0-7.33-9.92-1.73-12.51,0,0-3.88-6.47-2.16-9.49,1.73-3.02,6.04-1.73,6.04-1.73,0,0,2.59-6.04,10.35-2.16,7.77,3.88,31.5,37.11,36.24,36.24,4.75-.86,6.47-6.9,6.47-13.81s10.36-18.55,15.96-14.67c5.61,3.88-3.45,13.38-3.45,25.46s3.45,28.04,9.06,41.42c5.61,13.38,37.54,75.51,37.54,75.51l-45.73,8.2Z"/><path class="cls-9" d="m234.22,395.35s-8.2,0-8.2-12.08,3.02-133.75,3.02-133.75c0,0-.86-6.47,9.49-7.33,10.35-.86,216.16-2.16,216.16-2.16,0,0,9.06-.86,8.2,9.06-.86,9.92-12.08,130.73-12.08,130.73,0,0,0,6.47-10.35,7.33-10.36.86-206.24,8.2-206.24,8.2Z"/><path class="cls-6" d="m454.7,240.02s-205.81,1.29-216.16,2.16c-10.35.86-9.49,7.33-9.49,7.33,0,0-3.02,121.67-3.02,133.75,0,7.72,3.35,10.5,5.76,11.51-1.45-.9-3.75-3.1-4.04-8.06-.43-7.33,3.45-137.2,3.45-137.2,0,0,.43-5.61,7.33-6.04,6.9-.43,218.32-1.73,218.32-1.73,0,0,6.67.07,5.92,8.66.05-.56.09-1,.12-1.33.86-9.92-8.2-9.06-8.2-9.06Z"/></g></svg>