<svg xmlns="http://www.w3.org/2000/svg" viewBox="0 0 600 400"><defs><clipPath id="clippath"><path fill="none" d="M.69-419.74h600v400H.69z"/></clipPath><style>.cls-1{stroke:#eaea8b;fill:none;stroke-miterlimit:10;stroke-width:2.43px}.cls-8{fill:#c47f6c}.cls-10{fill:#d89680}.cls-14{fill:#b9c1c6}</style></defs><g id="Layer_1"><path fill="#5581a7" d="M-11.3-5.18h613.79v420.56H-11.3z"/><path class="cls-8" d="M246.3 181.99l-3.57 16.55s2.65 4.6 9.43 3.07l-3.83-14.14-2.03-5.48zm65.74-3.74l.88 12.09s9.28-1.34 9.23-12.87c-.05-11.53-11.01-13.19-11.01-13.19l.9 13.97z"/><path class="cls-10" d="M247.56 187.46l61.92-9.21-.89-29.52-24.97-16.94-23.7 2.42-18.6 15.42 1.91 22.42 4.33 15.41z"/><path d="M247.82 167.08s6.5-11.75 6.13-21.66c0 0 14 4.08 24.7-2.8 0 0 6.12 10.19 18.09 6.12 0 0 2.04 8.66 8.15 9.94l4.59 19.57h2.56v-55.69s-2.3-8.09-10.84-8.47c0 0-8.92-15.16-22.42-4.71 0 0-10.7-6.88-17.58.25 0 0-16.56-5.86-18.6 9.81 0 0-11.51 2.4-12 15.15l16.97 52.88 1.78-1.91-1.53-18.47z" fill="#6b320b"/><path class="cls-14" d="M218.19 171.95s4.25 2.08 4.62 7.69c0 0-4.25 1.38-6.69 1.01l-1.18-5.53 3.26-3.17z"/><path class="cls-10" d="M224.2 207.3s11.1-.6 16.17-2.5 7.24-14.57 7.06-20.55-.18-23.08.81-27.61 3.71-8.96 5.52-10.59 1.54-7.24 0-6.88c0 0 2.44-4.98.81-8.42s-5.16 0-5.16 0-5.52-1.45-9.23 1.81-6.88 6.06-10.41 10.59c-3.53 4.53-5.88 8.42-6.34 13.4s-.63 23.08-.63 23.08l-7.87-.09-4.98 15.48 14.24 12.28z"/><path d="M222.37 407.99h209.56l-14.97-125.26s65.17-81.1 59.74-134.32-125.99 3.98-125.99 3.98l-17.74.36s11.59 9.05 6.15 32.95l15.21.72s18.83 9.05 35.12 8.69c0 0-39.82 33.67-60.1 35.84 0 0 6.88-19.19-44.53-12.31-51.41 6.88-36.93 30.41-36.93 30.41-52.5 2.9-60.1-18.1-60.1-18.1 13.4-1.81 19.91-16.29 19.91-16.29l17.38-6.52c-15.57-14.48-6.88-36.2-6.88-36.2l-19.91 5.79s-22.45-.72-75.3 6.52c-52.86 7.24-57.56 34.76-40.19 65.89 17.38 31.14 116.21 82.44 116.21 82.44l23.36 75.4z" fill="#dde6ed"/><path class="cls-10" d="M339.52 183.76h-2.76s-2.81 3.94-9.59 1.13c-6.79-2.81-19.64-15.3-22.9-25.8s-8.69-19.01-11.95-22.17-4.34-6.25-1.18-6.61c0 0-4.98-3.26-1.36-7.42 0 0 2.72-2.26 5.7 0 0 0 2.72-2.74 5.97-1.01s4.89 3.87 4.89 3.87 1.72-.42 3.8 2.21 13.03 21 15.48 24.8c2.44 3.8 3.98 6.34 6.06 6.34h5.85s10.45 15.3 1.99 24.66z"/><path class="cls-14" d="M332.96 152.76s-1.09 1.45-1.27 6.34h5.85s-1.77-4.43-4.58-6.34zm-65.53 93.16s-14.09-7.65-12.29-13.52 13.77-7.23 13.77-7.23 4.31 12.79-1.48 20.75zm45.88-11.58s3.93-10.87 3.6-13.52-10.45-1.43-10.45-1.43l-3.07 9.64 9.92 5.31z"/><path class="cls-10" d="M268.88 223.48s.48 17.38-1.45 22.45l31.38 16.41 14.5-28s-6.54-10.43-7.26-17.16l-37.17 6.3z"/><path d="M311.6 262.33l14.24-30.41m-70.86 15.21s15.42 14.24 33.49 19.07m-86.45 68.54s10.14 7.24 17.38 20.52m195.5-69.51l-6.04 22.44" stroke-linecap="round" stroke-linejoin="round" stroke="#b9c1c6" stroke-width="1.42" fill="none"/><path class="cls-10" d="M312.04 178.25s1.92 12.28 0 27.18-27.78 17.84-27.78 17.84-20.99 8.54-30.3-12.74l-6.39-23.06 31.6-21.28 32.88 12.06z"/><path class="cls-10" d="M306.05 217.18v-4.08l-7.24 2.04s.97 6.41 1.33 6.41 5.91-4.37 5.91-4.37z"/><path class="cls-10" d="M312.43 201.92s.21 22.07-23.96 21.32 1.9-17.38 1.9-17.38l22.06-3.94z"/><path class="cls-8" d="M268.89 224.27s12.51 4.14 29.91-1.01c0 0-11.79 13.19-29.91 8.73v-7.71z"/><ellipse cx="271.52" cy="62.34" rx="115.91" ry="33.56" stroke="#f79b34" stroke-miterlimit="10" stroke-width="2.43" fill="none"/><ellipse class="cls-1" cx="271.52" cy="62.34" rx="115.91" ry="33.56"/><ellipse class="cls-1" cx="261.61" cy="56.02" rx="26.34" ry="100.4" transform="rotate(-65.93 261.618 56.017)"/><ellipse class="cls-1" cx="272.56" cy="64.97" rx="120.12" ry="26.34" transform="rotate(-16.76 272.504 64.972)"/><path d="M370.23 26.28l-5.21-3.8-6.08 2.14 2-6.13-3.92-5.13 6.45.01 3.67-5.3 1.98 6.13 6.18 1.85-5.22 3.78.15 6.45zm-148.53-.14l-3.41-2.49-3.98 1.4 1.31-4.01-2.57-3.36 4.22.01 2.4-3.47 1.3 4.01 4.05 1.21-3.42 2.48.1 4.22zm70.22 6.1l-3.42-2.49-3.98 1.41 1.31-4.02-2.56-3.35h4.22l2.4-3.47 1.3 4.02 4.04 1.2-3.42 2.48.11 4.22zm30.01 38.78l-3.41-2.49-3.98 1.4 1.31-4.01-2.56-3.36 4.22.01 2.4-3.47 1.29 4.01 4.05 1.21-3.42 2.48.1 4.22zM235.68 56.1l-3.41-2.48-3.98 1.4L229.6 51l-2.56-3.35 4.22.01 2.4-3.48 1.3 4.02 4.04 1.21-3.42 2.47.1 4.22zm-12.05 43.11l-3.41-2.49-3.98 1.41 1.31-4.02-2.57-3.35h4.23l2.39-3.47 1.3 4.02 4.05 1.2-3.42 2.48.1 4.22zm-31.88 19.99l-2.65-1.93-3.08 1.09 1.01-3.11-1.98-2.6h3.27l1.86-2.69 1 3.11 3.14.94-2.65 1.92.08 3.27zm135.56-22.58l-2.64-1.93-3.09 1.08 1.02-3.11-1.99-2.6 3.28.01 1.85-2.69 1.01 3.11 3.14.94-2.65 1.92.07 3.27zm45.55-18.9l-2.64-1.93-3.09 1.09 1.02-3.11-1.99-2.6 3.27.01 1.86-2.7 1.01 3.12 3.13.93-2.65 1.92.08 3.27z" fill="#eaea8b"/></g><g clip-path="url(#clippath)" id="_ëîé_1"><path d="M264.09-91.38c.75-3.74-3.74-20.59-5.99-20.97-2.25-.37-6.37 1.5-6.37 1.5s-5.59 1.94-13.18 3.68c-.29-1.55-1.56-6.75-5.61-8.65.11-1.53.07-3.05-.04-4.61-.22-3.05-.49-6.1-.64-9.15-.03-.57-.05-1.14-.07-1.71.03-.05.06-.1.07-.14.75-2.25-.06-40.47-1.5-55.79-2.22-23.7-11.76-48.86-17.41-54.85-.06-.07-.12-.13-.19-.19l-.44-.44c-5.68-5.64-15.1-14.35-15.1-14.35s.56-3.56-1.31-6.18-2.25-4.87-1.5-8.24-.37-10.86-9.36-11.23c-2.47-.1-5.31.4-8.15 1.21 2.11-4.05 5.86-12.95 4.96-20.66-.31-2.67-.96-4.39-1.74-5.49.38.22.72.47 1.02.77.2.2.52.2.72 0 .2-.2.2-.52 0-.72a5.906 5.906 0 00-2.01-1.32c-.64-.26-1.25-.38-1.8-.38-1.36-.46-2.54.03-2.54.03s-4.2-5.82-10.66-5.67c-6.45.15-6.93 2.72-7.86 3.88-.93 1.16-7.47-4.11-8.16 4.27-.54 6.48 2.72 10.18 4.22 11.53-.1.61-.17 1.23-.18 1.82-.11.12-.22.26-.31.42-.21.36.06.68.38.75.03.48.05 1.27.09 2.27-.81.51-1.67 1.05-2.52 1.59-.37-.59-.97-1.05-1.79-1.05-1.5 0-1.5 1.5-1.87 1.87-.37.37-.75 0-1.5 0s-1.03 1.87-1.87 1.87q-.75 0-2.25.37c-1.5.37-5.99 8.61-6.37 8.99-.22.22-2.68 2.33-4.64 4.01-.09-.07-.16-.12-.23-.13-.34-.09-30.82 26.58-29.58 37.68 1.5 13.48 18.35 11.61 28.83 10.86 6.72-.48 12.36-2.86 13.11-2.49.75.37 2.25 11.98 2.25 18.72 0 2.25-1.12 7.86-1.5 12.36-.34 4.11 4.18 7.88 6.64 8.72-3.93 58.56-5.02 73.56-1.78 84.38 1.35 4.49 3.61 9.42 6.55 14.68.4.71.81 1.43 1.23 2.15.03.04.05.09.08.13-3.85 35.78-9.88 63.83-11.12 69.44a.94.94 0 00-.12.18c-.12.23-.11.42-.11.46.02-.1.05-.2.07-.3-.02.1-.05.2-.07.3s0 .01 0 .01v-.01.03c-.09.39-.69 2.85-1.41 5.77-1.13 4.62-2.55 10.4-2.71 10.96l-.12.42c-.63-.23-1.11-.25-1.42.06-.92.92-3.12 6.16-7 9.87-1.09-.04-2.03.04-2.49.34a.95.95 0 00-.43.67c-.05.33.06.68.27 1.05l-.09.06c-1.12.67-2.62 1.4-4.32 2.15-.46-.09-.92-.17-1.36-.27-.3-.06-.6.13-.67.43-.05.24.06.48.26.6-6.7 2.83-15.28 5.82-16.38 7.19-.67.84-.82 1.68-.7 2.39.13.86.66 1.53 1.07 1.73.75.37 13.48 2.62 33.33 2.62 6.82 0 11.56-.18 14.88-.53 9.31.01 19.53 0 30.25 0 42.77 0 77.2-.24 76.97-2.81-.19-2.14-12.66-2.72-31.89-2.85.99-1 2-2.18 3.03-3.54 5.22-6.96 13.36-22.67 14.78-32.37.11-.73.18-1.43.2-2.08.24-6.11-2.14-6.24-5.59-7.98-1.51-.76-3.23-1.84-5.03-3.86 4.2-1.18 7.89-2.12 10.26-2.49-.02.7.14 1.5.2 1.98.31 2.55 1.22 4.98 2.39 7.26.64 1.24 1.39 2.46 2.4 3.42 1.02.96 2.35 1.65 3.75 1.68 2.01.04 3.8-1.27 5.11-2.8.19-.22.38-.46.45-.75.08-.36-.04-.72-.15-1.07-.42-1.22-.83-2.44-1.25-3.66-1.4 1.77-3.94 2.78-6.01 1.88-1.62-.7-2.63-2.38-2.99-4.11-.29-1.42-.21-2.89-.05-4.34 6.57-.83 10.35-1.28 11.32-2.58 1.02-1.36-4.15-45.73-5.09-53.79.99-.3 1.9-.67 2.74-1.13a.56.56 0 00-.54-.98c-.72.4-1.5.72-2.34.99 0-.07-.01-.12-.01-.12s4.87-1.87 5.62-5.62zM146.2-282.56c1.19 2.03 2.98 5.06 4.02 6.65-.71.45-1.16.74-1.45.31-.75-1.12.37-1.87.37-1.87s-2.17-3.54-2.94-5.09zm83.82 177.05c-.13-.19-.26-.35-.38-.47-1.12-1.12-9.36 1.12-10.11 1.12-.11 0-.15.13-.15.36-.45.01-.9.02-1.35.02-1.44 0-2.86-.02-4.27-.05.44-2.42 1.37-3.96 2.24-4.92.62 2.22 1.8 5.2 3.58 4.16.66-.38 1-1.24 1.73-1.46.49-.15 1.02.03 1.54.04.61.01 1.21-.23 1.64-.66.58-.58.87-1.48 1.62-1.79.74-.3 1.63.12 2.37-.19.85-.36 1.13-1.53 1.98-1.88.24-.1.5-.12.74-.21.5-.17.88-.6 1.12-1.08.01-.02.02-.05.03-.07 1.11 1.12 2.27 3.01 2.82 6.14-1.67.34-3.4.65-5.16.93zm-11.1-20.07c.08 1.32.01 2.71-.45 3.49-1.08 1.81-3.98 5.06-3.98 6.87 0 .77.2 1.6.42 2.3-3.06 2.07-4.23 5.91-4.66 8.28-5.65-.22-10.84-.59-14.92-.7 4.32-27.22 7.73-55.29 8.39-77.36.03-.01.07-.03.1-.04 1.46-.58 1.52-1.51 1.51-1.79.18 1.46 2.65 22.47 3.74 35.11 1.12 13.11 1.87 24.71 2.62 25.46.3.3 3.47-.47 7.25-1.63zm-78.39-130.03s-1.61-3.08-3.55-6.6c2.02-2.03 5.64-5.63 6.17-5.89.75-.37 4.18-1.52 5.24-1.87 1.12-.37 2.06-.94 3.56-2.43 1.5-1.5 2.76-1.42 3.56-1.68.34-.11.68-.39.95-.72.14.18.28.36.43.51.59.59 1.47.98 2.46 1.24-1.39 1.4-2.8 3.68-3.84 7.59 0 0-.04.03-.11.07-.18.12-.57.39-1.13.76-2.82 1.89-9.77 6.55-13.73 9.04zM130.42 13.15c.11-.05.28-.08.49-.1-.13.1-.27.21-.4.3-.04-.08-.07-.15-.09-.2zm55.11 11.57c-7.59 0-14.92.01-21.87.04-.05-.93-.21-2.06-.45-3.35-.75-4.11-2.27-8.52-2.46-13.94 0 0-.03 0-.07.01.18-2.17.99-7.15 1.83-11.7.26-1.37.51-2.7.76-3.91 5.3 1.59 9.9 2.49 10.77 1.18 0-.01.02-.02.02-.03 1.76-2.77 5.73-17.82 10.22-38.83 5.3 6.64 10.23 12.6 14.13 17.03.48 4.34.95 6.93 1.27 7.42.34.51 1.96 1.62 3.75 2.69-.13 2.32-.43 6.02-1.13 9.29-1.12 5.24-8.99 16.48-8.99 16.48s4.12 1.87 4.87 1.87 4.87-8.61 7.11-15.35a27.55 27.55 0 001.33-10.53c.96.48 1.73.79 2.04.79.36 0 3.69-1.06 8.35-2.53 1.14 1.36 2.19 2.72 3.08 4.05-.41.37-.67.8-.76 1.29-.07.46.02 1.06.21 1.81.05.19.11.4.17.61.55 1.9 1.5 4.59 1.89 8.1-.04.12-.03.25.02.38 0 .02.02.03.03.05.18 1.8.2 3.81-.05 6.04-.34.54-.47.97-.38 1.32.03.11.08.24.17.37-.99 7.06-2.96 14.86-2.43 19.3-10.1 0-21.44.07-33.45.07z" fill="#8dabc4"/></g><path d="M280.23 197.86s-5.76-2.91-5.87-9.45c-.11-6.54 5.87-2.91 5.87-2.91v-5.81m23.92-4.05s-8.11-6.73-15.02 0m-17.81 0s-8.11-6.73-15.02 0m27.55 32.34l12.79-.68" stroke="#333" stroke-width="2" stroke-linecap="round" stroke-linejoin="round" fill="none" id="Isolation_Mode"/></svg>