<?xml version="1.0" encoding="UTF-8"?><svg xmlns="http://www.w3.org/2000/svg" viewBox="0 0 600 400"><defs><style>.cls-1,.cls-2,.cls-3{fill:#fff;}.cls-4{fill:#bfa99c;}.cls-5{stroke:#333;}.cls-5,.cls-6{fill:none;stroke-linecap:round;stroke-linejoin:round;stroke-width:1.64px;}.cls-7{fill:#8dabc4;opacity:.5;}.cls-2{opacity:.1;}.cls-8{fill:#da797a;}.cls-3{stroke:#5581a7;stroke-miterlimit:10;stroke-width:1.03px;}.cls-9{fill:#e6e6e6;}.cls-10{fill:#9b8983;}.cls-6{stroke:#9b8983;}.cls-11{fill:#1c1b1b;}.cls-12{fill:#72432e;}.cls-13{fill:#1a1a1a;}.cls-14{fill:#5b3424;}</style></defs><g id="_ëîé_1"><rect class="cls-7" x="-5.63" y="-1.6" width="608.62" height="406.45"/><path class="cls-8" d="m83.22,366.91s31.39.7,41.15,27.9c9.76,27.2,8.37,48.82,36.97,69.75,28.6,20.92,113.69-13.95,133.22,29.29,0,0,147.86-103.92,178.55-171.58,30.69-67.65-29.29-98.34-29.29-98.34l-47.43-9.07s-56.82-13.25-113.85,46.73c-57.03,59.98-77.25,60.68-123.29,59.28-46.03-1.39-76.02,46.03-76.02,46.03Z"/><polygon class="cls-12" points="387.19 205.2 387.94 205.34 389.54 200.3 387.21 200.05 386.61 201.97 387.19 205.2"/><path class="cls-1" d="m392.62,236.56l-6.63,9.35,33.55,79.9,4.4-1.94s16.2-51.86,16.2-55-8.16-37.85-8.16-37.85l-8.04-3.7-31.32,9.22Z"/><path class="cls-4" d="m528.16,326.93s-20.56.19-28.39-.29c-4.79.52-9.56.02-14.39-.04-1.8-.02-2.7-1.43-2.69-2.84-.22-.37-.36-.82-.38-1.35-.11-3.21-.87-6.29-1.43-9.43-.45-2.52-.72-5.15-1.66-7.55-.11-.17-.21-.33-.27-.49-.62-1.55-1.85-10.2-2.78-12.98-.93-2.78-7.42-40.8-8.65-46.67-1.24-5.87-4.64-6.18-6.8-6.8s-21.02-9.27-21.02-9.27c0,0,.94-.62.93-1.85-.03-3.28-17.03-11.34-17.03-11.34l.03,4.54s8.96,27.51,8.65,47.6-11.44,54.71-11.44,54.71c0,0-4.33-6.49-7.73-12.98s-8.96-28.75-13.91-42.04c-4.95-13.29-14.53-47.91-14.53-47.91,0,0,2.3-8.99-.34-8.64-5.1.68-14.65,14.05-14.65,14.05,0,0-6.8,3.09-17.31,7.42-10.51,4.33-14.98,4.9-18.38,6.14s-5.87,15.15-5.87,15.15c0,0-.09.24-.23.64,2.69.27,3.09,3.84,1.21,5.1-.03,3.32-.18,6.62-.55,9.92-.17,1.59-1.4,2.46-2.65,2.63-.05,2.1-2.06,2.91-3.65,2.44-.27.49-.58,1.09-.92,1.83-1.55,3.4-8.51,41.46-8.51,41.46l36.78,8.65s2.82,24.8,1.27,39.02c-1.55,14.22-9.72,34.19-8.8,36.35.93,2.16,20.74,2.59,35.19.82,13.22-1.63,39.13-7.73,42.3-12.05,2.33-3.17,5.19-12.1,5.19-12.1.62,6.18,5.03,11.25,11.52,15.27,6.49,4.02,22.34,7.31,24.2,5.76,1.85-1.55-6.24-26.24-6.86-30.88-.62-4.64-1.55-24.73-.93-25.35.62-.62.44,2.78,2.6,4.64,2.16,1.85.62,4.33,7.42,8.65,6.8,4.33,62.87,8.08,68.64,6.35,1.07-.32-3.17-36.3-3.17-36.3Z"/><path class="cls-1" d="m416.82,210.36s5.25,1.24,7.11,4.02c1.85,2.78,2.47,6.8,2.47,7.73s1.85,23.49,0,23.8c-1.85.31-10.51-10.2-11.75-10.2s-4.33,5.25-4.33,5.25l-2.55-.91s-4.56-6.2-6.11-5.89c-1.55.31-7.42,10.2-8.96,10.2s-11.75-27.2-9.27-32.76c2.47-5.56,33.38-1.24,33.38-1.24Z"/><path class="cls-13" d="m417.13,211.6s6.18,1.55,5.25,4.95c-.93,3.4-3.01,6.39-3.01,6.39l-6.88-2.06,4.64-9.27Z"/><path class="cls-12" d="m420.84,198s-3.09,4.02-3.09,12.36,2.16,11.75,2.16,11.75c0,0-7.73,11.75-8.35,14.53-.62,2.78-1.24,12.98-1.24,12.98,0,0-4.02-15.76-4.95-17-.93-1.24-13.29-11.13-16.38-15.15-3.09-4.02-1.24-16.07-1.24-16.07l33.07-3.4Z"/><path class="cls-10" d="m521.76,351.29s2.87,9.81,8.38,11.75c5.5,1.94,5.83-8.74,2.59-20.39-3.24-11.65-10.36,2.91-10.36,2.91l-.61,5.73Z"/><path class="cls-1" d="m532.73,325.82s-.9.84-6.76,1.07c0,0-5.54,3.47-5.21,14.8.32,11.33,2.59,13.92,2.59,13.92,0,0,13.01-1.13,14.11-2.19,1.1-1.05-4.73-27.6-4.73-27.6Z"/><path class="cls-9" d="m539.85,343.62s.32,9.06-2.91,10.03c-3.24.97-6.15-7.12-6.15-7.12l1.62-5.83,7.45,2.91Z"/><path class="cls-12" d="m530.94,346.7s15.86,1.62,21.04,0c5.18-1.62,11.98-8.09,12.3-10.36.32-2.27-2.27-3.56-1.62-4.86.65-1.29,2.59-2.59,2.27-4.21-.32-1.62-.65-2.91-.65-2.91,0,0,4.86-2.27,5.18-5.18.32-2.91-.65-3.24-2.91-3.24s-6.47,1.62-6.47,1.62l1.62-2.91s.32-3.56-1.94-3.56-5.5,3.24-10.03,2.91c-4.53-.32-6.8-.97-8.74.32-1.94,1.29-9.39,12.62-9.39,12.62,0,0-6.15,7.77-.65,19.75Z"/><path class="cls-14" d="m539.67,334.87c1.12-1.37,2.57-2.47,3.71-3.85,1.23-1.49,2.32-3.15,2.99-4.97.39-1.07.38-2.94,1.24-3.76.41-.39.93-.45,1.46-.51.73-.08,1.37-.26,1.96-.59.15-.31.34-.62.58-.9,1.62-1.93,4.61-2.61,6.9-3.33,1.02-.32,1.76,1.32.74,1.77-1.2.52-4.31,1.44-5.71,2.84-.05.13-.12.27-.24.39-.08.08-.16.16-.24.23-.38.69-.31,1.49.56,2.38.65.67.33,1.72-.53,2-1.3.42-4.89,2.22-2.33,3.71.73.42.88,1.75,0,2.13-.81.35-4.86,2.54-3.42,3.64.51.39,2.46.18,3.11.22,1.18.08,2.37.16,3.55.24,1.17.08,1.86,1.77.65,2.38-1.07.53-2.66,1.2-2.82,2.58-.18,1.63-2.76,1.64-2.57,0,.12-1.08.52-1.93,1.1-2.64-.94-.06-1.88-.13-2.81-.21-1.3-.12-2.47-.53-2.85-1.91-.71-2.55,1.29-4.47,3.38-5.68-.29-.47-.49-.99-.56-1.54-1.49,2.77-3.82,5.64-6.4,7.27-1.23.77-2.27-.89-1.45-1.88Z"/><path class="cls-2" d="m360.95,158.06c-.52,1.29-.82,2.67-.87,4.06-.11,2.94.51,6.38,2.35,8.77.21.27.44.53.75.67s.71.12.95-.12c.2-.2.25-.5.29-.78.26-1.64.81-3.29,1.92-4.54.25-.28.56-.55.93-.55.42,0,.75.35.99.7.24.35.46.74.83.92.5.24,1.12.02,1.52-.38.39-.39.61-.92.85-1.43.24-.5.51-1.02.98-1.33.09-.06.2-.12.32-.11.23.02.36.26.45.47.23.54.48,1.09.85,1.54s.9.81,1.48.89c.16.02.32.02.46-.06.17-.09.27-.28.35-.45.46-.99.74-1.95.78-3.02.04-1.04.65-2.2,1.2-3.06.51-.8,1.14-1.51,1.66-2.31.17-.27.34-.56.35-.88.01-.42-.25-.81-.6-1.04-.35-.23-.77-.32-1.19-.35-.94-.08-1.91.1-2.76.52-.32.15-.62.34-.96.43-.34.09-.74.07-1-.17-.32-.29-.35-.78-.54-1.17-.24-.49-.76-.8-1.29-.92-.53-.12-1.09-.07-1.63,0-.78.11-1.55.26-2.3.46-.3.08-.61.16-.91.12-.31-.04-.61-.25-.67-.55-.03-.17.03-.35.01-.53-.03-.33-.31-.6-.63-.69-.32-.09-.66-.03-.97.08-1,.34-1.78,1.14-2.41,2-.63.86-1.16,1.8-1.55,2.79Z"/><path class="cls-11" d="m418.31,137.89c-2.95-7.55-6.89-6.23-6.89-6.23-.66-12.47-14.11-19.03-28.88-8.2-9.21,6.76-14.08,15.94-16.44,21.89.37-2.3,1.09-4.56,1.84-6.57-1.89,2.93-3.2,6.17-3.28,10.08,0,.1-.02.18-.03.27.37,1-.08,2.33-1.35,2.51-2.7,1.07-10.22,5.67-3.38,22.35,8.2,20.02,26.58,31.17,26.58,31.17l.71.04v-7.93c0-1.03.84-1.79,1.83-1.83.99-.04,1.83.87,1.83,1.83v2.84s.07.02.11.03c.24-.11.5-.19.78-.2.99-.04,1.83.87,1.83,1.83v3.77l5.38.28,20.67-45.94s1.64-14.44-1.31-21.99Z"/><path class="cls-12" d="m421.98,157.41c1.35,3.68,12.43,28.97,8.81,40.07-1.91,5.86-9.04,10.01-14.1,11.5-15.6,4.58-26.19-3.12-33.16-13,0,0-16.4-1.73-14.91-15.66,1.09-10.24,12.36.35,12.36.35,0,0,.22-5.21-.75-13.06-.42-3.43.75-7.78,3.96-9.04,9.7-3.81,24.94-7.55,25.4-18.14,0,0,10.18,10.95,12.4,16.98Z"/><polygon class="cls-4" points="312.81 318.08 303.04 406.9 356.41 406.9 364.69 350.7 357.85 325.82 340.68 319.67 312.81 318.08"/><polygon class="cls-4" points="460.46 399.81 453.04 404.03 383.05 404.03 375.53 390.45 416.69 368.98 436.03 374.83 460.46 399.81"/><polygon class="cls-4" points="328.35 252.9 320.65 278.83 330.5 277.25 332.87 259.68 328.35 252.9"/><path class="cls-6" d="m335.6,241.21s16.8-1.65,18.05,28.35c1.25,30-3.49,112.25-3.49,112.25"/><path class="cls-6" d="m464.47,335.8s4.46-9.76,15.61-8.36c0,0-5.86,3.9-5.3,8.36"/><path class="cls-14" d="m417.94,214.51s-7.81,3.97-16.64.59c-8.83-3.38-8.74-9.76-8.74-9.76,0,0,10.91,8.73,24.93,3.37l.31-.1.15,5.9Z"/></g><g id="characters"><g id="Object149_Thought_Bubble"><circle class="cls-3" cx="336.07" cy="184.98" r="8.66"/><circle class="cls-3" cx="304.57" cy="166.08" r="11.81"/><path class="cls-3" d="m303.78,116.21c0-16.62-9.04-31.12-22.47-38.86.03-.74.05-1.48.05-2.23,0-28.89-23.42-52.3-52.3-52.3-15.25,0-28.97,6.53-38.53,16.94-7.43-14.49-22.52-24.41-39.92-24.41-21.95,0-40.21,15.77-44.08,36.6-4.22-1.91-8.9-2.98-13.83-2.98-18.57,0-33.62,15.05-33.62,33.62,0,1.87.16,3.71.45,5.49-3.37-1.13-6.98-1.76-10.73-1.76-18.57,0-33.62,15.05-33.62,33.62s15.05,33.62,33.62,33.62c6.38,0,12.34-1.78,17.42-4.86,4.28,13.64,17.03,23.54,32.08,23.54,1.08,0,2.15-.06,3.2-.16,6.61,16.51,22.76,28.18,41.63,28.18,11.73,0,22.41-4.51,30.4-11.88,6.17,7.27,15.36,11.88,25.64,11.88,13.27,0,24.74-7.69,30.21-18.85,1.12.11,2.26.17,3.42.17,14.04,0,26.06-8.6,31.09-20.82,22.43-2.46,39.89-21.47,39.89-44.56Z"/></g><path class="cls-8" d="m82.89,116.22s20.39-37.68,47.04-50.63c26.65-12.95,42.03-3.47,48.86-3.62s11.62-1.68,15.98.58,13.41,19.83,13.41,19.83l-40.14,8.13s-12.27,14.24-16.19,15.28-9.65-6.96-13.82-7.14c-4.16-.18-3.36,4.71-11.36.58s-13.91-9.34-20.81-4.3c-6.9,5.03-22.98,21.3-22.98,21.3Z"/><path d="m63.48,153.79l-6.85,19.5s.39,2.51,4.49-2.44,10.56-9.13,24.8-11.45,37.51-7.8,42.53-9.2c5.02-1.4,15.56-4.55,15.56-4.55l-.96,22.08s-4.36-2.25-13.5-3.29c-9.14-1.04-20.63-8.51-20.63-8.51l-9.25,16.41s.96,1.11,3.98-1.17,9.16-5.25,12.93-3.92,30.52,12.85,30.52,12.85c0,0,3.15,1.93,5.78-3.46s11.5-39.2,11.5-39.2c0,0,10.42-3.52,17.02-8.56,6.6-5.04,17.44-3.43,26.59-13.13,9.16-9.7,8.82-16.48,11.12-19.74,2.3-3.26,7.3-7.9,11.12-10.53,3.82-2.63,6.62-6.87,11.67-10.4,5.05-3.53,13.8-14.22,15.67-17.55,1.87-3.33,9.07-7.75,10.16-7.19s1.29,4.04,6.67,3.44,9.13-3.11,6.66-5.46c0,0,3.52-2.94,1-6.7s-7.52-8.34-13.23-5.61c-5.71,2.73-32.17,19.47-34.7,21.38s-3.12,5.45-4.53,5.8-8.05-.47-12.81,4.28c0,0-.06.12-1.72-3.81l1.13-2.18-2.65-2.29s-1-7.58-1.59-8.81,1.21-3.52-1.22-4.78-5.77-2.21-13.91,4.64-1.89,18.22-.31,18.73,4.25,1.89,5.86,4.71,2.59,7.17-1.25,6.88-1.84-3.87-9.06-7.14-11.02-6.31-19.45-5.75c-8.43.56-12.53,1.36-16.68,1.98s-10.57,1.14-13.09,2.45-6.03,3.64-16.25,15.41c-10.22,11.76-13.91,18.61-14.79,20.31s-.34,2.74,1.21,5.08,4.22,8.48,7.48,6.63,3.53.9,5.12.49,4.65-5.74,4.46-9.83c-.19-4.09-6.05-4.05-.74-8.67,5.31-4.63,15.53-7.18,19.39-12.56l17.89,4.02s-5.28,16.16-8.96,22.4-12.02,4.84-15.35,7.42-3.5,6.48-10.87,10.05-23.58,11.16-29.89,12.97c-6.31,1.81-17.64,4.71-26,9.91,0,0-3.81,1.72-6.41.53s-5.64-2.45-5.64-2.45Z"/></g><g id="Isolation_Mode"><path class="cls-5" d="m415.82,184.59s3.92-3.55,2.58-8.74c-1.34-5.19-5.27-1.02-5.27-1.02l-1.26-4.59"/><path class="cls-5" d="m391.62,173.2s4.51-6.47,10.83-2.99"/><path class="cls-5" d="m417.08,166.72s3.51-5.03,8.41-2.32"/><line class="cls-5" x1="416.14" y1="191.04" x2="405.89" y2="193.29"/></g></svg>