<?xml version="1.0" encoding="UTF-8"?><svg xmlns="http://www.w3.org/2000/svg" viewBox="0 0 600 400"><defs><style>.cls-1{fill:#343e50;}.cls-2{fill:#00030f;}.cls-3{fill:#262e3a;}.cls-4{fill:#9b705f;}.cls-5{fill:#c82528;}.cls-6{fill:#c6d5e2;}.cls-7{fill:#b9886e;}.cls-8{fill:#e5e7ea;}.cls-9{stroke:#333;}.cls-9,.cls-10{fill:none;stroke-linecap:round;stroke-linejoin:round;stroke-width:2px;}.cls-11{fill:#3a1b23;}.cls-10{stroke:#262626;stroke-dasharray:0 5;}</style></defs><g id="Layer_1"><rect class="cls-8" x="-4.79" y="-8.48" width="609.58" height="413.79"/><path class="cls-11" d="m288.59,89.74c-.84-2.19-1.81-4.04-2.68-5.48.1.13.19.27.29.4-.1-.13-.19-.26-.29-.4-1.44-2.36-2.63-3.65-2.63-3.65-20.82-28.9-35.53-8.63-35.53-8.63-19.59-3.57-23.89,13.35-23.89,13.35l23.89,29.8s35.41,16.09,41.39-2.84c2.76-8.76,1.71-16.18-.21-21.64-.16-.28-.26-.59-.34-.91Z"/><path class="cls-11" d="m285.07,83.09c.16.22.32.45.49.68-.16-.23-.32-.45-.49-.68Z"/><path class="cls-11" d="m283.45,80.84c.27.38.86,1.19,1.61,2.24-.51-.7-1.05-1.45-1.61-2.24Z"/><path class="cls-5" d="m458.35,109.71s-7.33.95-9.4-1.38-6.29-.52-10.43-2.59-7.67-12.24,1.12-14.57c0,0-1.05-7.33,6.63-6.55,7.68.78,12.08,11.64,12.08,11.64,0,0-3.45-6.49-3.19-11.7s1.72-10.63,3.19-10.37c0,0-1.47-2.59,1.98-7.93s4.66-4.83,7.16-.78,3.36,6.47,4.22,11.81c0,0,.43-3.71,3.88-5.34s6.12-3.79,6.29,4.14-4.14,20.35-10.43,27.76c0,0-.52,1.47-3.71,2.41s-9.4,3.45-9.4,3.45Z"/><path class="cls-2" d="m458.35,109.71s-3.71,1.81-5.69,1.9-3.97,1.03-3.19,3.19,3.02,2.16,5,.86,4.83-2.5,8.79-3.71,7.41-1.38,10.69-3.28c0,0,3.45-1.29,3.1-4.05s-6.77.48-6.77.48l-11.93,4.6Z"/><path class="cls-10" d="m322.74,114.47c19.91.91,41.36,3.15,41.87-6.91s-20.94-6.68-8.68,18.18,87.83-6.55,87.83-6.55"/></g><g id="_ëîé_1"><path class="cls-1" d="m210.17,400.45h208.65c-2.61-23.04-4.44-39.3-4.82-43.48-1.79-19.69,13.13-87.73,11.94-95.48-1.19-7.76-103.84-29.24-112.79-29.24s-39.39,1.79-47.15,4.18c-7.76,2.39-90.11,40.58-94.89,47.74-4.77,7.16,39.39,105.63,39.39,105.63,0,0-.12,3.86-.32,10.66Z"/><path class="cls-6" d="m312.64,234.53c1.17,0,5.87,2.35,5.87,9.78s-8.99,46.14-10.17,47.31-34.02-37.54-38.71-41.84c-4.69-4.3-4.3-8.21.39-9.78,4.69-1.56,42.62-5.47,42.62-5.47Z"/><path class="cls-11" d="m287.37,110.73c2.05-5.45.08-11.19.05-16.88,0-.93.31-1.65.79-2.19-3.52-3.77-6.92-7.64-10.55-11.31-4.61-4.67-9.66-8.23-14.99-11.7-.62.88-1.67,1.44-2.83,1.54-2.4.21-4.74.81-7.15.94-.34.02-.67-.04-.99-.14.21.78.16,1.63-.32,2.46-.87,1.48-3.17,2.3-4.66,1.22-.84-.61-1.79-1.53-2.8-2.38-2.34-.3-4.75-.16-7.2.6-4.15,1.3-7.28,4.36-9.83,7.76-1.1,1.47-2.16,3.03-3.02,4.67-1.54-.26-3.12-.32-4.77-.09-5.09.69-9.79,3.54-13.14,7.39-5.22,5.99-7.35,14.28-5.32,21.72-.44.12-.88.24-1.31.39-4.68,1.67-8.04,5.24-10.39,9.53-2.53,4.6-4.14,9.49-2.17,14.62,1.45,3.77,4.15,6.69,7.29,9.1,0,.12-.03.24,0,.38,2.54,12.82,13.46,21.27,21.91,30.32,10.26,10.99,18.2,23.9,28.47,34.88,2.31,2.47,5.1,5.06,8.66,5.24,2.8.15,5.41-1.24,6.56-3.79,3.84-.48,6.17-4.95,5.84-8.74-.39-4.53-3.85-7.94-8.15-8.64.85-5.07-.07-10.27-2.47-14.84-1.3-2.46-3.04-4.74-5.11-6.6-.99-.89-2.06-1.71-3.19-2.41-.65-.4-1.32-.77-2.01-1.1-.47-.22-1.11-.38-1.59-.69.1-.96.64-1.97.98-2.81.36-.9.76-1.79,1.13-2.69.81-1.93,1.57-3.89,1.87-5.97.43-2.94.02-6-1.74-8.37,4.07-3.49,6.96-8.09,8.25-13.31,7.67-.27,14.85-4.19,19.27-10.46,3.7.73,7.28-.83,9.34-3.62,1.93-.57,5.04-4.04,6.62-10.37-1.21-.65-1.96-1.94-1.32-3.64Z"/><path class="cls-7" d="m298.95,198.41s11.57,28.4,18.93,37.52c7.36,9.12-39.97,11.22-48.74,9.82-8.77-1.4.7-2.1-7.71-19.28-8.42-17.18-13.67-21.04-13.67-21.04l51.19-7.01Z"/><path class="cls-4" d="m266.05,215.24c4.18,3.98,9.27,6.72,15.05,7.35,5.82.63,11.71-.34,17.24-2.18,2.99-1,5.89-2.26,8.69-3.73-4.47-9.41-8.08-18.27-8.08-18.27l-41.26,5.65c2.21,4.12,4.98,7.96,8.36,11.18Z"/><path class="cls-7" d="m293.29,118.46c-1.81-2.45-6.71-7.53-11.75-10.89-3.85,1.91-7.98,3.06-12.22,3.46-1.79,2.73-3.74,5.33-5.92,7.72-3.31,3.62-7.23,6.82-11.78,8.72-2.61,1.09-5.37,1.65-8.14,1.68-.38,2.63-.61,5.52-.66,8.7-.01.66-1.47,9-5.79,15.34,1.93,6.34,2.79,17.38,2.66,17.45-1.1,2.85-5.73,3.29-5.73,3.29,0,0-19.37-6.37-19.69,10.77-.48,25.63,29.49,18.97,29.49,18.97,14.2,17.87,37.01,21.77,61.16,7.92,7.84-4.5,20.87-13.16,21.86-23.87,1.88-20.27-29.47-63.82-33.49-69.26Z"/><path class="cls-1" d="m437.58,400.45h75.93c-9.69-16.08-25.86-32.63-37.46-55.42-32.82-64.45-50.13-83.55-50.13-83.55,0,0-28.05,65.05-22.68,81.16,4.04,12.12,24.29,41.47,34.33,57.8Z"/><path class="cls-1" d="m203.25,400.45c4.68-11.4,9.03-22,9.03-22,0,0-26.56-111-41.18-94.29,0,0-14.92,30.44-25.06,65.05-5.07,17.3-15.81,35.2-25.51,51.24h82.72Z"/><path class="cls-3" d="m337.43,236.52c2.84,3.06,5.58,6.23,8.19,9.49.9,1.13,2.54,2.76.92,3.89-1.29.9-2.74,1.4-3.91,2.51-.1.09-.17.19-.24.28-4.08-2.63-8.27-5.07-12.57-7.32-2-1.04-3.77,1.98-1.77,3.03,4.37,2.29,8.64,4.76,12.78,7.45,2.03,1.32,4.03,2.68,6,4.09.93.67,1.98,1.29,2.82,2.07.41.38.55.2.09.74-.43.5-.96.95-1.45,1.4-3.52,3.21-7.59,5.72-11.53,8.37-4.08,2.76-8.03,5.7-11.91,8.73-4.5,3.51-8.9,7.16-13.3,10.8-1.74,1.44.75,3.91,2.48,2.48,8.49-7.04,17.03-14,26.22-20.13,4.15-2.77,8.79-5.55,12.12-9.33,1.65-1.88,1.6-4.05-.37-5.65-2.06-1.67-4.29-3.17-6.48-4.66-.04-.03-.08-.05-.12-.08,1.16-.95,2.66-1.41,3.8-2.41,1.49-1.3,1.96-3.23,1.3-5.09-.7-1.98-2.41-3.67-3.72-5.26-1.24-1.51-2.53-2.99-3.83-4.46-1.98-.41-3.9-.8-5.76-1.17.07.08.15.16.23.24Z"/><path class="cls-3" d="m247.21,262.28c1.35.31,2.7.62,4.06.93-2.11,3.84-3.84,7.88-5.13,12.11-.22.73.14,1.61.81,1.98,8.03,4.54,17.54,3.26,26.23,5.38,8.99,2.2,17.53,6.73,25.52,11.31,3.93,2.25,7.67,4.93,9.74,9.08.11.21.24.38.38.51,1.3,18.34,3.71,36.58,5.94,54.82,1.71,14.02,3.33,28.05,5.2,42.05h3.51c-1.56-11.72-2.93-23.47-4.36-35.2-2.6-21.26-5.54-42.52-6.94-63.89-.07-1.02-.83-1.57-1.63-1.67-4.23-6.64-12.44-10.13-19.19-13.55-4.35-2.2-8.81-4.26-13.46-5.76-4.56-1.48-9.21-2.15-13.97-2.58-4.74-.44-9.6-.85-13.94-2.9,2.14-6.49,5.36-12.61,9.58-18,1.38-1.76-1.09-4.25-2.48-2.48-1.42,1.81-2.72,3.69-3.94,5.62-1.25-.29-2.51-.57-3.76-.86-.63-.14-1.39-.45-2.05-.49.09-.24.18-.6.23-.73,1.12-2.72,2.46-5.35,3.93-7.9,2.26-3.91,4.9-7.57,7.86-10.97-1.97.85-4.29,1.87-6.87,3.03-1.94,2.68-3.7,5.49-5.25,8.41-.8,1.5-1.54,3.03-2.23,4.59-.62,1.4-1.61,3.06-1.28,4.65.37,1.75,1.98,2.17,3.5,2.52Z"/><path class="cls-3" d="m388.58,325.97c5.44-24.93,18.99-46.94,33.77-67.38-.64-.32-1.36-.65-2.16-.99-10.68,14.76-20.54,30.12-27.41,47.05-2.72,6.71-4.91,13.63-6.46,20.7-.32,1.47,1.93,2.09,2.25.62Z"/><path class="cls-3" d="m214.17,330.24c3.62,5.7,7.01,11.54,10.19,17.5.71,1.33,2.73.15,2.02-1.18-11.38-21.3-25.59-41.08-42.18-58.64-2.54-2.68-5.13-5.31-7.77-7.89-.73.46-1.4.9-2,1.31,15.09,14.68,28.47,31.1,39.75,48.89Z"/></g><g id="Isolation_Mode"><path class="cls-9" d="m293.45,163.65s5.04-4.96,3.3-8.01c-1.74-3.06-6.8,2.37-6.8,2.37l-1.64-2.66"/><path class="cls-9" d="m254.72,166.53s4.49-13.38,17.09-10.59"/><path class="cls-9" d="m292.1,143.38s3.97-11.83,15.11-9.36"/><line class="cls-9" x1="303.91" y1="180.41" x2="291.44" y2="186.87"/></g></svg>