<svg id="_ëîé_1" xmlns="http://www.w3.org/2000/svg" viewBox="0 0 600 400"><defs><clipPath id="clippath"><path fill="none" d="M.69.26h600v400H.69z"/></clipPath><style>.cls-1{fill:#022944}.cls-3{fill:#8dabc4}.cls-6{fill:#805124}.cls-11{fill:#5581a7}</style></defs><path opacity=".5" fill="#8dabc4" d="M0 0h608.62v406.45H0z"/><g clip-path="url(#clippath)"><path class="cls-11" d="M251.33 245.09c1.45-1.54 3.01-3.65 4.53-6.31 3.81-6.67 6.39-16.54 6.44-20.09 0-.36-.01-.66-.07-.89-.3-1.34-2.17-3.17-4.04-4.9-1.48-1.36-2.95-2.66-3.66-3.6-.55-.74-1.48-2.53-2.45-4.55-.58-1.21-1.39-3.08-2.22-5.05 0-.03.02-.06.02-.09 0 0-14.87-40.36-15.14-43.29-.09-1-.09-9.15-.05-19.42.5.17 1.14.11 1.6.06 1.11-.12 2.33-.29 3.05-1.14.3-.35.52-.82.95-1 .36-.15.77-.05 1.14-.16.5-.15.8-.64 1.01-1.11.07-.16.14-.33.26-.45.27-.28.73-.29 1.03-.53.27-.22.37-.57.55-.86.19-.3.48-.51.71-.79.22-.27.3-.6.31-.95 7.7-4.58 14.55-8.78 14.66-9.02.15-.36-3.18-12.41-5.8-20.65.09-.72.15-1.44.18-2.16.44-9.11-2.41-16.28-3.87-24.13-.06-.32-.12-.63-.17-.93-.14-.76-.26-1.46-.36-2.11-.07-.41-.14-.84-.22-1.29-.07-.38-.14-.77-.23-1.17-.15-.74-.31-1.5-.5-2.29-.25-1.07-.59-2.17-.89-3.3-1.91-7.21-6.37-12.18-10.81-14.35l-.02.02c-.08-.04-.16-.07-.24-.11.58-.34 1.58-1.07 1.34-2.01-.14-.53-1.03-3.46-3.2-4.95-1-.69-1.75-1.68-2.06-2.85-.83-3.16-3.44-4.33-4.49-4.8-1.96-.88-4.47-1.29-7.18-1.37.05-.4.05-.65.05-.65s.61-.48 1.25-1.31c-5.09.65-10.14 1.66-15.2 2.48a2.57 2.57 0 01-1.77 1.32c0 .05.01.11.02.16-2.19.57-3.82 1.14-4.49 1.52-2.19 1.25-5.84 4.95-7.04 6.7-.1.66-.24 1.33-.43 1.99.07 1.02.28 2.11.28 2.11s-.03.02-.09.07c-.12.09-.34.26-.63.5-.18.15-.4.32-.63.51-.26.63-.57 1.38-.61 1.51-.33 1.06-.6 2.13-.83 3.22-.11.51-.18 1.01-.22 1.34a56.08 56.08 0 00-.17 3.17c-.09 4.72.44 9.42 1.03 14.09.04.33.1.74.15 1.12.27 1.98.54 3.96.79 5.94.34 2.63.65 5.26.83 7.9.07 1.07.12 2.15.15 3.22.58.62 1.29 1.28 2.18 1.92-2.67 18.29-8.46 57.84-9.27 63.52-1.06 7.44-5.31 61.87-5.31 61.87s.03.01.08.04c-.2 2.12-.48 4.9-.79 7.52h-.07c-.43 3.46-.92 6.62-1.34 7.57-.33.74-1.44 1.93-2.94 3.28-.15.14-.32.28-.48.42-.1.09-.21.18-.32.27l-.36.3c-.11.09-.22.19-.33.28-.12.1-.25.21-.38.31-.11.09-.23.19-.35.28-.13.1-.26.21-.39.31-.12.09-.24.19-.36.28l-.4.31c-.12.09-.24.19-.36.28-.14.1-.27.21-.41.31-.12.09-.24.18-.37.28-.14.1-.28.2-.42.31-.12.09-.25.18-.37.27l-.42.3c-.12.09-.24.17-.37.26-.14.1-.28.19-.42.29-.12.08-.24.17-.36.25-.14.09-.28.19-.42.28l-.36.24c-.14.09-.27.18-.41.27l-.34.22c-.14.09-.27.17-.41.25-.11.07-.22.14-.32.2-.14.08-.27.16-.4.24l-.3.18c-.14.08-.27.15-.4.22l-.27.15c-.14.08-.28.14-.41.21-.07.03-.14.07-.21.11-.2.1-.39.19-.57.27-4.25 1.86-5.58 3.45-5.31 4.78.27 1.33 15.67 1.59 22.31 1.33 2.89-.12 5.61-.17 7.78-.34 8 .04 17.22.01 27.02.01 30.47 0 54.99-.17 54.83-1.99-.13-1.42-7.88-1.87-20.06-2zM237.11 134.8c-.21.2-.81.5-1.16.68.38-.22.77-.45 1.16-.68zm8.9 91.6v2.08c0 .07 0 .15-.01.22v.19c0 .07 0 .15-.01.22 0 .07 0 .13-.01.2 0 .07 0 .15-.01.22 0 .07 0 .13-.01.2 0 .08 0 .15-.01.23 0 .07 0 .13-.01.2 0 .08-.01.15-.02.23 0 .07 0 .14-.01.21 0 .07-.01.14-.02.22 0 .07-.01.14-.02.22 0 .07-.01.15-.02.23 0 .07-.01.14-.02.21 0 .08-.01.16-.02.23 0 .07-.01.14-.02.21 0 .08-.01.16-.02.24 0 .07-.01.13-.02.2 0 .08-.01.16-.02.25 0 .07-.01.13-.02.2 0 .08-.01.16-.02.24 0 .07-.01.13-.02.2 0 .08-.01.16-.02.24 0 .07-.01.14-.02.21 0 .08-.01.15-.02.23 0 .07-.01.14-.02.21 0 .06-.01.12-.02.18-.02.18-.03.36-.05.54 0 .06-.01.11-.02.17-.03.28-.05.56-.08.84v.02c-.01.13-.02.25-.04.38v.06l-.09.95c-.01.13-.02.26-.04.39 0 .05-.01.1-.02.16 0 .09-.02.17-.02.26 0 .06-.01.12-.02.18 0 .09-.02.18-.02.27 0 .05 0 .1-.01.15 0 .09-.02.18-.02.26 0 .06-.01.11-.02.17 0 .09-.02.17-.02.25 0 .05 0 .11-.01.16 0 .08-.01.17-.02.25 0 .06 0 .11-.01.17 0 .08-.01.16-.02.24 0 .06 0 .11-.01.17 0 .08-.01.15-.02.23 0 .06 0 .11-.01.17 0 .08-.01.15-.02.23 0 .06 0 .11-.01.17 0 .08-.01.15-.02.23 0 .05 0 .1-.01.16 0 .08-.01.15-.02.23 0 .05 0 .1-.01.15 0 .07 0 .14-.01.22 0 .05 0 .1-.01.15 0 .08-.01.16-.01.24v.11c-.01.24-.03.47-.04.7v.07c0 .09 0 .17-.01.26v1.42c-8.27-.02-17.97.04-28.39.04-7.73 0-15.11.02-21.81.07-.23-1.39-.78-2.92-1.26-4.45-.53-1.67-.98-3.35-.88-4.85.08-1.12.55-3.76 1.16-6.9-.03-.01-.06-.03-.09-.04.37-1.84.79-3.84 1.21-5.81 3.46 1.54 6.29 2.62 6.49 2.12.39-.98 6.22-43.53 9.7-64.46.26.75.53 1.49.8 2.23.88 2.4 1.8 4.77 2.72 7.15 1.54 3.93 3.12 11.02 4.73 14.92 1.66 3.99 5.21 12.49 6.94 16.45 1.5 3.42 3.03 6.82 4.64 10.19.62 1.29 1.25 2.57 1.91 3.83.26.5.53 1 .81 1.49.48.86.83 1.43 1.91 1.6.23.03.46.05.7.04 2.49-.04 4.37-1.84 5.98-3.54l.3-.33c.29.56.57 1.12.83 1.66 1.04 2.11 1.9 4 2.36 5.31.25.7.39 1.64.46 2.75.03.42.04.87.05 1.33v.54z"/><path class="cls-3" d="M21.94 152.09h.87-.87z"/><path class="cls-11" d="M9.06 338.31c0 1.69 34.35 1.85 67.12 1.85s50.11-.35 50.36-1.85c.22-1.32-4.96-1.86-15.23-2.07 0-.18-.03-.36-.05-.55-.12-1.1-.42-2.2-.6-2.94-.27-1.17-.73-2.16-1.24-3.11-.6-1.11-1.28-2.17-1.87-3.4-.95-1.97-1.71-4.03-2.28-6.14 2.93-.79 5.01-1.61 5.04-2.34.06-1.3-3.32-50.59-6.32-93.94-.2-2.9-.4-5.77-.6-8.6 7.77 1.04 18.35 1.86 19.84 1.01 2.28-1.3 10.11-7.5 10.76-8.81.65-1.3-.33-3.26.65-4.57.98-1.3 10.76-11.09 11.74-11.09s1.63 1.3 2.94.65c1.3-.65 7.18-5.87 7.5-7.83.33-1.96-3.26-27.07-3.26-27.07s1.96-1.63 2.28-3.91c.33-2.28 0-7.83-2.61-8.48-1.31-.33-10.23-.24-18.98.09-1.93-7.81-4.03-14.9-5.32-15.91-1.13-.88-4.78-.89-9-.53-3.81-10.97-9.13-23-11.43-26.08-2.2-2.93-3.68-4.73-5.82-6.44-.25-.2-.51-.4-.78-.6-1.54-1.13-3.44-2.27-6.11-3.72-4.46-2.44-9.05-4.87-12.91-7.38-.28-.18-.56-.37-.83-.55-2-1.35-3.77-2.72-5.18-4.13-.15-.15-.3-.31-.44-.47-2.37-2.6-3.74-6.98-4.45-10.02 1.07-.93 1.72-3.03 2.07-5.41.78-1.18 1.21-2.78.35-4.73.03-2.21-.13-4.15-.38-5.11-.67-2.66-2.78-4.93-3.07-5.23 0 0 .02-.01.03-.02.57-.31 1.3-.3 2.18.04.61.23 1.15.57 1.59 1a.489.489 0 00.68-.7c-.54-.52-1.18-.93-1.92-1.21-1.01-.38-1.9-.43-2.66-.14-.15-1.56-.62-4.4-2.03-4.21-1.94.27-.6 2.28-.6 2.28s-5.13-5.63-9.08-6.01c-3.59-.35-2.65 3.05-1.53 3.87 0 0-9.36-5.06-12.04 3.27-1.72 5.32 1.02 8.8 2.93 10.47l-.12.12a.489.489 0 00.62.75c.21 2.76.72 8.03 1.73 12.24-.04.11-.06.22-.07.34-.1 2.23.09 10.47 8.62 10.07.17 0 .34-.02.5-.04-1.19 1.39-2.75 3.22-4.12 5.42-.16.26-.32.52-.48.79-.14.08-.27.16-.42.24-2.78 1.63-6.77 3.83-10.38 6.65-.25.2-.51.4-.76.61-1.23 1-2.39 2.08-3.44 3.24-1.4 1.55-2.35 3.05-3.08 4.6-6.21.47-12.25.98-13.02 1.14-1.63.33-5.22 6.2-5.22 6.85 0 .56 5.7 9.91 8.79 15.68-.94 1.56-3.86 6.22-5.08 7.54-.58.63-1.17 1.26-1.74 1.89-.55.61-1.1 1.23-1.53 1.92-1.3 2.1-1.68 4.79-1.37 7.22.25 1.98 1.04 3.91 2.43 5.37.68.71 1.48 1.29 2.37 1.71 1 .47 1.93.53 2.99.68 2.22.31 4.46.02 6.57-.69 2.29-.77 4.41-1.99 6.42-3.34.31-.21.61-.42.89-.66 1.1-.68 1.47-1.94 1.54-3.11 2.46 0 5.61-.14 8.7-.32.28 1.55.52 3.5.16 4.76-.65 2.28-2.61 4.57-2.61 7.18s1.3 5.87 1.63 6.2c.02.02.06.04.13.06-2.63 12.49-10.54 51.33-11.8 71.64-1.51 24.41-.53 79.2-.53 79.2s.18.09.51.25c.03.9.02 1.8-.07 2.69-.3 2.88-2.47 5.47-4.48 7.38l-.3.24c-2.58 2.27-5.69 4.21-8.11 5.32-.24.11-.48.22-.72.32-.35.14-.69.28-1.03.41-.9.06-1.8.2-2.69.46-.36.1-.47.43-.4.71-2.91 1.1-5.11 2.06-5.91 3.87-.06.14-.11.27-.16.39-.02.05-.04.1-.05.14-.03.07-.05.14-.08.21-.02.05-.03.1-.05.15-.02.06-.04.12-.05.17-.01.05-.03.1-.04.14-.02.08-.03.15-.05.22l-.03.17c0 .03 0 .07-.01.1v.2c-2.59.31-4.04.72-4.04 1.26zm114.81-206.65c-.03.05-.03.11 0 .18 1.86 4.54 3.09 9.07 4.1 13.66-1.32.07-2.58.15-3.76.23v-.21c0-.19-.02-.39-.03-.6 0-.05 0-.09-.01-.14-.01-.17-.03-.35-.05-.54 0-.06-.01-.11-.02-.17a35.756 35.756 0 00-.25-1.65c-.04-.24-.09-.48-.14-.73 0-.03 0-.05-.02-.08-.06-.29-.12-.58-.19-.88 0-.04-.02-.07-.02-.11-.06-.27-.12-.55-.19-.83 0-.04-.02-.08-.03-.12-.15-.63-.32-1.29-.5-1.97 0-.03-.02-.07-.03-.1-.19-.69-.39-1.41-.61-2.14-.45-1.51-.94-3.09-1.49-4.71 1.12.03 2.03.13 2.61.34.2.07.41.27.63.56zM54.06 336.07c.03-.38.02-.78-.05-1.21-.36-2.24-.2-4.97-1.53-7.51-.12-1.83-.66-2.83-.91-7.07 4.7 1.94 8.82 3.29 9.31 2.3 1.05-2.1 2.39-63.94 9.15-108.22.23-.04.41-.21.47-.42 1.91 12.92 3.59 26.46 6.14 43.69 3.85 25.99 8.03 51.92 9.37 63.28.23 2.01 1.99 2.17 4 1.95.68-.07 1.42-.16 2.21-.27-.08 2.2-.43 4.76-1.35 6.75-.66.87-1.09 1.53-1.2 1.62-.23.19-.53.65-.85 1.2-.32.27-.59.58-.76.96-.08.18-.07.35-.02.49-.23.46-.41.85-.51 1.08-.2.45-.38.92-.49 1.4h-9.97c-7.7 0-15.53-.03-23.01-.03z"/><path class="cls-3" d="M264.09 328.62c.75-3.74-3.74-20.59-5.99-20.97-2.25-.37-6.37 1.5-6.37 1.5s-5.59 1.94-13.18 3.68c-.29-1.55-1.56-6.75-5.61-8.65.11-1.53.07-3.05-.04-4.61-.22-3.05-.49-6.1-.64-9.15-.03-.57-.05-1.14-.07-1.71.03-.05.06-.1.07-.14.75-2.25-.06-40.47-1.5-55.79-2.22-23.7-11.76-48.86-17.41-54.85-.06-.07-.12-.13-.19-.19l-.44-.44c-5.68-5.64-15.1-14.35-15.1-14.35s.56-3.56-1.31-6.18-2.25-4.87-1.5-8.24-.37-10.86-9.36-11.23c-2.47-.1-5.31.4-8.15 1.21 2.11-4.05 5.86-12.95 4.96-20.66-.31-2.67-.96-4.39-1.74-5.49.38.22.72.47 1.02.77.2.2.52.2.72 0 .2-.2.2-.52 0-.72a5.906 5.906 0 00-2.01-1.32c-.64-.26-1.25-.38-1.8-.38-1.36-.46-2.54.03-2.54.03s-4.2-5.82-10.66-5.67c-6.45.15-6.93 2.72-7.86 3.88-.93 1.16-7.47-4.11-8.16 4.27-.54 6.48 2.72 10.18 4.22 11.53-.1.61-.17 1.23-.18 1.82-.11.12-.22.26-.31.42-.21.36.06.68.38.75.03.48.05 1.27.09 2.27-.81.51-1.67 1.05-2.52 1.59-.37-.59-.97-1.05-1.79-1.05-1.5 0-1.5 1.5-1.87 1.87-.37.37-.75 0-1.5 0s-1.03 1.87-1.87 1.87q-.75 0-2.25.37c-1.5.37-5.99 8.61-6.37 8.99-.22.22-2.68 2.33-4.64 4.01-.09-.07-.16-.12-.23-.13-.34-.09-30.82 26.58-29.58 37.68 1.5 13.48 18.35 11.61 28.83 10.86 6.72-.48 12.36-2.86 13.11-2.49.75.37 2.25 11.98 2.25 18.72 0 2.25-1.12 7.86-1.5 12.36-.34 4.11 4.18 7.88 6.64 8.72-3.93 58.56-5.02 73.56-1.78 84.38 1.35 4.49 3.61 9.42 6.55 14.68.4.71.81 1.43 1.23 2.15.03.04.05.09.08.13-3.85 35.78-9.88 63.83-11.12 69.44a.94.94 0 00-.12.18c-.12.23-.11.42-.11.46.02-.1.05-.2.07-.3-.02.1-.05.2-.07.3s0 .01 0 .01v-.01.03c-.09.39-.69 2.85-1.41 5.77-1.13 4.62-2.55 10.4-2.71 10.96l-.12.42c-.63-.23-1.11-.25-1.42.06-.92.92-3.12 6.16-7 9.87-1.09-.04-2.03.04-2.49.34a.95.95 0 00-.43.67c-.05.33.06.68.27 1.05l-.09.06c-1.12.67-2.62 1.4-4.32 2.15-.46-.09-.92-.17-1.36-.27-.3-.06-.6.13-.67.43-.05.24.06.48.26.6-6.7 2.83-15.28 5.82-16.38 7.19-.67.84-.82 1.68-.7 2.39.13.86.66 1.53 1.07 1.73.75.37 13.48 2.62 33.33 2.62 6.82 0 11.56-.18 14.88-.53 9.31.01 19.53 0 30.25 0 42.77 0 77.2-.24 76.97-2.81-.19-2.14-12.66-2.72-31.89-2.85.99-1 2-2.18 3.03-3.54 5.22-6.96 13.36-22.67 14.78-32.37.11-.73.18-1.43.2-2.08.24-6.11-2.14-6.24-5.59-7.98-1.51-.76-3.23-1.84-5.03-3.86 4.2-1.18 7.89-2.12 10.26-2.49-.02.7.14 1.5.2 1.98.31 2.55 1.22 4.98 2.39 7.26.64 1.24 1.39 2.46 2.4 3.42 1.02.96 2.35 1.65 3.75 1.68 2.01.04 3.8-1.27 5.11-2.8.19-.22.38-.46.45-.75.08-.36-.04-.72-.15-1.07-.42-1.22-.83-2.44-1.25-3.66-1.4 1.77-3.94 2.78-6.01 1.88-1.62-.7-2.63-2.38-2.99-4.11-.29-1.42-.21-2.89-.05-4.34 6.57-.83 10.35-1.28 11.32-2.58 1.02-1.36-4.15-45.73-5.09-53.79.99-.3 1.9-.67 2.74-1.13a.56.56 0 00-.54-.98c-.72.4-1.5.72-2.34.99 0-.07-.01-.12-.01-.12s4.87-1.87 5.62-5.62zM146.2 137.44c1.19 2.03 2.98 5.06 4.02 6.65-.71.45-1.16.74-1.45.31-.75-1.12.37-1.87.37-1.87s-2.17-3.54-2.94-5.09zm83.82 177.05c-.13-.19-.26-.35-.38-.47-1.12-1.12-9.36 1.12-10.11 1.12-.11 0-.15.13-.15.36-.45.01-.9.02-1.35.02-1.44 0-2.86-.02-4.27-.05.44-2.42 1.37-3.96 2.24-4.92.62 2.22 1.8 5.2 3.58 4.16.66-.38 1-1.24 1.73-1.46.49-.15 1.02.03 1.54.04.61.01 1.21-.23 1.64-.66.58-.58.87-1.48 1.62-1.79.74-.3 1.63.12 2.37-.19.85-.36 1.13-1.53 1.98-1.88.24-.1.5-.12.74-.21.5-.17.88-.6 1.12-1.08.01-.02.02-.05.03-.07 1.11 1.12 2.27 3.01 2.82 6.14-1.67.34-3.4.65-5.16.93zm-11.1-20.07c.08 1.32.01 2.71-.45 3.49-1.08 1.81-3.98 5.06-3.98 6.87 0 .77.2 1.6.42 2.3-3.06 2.07-4.23 5.91-4.66 8.28-5.65-.22-10.84-.59-14.92-.7 4.32-27.22 7.73-55.29 8.39-77.36.03-.01.07-.03.1-.04 1.46-.58 1.52-1.51 1.51-1.79.18 1.46 2.65 22.47 3.74 35.11 1.12 13.11 1.87 24.71 2.62 25.46.3.3 3.47-.47 7.25-1.63zm-78.39-130.03s-1.61-3.08-3.55-6.6c2.02-2.03 5.64-5.63 6.17-5.89.75-.37 4.18-1.52 5.24-1.87 1.12-.37 2.06-.94 3.56-2.43 1.5-1.5 2.76-1.42 3.56-1.68.34-.11.68-.39.95-.72.14.18.28.36.43.51.59.59 1.47.98 2.46 1.24-1.39 1.4-2.8 3.68-3.84 7.59 0 0-.04.03-.11.07-.18.12-.57.39-1.13.76-2.82 1.89-9.77 6.55-13.73 9.04zm-10.11 268.77c.11-.05.28-.08.49-.1-.13.1-.27.21-.4.3-.04-.08-.07-.15-.09-.2zm55.11 11.57c-7.59 0-14.92.01-21.87.04-.05-.93-.21-2.06-.45-3.35-.75-4.11-2.27-8.52-2.46-13.94 0 0-.03 0-.07.01.18-2.17.99-7.15 1.83-11.7.26-1.37.51-2.7.76-3.91 5.3 1.59 9.9 2.49 10.77 1.18 0-.01.02-.02.02-.03 1.76-2.77 5.73-17.82 10.22-38.83 5.3 6.64 10.23 12.6 14.13 17.03.48 4.34.95 6.93 1.27 7.42.34.51 1.96 1.62 3.75 2.69-.13 2.32-.43 6.02-1.13 9.29-1.12 5.24-8.99 16.48-8.99 16.48s4.12 1.87 4.87 1.87 4.87-8.61 7.11-15.35a27.55 27.55 0 001.33-10.53c.96.48 1.73.79 2.04.79.36 0 3.69-1.06 8.35-2.53 1.14 1.36 2.19 2.72 3.08 4.05-.41.37-.67.8-.76 1.29-.07.46.02 1.06.21 1.81.05.19.11.4.17.61.55 1.9 1.5 4.59 1.89 8.1-.04.12-.03.25.02.38 0 .02.02.03.03.05.18 1.8.2 3.81-.05 6.04-.34.54-.47.97-.38 1.32.03.11.08.24.17.37-.99 7.06-2.96 14.86-2.43 19.3-10.1 0-21.44.07-33.45.07z"/><path class="cls-11" d="M425.27 161.95s0 .03-.01.08c-.59-.19-1.14-.42-1.65-.7a.39.39 0 00-.54.16.39.39 0 00.16.54c.6.33 1.24.59 1.94.8-.67 5.69-4.32 37.05-3.6 38.01.69.92 3.35 1.24 8 1.82.11 1.03.17 2.06-.04 3.07-.25 1.22-.97 2.41-2.11 2.9-1.46.63-3.26-.08-4.25-1.33-.29.86-.59 1.72-.88 2.59-.08.24-.17.5-.11.76.05.2.18.37.32.53.92 1.08 2.19 2 3.61 1.98.99-.02 1.93-.51 2.65-1.19.72-.68 1.24-1.54 1.7-2.42.82-1.61 1.47-3.33 1.69-5.13.04-.34.15-.9.14-1.4 1.68.26 4.28.92 7.25 1.76a11.41 11.41 0 01-3.55 2.73c-2.44 1.23-4.13 1.33-3.95 5.64.02.46.07.96.14 1.47 1 6.85 6.75 17.95 10.44 22.87.72.97 1.44 1.8 2.14 2.5-13.59.09-22.4.5-22.54 2.01-.16 1.82 24.17 1.98 54.39 1.98 7.57 0 14.8.02 21.37 0 2.34.25 5.69.38 10.51.38 14.02 0 23.02-1.59 23.55-1.85.29-.15.66-.61.76-1.23.08-.5-.02-1.09-.49-1.69-.78-.97-6.84-3.09-11.57-5.08.14-.08.22-.25.19-.42a.406.406 0 00-.47-.31c-.32.07-.64.13-.96.19-1.2-.53-2.27-1.05-3.06-1.52-.02-.01-.04-.03-.06-.04.15-.26.23-.51.19-.74a.666.666 0 00-.31-.47c-.32-.21-.99-.27-1.76-.24-2.74-2.62-4.29-6.32-4.95-6.97-.22-.22-.56-.21-1-.04l-.09-.3c-.11-.39-1.11-4.48-1.92-7.74-.51-2.06-.93-3.8-1-4.07s0-.02 0-.02c-.02-.08-.03-.15-.05-.22.02.07.03.14.05.21 0-.03 0-.16-.08-.32a.913.913 0 00-.08-.13c-.88-3.96-5.14-23.79-7.86-49.07l.06-.09c.3-.51.59-1.02.87-1.52 2.08-3.72 3.68-7.2 4.63-10.37 2.29-7.64 1.52-18.24-1.26-59.63 1.74-.59 4.94-3.26 4.69-6.16-.26-3.18-1.06-7.14-1.06-8.73 0-4.76 1.06-12.97 1.59-13.23.53-.26 4.51 1.42 9.26 1.76 7.41.53 19.32 1.85 20.37-7.67.87-7.85-20.66-26.69-20.91-26.63-.04.01-.1.04-.16.09-1.39-1.19-3.12-2.68-3.28-2.84-.26-.26-3.44-6.09-4.5-6.35q-1.06-.26-1.59-.26c-.59 0-.79-1.32-1.32-1.32s-.79.26-1.06 0c-.26-.26-.26-1.32-1.32-1.32-.58 0-1 .32-1.26.74-.6-.38-1.21-.77-1.78-1.13.03-.71.04-1.27.07-1.61.23-.05.42-.27.27-.53-.07-.11-.14-.21-.22-.3 0-.41-.05-.85-.13-1.29 1.06-.95 3.36-3.57 2.98-8.15-.49-5.92-5.11-2.2-5.77-3.02-.66-.82-.99-2.64-5.55-2.74-4.56-.11-7.53 4.01-7.53 4.01s-.83-.35-1.79-.02c-.39 0-.82.08-1.27.27-.55.22-1.03.54-1.42.93-.14.14-.14.37 0 .51s.37.14.51 0c.21-.21.45-.39.72-.55-.55.78-1.01 1.99-1.23 3.88-.63 5.44 2.02 11.73 3.51 14.6-2.01-.57-4.01-.93-5.76-.85-6.35.26-7.14 5.56-6.62 7.94.53 2.38.26 3.97-1.06 5.82s-.93 4.37-.93 4.37-6.65 6.15-10.67 10.14c-.11.1-.21.21-.31.31-.04.04-.09.09-.13.14-3.99 4.23-10.74 22.01-12.3 38.76-1.02 10.83-1.59 37.84-1.06 39.43.01.03.03.07.05.1-.01.4-.03.81-.05 1.21-.11 2.16-.3 4.31-.45 6.47-.08 1.11-.11 2.18-.03 3.26-2.86 1.35-3.76 5.02-3.96 6.12-5.36-1.23-9.31-2.6-9.31-2.6s-2.91-1.32-4.5-1.06c-1.59.26-4.76 12.17-4.23 14.82s3.97 3.97 3.97 3.97zm77.26-135.48s.79.53.26 1.32c-.2.31-.53.1-1.02-.22.73-1.12 2-3.27 2.84-4.7-.55 1.1-2.08 3.6-2.08 3.6zm-60.8 120.86c.39-2.21 1.2-3.55 1.99-4.34 0 .02.01.03.02.05.16.34.43.64.79.76.17.06.36.08.53.15.6.25.8 1.08 1.4 1.33.52.22 1.15-.08 1.67.14.53.22.74.85 1.15 1.26.3.3.73.48 1.16.47.36 0 .74-.14 1.08-.03.52.16.76.76 1.23 1.03 1.26.73 2.09-1.38 2.53-2.94.61.67 1.28 1.77 1.58 3.47-.99.02-2 .04-3.02.04-.32 0-.63 0-.95-.01 0-.16-.03-.25-.11-.25-.53 0-6.35-1.59-7.14-.79-.08.08-.17.19-.27.33a74.38 74.38 0 01-3.65-.66zm16.62-12.37c.53-.53 1.06-8.73 1.85-17.99.76-8.94 2.52-23.78 2.64-24.81-.01.2.03.85 1.06 1.26.02 0 .05.02.07.03.47 15.59 2.87 35.43 5.93 54.66-2.89.08-6.56.34-10.55.49-.31-1.67-1.14-4.39-3.3-5.85.16-.5.3-1.09.3-1.63 0-1.28-2.04-3.58-2.81-4.85-.33-.55-.38-1.53-.32-2.47 2.67.82 4.91 1.36 5.12 1.15zm40.57-99.43c-.39-.26-.67-.45-.8-.54-.05-.03-.08-.05-.08-.05-.74-2.77-1.73-4.37-2.71-5.36.7-.18 1.32-.46 1.74-.87.11-.11.21-.23.31-.36.19.24.43.43.67.51.56.19 1.46.13 2.51 1.19 1.06 1.06 1.72 1.46 2.51 1.72.75.25 3.18 1.06 3.7 1.32.38.19 2.93 2.73 4.36 4.16-1.38 2.49-2.51 4.66-2.51 4.66-2.8-1.76-7.72-5.05-9.71-6.39zm16.79 196.46c-.1-.07-.19-.14-.28-.21.15.02.27.04.34.07 0 .04-.03.09-.06.14zm-62.52 7.99c.38-3.14-1.02-8.65-1.71-13.64.07-.09.1-.18.12-.26.06-.25-.03-.55-.27-.94-.18-1.57-.16-2.99-.03-4.26 0-.01.01-.02.02-.03.04-.09.04-.18.01-.27.28-2.48.95-4.38 1.34-5.72.04-.15.08-.29.12-.43.13-.53.2-.95.15-1.28-.06-.35-.24-.65-.54-.91.63-.94 1.37-1.9 2.17-2.86 3.29 1.04 5.65 1.79 5.9 1.79.22 0 .76-.22 1.44-.56-.11 1.57-.09 4.35.94 7.44 1.59 4.76 4.5 10.85 5.03 10.85s3.44-1.32 3.44-1.32-5.56-7.94-6.35-11.64c-.5-2.31-.71-4.93-.8-6.57 1.26-.76 2.41-1.54 2.65-1.9.23-.34.56-2.18.9-5.24 2.76-3.13 6.24-7.34 9.99-12.03 3.17 14.84 5.98 25.48 7.22 27.44 0 0 .01.02.02.02.62.93 3.87.29 7.61-.83.17.85.35 1.79.53 2.76.6 3.22 1.17 6.73 1.3 8.27-.03 0-.05-.01-.05-.01-.13 3.83-1.21 6.95-1.74 9.85-.17.91-.29 1.71-.32 2.37-4.91-.02-10.09-.03-15.45-.03-8.49 0-16.5-.04-23.64-.05z"/><path class="cls-3" d="M507.69 125.6c-.08-.99-10.49-5.5-11.14-5.44-.5.04-4.68 6.94-6.63 10.21-.31-.57-.87-.67-1.14-.26-1.79 2.75-3.24 2.72-4.02 3.93-.91 1.44-4.57 7.82-5.76 9.91-.45-.36-.74-.58-.79-.58-.35-.02-2.6 3.32-2.6 3.32s-2.76-.15-4.56 1.14c-1.8 1.28-10.61 17.06-12.94 15.55-.77-.5-2.8-3.35-5.18-6.96-.28-.42-.56-.86-.85-1.3-.18-.28-.37-.57-.55-.86-.34-.52-.67-1.05-1.02-1.58-.54-.84-1.08-1.69-1.61-2.53-.02-.03-.04-.07-.06-.1 0-.01-.02-.03-.03-.04-.03-.05-.07-.11-.1-.16-.14-.22-.28-.44-.41-.66-.6-.96-5.15-7.09-5.76-7.96-1.64-2.36-4.75-4.99-6.3-6.23-.38-.31-.67-.53-.82-.65l-.12-.09s.58-2.97.31-4.37c-.27-1.4-6.31-7.77-9.66-9.68-.87-.5-3-1.24-5.84-1.98.02-.14.03-.28.05-.42.64.1 1.28.13 1.9.06 9.63-1.1 10.12-12.25 10.5-15.38.04.05.09.1.13.16 0-.12.03-.24.04-.36-.03-.28 0-.56.11-.81-.03-.02-.06-.05-.09-.07.03-.17.05-.35.06-.52 1.42-.94 2.76-2.32 2.96-4.21.46-4.3-2.61-7.25-5.08-9.98-1.94-2.14-7.1-7.05-16.01-3.47-5.21 2.09-8.01 6.17-8.59 11.81-.05-.03-.1-.06-.16-.09.03.2 0 .39-.04.59.05.19.06.39.04.59.02.01.04.02.06.04-.06 1.17-.02 2.39.09 3.68-2.63-.78-5.84-.13-8.86 4.81-3.38 5.53 2.46 10.13 2.46 10.13s0 .33.07.85c-3.52.11-6.79.63-9.34 1.78-1.35.61-4.76 2.13-5.83 6.24-.4 1.53-1.37 2.82-2.67 3.71-2.82 1.93-3.99 5.75-4.16 6.43-.31 1.22.98 2.18 1.74 2.62-.1.05-.2.1-.31.15-.01 0-.02-.01-.03-.02-5.78 2.82-11.57 9.28-14.06 18.66-.39 1.46-.83 2.89-1.16 4.29-.25 1.03-.46 2.03-.65 2.98-.11.52-.2 1.03-.29 1.52-.1.58-.2 1.14-.29 1.67-.14.85-.3 1.77-.47 2.75-.07.39-.15.8-.22 1.22-1.89 10.21-5.6 19.53-5.03 31.38.04.93.13 1.86.24 2.8-3.4 10.72-7.74 26.39-7.54 26.86.14.31 9.04 5.76 19.06 11.73.02.45.11.88.41 1.23s.67.64.93 1.02c.25.37.37.84.72 1.12.39.32.99.33 1.34.7.16.16.24.38.34.59.27.62.67 1.25 1.32 1.45.48.14 1.01.02 1.48.21.56.23.84.84 1.23 1.3.94 1.1 2.53 1.33 3.97 1.48.59.06 1.43.14 2.08-.08.06 13.36.06 23.96-.06 25.26-.35 3.8-19.69 56.29-19.69 56.29 0 .04.02.08.03.12-1.08 2.56-2.13 4.99-2.89 6.57-1.26 2.62-2.46 4.95-3.18 5.91-.92 1.22-2.84 2.91-4.76 4.68-2.44 2.25-4.87 4.63-5.26 6.37-.07.3-.09.69-.09 1.15.06 4.63 3.41 17.45 8.37 26.13 1.98 3.46 4 6.21 5.89 8.2-15.84.16-25.93.75-26.09 2.6-.21 2.37 31.68 2.59 71.3 2.59 12.74 0 24.73.04 35.14-.01 2.83.21 6.36.29 10.12.44 8.63.35 28.66 0 29.01-1.73.35-1.73-1.38-3.8-6.91-6.22-.24-.1-.48-.22-.74-.35-.09-.04-.18-.09-.27-.14-.18-.09-.35-.18-.54-.28-.11-.06-.23-.13-.35-.19-.17-.09-.34-.19-.52-.29-.13-.07-.26-.15-.39-.23-.17-.1-.34-.2-.52-.31-.14-.08-.28-.17-.42-.26-.18-.11-.35-.21-.53-.33-.15-.09-.3-.19-.45-.29-.18-.11-.35-.23-.53-.34l-.46-.31-.54-.36c-.16-.11-.31-.22-.47-.32-.18-.13-.36-.25-.55-.38-.16-.11-.32-.23-.48-.34-.18-.13-.36-.26-.55-.39-.16-.12-.32-.23-.48-.35-.18-.13-.36-.26-.54-.4l-.48-.36c-.18-.13-.36-.27-.54-.41-.16-.12-.32-.24-.47-.37-.18-.14-.35-.27-.52-.41-.16-.12-.31-.24-.46-.37-.17-.14-.34-.27-.51-.41-.15-.12-.3-.24-.45-.37l-.49-.4c-.15-.12-.29-.24-.43-.36-.16-.13-.31-.26-.46-.4-.14-.12-.28-.24-.41-.36-.21-.18-.42-.37-.62-.55-1.96-1.75-3.4-3.3-3.83-4.26-.55-1.24-1.18-5.35-1.75-9.85h-.1c-.4-3.41-.76-7.02-1.02-9.78l.1-.05s-5.53-70.8-6.91-80.47c-1.06-7.4-8.58-58.83-12.05-82.61 2.5-1.81 4.01-3.75 4.7-4.98.61-1.07.87-3.03.99-4.63.1-1.43.09-2.57.09-2.57.32.69.71 1.38 1.17 2.07 3.53 5.33 10.66 10.33 13.72 10.5 3.45.19 13.21-1.36 25.32-14.19s8.11-22.04 8.13-22.39c.02-.35 1.82-1.63 1.88-2.67.01-.28-.7-1.11-1.76-2.17.72-.53 2.13-1.54 2.28-1.63 1.27-.7 3.05-.32 4.2-1.22.74-.59 1-1.74 1.89-2.07.39-.14.83-.09 1.22-.25.72-.3.93-1.18 1.16-1.93.28-.91.73-1.75 1.25-2.54.48-.73 1.09-1.39 1.46-2.19.75-1.61.82-2.93.82-2.93l-1.43 2.12c3.07-4.67 7.93-12.2 7.88-12.88zM379.37 248.66c.51.3 1.01.59 1.51.88-.46-.23-1.24-.62-1.51-.88zm55.21 114.85c.54 2.56 1.09 5.16 1.57 7.55l-.12.06c.8 4.08 1.4 7.51 1.5 8.97.14 1.95-.45 4.13-1.14 6.3-.63 1.99-1.34 3.98-1.64 5.79-8.72-.07-18.31-.09-28.37-.09-13.55 0-26.17-.08-36.92-.06v-1.86c0-.11 0-.22-.01-.33v-.09c-.01-.29-.03-.6-.05-.91v-.15c0-.11-.01-.21-.02-.32 0-.07 0-.13-.01-.2 0-.09-.01-.19-.02-.28 0-.07 0-.13-.01-.2 0-.1-.01-.2-.02-.29 0-.07-.01-.14-.02-.2 0-.1-.01-.2-.02-.29 0-.07-.01-.14-.02-.22 0-.1-.02-.19-.02-.29 0-.07-.01-.15-.02-.22 0-.1-.02-.2-.02-.3 0-.07-.01-.15-.02-.22 0-.1-.02-.2-.03-.31 0-.07-.01-.15-.02-.22 0-.11-.02-.21-.03-.32 0-.07-.01-.14-.02-.21 0-.11-.02-.22-.03-.33 0-.07-.01-.14-.02-.22l-.03-.34c0-.07-.01-.13-.02-.2l-.03-.34c0-.08-.01-.15-.02-.23l-.03-.33c0-.07-.01-.14-.02-.2-.02-.17-.03-.33-.05-.5l-.12-1.24v-.08c-.02-.16-.03-.33-.05-.49v-.02c-.03-.36-.07-.73-.1-1.09 0-.07-.01-.15-.02-.22-.02-.23-.04-.47-.07-.71 0-.08-.01-.15-.02-.23 0-.09-.02-.18-.02-.27 0-.1-.02-.2-.03-.3 0-.09-.02-.18-.02-.27 0-.1-.02-.21-.03-.31 0-.09-.02-.17-.02-.26 0-.1-.02-.21-.03-.31 0-.09-.01-.17-.02-.26 0-.11-.02-.21-.03-.32 0-.09-.01-.17-.02-.26 0-.1-.02-.21-.03-.31 0-.09-.01-.18-.02-.27 0-.1-.02-.2-.02-.3 0-.09-.01-.18-.02-.27 0-.1-.01-.2-.02-.29 0-.09-.01-.19-.02-.28 0-.09-.01-.19-.02-.28 0-.09-.01-.18-.02-.27 0-.1-.01-.2-.02-.29 0-.09-.01-.17-.02-.26 0-.1-.01-.2-.02-.3 0-.09-.01-.17-.02-.25 0-.1-.01-.19-.02-.29 0-.09-.01-.18-.01-.26 0-.1 0-.19-.01-.28 0-.08 0-.17-.01-.25 0-.1 0-.19-.01-.29 0-.08 0-.16-.01-.24 0-.1 0-.2-.01-.3v-2.86c0-.6.03-1.18.06-1.73.09-1.43.28-2.66.6-3.57.6-1.7 1.72-4.16 3.07-6.9.35-.7.71-1.43 1.08-2.16l.39.42c2.1 2.21 4.54 4.56 7.78 4.61.3 0 .6-.01.9-.06 1.42-.22 1.86-.96 2.49-2.08.36-.64.71-1.29 1.05-1.94.86-1.64 1.68-3.31 2.48-4.98 2.1-4.38 4.09-8.81 6.04-13.25 2.26-5.15 6.88-16.2 9.03-21.39 2.1-5.07 4.16-14.29 6.16-19.4 1.21-3.09 2.4-6.18 3.54-9.3.35-.97.7-1.94 1.04-2.91 4.52 27.22 12.1 82.56 12.61 83.84.26.65 3.95-.76 8.44-2.76z"/><ellipse class="cls-3" cx="294.55" cy="323.61" rx="42.67" ry="4.27"/><path d="M326.07 79.88s2.43-2.5 2.5-8.41-5.84-7.5-5.84-7.5 2.12-1.29 1.89-5.38-6.52-8.19-6.52-8.19 2.5-2.96 0-8.06c-2.5-5.11-8.56-3.68-8.56-3.68s2.2-2.5-.68-5.53-6.75-.91-6.75-.91.15-5.84-8.19-6.44-7.66 6.9-7.66 6.9-7.73-1.72-7.66 12.21c0 0-6.22 3.02-5.23 12.42s4.4 11.75 4.4 11.75-6.59 5.23 2.05 13.72 46.24-2.88 46.24-2.88z" fill="#3b1113"/><path d="M268.09 203.69l55.68 3.52s-.35-27.44-2.93-37.59-8.19-35.93-7.58-41.99 9.4-24.86 9.4-24.86 7.12-11.82 3.41-22.89c0 0-2.54-4.74-16.6-7.66l-17.43 2.44s-9.02.67-14.14 9.42-15.01 21.37-16.6 25.47-4.09 17.62 4.21 19.21c8.3 1.59 12.51-.68 12.51-.68s-5.91 23.19-6.37 35.02c-.45 11.82-3.56 40.59-3.56 40.59z" fill="#da797a"/><path class="cls-6" d="M305.78 67.79V59h-12.15v12.47s0 2.45-1.59 3.2v2.62h13.74l3.69-5.06c-3.26-.91-3.69-4.44-3.69-4.44zm-6.01 137.91s.61 15.46 2.58 27.29 4.7 39.72 6.06 67.61l-5.53 5.41s5.83 8.39 10.38 7.02 6.31-3.83 6.31-3.83-.89-9.36.8-21.49c1.69-12.13 4.11-34.41 3.2-43.36s-3.2-19.71-3.2-19.71-2.25-13.79.78-17.89l-21.37-1.06zm-8.68-.76l-1.71 5.68s-2.16 5 0 12.96c2.16 7.96 4.32 14.55 4.89 28.99.57 14.44.8 41.5.8 41.5s.23 6.25 1.48 8.87c0 0 .68 8.19-8.98 5.57l-7.16-4.21 4.43-7.62s-4.78-26.26-6.59-33.65-5.57-27.4-7.05-33.2-2.5-13.53-2.39-20.81v-5.34l22.28 1.25z"/><path class="cls-1" d="M280.4 304.31s2.69-1.97 5.04 0 2.43 4.24 6.22 2.65 4.89-4.02 4.89-4.02l1.61 6.73s-10.06 11.24-21.74 13.36c0 0-8.34 1.29-11.6 0v-2.35s-.15-1.74 2.65-2.05 4.09-1.97 6.22-4.93 6.71-9.4 6.71-9.4z"/><path class="cls-1" d="M319.57 309.2s.74 5.97.8 12.45c0 0-3.18 1.36-18.08 2.16s-20.24 0-20.24 0v-2.44s-.11-1.76 1.76-2.5 8.75-3.75 12.56-7.45 6.37-6.59 9.55-5.63 3.35 5.8 5.86 5.86 7.79-2.44 7.79-2.44z"/><path class="cls-6" d="M304.73 53.28s1.33-2.96 4.28-2.27 2.88 9.25-3.11 7.81c0 0-1.21 8.34-10.76 8.94s-10.76-6.52-10.76-10.99 1.14-12.13 1.14-12.13 2.5.38 3.94-2.2c0 0 3.18 4.7 9.4-.45 0 0-.53 5.31 4.55 6.75 0 0-.3 3.64 1.33 4.55z"/><path d="M292.58 57.96s-2.66-.6-2.71-1.96c-.05-1.36 2.71-.6 2.71-.6v-1.21m7.49-.95s-2.36-1.96-4.37 0m1.26 8.58s-2.36-1.96-4.37 0m-2.08-8.58s-2.36-1.96-4.37 0" stroke="#333" stroke-width=".59" stroke-linecap="round" stroke-linejoin="round" fill="none"/><path d="M293.63 67.79v3.68s8.72-.55 10.12-7.93c0 0-2.39 4.29-10.12 4.25z" fill="#684121"/><path fill="#eeeff1" d="M292.04 77.28l-.68 19.43 14.42-19.43h-13.74z"/><path class="cls-6" d="M305.3 100.42s.83 1.67-2.12 2.35-6.37 1.52-7.96 2.35-4.09 1.52-3.87-1.06 2.96-2.58 2.96-2.58-.38-2.5 2.2-3.34c0 0 .02-1.89 2.06-2.12 0 0-.92-1.82 1.05-2.35h5s2.88-.3 2.05 3.03c0 0 2.8-.3 2.8.99s-.68 1.52-.68 1.52 1.06 1.14-3.49 1.21z"/><path d="M308.26 127.41s-2.39 13.53 1.93 27.29 6.71 32.63 6.82 47.07m-44.45-85.28s16.37 12.51 26.49 11.94 20.24-20.35 20.24-20.35m-36.27 17.73l-5 2.28m6.36-35.36l-6.82 13.14m-4.27 0h16.21m20.69-17.35l-3.64 4.21" stroke="#c1676b" stroke-width=".89" stroke-linecap="round" stroke-linejoin="round" fill="none"/><path class="cls-3" d="M655.6 97.17c-1.21 1.43-1.92 1.58-2.56 2.54-1.12 1.69-7.81 12.04-7.81 12.04 0 .02 0 .05-.01.07-.72 1.05-1.65 2.41-2.7 3.95-.21.3-.42.61-.63.92-2.02 2.95-4.04 5.89-6.12 8.79-.92 1.28-1.85 2.56-2.82 3.8-.68.88-1.55 2.32-2.59 2.79-.16.07-.34.08-.52.07-2.76-.14-2.91-4.12-4.67-5.65-.88-.76-2.04-1.1-2.93-1.85-.89-.75-1.41-1.85-1.91-2.91-1.28-2.74-2.41-5.63-3.76-8.31-1.17-2.34-3.13-4.64-4.76-6.68-.19-.24-.38-.47-.55-.66-.21-.24-.4-.45-.57-.62-2.86-2.86-8.03-4.78-11.91-6.15 0-.36 0-.72-.02-1.08.09-.04.17-.08.26-.12.53-.26 1.03-.58 1.51-.94.71-.48 1.29-1.08 1.76-1.74l.02-.02c.37-.48.72-.97.89-1.55.68-1.49.95-3.04 1.03-4.06.15-1.93.61-3.86.97-5.76.03-.18.07-.36.11-.54l.3-1.51c.02-.02.04-.03.06-.05.29-.29.34-.75.17-1.12v-.03c.09-.44.17-.88.26-1.32.35.42 1.15.05.88-.51a2.37 2.37 0 00-.63-.79l.18-.92c.21-1.12.42-2.24.61-3.36.03-.19.08-.47.12-.79.09-.54.15-1.04.2-1.52.03-.29.05-.52.05-.63.23-4.32-1.46-5.88-2.99-6.8-1.78-1.07-4.89-3.12-10.68-3.57-1.77-.14-3.33.26-4.63.87 0-.05.01-.1 0-.16-.16-1.8-.29-3.83-2.4-4.31-1.64-.37-2.97.59-3.7 1.94-2.78-.67-5.76.67-6.52 3.63-.75 2.9 1.31 5.8 4.3 5.94.09.19.27.33.47.38-.33 1.55.11 4.4.54 6.54-.47.3-.94.9-1.36 1.94-1.92 4.81 2.24 7.01 3.05 7.38 0 .14-.03.5-.08 1-6.9-.58-16.87.05-17.54 2.38-.68 2.39 1.69 3.51.33 5.9-1.36 2.38-5.68 6.31-1.7 11.06-5.75 3.83-11.3 8.05-13.57 10.56-.04.05-.09.1-.13.15-.15.17-.31.35-.47.54-6.49 7.96-15.84 31.31-19.34 49.42-1.84 9.57-2.42 28.72-2.49 40.17v3.78c-2.16-3.39-4.67-5.88-7.54-6.4-7.22-1.3-2.06 12.94 2.28 22.77-.47.24-.87.51-1.14.78-.09.09-.17.31-.24.65-2.23-2.07-4.81-3.32-7.1-1.57-2.27 1.74-.63 5.8 2.1 10.43-1.21.09-2.05.17-2.26.25-1.13.38-4.13 2.25-4.13 2.25l.41 2.9c-.67-.09-1.32-.18-1.94-.29 0 0-3.85 52.35-6.54 57.74-1.72 3.43 14.78 6.7 29.43 8.87-.09.08-.17.16-.26.23-.02.02-.05.04-.07.06-.11.09-.23.18-.35.27-.1.08-.2.15-.3.22a8.8 8.8 0 01-.64.42c-.87.52-1.68 1-2.4 1.55-.14.11-.28.22-.41.34-.14.12-.27.24-.39.37-.63.63-1.13 1.37-1.44 2.34-.02.06-.04.13-.06.19-.03.09-.05.17-.07.27-.09.37-.16.76-.2 1.2-.02.16-.03.33-.04.51-.01.32-.02.65 0 1.01.01.35.04.73.08 1.12.06.59.15 1.23.28 1.92.02.13.05.27.08.41.73 3.58 2.26 7.06 3.7 10.38 2 4.58 4.22 9.17 7 13.34.2.3.4.62.61.96-8.43.27-13.55.91-13.66 2.32-.16 2.25 24.5 2.46 55.14 2.46 28.27 0 51.72.28 55.34-1.86 1.51-.31 2.43-.69 2.5-1.13 1.55-4.45-5.4-4.45-11.13-6.37-.24-.09-.49-.18-.74-.28-.17-.06-.35-.13-.53-.2-.18-.07-.36-.14-.54-.22-.55-.22-1.11-.47-1.68-.73-7.7-3.64-8.88-7.25-12.33-8.96-.24-.35-.45-.69-.63-1.03-.51-.99-1.05-2.6-1.57-4.45-.22-.8-.45-1.65-.66-2.51v-.03c0-.03 0-.17-.08-.35-.77-3.67-7.35-35.49-10.9-70.62 0-.01.01-.03.02-.04.35-.77.68-1.52 1.01-2.24 2.56-5.76 4.35-10.04 4.88-11.74 2-6.5.13-46.49-.87-65.05-.04-.84-.09-1.63-.13-2.37 1.76-1.29 3.33-3.4 4.31-5.3 1.1-2.12 1.76-4.48 1.88-6.87.16-3.07-.53-6.11-.74-9.17-.15-2.29-.04-4.65.28-6.91.35.67.71 1.34 1.06 2.01v-.14c2.28 4.23 5.06 8.3 8.46 11.71 2.89 2.9 6.5 5.53 10.68 6.05 2.15.26 4.36-.27 6.44-.77 2.6-.62 3.72-3.74 5.03-5.75 1.56-2.38 3.76-3.94 5.67-5.98 1.81-1.93 3.32-4.39 4.83-6.58 1.56-2.26 4.68-7.16 7.23-11.22V97.23zM527.36 234.55c-.45-.78-1.45-2.43-2.76-4.14.04-.58.1-1.01.19-1.21 1.16 2.51 2.13 4.44 2.57 5.31v.04zm10.57 1.46s-.25-1.32-.75-3.42c.33-.04.65-.1.96 0 .27.08.48.27.68.49-.58 1.53-.89 2.94-.89 2.94zm2.27-17.91c3.25.65 5.99.59 6.26-1.26.9-6.32 1.4-12.7 2.14-19.04.53-4.46 1.09-8.91 1.72-13.36.31-2.18.64-4.36 1-6.53.16-.97.22-2.03.56-2.94.48-1.29 1.13-2.45 1.47-3.81.16-.66.4-.85 1.08-.66.06.41.04.84.06 1.27.37 13.47 1.54 27.61 3.18 41.65-3 4.18-5.87 9.24-8.32 14-1.74-.35-3.58-.69-4.97-.95l-.51-.15c.06-.33.11-.67.11-.99 0-1.54-2.47-4.32-3.39-5.86-.21-.35-.32-.84-.37-1.39zm4.36 19.11c-.06-3.55-.59-6.45-1.48-7.44 1.51.54 3.33 1.31 3.55 1.95.05.15.08.51.09 1.02-.77 1.61-1.46 3.11-2.06 4.46h-.09zm45.28 93.36h-.01v.02c-.06 1.71-.19 3.26-.37 4.66-.06.46-.12.91-.18 1.35-.11.73-.22 1.42-.34 2.07-.11.65-.23 1.26-.33 1.84-.14.77-.26 1.48-.35 2.13l-.06.48c-.07.69-.1 1.31-.06 1.89-3.05 0-6.18-.01-9.37-.01-9.48 0-18.38-.06-26.15-.06-.89-1.55-1.94-2.02-3.35-3.1-2.73-2.1-2.58-5.62-3.09-8.66-.32-1.9-.61-3.81-.79-5.74-.08-.92-.14-1.84-.16-2.76-.02-.8.22-1.84.07-2.61 0-.05-.02-.1-.03-.15.11-.96.28-1.9.53-2.8 0-.03.02-.06.03-.1.02-.05.03-.11.05-.16.1-.34.2-.68.31-1.02 2.94 3.33 6.2 5.58 9.29 4.63.94-.29 4.88-5.76 9.85-13.51 3.5-.88 6.75-2 9.09-3.05 3.1 12.7 5.52 20.91 6.26 22.12.72 1.17 2.99 1.25 5.9.76h.03c.13-.02.27-.05.4-.07h.03c.7-.13 1.43-.29 2.18-.47.02 0 .03 0 .05-.01.14-.03.28-.07.42-.1.02 0 .05-.01.07-.02.03 0 .06-.02.09-.02.01.86 0 1.69-.03 2.48z"/><path class="cls-3" d="M583.73 84.81v.03l-.04-.05.04.02z"/><path class="cls-11" d="M205.8 34.51l-.04-.33s-5.02.64-7.7-4.29-2.03-8.72-2.03-8.72-4.31-2.13-1.29-7.45 9.32-9.36 16.04-5.87 5.8 12.51 5.8 12.51 3.65-1.83 6.84 3.49-1.92 8-1.92 8l-.05.65-14.25 4.96-1.41-2.95z"/><path class="cls-3" d="M406.08 99.83s-1.12-3.21.75-8.49 2.3 5.02 2.3 5.02l-3.05 3.47zm26.71 1.05s.29 5.02-1.92 9.91-1.19-8.55-1.19-8.55l3.11-1.36z"/></g></svg>