<?xml version="1.0" encoding="UTF-8"?><svg xmlns="http://www.w3.org/2000/svg" viewBox="0 0 600 400"><defs><style>.cls-1{stroke:#333;stroke-width:1.9px;}.cls-1,.cls-2{fill:none;stroke-linecap:round;stroke-linejoin:round;}.cls-3{fill:#eaa086;}.cls-4{fill:#ffb291;}.cls-5{fill:#eeeff1;}.cls-6{fill:#c5cfd6;}.cls-7{fill:#dde6ed;}.cls-8{fill:#493333;}.cls-9{fill:#5581a7;}.cls-2{stroke:#c5cfd6;stroke-width:2.33px;}.cls-10{fill:#e5e7ea;}</style></defs><g id="Layer_1"><rect class="cls-9" x="-11.85" y="-4.87" width="613.79" height="420.56"/></g><g id="characters"><path class="cls-5" d="m406.29,328.48c-8.33,18.67-19.6,35.87-34.62,49.21-14.1,12.53-31.83,19.99-50.83,19.58-21.84-.47-42.35-10.88-55.77-28.09-12.24-15.7-22.12-32.23-23.43-51.95,7.97-4.13,20.68-10.54,28.41-13.31,1.19-.43,2.34-.84,3.46-1.23,1.33-.46,2.62-.91,3.86-1.34,7.1-2.49,12.43-4.44,13.91-6.04.07-.07.13-.15.18-.21.1-.15.17-.28.2-.43.01-.06.02-.09.04-.13,1.96-.59,3.93-1.19,5.91-1.75,8.57-2.52,17.24-4.8,25.95-6.65,4.84-1.03,9.72-1.83,14.59-2.51h.04c1.74,1.06,15.15,8.8,22.4,14.07-.01.02-.02.04-.03.06-.78,1.55-.97,1.87-.97,1.87,0,0,.66.39,1.55.91,1.66.99,4.07,2.42,4.39,2.59,1.46.8,2.95,1.64,4.47,2.5,11.24,6.4,24.07,14.52,36.27,22.86Z"/><path class="cls-7" d="m417.49,518.83c3.36,13.44-7.84,44.8-10.08,45.92-2.24,1.12-42.32,6.72-71,6.72-16.56,0-53.76-3.36-87.05-3.29-.66,0-7.49.02-8.15-.07-4.7-.62-18.86-3.49-20.84-4.48-2.24-1.12-12.32-25.76-11.2-33.6,1.22-8.56,4.03-15.09,6.61-21.75,1.88-4.86,3.65-9.19,4.59-12.97.54-2.13.06-9.22-1-18.78-3.34-30.59-12.44-86.5-12.44-86.5,0,0,12.32-53.76,20.16-62.72,7.84-8.96,39.91-23.23,39.91-23.23,0,0-4.07,66.91,28.41,69.15,32.48,2.24,75.04-67.2,75.04-67.2,0,0,7.84,5.6,28.78,16.82,20.94,11.22,24.98,20.14,24.98,20.14,0,0,4.48,49.28,4.48,61.6s-11.2,49.28-16.8,64.96c-5.6,15.68,2.24,35.84,5.6,49.28Z"/><path class="cls-8" d="m247.82,208.33s-20.53-10.29-21.58-38.8c-1.05-28.51,23.85-18.53,25.78-17.67,1.32-6.41,7.33-16.59,24.89-16.24,21.89.43,39.39,20.67,39.39,20.67,0,0,25.38-1.56,27.33,23.43,2.48,31.75-5.86,58.18-17.96,69.89-6.14,5.94-77.85-41.26-77.85-41.26Z"/><path class="cls-4" d="m338.22,283.61c-4.89,6.53-18.26,22.23-28.24,32.5l-13.44,48.16s-3.36-58.24-5.02-67.82c-.07-.38-.15-.77-.22-1.15.06-.07.12-.15.17-.21.11-.15.18-.29.22-.42.56-2.25.34-6.57-.05-10.57-.26-2.61-.6-5.09-.84-6.76-.19-1.29,32.13-58.51,32.13-58.51,0,0,6.29,51.49,15.29,64.78Z"/><path class="cls-3" d="m291.47,295.1c.11-.15.18-.29.22-.42.56-2.25.34-6.57-.05-10.57-.26-2.61-1.58-10-1.83-11.67,0,0,3.46-2.83,3.12-4.8,0-.04,0-.07-.01-.11,7.74-10.77,16.09-22.42,21.75-24.1,1.01-.3,1.94-.3,2.78.07,1.51.67,2.74,2.5,3.22,5.91,4.23,30.07-22.1,44.49-29.21,45.68Z"/><path class="cls-4" d="m245.74,215.67c1.36,5.58,5.89,49.6,19.35,60.13,7.11,5.57,23.12,3.31,30.49.99,22.7-7.16,31.59-25.55,31.22-43.69,0,0,18-13.96,5.12-28.4-8.78-9.84-18.45,7.3-18.45,7.3,0,0-5.87-5.92-12.5-21.09-13.08,4.5-43.47,4.56-53.78-5.2,0,0-3.68,20.83-1.46,29.97Z"/><path class="cls-7" d="m434.29,403.47c-.93,6.5-7.57,18.61-16.91,32.93-4.07,6.22-8.64,12.85-13.46,19.61-24.35,34.08-55.37,71.52-61.47,76.26-10.08,7.84-21.28,3.36-29.12,0-7.84-3.36-19.04-4.48-23.52-5.6-2.88-.72-20.98-6.52-36.53-15.02-.77-.41-1.55-.85-2.3-1.29-7.76-4.45-14.64-9.58-18.29-15.05-11.2-16.8,11.2-63.84,11.2-63.84l5.3,1.86,61.9,21.66c0-7.84,4.48-14.56,10.08-15.68,5.6-1.12,6.72-6.72,6.72-14.56,0-3.12,3.92-11.23,8.64-19.86,1.52-2.8,3.12-5.64,4.72-8.39,5.8-10.06,11.29-18.79,11.29-18.79,0,0,.17-.18.48-.53,5.02-5.41,47.43-50.59,61.12-44.27,3.1,1.43,5.96,4.4,8.49,8.4.45.72.9,1.47,1.32,2.24,8.48,15.3,12.87,42.31,10.35,59.92Z"/><path class="cls-7" d="m255.09,366.51s-3.11,9.45-7.38,22.51c-.22.69-.46,1.4-.69,2.11-8.55,26.15-21.1,64.83-23.29,72.82-2.99,10.96,0,23.52-16.09,31.99-5.9,3.11-14.01,4.24-20.42,3.48-8.89-1.06-17.48-4.72-24.33-10.51-5.85-4.94-10.45-11.44-12.67-18.76-2.23-7.32-1.98-15.46,1.16-22.43,2.37-5.24,6.31-9.81,7.62-15.41,1.68-7.16-1.15-15.11,1.84-21.83,1.85-4.18,5.63-7.09,8.85-10.33,5.45-5.49,8.89-11.91,11.72-19.02,5.52-13.92,11.55-27.68,17.66-41.37.38-.85.76-1.7,1.14-2.54,2.98-6.68,5.99-13.33,8.96-19.99l45.92,49.28Z"/><path class="cls-6" d="m238.29,335.15s20.16,26.88,16.8,31.36c-3.36,4.48-17.7-4.47-27.33-16.79-9.63-12.33,10.53-14.57,10.53-14.57Z"/><path class="cls-3" d="m284.9,262.64c-.43-.96-1.62-1.25-2.65-1.42-5.43-.91-10.86-1.83-16.29-2.74-3.08-.52-6.71-.87-8.88,1.37-1.5,1.55-1.92,4.03-3.7,5.25-.96.65-2.21.85-3.06,1.64-.73.68-1.07,1.71-1.83,2.36-1.45,1.25-3.68.6-5.54,1.05-3.45.84-4.95,5.23-8.27,6.49-1.46.56-3.13.44-4.56,1.09-1.76.81-2.8,2.61-3.72,4.31-6.13,11.23-10.92,23.13-16.66,34.63,0,0-5.6,7.84,21.28,36.96,0,0,14-30.8,16.24-33.04,0,0,11.2-5.6,19.04-16.8.06-.09.66.38.71.29,2.01-1.38,4.56-3.59,4-6.32-.59-2.83-.74-5.66-.92-8.58-.02-.31.02-.72.33-.81.15-.04.31.02.46.09,1.34.63,2.56,1.55,3.98,1.96,1.42.41,3.21.14,3.97-1.13.75-1.26.2-2.86-.38-4.21-1.59-3.71-3.13-7.5-5.18-10.96-1.21-2.05-2.65-5.03-5.02-6.03,4.67.33,9.3.27,13.73-1.27,1.6-.56,3.63-2.64,2.93-4.19Z"/><path class="cls-10" d="m319.27,65.87l-.54-3.11c-.25-1.5-.45-2.5-.59-3-.26-1.07-.23-1.97.08-2.72.22-.52.63-1,1.25-1.44.62-.44,1.26-.83,1.92-1.17,3.74-1.85,7.63-3.14,11.69-3.86,4.05-.72,8.6,0,13.63,2.19,3.5,1.45,6,3.63,7.51,6.52,1.5,2.9,2.3,5.78,2.37,8.65.07,2.87-.2,5.05-.81,6.54-1.67,4.02-4.06,7.09-7.16,9.21-3.11,2.12-6.28,3.4-9.52,3.84-3.24.45-5.2.75-5.88.9-1.04.18-2.06.74-3.05,1.68-1,.94-1.66,1.78-1.97,2.53l-2.58,6.53c-.36,1.07-.86,1.8-1.5,2.19-.64.39-1.26.46-1.86.21l-7.09-2.81c-1.28-.71-1.63-1.86-1.06-3.45,1.23-3.59,2.11-6.02,2.63-7.29,2.7-6.3,10.17-10.41,22.4-12.32,1.03-.18,2-.66,2.88-1.42.89-.77,1.53-1.63,1.93-2.6.34-1.25.41-2.71.18-4.38-.23-1.67-1.26-2.92-3.09-3.77-1.94-.8-4.94-.67-9,.39-4.07,1.06-7.47,2.16-10.21,3.3-.53.22-1.01.23-1.46.05-.6-.25-.97-.71-1.13-1.39Zm-1.11,45.91c.67.28,1.21.72,1.61,1.32.4.61.45,1.28.14,2.02l-2.53,6.42c-.25.6-.82,1.08-1.72,1.45-.9.37-1.68.42-2.35.14l-3.29-1.23c-.82-.34-1.72-.8-2.7-1.38-.71-.38-1.14-1.26-1.27-2.62-.05-.72.4-2.23,1.36-4.54.43-1.04,1-2.2,1.71-3.48.12-.3.49-.54,1.09-.73.6-.19,1.05-.22,1.35-.1.85.27,2.05.74,3.6,1.43,1.55.69,2.55,1.12,2.99,1.31Z"/><path class="cls-10" d="m376.11,184.37l-.54-3.11c-.25-1.5-.45-2.5-.59-3-.26-1.07-.23-1.97.08-2.72.22-.52.63-1,1.25-1.44.62-.44,1.26-.83,1.92-1.17,3.74-1.85,7.63-3.14,11.69-3.86,4.05-.72,8.6,0,13.63,2.19,3.5,1.45,6,3.63,7.51,6.52,1.5,2.9,2.3,5.78,2.37,8.65.07,2.87-.2,5.05-.81,6.54-1.67,4.02-4.06,7.09-7.16,9.21-3.11,2.12-6.28,3.4-9.52,3.84-3.24.45-5.2.75-5.88.9-1.04.18-2.06.74-3.05,1.68-1,.94-1.66,1.78-1.97,2.53l-2.58,6.53c-.36,1.07-.86,1.8-1.5,2.19-.64.39-1.26.46-1.86.21l-7.09-2.81c-1.28-.71-1.63-1.86-1.06-3.45,1.23-3.59,2.11-6.02,2.63-7.29,2.7-6.3,10.17-10.41,22.4-12.32,1.03-.18,2-.66,2.88-1.42.89-.77,1.53-1.63,1.93-2.6.34-1.25.41-2.71.18-4.38-.23-1.67-1.26-2.92-3.09-3.77-1.94-.8-4.94-.67-9,.39-4.07,1.06-7.47,2.16-10.21,3.3-.53.22-1.01.23-1.46.05-.6-.25-.97-.71-1.13-1.39Zm-1.11,45.91c.67.28,1.21.72,1.61,1.32.4.61.45,1.28.14,2.02l-2.53,6.42c-.25.6-.82,1.08-1.72,1.45-.9.37-1.68.42-2.35.14l-3.29-1.23c-.82-.34-1.72-.8-2.7-1.38-.71-.38-1.14-1.26-1.27-2.62-.05-.72.4-2.23,1.36-4.54.43-1.04,1-2.2,1.71-3.48.12-.3.49-.54,1.09-.73.6-.19,1.05-.22,1.35-.1.85.27,2.05.74,3.6,1.43,1.55.69,2.55,1.12,2.99,1.31Z"/><path class="cls-10" d="m187.78,87.88l-2.23-1.9c-1.07-.92-1.8-1.52-2.19-1.79-.81-.61-1.33-1.27-1.55-1.99-.15-.5-.14-1.09.04-1.77.18-.68.41-1.34.69-1.97,1.58-3.54,3.6-6.76,6.07-9.67,2.47-2.91,6.15-5.08,11.04-6.5,3.36-1.03,6.44-.96,9.23.22,2.79,1.18,5.06,2.77,6.81,4.78,1.75,2.01,2.85,3.73,3.28,5.16,1.19,3.86,1.29,7.47.33,10.82-.97,3.35-2.48,6.14-4.53,8.38-2.06,2.24-3.28,3.61-3.67,4.12-.63.74-1.03,1.75-1.19,3.01-.16,1.26-.13,2.25.09,2.97l2.02,6.19c.38.98.45,1.8.22,2.46-.23.66-.63,1.07-1.2,1.25l-6.73,2.18c-1.33.25-2.27-.36-2.8-1.84-1.25-3.3-2.06-5.55-2.43-6.77-1.8-6.1,1.12-13.46,8.73-22.06.63-.74,1.04-1.65,1.22-2.72.18-1.07.13-2.07-.16-3-.5-1.1-1.31-2.18-2.46-3.24-1.15-1.06-2.63-1.35-4.44-.87-1.86.57-3.93,2.44-6.21,5.6-2.28,3.17-4.06,5.96-5.35,8.39-.25.47-.59.77-1.02.9-.57.18-1.11.07-1.63-.32Zm26.36,33.49c.64-.2,1.29-.2,1.94,0,.65.19,1.08.65,1.3,1.36l1.98,6.09c.18.57.05,1.26-.37,2.05-.42.8-.95,1.29-1.6,1.49l-3.08,1.06c-.79.24-1.7.44-2.75.61-.74.15-1.56-.23-2.46-1.12-.46-.48-1.03-1.84-1.71-4.05-.31-1-.59-2.17-.84-3.5-.09-.29.03-.67.35-1.16.32-.49.62-.78.91-.87.76-.31,1.9-.68,3.42-1.11,1.51-.42,2.49-.7,2.91-.84Z"/><path class="cls-10" d="m189.39,217.59l-2.41-1.66c-1.16-.81-1.94-1.33-2.37-1.56-.87-.52-1.45-1.13-1.75-1.82-.2-.48-.25-1.07-.14-1.77.11-.7.27-1.37.48-2.03,1.21-3.68,2.89-7.09,5.06-10.24,2.16-3.15,5.6-5.68,10.32-7.59,3.24-1.37,6.31-1.61,9.2-.72,2.89.89,5.32,2.24,7.26,4.06,1.95,1.82,3.21,3.42,3.79,4.8,1.57,3.72,2.05,7.3,1.43,10.73-.62,3.43-1.84,6.37-3.66,8.8-1.82,2.43-2.89,3.93-3.23,4.47-.56.8-.85,1.84-.88,3.11-.03,1.27.1,2.25.39,2.94l2.64,5.95c.48.94.63,1.74.47,2.42-.16.68-.52,1.13-1.07,1.37l-6.47,2.86c-1.3.39-2.29-.13-2.97-1.55-1.58-3.15-2.61-5.31-3.11-6.49-2.41-5.89-.26-13.5,6.44-22.83.55-.8.87-1.75.94-2.83.07-1.08-.09-2.08-.46-2.97-.61-1.04-1.53-2.03-2.78-2.97-1.25-.93-2.75-1.07-4.5-.41-1.79.76-3.66,2.83-5.6,6.21-1.94,3.38-3.43,6.35-4.47,8.9-.2.49-.5.82-.92,1-.55.23-1.1.18-1.65-.16Zm29.64,30.62c.62-.26,1.26-.33,1.92-.2.66.13,1.14.54,1.43,1.22l2.6,5.85c.23.55.18,1.25-.16,2.08-.34.83-.82,1.38-1.44,1.64l-2.96,1.37c-.76.32-1.65.62-2.67.89-.72.22-1.57-.07-2.56-.87-.51-.43-1.21-1.72-2.12-3.86-.41-.96-.81-2.1-1.19-3.4-.12-.27-.04-.67.23-1.19.27-.52.54-.84.82-.95.73-.39,1.83-.87,3.29-1.45,1.46-.58,2.4-.95,2.81-1.13Z"/><line class="cls-2" x1="238.54" y1="420.67" x2="253.81" y2="373.14"/><line class="cls-2" x1="310.13" y1="453" x2="352.53" y2="377.71"/><polyline class="cls-2" points="359.62 299.62 335.32 337.87 314.34 317.23"/><polyline class="cls-2" points="278.2 304.08 278.2 335.15 292.09 320.92"/></g><g id="Isolation_Mode"><path class="cls-1" d="m273.38,240.63s-6.44-1.91-6.34-5.25c.1-3.34,6.76-1.04,6.76-1.04l.2-2.96"/><path class="cls-1" d="m301.56,220.2s-9.73-9.23-19.07-1.26"/><path class="cls-1" d="m263.03,223.23s-8.61-8.16-16.86-1.12"/><line class="cls-1" x1="276.61" y1="260.61" x2="289.81" y2="258.66"/></g></svg>