<svg id="Happy" xmlns="http://www.w3.org/2000/svg" viewBox="0 0 600 400"><defs><clipPath id="clippath"><path fill="none" d="M0 0h600v400H0z"/></clipPath><style>.cls-2{fill:#262626}.cls-3{fill:#fff}.cls-4{fill:#6d4e4e}.cls-7{fill:#ffb291}.cls-11{fill:#333}.cls-13{fill:#5581a7}.cls-15{fill:#4b3333}.cls-16{fill:#426987}</style></defs><g clip-path="url(#clippath)"><path fill="#b8c7d3" d="M-18.51-4.62h621.04v418.53H-18.51z"/><g id="Nature071_Cloud"><path class="cls-3" d="M359.47 264.76c-.87 0-1.68.18-2.46.44-2.21-2.93-5.68-4.85-9.63-4.85-3.49 0-6.61 1.5-8.81 3.86-.89-3.56-4.08-6.2-7.92-6.2-1.3 0-2.5.33-3.59.86-3.51-7.12-10.82-12.04-19.31-12.04-2.25 0-4.41.35-6.45.98-2.2-5.57-7.6-9.51-13.96-9.51-2.46 0-4.75.65-6.8 1.69-4.24-7.6-12.36-12.75-21.69-12.75-7.64 0-14.47 3.46-19.02 8.89-1.03-.38-2.12-.62-3.28-.62-5.24 0-9.48 4.25-9.48 9.48 0 .54.07 1.06.16 1.57a15.872 15.872 0 00-6.03 4.98 16.032 16.032 0 00-11.4-4.72c-7.07 0-13.01 4.58-15.18 10.91-2-.89-4.2-1.41-6.53-1.41-6.32 0-11.73 3.67-14.37 8.96-1.02-.31-2.08-.53-3.2-.53-6.03 0-10.92 4.89-10.92 10.92s4.89 10.92 10.92 10.92c2.53 0 4.84-.9 6.69-2.35.02.01.03.03.05.04.23 5.04 4.35 9.06 9.44 9.06 1.41 0 2.74-.33 3.94-.88 2.57 3.86 6.95 6.4 11.94 6.4s9.7-2.78 12.22-6.92c2.74 2.25 6.14 3.67 9.9 3.93.74 4.5 4.62 7.94 9.33 7.94 2.73 0 5.17-1.17 6.91-3.02 2.35 1.48 5.12 2.37 8.1 2.37 4.11 0 7.82-1.64 10.57-4.28 4.14 5.02 10.42 8.23 17.44 8.23 7.71 0 14.5-3.86 18.59-9.74h.05c3.46 0 6.46-1.88 8.12-4.65 3.26 3.72 7.99 6.12 13.32 6.12 7.63 0 14.08-4.83 16.6-11.58a12.15 12.15 0 0011.2 7.41c6.72 0 12.16-5.44 12.16-12.16 0-.89-.11-1.76-.29-2.6.07-.08.14-.16.2-.24.78.26 1.59.44 2.46.44 4.24 0 7.68-3.44 7.68-7.68s-3.44-7.68-7.68-7.68z"/><path class="cls-3" d="M365.23 267.37c.08 2.27-.58 4.54-2.24 6.41-.35.4-.75.78-1.18 1.14-1.34 1.25-4.82 2.62-8.84-.35 1.34 4.55-2.59 9.96-7.26 11.02-6.01 1.36-14.1-.53-17.28-5.82-2.28.98-6.28.98-7.83-1.83-3.85 4.14-10.38 5.58-16.08 4.44-3.89-.78-7.86-2.98-10.34-6.11-.96-1.21-1.78-2.54-2.36-3.97-2.07 2.49-12.79 1.65-18.27-2.69 0 0 5.34 9.34 14 10.16-3.47 4.06-8.29 7.11-13 8.13-4.3.92-9.02.66-13.25-.52-2.44-.68-4.72-1.75-6.48-3.3-1.44 1.49-17.53 5.85-23.33-8.36 10.9 4.5 19.99 1.93 25.57-6.67 0 0-16.73 9.09-26.31-7.31 0 0-7.31 17.54-20.95 11.53.16 10.56-12.67 17.86-16.01 9.07-3.45 2.18-7.53 3.17-11.02 1.03-1.52-.93-2.59-2.23-3.27-3.72-10.58 8.12-22.16-10.51-10.6-14.77-5.27.78-9.31 5.32-9.31 10.8 0 6.03 4.89 10.92 10.92 10.92 2.53 0 4.84-.9 6.69-2.35.02.01.03.03.05.04.23 5.04 4.35 9.06 9.44 9.06 1.41 0 2.74-.33 3.94-.88 2.57 3.86 6.95 6.4 11.94 6.4s9.7-2.78 12.22-6.92c2.74 2.25 6.14 3.67 9.9 3.93.74 4.5 4.62 7.94 9.33 7.94 2.73 0 5.17-1.17 6.91-3.02 2.35 1.48 5.12 2.37 8.1 2.37 4.11 0 7.82-1.64 10.57-4.28 4.14 5.02 10.42 8.23 17.44 8.23 7.71 0 14.5-3.86 18.59-9.74h.05c3.46 0 6.46-1.88 8.12-4.65 3.26 3.72 7.99 6.12 13.32 6.12 7.63 0 14.08-4.83 16.6-11.58a12.15 12.15 0 0011.2 7.41c6.72 0 12.16-5.44 12.16-12.16 0-.89-.11-1.76-.29-2.6.07-.08.14-.16.2-.24.78.26 1.59.44 2.46.44a7.682 7.682 0 005.77-12.75z"/><path class="cls-3" d="M355.57 277.82c.18.84.89 2.6.89 3.49 0 6.72-4.81 11.67-11.53 11.67-5.03 0-9.34-3.05-11.2-7.41-2.52 6.75-8.97 11.58-16.6 11.58-5.34 0-10.07-2.4-13.32-6.12-1.66 2.77-5.17 5.22-8.82 3.75-4.08 5.89-10.23 10.63-17.94 10.63-7.02 0-13.3-3.2-17.44-8.23-2.75 2.64-6.46 4.28-10.57 4.28-2.99 0-5.75-.89-8.1-2.37-1.73 1.85-4.17 3.02-6.91 3.02-4.71 0-9.12-2.87-7.42-8.23-4.55 2.03-9.92-.59-11.61-4.55-2.52 4.13-7.23 7.81-12.42 7.81s-9.37-2.54-11.94-6.4c-1.2.55-2.98 1.51-4.39 1.51-5.09 0-8.07-4.28-8.36-10.47-1.85 1.45-4.84 3.09-7.37 3.09-5.75 0-10.45-4.44-10.89-10.07-.02.28-.04.57-.04.86 0 6.03 4.89 10.92 10.92 10.92 2.53 0 4.84-.9 6.69-2.35.02.01.03.03.05.04.23 5.04 4.35 9.06 9.44 9.06 1.41 0 2.74-.33 3.94-.88 2.57 3.86 6.95 6.4 11.94 6.4s9.7-2.78 12.22-6.92c2.74 2.25 6.14 3.67 9.9 3.93.74 4.5 4.62 7.94 9.33 7.94 2.73 0 5.17-1.17 6.91-3.02 2.35 1.48 5.12 2.37 8.1 2.37 4.11 0 7.82-1.64 10.57-4.28 4.14 5.02 10.42 8.23 17.44 8.23 7.71 0 14.5-3.86 18.59-9.74h.05c3.46 0 6.46-1.88 8.12-4.65 3.26 3.72 7.99 6.12 13.32 6.12 7.63 0 14.08-4.83 16.6-11.58a12.15 12.15 0 0011.2 7.41c6.72 0 12.16-5.44 12.16-12.16 0-.89-.11-1.76-.29-2.6.07-.08.14-.16.2-.24.78.26 1.59.44 2.46.44 4.24 0 7.68-3.44 7.68-7.68 0-.29-.02-.57-.05-.86-.47 4.17-4.31 9.5-11.53 6.24zM177.9 281.8zm0 0zm181.57-17.04c-.87 0-1.68.18-2.46.44-2.21-2.93-5.68-4.85-9.63-4.85-3.49 0-6.61 1.5-8.81 3.86-.89-3.56-4.08-6.2-7.92-6.2-1.3 0-2.5.33-3.59.86-3.51-7.12-10.82-12.04-19.31-12.04-2.25 0-4.41.35-6.45.98-2.2-5.57-7.6-9.51-13.96-9.51-2.46 0-4.75.65-6.8 1.69-4.24-7.6-12.36-12.75-21.69-12.75-7.64 0-14.47 3.46-19.02 8.89-1.03-.38-2.12-.62-3.28-.62-5.24 0-9.48 4.25-9.48 9.48 0 .54.07 1.06.16 1.57a15.872 15.872 0 00-6.03 4.98 16.032 16.032 0 00-11.4-4.72c-7.07 0-13.01 4.58-15.18 10.91-2-.89-4.2-1.41-6.53-1.41-4.31 0-8.19 1.71-11.07 4.47 2.75-1.95 9.18-3.47 13.72-1.63-3.7.03-4.95 3.51-4.95 3.51-11.15-1.71-12 9.38-12 9.38 3.23-8.04 13.15-5.6 13.15-5.6.12-2.31 4.17-4.82 8.16-2.82 2.63-3.54 6.25-6.26 10.62-7.61 4.85-1.5 9.74-1.01 14.1 1.07 1.51-4.29 17.59-12.89 28.47.91 9.74-5.03 19.35-.4 19.35-.4-4.17-6.41-10.56-8.62-18.49-7.46 4.79-9.96 23.22-11.21 26.37-1.22 3.79-6.51 21.33-2.78 22.3 7.78.02.02 9.91-8.08 20.84 2.89 2.63-.69 5.48-.34 8.08 1.06 2.53 1.36 4.68 3.49 6.14 6 1.46-.15 2.94-.02 4.36.49 1.45.52 2.76 1.25 3.91 2.18 1.22-.54 2.56-.81 3.98-.67 1.64.15 3.31.58 4.75 1.38.03-.02.07-.03.1-.05 1.61-1.66 3.67-2.94 5.9-3.72 2.02-.71 4.13-.94 6.26-1.01-.84-.31-1.74-.49-2.69-.49z"/></g><g id="Nature071_Cloud-2"><path class="cls-3" d="M619.91 245.3a24.809 24.809 0 00-6.41 5.44c-1.03-.38-2.12-.62-3.28-.62-5.24 0-9.48 4.25-9.48 9.48 0 .54.07 1.06.16 1.57a15.872 15.872 0 00-6.03 4.98 16.032 16.032 0 00-11.4-4.72c-7.07 0-13.01 4.58-15.17 10.91-2-.89-4.2-1.41-6.54-1.41-6.32 0-11.73 3.67-14.37 8.96-1.02-.31-2.08-.53-3.2-.53-6.03 0-10.92 4.89-10.92 10.92s4.89 10.92 10.92 10.92c2.53 0 4.84-.9 6.69-2.35.02.01.03.03.05.04.23 5.04 4.35 9.06 9.44 9.06 1.41 0 2.74-.33 3.94-.88 2.57 3.86 6.95 6.4 11.94 6.4s9.7-2.78 12.22-6.92c2.74 2.25 6.14 3.67 9.9 3.93.74 4.5 4.62 7.94 9.33 7.94 2.73 0 5.17-1.17 6.91-3.02a15.38 15.38 0 005.31 2.1v-72.22z"/><path class="cls-3" d="M619.91 300.49c-5.26-.15-11.56-2.34-14.75-10.16 5.44 2.25 10.42 2.73 14.75 1.59v-5.75c-5.12-.11-11.06-2.24-15.49-9.81 0 0-7.31 17.54-20.95 11.53.16 10.56-12.67 17.86-16.01 9.07-3.45 2.18-7.53 3.17-11.02 1.03-1.52-.93-2.59-2.23-3.27-3.72-10.58 8.12-22.16-10.51-10.6-14.77-5.27.78-9.31 5.32-9.31 10.8 0 6.03 4.89 10.92 10.92 10.92 2.53 0 4.84-.9 6.69-2.35.02.01.03.03.05.04.23 5.04 4.35 9.06 9.44 9.06 1.41 0 2.74-.33 3.94-.88 2.57 3.86 6.95 6.4 11.94 6.4s9.7-2.78 12.22-6.92c2.74 2.25 6.14 3.67 9.9 3.93.74 4.5 4.62 7.94 9.33 7.94 2.73 0 5.17-1.17 6.91-3.02a15.38 15.38 0 005.31 2.1v-17.03z"/><path class="cls-3" d="M619.91 315.82a15.38 15.38 0 01-5.31-2.1c-1.73 1.85-4.17 3.02-6.91 3.02-4.71 0-9.12-2.87-7.42-8.23-4.55 2.03-9.92-.59-11.61-4.55-2.52 4.13-7.23 7.81-12.42 7.81s-9.37-2.54-11.94-6.4c-1.2.55-2.98 1.51-4.39 1.51-5.09 0-8.07-4.28-8.36-10.47-1.85 1.45-4.84 3.09-7.37 3.09-5.75 0-10.45-4.44-10.89-10.07-.02.28-.04.57-.04.86 0 6.03 4.89 10.92 10.92 10.92 2.53 0 4.84-.9 6.69-2.35.02.01.03.03.05.04.23 5.04 4.35 9.06 9.44 9.06 1.41 0 2.74-.33 3.94-.88 2.57 3.86 6.95 6.4 11.94 6.4s9.7-2.78 12.22-6.92c2.74 2.25 6.14 3.67 9.9 3.93.74 4.5 4.62 7.94 9.33 7.94 2.73 0 5.17-1.17 6.91-3.02a15.38 15.38 0 005.31 2.1v-1.71zm-68.35-19.41zm0 0zm68.35-51.11a24.809 24.809 0 00-6.41 5.44c-1.03-.38-2.12-.62-3.28-.62-5.24 0-9.48 4.25-9.48 9.48 0 .54.07 1.06.16 1.57a15.872 15.872 0 00-6.03 4.98 16.032 16.032 0 00-11.4-4.72c-7.07 0-13.01 4.58-15.17 10.91-2-.89-4.2-1.41-6.54-1.41-4.31 0-8.19 1.71-11.06 4.47 2.75-1.95 9.18-3.47 13.72-1.63-3.7.03-4.95 3.51-4.95 3.51-11.15-1.71-12 9.38-12 9.38 3.23-8.04 13.15-5.6 13.15-5.6.12-2.31 4.17-4.82 8.16-2.82 2.63-3.54 6.25-6.26 10.62-7.61 4.85-1.5 9.74-1.01 14.1 1.07 1.42-4.02 15.67-11.85 26.41-1.38v-25.03z"/></g><path fill="#000e2f" d="M84.61 413.91l8.07-4.36 96.82-110.16h60.66l171.47-90.27v-65.8H-18.51v270.59H84.61z"/><path d="M-18.51 143.32v20.98l80.86-6.82 117.82 6.5 34.99-20.66H-18.51zm408.06 0l18.08 55.85-40.48 38.63 54.48-28.68v-65.8h-32.08zM250.16 299.39l41.99-43.23 36.75-10.71v-39.66l38.25-21.92-22.51 33.28 15.23 24.48-109.71 57.76zM92.68 409.55l30.91-60.44v-86.06l22.17-29.84 66.49-11.85-37.91 54.32 75.82 23.71H189.5L92.68 409.55zm-8.07 4.36l8.07-4.36-33.83-25.83v22.43l-17.89 7.76h43.65z" fill="#023156" opacity=".5"/><g id="Nature005_Cloud"><path class="cls-3" d="M519.23 335.65c0-8.64-7-15.65-15.65-15.65-2.87 0-5.53.83-7.84 2.18-1.22-4.1-4.97-7.1-9.47-7.1-.83 0-1.63.13-2.4.33-1.81-9.15-9.87-16.06-19.56-16.06-9.07 0-16.71 6.06-19.13 14.34-.27-.02-.53-.08-.81-.08-4.24 0-7.97 2.09-10.31 5.27a12.91 12.91 0 00-9.15-3.79c-7.15 0-12.94 5.79-12.94 12.94 0 1.26.24 2.46.57 3.61-5.33 2.07-9.11 7.22-9.11 13.27 0 7.89 6.39 14.28 14.27 14.28 1.46 0 2.84-.28 4.16-.69 3.94 4.83 9.94 7.91 16.65 7.91 3.74 0 7.26-.96 10.32-2.64 2.58 3.81 6.94 6.32 11.88 6.32s9.35-2.53 11.92-6.37c3.83 3.53 8.93 5.7 14.55 5.7 11.03 0 20.1-8.3 21.34-18.99 6.2-2.08 10.7-7.87 10.7-14.77z"/><path class="cls-3" d="M488.82 328.45c.25.01 4.19-1.75 6.85 1.9-1.61-4.85 1.28-8.49 3.13-9.56-1.07.36-2.1.83-3.06 1.39-1.22-4.1-4.97-7.1-9.47-7.1-.83 0-1.63.13-2.4.33-1.81-9.15-9.87-16.06-19.56-16.06-9.07 0-16.71 6.06-19.13 14.34-.27-.02-.53-.08-.81-.08-4.24 0-7.97 2.09-10.31 5.27a12.91 12.91 0 00-9.15-3.79c-7.15 0-12.94 5.79-12.94 12.94 0 .8.1 1.58.25 2.33 4.53-15.48 21.36-8.47 23.13-4.61-.4-5.74 12.56-8.78 14.74-4.59.4-7.17 7.63-11.25 14.92-9.54 4.53 1.06 8.43 4.04 10.35 8.32.41.92.75 1.85 1.04 2.8 1.91-1.05 9.12-.64 12.41 5.72z"/><path class="cls-3" d="M507.53 320.51c12.46 5.31 8.57 30.17-7.84 20.93.64 10.36-16.43 15.14-22.06 3.04-1.29 4.42-8.37 4.98-10.95 1.96-2.74 14.21-16.16 11.64-15.87 7.85-3.12 3.56-21.49 2.78-19.88-13.6-4.35 11.12-18.95 11.12-21.73.12-.6-2.38-.05-5.43.96-7.97-4.03 2.52-6.71 6.97-6.71 12.07 0 7.89 6.39 14.28 14.27 14.28 1.46 0 2.84-.28 4.16-.69 3.94 4.83 9.94 7.91 16.65 7.91 3.74 0 7.26-.96 10.32-2.64 2.58 3.81 6.94 6.32 11.88 6.32s9.35-2.53 11.92-6.37c3.83 3.53 8.93 5.7 14.55 5.7 11.03 0 20.1-8.3 21.34-18.99 6.2-2.08 10.7-7.87 10.7-14.77 0-7.28-4.97-13.39-11.7-15.14z"/><path class="cls-3" d="M506.09 347.83c.86 11.38-7.86 19.33-18.89 19.33-5.62 0-10.72-2.17-14.55-5.7-2.57 3.84-6.94 6.37-11.92 6.37s-9.31-2.51-11.88-6.32a21.39 21.39 0 01-10.32 2.64c-6.72 0-12.71-3.08-16.65-7.91-1.32.41-2.7.69-4.16.69-7.5 0-13.65-5.79-14.22-13.15-.03.37-.05.75-.05 1.13 0 7.89 6.39 14.28 14.27 14.28 1.46 0 2.84-.28 4.16-.69 3.94 4.83 9.94 7.91 16.65 7.91 3.74 0 7.26-.96 10.32-2.64 2.58 3.81 6.94 6.32 11.88 6.32s9.35-2.53 11.92-6.37c3.83 3.53 8.93 5.7 14.55 5.7 11.03 0 20.1-8.3 21.34-18.99 6.2-2.08 10.7-7.87 10.7-14.77 0-.4-.02-.8-.05-1.2-.55 6.69-6.17 14.4-13.1 13.38z"/></g><path class="cls-16" d="M381.95 105.47l12.52-2.35 3.78 1.61-7.05 13.08-6.46 3.97-2.79-16.31z"/><path class="cls-4" d="M348.16 122.07s-.29-.73.15-3.08 1.32-3.23 1.18-3.53c-.15-.29-1.03-1.76-.29-2.64.73-.88 1.03-1.18 1.03-1.18s.29-2.79-.29-9.4c-.59-6.61 1.98-18.16 5.55-23.33 3.56-5.17 12.82-2.53 12.82-2.53l21.96 1.92s3.9 1.16 6.25 2.19 5.44 2.5 6.32 2.35c.88-.15 3.38-.15 4.85 1.18 0 0 5.43.09 8.37 1.81 2.94 1.72-14.76 13.98-14.76 13.98l-13.96-5.18-20.42 24.57-16.6 2.06-2.13.81z"/><path class="cls-15" d="M353.82 83.36s-1.62 8.96 1.32 14.84c2.94 5.88 6.68 9.62 7.12 10.06s1.54-.51 1.54-.51l6.32-8.37-16.31-16.01z"/><path class="cls-16" d="M393.18 97.61s8.81-6.9 11.61-7.2c2.79-.29 5.14.15 7.93 3.08 2.79 2.94 1.12 10.01.86 11.61-.27 1.61-15.25 17.32-19.37 24.52-.41.72-1.06 1.61-1.99 1.6-.82 0-1.5-.69-1.98-1.28-1.61-1.96-2.54-4.53-3.39-6.89-.41-1.14-.78-2.29-1.13-3.45-.13-.43-.23-.87-.38-1.29-.33-.96.45-2.17.9-3.03.4-.77.84-1.51 1.29-2.26 2.63-4.38 5.37-8.7 8.41-12.81.35-.47.36-.71-.1-1.02a60.929 60.929 0 00-2.65-1.6z"/><path class="cls-16" d="M403.76 91.31c-1.89 1.32-3.54 3.02-4.97 4.88.2-.34.4-.68.62-1.01.33-.5.69-1.2 1.24-1.48.29-.15.05-.56-.24-.44-.49.2-.79.68-1.09 1.1-.43.59-.82 1.2-1.17 1.84a17.7 17.7 0 00-1.24 2.69c-.12.19-.24.39-.36.58-.1.17-.06.33.05.43-.01.05-.03.1-.04.15-.08.32.38.47.5.15.05-.13.1-.27.14-.4 2.16-2.78 4-5.75 6.93-7.83.39-.28.04-.95-.36-.67z"/><path d="M349.81 120.6s-1.95 1.03-1.65 1.47c.29.44 4.99-1.32 4.99-1.32l-3.34-.15z" fill="#1a1a1a"/><path class="cls-13" d="M357.3 116.48s-2.82 2.65-4 2.8c-1.18.15-3.38 1.18-3.97 1.62 0 0-1.03 8.37 3.23 14.84 4.26 6.46 9.4 8.23 13.96 8.23s17.48-4.99 17.48-4.99l1.76-13.51-16.01-22.33-12.46 13.36z"/><path class="cls-16" d="M369.53 139.69c-.68-.33-1.43-.49-2.11-.81-.7-.34-1.33-.9-2.04-1.19-.64-.27-1.48.07-2.15.09-.93.03-1.87-.01-2.8-.1-1.72-.16-3.76-.37-5.16-1.48-.26-.2-.65-.09-.66.28-.03.92.12 1.8.45 2.66.16.41.82.24.67-.19a6.56 6.56 0 01-.35-1.74c.87.52 1.84.79 2.84.98 1.6.31 3.24.48 4.87.46.7-.01 1.57-.3 2.19 0 .7.33 1.32.83 2.04 1.15.59.26 1.24.4 1.81.68.84.42.27 1.84.03 2.52-.19.54.66.77.85.23.4-1.17.91-2.87-.48-3.54z"/><path class="cls-4" d="M416.61 104.73s3.23-1.62 3.97-8.08c.73-6.46-2.35-10.87-7.49-11.9-5.14-1.03-7.2 4.26-7.2 4.26s.73 1.32 2.5 2.06c0 0-2.5 9.84-.59 12.05 1.91 2.2 8.81 1.62 8.81 1.62z"/><path class="cls-7" d="M394.29 105.62s9.4.44 10.14.73c.73.29.73 1.03 2.2 1.03s5.44-.88 6.61-.59c1.18.29 1.76 2.35 1.76 2.35s1.47-.29 1.76-1.18c.29-.88 0-1.32 0-1.32s1.47-.44.59-2.06c0 0 .88-.44.44-1.62-.44-1.18-.88-1.32-.88-1.32s.29-1.18-.29-1.76c-.45-.45-1.08-.77-1.62-1.1-.61-.37-1.23-.79-1.9-1.04-1.56-.59-2.89.26-4.3.87-.73.31-1.45.64-2.17.98 0 0-10.14-2.35-11.16-2.5-1.03-.15-1.18 8.52-1.18 8.52z"/><path class="cls-4" d="M391.69 96.22c.19 0 .39-.01.64 0 .47.03.95.13 1.41.2.63.1 1.88.14 2.36.62.44.44.42 4.7-.17 6.9s-2.21 2.49-2.21 2.49-4.26-.31-4.55-.6c0 0-.44.59-4.26.72s-10.86-1.8-12.18-2.25c-1.32-.45-7.34-.91-8.51-1.65-1.17-.74-1.61-1.92-1.61-1.92s-4.26-.16-6.74-4.72c-2.48-4.56-2.9-11.17-1.42-15.28 1.48-4.11 6.48-5.71 7.81-6.14s6.91-1.89 7.79-2.18c.88-.29 4.26.31 4.26.31 2.28.8 4.57 1.61 6.85 2.41 2.15.76 4.31 1.52 6.46 2.28.95.33 2.07.39 2.94.87 1.29.71 2.04 2.02 2.22 3.46.16 1.32-.1 2.65-.39 3.95-.15.66-.3 1.32-.51 1.97-.73 2.22-2.11 4.19-2.79 6.43-.03.11-.07.24-.02.35.04.09.12.16.19.22.51.41 1.03.81 1.54 1.22.35.28.61.32.9.33z"/><path class="cls-7" d="M405.74 106.73s-2.14 4.56-2.28 6.27c-.14 1.71.14 3.99-.14 4.7-.29.71-.71 1.57-.29 2.14.43.57 1.43-.14 1.43-.14.1.53.2 1.09.48 1.55.28.46.78.83 1.32.8.24-.01.46-.1.7-.11.68-.02 1.35.62 1.97.35.33-.14.52-.51.86-.63.33-.11.69.04 1.03-.03.71-.14.91-1.09 1.5-1.5.23-.16.51-.23.75-.37.39-.23.66-.63.81-1.06s.2-.88.24-1.34c.08-.97.11-1.95.04-2.92-.04-.5-.1-1-.06-1.49.04-.48.17-.94.3-1.4.3-1.07.61-2.14.91-3.22.08-.29-.06-.52-.13-.8-.19-.74-.77-1.29-1.33-1.81-.3-.28-.61-.56-.99-.74-.33-.16-.69-.22-1.05-.27-1.45-.17-3.01.04-4.16.93-.21.16-.4.35-.65.44-.2.08-.42.09-.63.15-.21.06-.57.27-.61.48z"/><path d="M415.24 108.9c-.45-1.57-1.45-2.64-3.14-2.64-.9 0-1.81.15-2.69.35-1.17.26-2.33.6-3.53.29-.42-.11-.59.52-.18.65 1.67.53 3.26-.11 4.92-.34.78-.11 1.84-.28 2.57.09.74.37 1.32 1.44 1.66 2.13.21.42.52-.09.39-.53z" fill="#d89680"/><path class="cls-15" d="M391.25 95.76c-.52-.44-1.14-.78-1.77-1.08.74-2.5 2.38-4.69 2.72-7.31.05-.37-.56-.44-.65-.09-.61 2.49-2.11 4.61-2.87 7.03-.2-.09-.4-.18-.59-.27a84.72 84.72 0 00-7.46-3.07c-1.19-.42-2.65-.68-3.69-1.42-.45-.32-.81-.74-1.32-.97-.53-.24-1.1-.21-1.66-.19-1.14.04-2.12-.42-3.13-.85-.94-1.58-.86-3.57-1.96-5.09-.27-.37-.89-.03-.63.37.87 1.29.94 2.89 1.5 4.31-1.33-.43-2.76-.74-4.16-.74-.34 0-.44.56-.08.61 1.17.17 2.33.34 3.46.69 1.57.47 2.92 1.57 4.63 1.55.66 0 1.33-.13 1.92.24.43.27.77.67 1.2.94.43.27.92.43 1.39.6 2.38.81 4.74 1.67 7.05 2.66 1.22.52 2.45 1.11 3.68 1.65.89.39 2.1.93 2.45 1.92.42 1.19.01 2.81-.33 3.97-.37 1.28-.93 2.71-1.68 3.81-.32.47.38.62.7.17 1.39-1.92 2.2-4.3 2.29-6.67.04-1.07-.19-2.05-1.03-2.77zm-24.19-14.33c-1.37-2.18-3.53-4.05-6.13-4.49-2.2-.38-4.85.41-5.99 2.47-.08.14.12.3.22.17 1.49-1.85 3.66-2.63 6-2.07 2.38.57 4.1 2.24 5.47 4.18.18.26.61.02.44-.25zm5.19-9.01c-.44-.04-1.63-.1-2.06.03-.36.11-.74.41-.84.79-.07.27-.12.62-.05.89.06.24.13.47.2.7 1.01 1.71 4.08 3.76 4.08 3.76l2.35-5.44s-2.2-.59-3.67-.73z"/><path class="cls-7" d="M369.37 74.46c.9 2.69 2.69 5.65 4.5 7.8.8.95 1.39 1.48 2.64 1.76 1.08.24 2.42-.36 3.17-1.12.03-.62.02-1.23-.05-1.82l-.96-2.57-2.09-9.76s.08 3.64-7.21 5.7z"/><path class="cls-7" d="M394.8 71.52c-.48.71-.93 1.42-1.36 2.19-1.52 2.68-3.14 5.4-5.18 7.72-.71.8-1.54 1.73-2.58 2.1-1.85.66-5.01-.9-6.37-1.89-4.2-3.04-5.57-5.81-3.49-10.99 0 0-2.91-3.62.26-6.26.51-.43 1.17-.76 1.85-.55.82.25.93.43 1.43-.51.37-.7.78-1.38 1.28-1.99 2.12-2.59 5.94-3.64 9.09-2.49 1.47.54 3.23 1.3 4.42 2.33 1.25 1.08 1.53 2.33 1.99 3.82.52 1.65.57 3.85-.5 5.31-.3.41-.58.81-.86 1.21z"/><path d="M389.07 79.64c-.41-.63-1.34-1.53-3.16-2.25-1.9-.75-3.76-.32-5.06-2.99-.57-1.17-.53-2.57-.37-3.82.08-.63.22-1.25.35-1.87.15-.72.11-1.3.73-1.84.38-.33.85-.55 1.28-.82.65-.41 1.22-.95 1.68-1.58.42-.59.46-1.54.26-2.21-.11-.36-.29-.7-.3-1.07-.02-.62.47-1.18 1.04-1.42.58-.24 1.23-.22 1.85-.15.82.09 1.67.33 2.27.92.45.44.67.97 1 1.48.38.6.69 1.24 1.03 1.86.42.75.92 1.49 1.63 1.98.73.51 1.62.45 2.45.63.16.03.32.08.45.18.24.19.4.74.32 1.03.07-.23.6-1.86-.04-3.89-.36-1.16-1.12-2.18-1.93-3.08-1.39-1.52-2.9-2.66-4.9-3.18-1.67-.44-3.71-.76-6.49-.13-3 .68-5.04 5.72-5.19 6.42 0 0 1 .48 1.29.89.81 1.17-.09 2.88-.77 3.93-.26.39-.52.8-.77 1.17-1.09 1.68-1.86 3.55-2.16 5.53-.65 4.33.82 7.91 4.21 9.62 5.98 3.01 8.74-2.82 9.38-4.45.12-.29.08-.62-.09-.89z" fill="#805124"/><path d="M407.01 131.96s7.06-1.04 11.13 1.03c4.07 2.08 3.1 7.07.99 8.83-2.1 1.76-7.07 3.1-12.08 2.7-5.02-.4-6.69-1.46-10.28-1.51-3.6-.05-1.89-5.44-1.89-5.44l12.13-5.61z"/><path class="cls-2" d="M395.81 130.56s4.92 2.26 5.36 2.14 2.2-.75 3.18-.27c0 0 3.21-.85 6.94-.66 3.73.19 5.71.86 6.93 2.37s2.26 3.71-1.63 6.68c-3.89 2.97-8.49 2.74-11.77 2.28-3.29-.45-5.15-.69-6.3-.61-1.16.09-9.02-.89-9.7-1.64-.68-.75.64-6.88.64-6.88l6.36-3.42z"/><path class="cls-2" d="M418.99 135.41c-.04-.08-.16-.03-.14.05.46 1.92-.46 3.83-2 4.98-.75.56-1.61.96-2.5 1.26-.81.27-1.71.37-2.5.72-.2.09-.13.43.09.42 1.02-.03 2.12-.45 3.06-.81.95-.37 1.87-.87 2.63-1.56 1.42-1.29 2.2-3.24 1.36-5.06z"/><path class="cls-11" d="M380.33 129.71s-1.76-.15-2.06 0-1.18 3.38-4.11 6.61c-2.94 3.23-3.82 6.9-3.53 8.67 0 0 2.5 2.06 7.79 2.35 5.29.29 10.28 1.03 12.05 1.32 1.76.29 7.2 0 9.99-.88s2.64-2.06 2.64-2.06-.88-2.64-1.76-3.08c-.88-.44-3.75-.81-5.36-.95s-3.08-.29-4.7-1.62-8.23-9.11-8.23-9.11l-2.72-1.25z"/><path d="M390.47 148.66c1.76.29 7.2 0 9.99-.88s2.64-2.06 2.64-2.06-.88-2.64-1.76-3.08c-.69-.34-2.57-.64-4.13-.83-2.33.24-2.18 2.59-2.18 2.59-2.35.29-7.57.22-10.36-.37-2.79-.59-4.7-.29-8.52-.88-2.86-.44-4.31-1.62-4.87-2.18-.62 1.64-.79 3.09-.64 4.02 0 0 2.5 2.06 7.79 2.35 5.29.29 10.28 1.03 12.05 1.32z"/><path class="cls-13" d="M353.89 123.98s8.67-22.33 15.57-27.47c6.9-5.14 12.19.15 12.93 2.35.73 2.2 4.85 15.72 9.7 23.06 4.85 7.34 3.53 6.46 4.11 6.61.59.15 1.62.29 2.06 1.62.44 1.32-3.53 10.28-6.17 10.58 0 0-3.01-1.54-4.63-3.45-1.62-1.91-3.82-3.97-4.85-4.85-1.03-.88-5.44-5.29-7.64-8.81-2.2-3.53-6.24-12.41-6.24-12.41s-12.56 19.9-14.32 19.32c-1.76-.59-.51-6.54-.51-6.54z"/><path class="cls-16" d="M379.79 129.48c-2.62-3.39-5.59-7.49-7.53-11.32-1.95-3.83-3.37-7.82-4.61-11.93-.14-.45-.81-.26-.7.19.19.81.4 1.62.64 2.43-.74-1.48-1.3-3.03-1.4-4.71-.03-.43-.7-.44-.68 0 .12 3.01 1.61 5.66 3.13 8.18.04.07.1.12.16.15.79 2.1 1.72 4.15 2.72 6.13 1.95 3.85 4.71 7.8 7.5 11.11.36.43 1.11.2.78-.23z"/><path class="cls-11" d="M395.02 144.4s4.94-.29 6.98-1.11c0 0-.22-.64-1.04-.86s-2.57-.55-4.6-.79-2.87 1.87-2.87 1.87l1.53.9z"/><path d="M386.03 71.5s-1.61.31-2.05-1.13m8.56 4.16s-1.61.31-2.05-1.13m-6.05 7.09l-2.48-1.16m4.8-3.7s.85.28 1.23-.22-.53-.74-.53-.74l.33-.45" stroke="#333" stroke-linecap="round" stroke-linejoin="round" stroke-width=".48" fill="none"/></g></svg>