<svg xmlns="http://www.w3.org/2000/svg" viewBox="0 0 600 400"><defs><style>.cls-2{fill:#842a2e}.cls-7{fill:#da797a}.cls-8{fill:#023156}.cls-9{fill:#ffbc8f}.cls-12{fill:#c16b6f}.cls-13{fill:#1a1a1a}</style></defs><g id="Layer_1"><path fill="#e5e7ea" d="M0-.12h600v400H0z"/><path d="M236.77 152.91c-3.1-13.24-3.61-26.88-3.58-40.43.02-6.23-.12-12.54.44-18.76.25-2.73.71-5.45 1.56-8.07.78-2.41 1.99-5.21 3.87-6.99 1.01-.96 1.61.01 2.28.9.93 1.24 1.82 2.52 2.68 3.81 1.64 2.46 3.17 5 4.59 7.61a97.6 97.6 0 016.99 16.29c3.66 11.27 5.3 23.16 4.69 35-.03.66.13 2.43-.81 2.53-1.06.11-2.42-1.17-3.15-1.8-2.16-1.85-4.43-3.4-7-4.61-5.28-2.49-11-3.84-16.47-5.83-12.13-4.42-23.36-10.95-34.3-17.74-2.66-1.65-5.31-3.31-7.95-4.99-2.16-1.38-4.29-2.85-6.08-4.7-1.66-1.73-3-3.92-3.12-6.37-.12-2.65 1.01-5.23 2.71-7.22 3.9-4.56 10.19-5.98 15.81-7.1 6.55-1.3 13.23-1.96 19.91-2 13.33-.08 26.13 2.73 38.83 6.57s24.9 8.31 37.87 10.15c11.88 1.69 24.81 1.07 35.07-5.82 4.26-2.86 7.98-6.6 10.56-11.06 1.25-2.17 2.25-4.54 2.85-6.97s1.15-5.22.57-7.58c-.81-3.29-4.14-3.24-6.89-3.36-3.4-.16-6.8-.31-10.2-.45-6.81-.28-13.62-.51-20.43-.61-13.58-.2-27.19.13-40.7 1.65-6.73.76-13.41 1.82-20.04 3.18S234 71.1 227.31 72.46s-13.33 2.41-20.09 2.83-13.88.33-20.82.14c-1.58-.04-3.17-.06-4.75-.14-1.45-.07-2.91-.24-4.01-1.29-.94-.9-1.55-2.17-2.13-3.31-.74-1.44-1.37-2.93-1.88-4.46-.99-2.92-1.61-5.95-1.79-9.03-.16-2.79-.11-5.8 2.16-7.77 2.09-1.81 5.06-2.64 7.62-3.55 3.06-1.08 6.16-2.06 9.28-2.94 6.25-1.77 12.6-3.17 18.99-4.36 12.83-2.4 25.8-3.99 38.68-6.12s26.23-5.36 39.4-3.35c2.96.45 5.88 1.15 8.69 2.16s5.7 2.2 7.9 4.05c.91.77 1.57 1.59.7 2.64-.92 1.13-2.27 2.06-3.41 2.96-2.26 1.78-4.67 3.38-7.16 4.83-10.08 5.89-21.47 9.17-32.87 11.35-13.17 2.51-26.55 3.61-39.74 5.97-6.56 1.17-12.93 2.98-19.43 4.42-3.2.71-6.42 1.22-9.7 1.25s-6.46-.35-9.65-.89c-6.48-1.1-12.88-2.78-19.47-3.14-2.5-.14-5.29-.15-7.49 1.24-2.31 1.46-3.13 4.26-2.18 6.79 1.04 2.77 3.35 4.75 5.61 6.54s4.64 3.4 7.14 4.82c5.03 2.87 10.45 5.04 15.95 6.84 11.62 3.81 23.65 6.41 35.47 9.48s24.6 6.54 36.73 10.36 24.02 8.08 35.6 13.21c5.85 2.59 11.61 5.39 17.24 8.43 4.46 2.41 11.5 5.3 12.12 11.11.31 2.92-1.48 4.56-3.9 5.79-2.63 1.33-5.45 2.27-8.33 2.89-5.79 1.26-11.89 1.15-17.72.19-12.59-2.08-23.98-8.02-35.3-13.61-5.63-2.78-11.31-5.41-17.13-7.74s-11.24-4.27-16.87-6.37c-11.15-4.16-22.31-8.66-32.14-15.49-8.46-5.88-17.49-15.13-28.78-11.34-4.14 1.39-7.9 4.52-8.66 9.02-.98 5.77 2.79 11.05 7.52 13.94 5.39 3.29 12.03 4.51 18.03 6.21 6.67 1.89 13.33 3.83 20.03 5.64s13.22 3.19 20.03 3.82 13.56.64 20.34.72c13.03.15 26.14.11 39.02-2.16 6.37-1.12 12.62-2.84 18.62-5.28s11.97-5.57 17.67-8.88c10.75-6.23 20.94-13.39 30.51-21.31.89-.73.5-2.13-.34-2.68-6.2-3.99-13.61-.94-19.22 2.58-3.06 1.92-6.03 3.96-9.39 5.33-3.13 1.27-6.44 2.1-9.77 2.64-7.1 1.16-14.35.99-21.51 1.09-7.71.11-15.39.67-23.05 1.44-15.66 1.59-31.27 3.97-47.03 4.28-7.7.15-15.44-.18-23.05-1.41-3.09-.5-6.25-1.03-9.1-2.37-2.17-1.01-4.59-2.5-5.47-4.86-2-5.36 4.61-8.13 8.63-9.03 3.38-.76 6.91-.94 10.36-1.16 3.92-.25 7.84-.35 11.76-.39 15.31-.15 30.73.69 45.88-2.02 15.5-2.77 29.75-10.16 44.01-16.53 6.77-3.03 13.64-5.91 20.12-9.54 3-1.68 5.89-3.53 8.61-5.63s5.52-4.19 6.71-7.36-.59-6.09-3.91-6.76c-3.79-.77-7.76-1.06-11.61-1.33-7.76-.55-15.54-.46-23.3.03-15.84.99-31.51 3.59-47.21 5.8-7.8 1.1-15.61 2.11-23.46 2.77-6.75.57-14.45 1.55-20.8-1.42-5.97-2.79-9.03-8.87-11.55-14.63-.93-2.13-2.95-5.81-1.47-8.09 1.67-2.56 6.5-.9 8.72-.12 3.47 1.22 6.75 3.06 9.96 4.85s6.4 3.74 9.5 5.78c6.09 4 11.92 8.38 17.57 12.98s11.39 9.61 16.94 14.58c5.6 5 11.3 9.97 16.07 15.79 9.07 11.08 15.32 24.24 26.17 33.85 5.01 4.44 10.66 8.18 16.73 11.01 3.1 1.45 6.31 2.68 9.59 3.66s7.09 2.04 10.4.3c5.27-2.77 5.79-9.91 4.76-15.05-1.3-6.51-5.22-12.14-9.44-17.11-4.57-5.39-9.61-10.36-14.31-15.64-5.01-5.63-9.85-11.41-14.52-17.32-4.77-6.04-9.35-12.23-13.74-18.55s-8.11-12.45-12.81-18.21c-8.32-10.19-20.07-17.27-32.94-19.97-6.14-1.29-12.46-1.61-18.68-.83-1.14.14-1.89.97-1.64 2.16 1.29 6.26 5.62 11.14 10.44 15.08 5.18 4.23 10.86 7.77 15.98 12.08 11.04 9.3 20.27 20.52 28.3 32.47 8.15 12.13 15.16 24.99 21.83 37.98 3.75 7.31 7.05 14.76 8.95 22.78.96 4.04 1.6 8.14 1.91 12.28.25 3.38.66 7.18-.36 10.47-1.09 3.48-4.75 4.33-8.01 4.67-3.95.41-7.92-.19-11.7-1.33-7.61-2.3-14.27-6.82-21.21-10.56-12.94-6.98-27.63-10.41-39.97-18.53-11.26-7.4-18.35-19.17-28.33-27.98-5.27-4.65-11.27-8.14-18.08-9.98-7.29-1.97-14.94-2.25-22.45-2.18-3.57.03-7.72-.43-9.32 3.51-1.39 3.41-.81 7.4.52 10.73 2.62 6.56 7.59 12.28 12.93 16.81 11.68 9.91 26.37 14.91 41.05 18.46 3.87.94 7.76 1.79 11.65 2.64 2.14.47 3.05-2.82.91-3.29-15.17-3.32-30.76-6.71-44.09-15.06-5.82-3.65-11.2-8.23-15.26-13.81-2.13-2.93-4.09-6.14-4.84-9.73-.36-1.71-.39-3.62.21-5.28.63-1.76 2.26-1.51 3.85-1.54 7.51-.13 15.14-.08 22.49 1.66 6.8 1.61 12.8 4.85 18.03 9.47 9.95 8.79 17.08 20.37 28.16 27.94 12.07 8.24 26.56 11.67 39.42 18.36 6.95 3.61 13.49 8.05 20.87 10.79 3.65 1.36 7.51 2.26 11.41 2.43 3.62.16 7.76-.26 10.99-2.03 2.98-1.63 4.23-4.77 4.62-7.98.45-3.68.11-7.54-.28-11.21a83.761 83.761 0 00-6.04-23.55c-3.01-7.17-6.75-14.04-10.43-20.89-3.42-6.36-6.96-12.66-10.73-18.82-7.44-12.14-15.83-23.82-25.84-34-4.99-5.07-10.38-9.72-16.16-13.88-5.06-3.64-10.53-7.11-14.43-12.07-1.81-2.31-3.09-4.92-3.68-7.79l-1.64 2.16c12.81-1.6 25.93 1.49 36.75 8.51 5.65 3.67 10.4 8.41 14.43 13.8 4.55 6.1 8.56 12.59 12.98 18.78a388.83 388.83 0 0028.29 35.19c4.72 5.22 9.87 10.13 14.17 15.71 3.72 4.84 7.1 10.77 6.9 17.07-.07 2.38-.8 5.24-2.78 6.77-2.63 2.05-6.54.47-9.33-.4-6.51-2.03-12.68-5.1-18.27-9.01s-10.47-8.72-14.65-14.1c-4.4-5.66-8.13-11.8-12.27-17.66-4.39-6.22-9.35-11.77-14.96-16.92-5.43-4.98-10.95-9.87-16.55-14.65-11.17-9.53-22.89-18.57-35.83-25.59-3.1-1.68-6.27-3.36-9.63-4.48-3.06-1.02-7.03-1.89-10.02-.22-6.14 3.44-1.5 12 .64 16.45 2.86 5.95 6.81 11.26 13.17 13.7s13.98 1.74 20.81 1.16c31.31-2.67 62.36-10.84 93.96-8.61 1.9.13 3.8.31 5.7.52s3.95.27 5.73.86c3.19 1.06-1.19 5.07-2.35 6.09-5.41 4.72-11.83 8.15-18.28 11.2-6.9 3.26-13.91 6.28-20.88 9.39s-14.18 6.48-21.55 8.99c-14.83 5.06-30.38 5.38-45.89 5.32-7.7-.03-15.41-.12-23.1.32-6.17.35-13.24.48-18.67 3.83-2.13 1.32-3.93 3.2-4.65 5.64-.76 2.59-.19 5.4 1.4 7.55 3.58 4.83 10.06 6.23 15.64 7.14 15.48 2.51 31.19 1.58 46.71-.05s31.17-3.89 46.89-4.13c7.06-.11 14.15 0 21.17-.97s13.43-3.3 19.45-7.15c5.07-3.25 12-7.85 17.99-3.99l-.34-2.68a219.63 219.63 0 01-32.62 22.38c-5.85 3.28-11.86 6.3-18.2 8.51s-12.56 3.56-19.02 4.42c-13.16 1.76-26.52 1.46-39.76 1.25-7-.11-14.03-.34-20.94-1.52s-13.62-3.16-20.34-5.06-13.51-3.8-20.26-5.73c-5.47-1.57-11.76-3.65-14.24-9.31-1.98-4.51.43-8.8 4.72-10.64 4.66-2 9.6-.95 13.91 1.39 5.21 2.84 9.6 6.96 14.53 10.23s10.25 6.04 15.67 8.48c11.22 5.04 22.96 8.76 34.34 13.41 22.61 9.24 45.81 26.7 71.6 20.23 2.92-.73 5.79-1.8 8.44-3.23 2.49-1.34 4.48-3.34 4.95-6.22 1.02-6.12-3.75-10.56-8.52-13.39-10.93-6.5-22.68-11.73-34.5-16.36-24.1-9.44-49.23-15.88-74.27-22.28-11.66-2.98-23.71-5.58-34.52-11.03-2.56-1.29-5.04-2.74-7.38-4.39s-5.08-3.5-6.45-6.02c-3.33-6.1 9.72-3.89 12.13-3.51 6.49 1.04 12.87 2.75 19.44 3.24s13.25-.91 19.76-2.58c13.36-3.42 26.97-5.01 40.61-6.94 12.22-1.72 24.47-3.95 35.96-8.58 5.5-2.22 10.82-4.92 15.67-8.35 2.31-1.63 5.04-3.42 6.79-5.68 1.94-2.5.88-5.39-1.39-7.22s-5.04-3.09-7.72-4.16c-2.9-1.16-5.94-1.98-9.03-2.51-6.22-1.08-12.53-1.08-18.8-.47-6.95.67-13.82 2-20.69 3.18s-13.21 2.1-19.83 3.08c-13.18 1.96-26.4 3.97-39.28 7.5-3.13.86-6.24 1.8-9.3 2.86-2.77.95-5.7 1.86-8.25 3.32s-4.49 3.72-5.08 6.67-.29 6.07.18 9.02c.49 3.13 1.41 6.16 2.67 9.06 1.11 2.57 2.47 5.62 4.93 7.18 2.58 1.64 6.04 1.34 8.96 1.42 3.59.1 7.19.18 10.79.19 6.91 0 13.79-.34 20.64-1.28s13.43-2.37 20.09-3.84 13.5-3.01 20.33-4.12 13.79-1.86 20.72-2.34c13.82-.96 27.68-.86 41.52-.41 6.89.22 13.77.52 20.66.85.49.02 1.33-.07 1.78.21s.41.84.42 1.33c.02 1.34-.12 2.68-.39 3.99-.49 2.42-1.36 4.73-2.57 6.89-5.59 9.98-16.53 15.22-27.61 16.14-13.08 1.09-26.03-2.58-38.41-6.37s-25.49-8.31-38.81-10.06c-13.2-1.73-26.97-1.14-39.9 2.17-5.7 1.46-11.43 4.04-14.62 9.24-3.03 4.93-2.53 10.67 1.1 15.11s9.03 7.15 13.74 10.1c5.48 3.42 11 6.79 16.66 9.89s11.43 5.9 17.41 8.27c5.64 2.23 11.59 3.63 17.19 5.97 2.62 1.1 5.18 2.49 7.33 4.36 1.84 1.59 4.38 3.76 7.03 3.04 3.02-.82 3.1-4.1 3.21-6.65.13-3.1.11-6.21-.06-9.3-.66-12.02-3.49-23.83-8.25-34.87a97.783 97.783 0 00-11.14-19.41c-.84-1.14-1.63-2.2-2.9-2.75-3.11-1.35-5.42 1.69-6.88 4-3.01 4.77-4 10.49-4.38 16.03-.44 6.32-.34 12.71-.33 19.05.01 13.29.66 26.66 3.7 39.65.5 2.13 3.79 1.23 3.29-.91z" fill="#333"/></g><ellipse cx="323.42" cy="383.68" rx="184.94" ry="12.41" fill="#8dabc4" id="_ëîé_1"/><g id="_ëîé_4"><path class="cls-2" d="M233.39 113.59s-9.25-28.97-34.99-16.65c-25.74 12.31-4.47 36.94-4.47 36.94s-8.71 10.99 3.18 19.68 35.31-5.76 35.31-5.76-.53-17.58.97-34.21z"/><path class="cls-2" d="M267.2 117.66s25.76-1.8 32.54-13.98c6.81-12.24.56-19.39-9.25-26.95-4.79-6.41-20.3-21.09-42.21-15.41-25.65 6.66-32.99 32.74-24.83 69.72 2.76 12.51 43.75-13.38 43.75-13.38z"/><path class="cls-9" d="M257.92 166.32c-5.34-10.18 4.35-19.17 6.98-28.67.55-1.97.97-3.68 1.3-5.18-11.58-4.86-23.26-9.51-34.32-15.48-2.77 17.01-5.31 29.82-8.98 38.62 1.56 3.89 3.94 7.46 6.22 10.95 3 4.61 5.74 9.38 8.74 14 3.15 4.87 8.22 11.19 11.82 15.71 4.53-8.95 7.49-19.85 8.24-29.95z"/><path d="M237.38 120.6s-6.81 35.84 19.48 43.8c.1.06.19.1.29.15-3.17-8.68 3.91-16.55 7.02-24.69.33-1.15.65-2.26.93-3.3l-27.72-15.96z" fill="#f9af7d"/><path class="cls-9" d="M292.98 117.41c-1.74 5.01-7.68 42.94-30.89 42.03-11.55-.45-25.38-11.69-29.6-25.05-1.41-4.45-.79-5.56-1.72-10.81 0 0-11.58-3.29-5.77-15.59 2.85-6.02 9.65-7.2 12.28-3.06 2.18 3.42 2.91 7.87 2.91 7.87s5.66-3.62 10.38-10.91c.74-1.14 2.11-1.7 3.44-1.43 10.85 2.26 31.67 5.14 39.4-.89 0 0 1.85 11.25-.44 17.84z"/><path class="cls-7" d="M178.45 177.37s-4.5 12.07-1.91 35.37c1.93 17.41 5.82 38.82 5.82 42.7s-8.41 11.65-5.82 19.41 6.47 9.06 5.18 12.29c-1.29 3.24-3.24 7.76-2.59 12.29.74 5.16 2.59 6.47 2.59 6.47s-2.59 3.24 2.59 5.82c5.18 2.59 31.7 3.88 31.7 3.88l51.76-43.35 31.7-74.41-121.02-20.48zm127.5-4.75c-.65 0-64.7-5.18-64.7-5.18l-4.53 18.76 61.47 11 7.76-24.59z"/><path class="cls-9" d="M234.13 175.86s23.94-1.94 44 1.94 50.47 10.35 56.29 12.29c5.82 1.94 23.94-4.53 25.23-20.7 1.29-16.18-27.67-22.01-71.17-17.47-43.35 4.53-57.18 3.41-66 .65l11.65 23.29z"/><path class="cls-8" d="M315.83 367.32c-5.31 8.22-11.77 15.77-20.81 19.95-4.36 2.02-8.32 2.19-13 1.95-2.46-.13-4.92-.3-7.38-.4-1.97-.08-3.99-.45-5.92-.11-5.08.89-10.19 1.47-15.34 1.6-.86.02-1.79.02-2.51-.47-.76-.51-1.11-1.44-1.41-2.3-.99-2.84-1.16-4.89.23-7.61 15.99-31.4 31.98-62.8 47.98-94.19 1.57-3.08 3.28-6.31 6.23-8.1.4-.24.84-.46 1.31-.42.74.06 1.26.72 1.68 1.32 7.47 10.67 12.99 22.59 17.05 34.94 2.03 6.18 3.71 12.48 5.1 18.84 1.14 5.19 2.87 9.92-.1 14.68-4.26 6.83-8.74 13.54-13.11 20.31z"/><path class="cls-9" d="M389.09 253.82s5.18-3.24 5.82-6.47c.65-3.24-.65-12.29-.65-12.29l-14.88-12.29 9.71 31.06z"/><path class="cls-8" d="M401.06 292.97s-7.12-26.53-12.94-53.05c-5.82-26.53-23.29-58.23-34.94-62.11-11.65-3.88-27.82 1.29-33.64 10.35-5.82 9.06-11 62.76-11 62.76l55.95 97.9 36.58-55.85z"/><path class="cls-8" d="M396.53 313.02c.3-.57 6.47-16.18 4.53-20.06-1.94-3.88-18.76 9.71-29.12 26.53-10.35 16.82-9.71 30.41-5.82 30.41s18.12-13.59 30.41-36.88z"/><path d="M371.94 319.49c6.24-10.15 14.84-19.11 21.11-23.78.64 3.12 1.48 6.21 2.16 9.3 1.14 5.19 2.39 10.34 3.74 15.48 1.99 7.6 4.2 15.13 7.22 22.37-1.49 7.31-14.48 20.31-14.48 20.31l-11.65-3.88s-12.31-27.02-13.39-29.31c1.29-3.26 3.03-6.79 5.3-10.48z" fill="#ffb291"/><path class="cls-12" d="M469.24 349s-3.48-2.33-14.48-1.04-14.88 1.29-20.7-.65c-5.82-1.94-22.11-11.17-29.17-9.79-7.06 1.38-8.35 11.09-11.59 13.67-3.24 2.59-8.41 13.59-8.41 13.59l16.18 11.65 50.47-15.53 17.71-11.9z"/><path d="M396.2 387.75s36.23 0 60.82-13.59c4.74-2.62 9.53-5.36 13.77-8.75 1.12-.9 2.32-1.86 3.21-3 1.59-2.03 1.02-5.11.34-7.38-.47-1.57-1.36-2.98-2.48-4.15-.79-.83-1.66-1.63-2.79-1.93-1.3-.35-2.88.03-4.17.3-3.08.64-5.98 1.9-8.85 3.15-1.38.6-2.76 1.2-4.12 1.86-1.27.61-2.52 1.28-3.77 1.94-2.15 1.14-4.3 2.27-6.45 3.41-1.87.99-3.94 2.52-6.02 3-3.26.75-6.32 2.44-9.45 3.66-6.67 2.59-13.51 4.76-20.39 6.71a331.81 331.81 0 01-14.81 3.84c-.87.2-1.73.4-2.6.59l7.76 10.35z" fill="#e5d5c8"/><path class="cls-13" d="M439.55 374.81c6.47-3.24 29.12-16.82 33.64-15.53 1.17.33 1.56 1.02 1.5 1.84-.16.46-.39.89-.69 1.28-.89 1.14-2.09 2.1-3.21 3-4.24 3.4-9.03 6.13-13.77 8.75-24.59 13.59-60.82 13.59-60.82 13.59l-1.53-2.04c10.36-2.12 39.57-8.25 44.88-10.9z"/><path d="M361.26 303.5s-13.91-36.41-18.44-58.41c-4.53-22-9.06-45.29-17.47-55-8.41-9.71-35.59-7.12-42.7 0-7.12 7.12-36.23 64.7-41.41 75.05-5.18 10.35-17.47 31.7-17.47 31.7s-30.41 6.47-40.76 14.23c0 0-3.24 47.23 20.7 64.7 23.94 17.47 51.11 14.88 60.82 13.59 9.71-1.29 21.03-12.62 32.67-37.85 11.65-25.23 12.29-37.53 12.29-37.53s15.06 38.81 21.44 40.11c6.38 1.3 30.32-50.6 30.32-50.6z" fill="#11436e"/><path class="cls-8" d="M357.71 322.08s7.76-16.82 2.59-19.41c-5.18-2.59-19.41 15.53-27.17 31.06-7.76 15.53-3.88 20.7-1.29 20.7s16.82-16.18 25.88-32.35z"/><path class="cls-9" d="M333.12 333.73c5.89-11.78 15.5-25.04 22.06-29.63-.16.11 2.03 5.05 2.24 5.55.83 1.92 1.75 3.8 2.66 5.69 4.95 10.31 11.85 21.85 20.59 29.72 19.41 17.47-25.23 28.47-25.23 28.47l-9.06-7.76c-.15-.12-.21-1.02-.26-1.21-.23-.93-.5-1.85-.77-2.77a122.4 122.4 0 00-3-8.77c-.78-2.04-1.53-4.18-2.53-6.11-1.11-2.12-2.2-4.28-3.38-6.36-.56-.97-1.16-1.92-1.76-2.86-.32-.51-.64-1.01-.96-1.52-.12-.19-1.08-1.42-1.01-1.56.14-.28.27-.57.42-.86z"/><path class="cls-7" d="M439.88 354.43s-3.88-2.59-21.35-1.94c-7.11.26-20.7-1.29-29.12-6.47-8.41-5.18-16.82-7.76-22-1.94s-13.59 22-16.18 21.35c-2.59-.65-4.53-4.53-6.47-3.24-1.94 1.29-2.59 25.88 0 28.47s95.11-36.23 95.11-36.23z"/><path d="M445.38 367.7s0-11-3.88-12.94c-3.88-1.94-18.12.65-30.41 5.18-12.29 4.53-24.59 10.35-38.17 14.88-13.59 4.53-20.7 5.82-25.23 5.82s-4.53-.65-4.53-.65-.65 11.65 1.94 12.29c2.59.65 31.7 0 56.29-5.18s42.06-11 44-19.41z" fill="#f0e5da"/><path class="cls-13" d="M343.94 390.89c1.27-1.45 9.61-2.8 17.97-3.79 11-1.29 37.53-9.06 42.7-11 5.18-1.94 35.59-14.88 39.47-9.71.87 1.16.83 2.45.24 3.75-4.47 7.12-20.82 12.3-42.95 16.96-24.59 5.18-53.7 5.82-56.29 5.18-.09-.03-.17-.07-.25-.1-.37-.21-.66-.67-.9-1.29z"/><path class="cls-8" d="M278.94 224.68c.15-1.43 2.4-1.46 2.26 0-.33 3.56-.17 7.07.49 10.49-.28-4.57 1.41-10.81 2.26-15.31.37-1.97 1.81.56 1.48 2.5-2.68 15.9 3.2 32.94 8 47.92 4.87 15.18 11 29.82 16.89 44.62.71 1.77-1 3.77-1.78 2.01-6.74-15.2-14.04-31.58-18.99-47.46-2.35-7.53-4.86-15.46-6.43-23.49-.19-.09-.37-.26-.49-.52-3.17-6.53-4.44-13.53-3.69-20.75z"/><path class="cls-7" d="M216.01 226.32c-7.76-2.59-15.53-1.94-20.7-4.53-5.18-2.59-18.76-16.82-18.76-29.12s2.59-27.17 18.12-33.64c15.53-6.47 53.05 16.18 53.05 16.18l-5.8 56.71s-18.14-3.01-25.9-5.6z"/><path class="cls-12" d="M237.68 199.19s-1.62 27.14 3.56 32.31c5.18 5.18 6.47-36.23 6.47-36.23l-10.03 3.92z"/><path class="cls-9" d="M237.36 210.15s22.57 1.22 31.99 1.26c9.42.04 17.18 3.27 37.24 7.15 20.06 3.88 60.82 2.59 69.23 4.53 0 0 5.59 11.56 8.94 15.81.91 1.15 1.77 2.35 2.59 3.57.49.74 1.25 2.76 2.2 2.92.94.16 2.35-1.14 3.02-1.68.96-.77 1.82-1.65 2.61-2.59.67-.8 1.31-1.66 1.59-2.67.5-1.74-.13-3.58-.69-5.31-.56-1.72-1.04-3.65-.29-5.3.24-.53.61-1.01.8-1.57.2-.6.19-1.24.16-1.87-.14-2.47-.58-5.08-1.33-7.42-.72-2.23-1.46-4.49-2.76-6.44-1.31-1.98-3.14-3.55-5.03-4.96-2.02-1.5-4.15-2.22-6.55-2.96 0 0-59.59-19.01-74.47-20.3-14.88-1.29-29.76-.65-36.23-1.94s-22.65-5.18-22.65-5.18-11 4.53-10.35 34.94z"/><path class="cls-12" d="M178.13 195.53c.92 5.94 5.02 11.51 8.31 16.44 1.64 2.46 3.54 4.83 6.08 6.42 2.75 1.72 6 2.11 9.14 2.61 6.22.99 12.03 3.24 18.08 4.87 6.49 1.74 12.59 2.02 18.92 4.35 2.07.76 2.15 3.5-.05 2.88-7.08-2-14.47-2.17-21.55-4.23-3.42-1-6.77-2.19-10.21-3.13-3.42-.94-6.94-1.27-10.38-2.08-5.62-1.32-9.52-4.85-12.65-9.57-3.63-5.48-6.58-11.47-7.59-18.02-.19-1.23 1.69-1.76 1.89-.52z"/><path class="cls-9" d="M191.26 169.55c.5-2.66 1.06-5.3 1.66-7.94.31-1.34.67-3.06 1.58-4.15.89-1.07 2.58-1.68 3.78-2.35 2.42-1.33 4.91-2.54 7.45-3.6 4.2-1.76 8.6-1.04 12.9.02a127.2 127.2 0 0114.93 4.67l16.09 19.01s-31.7 0-33.64 1.29c-3.49 2.33-4.99 6.53-6.81 10.3-.42.87-.83 1.78-1.49 2.49-.66.71-1.65 1.2-2.6.99-.34-.07-.67-.23-1.01-.19-.5.06-.83.52-1.19.87-1 .97-2.61 1.22-3.86.61-1.24-.61-2.03-2.04-1.88-3.42-1.14.35-2.49-.19-3.06-1.24-.37-.66-.43-1.44-.46-2.2a53.37 53.37 0 010-5.06c.06-1.3.66-3.22.27-4.47-.3-.96-1.3-1.34-1.94-2.04-.98-1.07-.97-2.22-.71-3.59z"/></g><path d="M267.02 123.39s-6.08 1.16-7.72-4.26m28.02 14.07s-5.26 1-6.67-3.68m-16.04 18.03l-9.38-4.39m12.76-5.99s3.19 1.05 4.65-.83c1.46-1.87-1.98-2.78-1.98-2.78l1.26-1.7" fill="none" stroke="#333" stroke-linecap="round" stroke-linejoin="round" stroke-width="1.81" id="Happy"/></svg>