<?xml version="1.0" encoding="UTF-8"?><svg id="Layer_1" xmlns="http://www.w3.org/2000/svg" viewBox="0 0 600 379.32"><defs><style>.cls-1{stroke:#333;stroke-width:.84px;}.cls-1,.cls-2{fill:none;stroke-linecap:round;stroke-linejoin:round;}.cls-3{fill:#231e1b;}.cls-4{fill:#fff;}.cls-2{stroke:#b7ad78;stroke-width:.99px;}.cls-5{fill:#11436e;}.cls-6{fill:#805124;}.cls-7{fill:#332e2c;}.cls-8{fill:#c6d5e2;}.cls-9{fill:#ccc297;}.cls-10{fill:#191919;}.cls-11{fill:#684121;}.cls-12{fill:#4e5b73;opacity:.5;}.cls-13{fill:#6c4e4e;}</style></defs><rect class="cls-4" x="-52.25" y="-28.87" width="690.31" height="347.21"/><rect class="cls-8" x="-48.57" y="313.39" width="690.31" height="92.8"/><polyline class="cls-12" points="286.91 313.33 165.36 352.71 171.11 363.59 299.48 313.33"/><polygon class="cls-12" points="348.1 313.33 215.04 356.34 230.29 363.59 359.6 313.33 348.1 313.33"/><path class="cls-5" d="m205.97,95.56s25.77,19.74,29.07,23.33c3.3,3.59,5.46,7.54-1.08,13.78s-12.18,19-17.47,13.38l-7.85-4.98,10.67-13.35-14.93-7.39s-1.44.79-.79-8.04c.65-8.83,2.37-16.73,2.37-16.73Z"/><path class="cls-5" d="m149.47,95.56s-25.77,19.74-29.07,23.33c-3.3,3.59-5.46,7.54,1.08,13.78,6.53,6.25,12.18,19,17.47,13.38l7.85-4.98-10.67-13.35,14.93-7.39s1.44.79.79-8.04c-.65-8.83-2.37-16.73-2.37-16.73Z"/><polygon class="cls-6" points="154.56 343.63 149.57 291.71 169.77 292.64 165.85 344.7 165.98 350.3 161.18 350.3 154.56 343.63"/><polygon class="cls-6" points="221.28 285.9 227.6 346.53 225.49 347.6 215.99 344.15 215.99 339.61 200.83 291.04 221.28 285.9"/><path class="cls-13" d="m138.27,359.58s-.78-3.01,2.55-4.65c3.32-1.64,7.49-1.22,9.01-4.8s.88-6.65,5.6-6.9,5.01,3.49,6.73,4.12,3.7.93,3.7-2.65c0,0,2.36.51,2.86,3.24s.81,6.76,2.22,8.56l-15.05,5.71s-13.09-.29-13.21-.29-4.4-2.34-4.4-2.34Z"/><path class="cls-10" d="m155.08,359.58h-16.81s-1.24-.02-1.24,1.49-.13,2.82,1.77,2.82,10.86,1.68,23.65.21l8.67-.51s.97.08.97-2.74-.08-4.5-1.81-4.46-3.28-.51-6.9,1.14c-3.62,1.64-4.17,2.04-8.29,2.04Z"/><path class="cls-13" d="m210.21,361.64v-3.44s-.03-.98.51-1.42,2.59-1.33,2.71-4.51c.13-3.19-.88-8.21,4.48-8.52,5.37-.32,7.95-.13,8.71,2.84,0,0,2.24-.57,2.84,1.58.6,2.15.82,6.5.82,6.5l-.25,6.53-11.77,3.76-6.31-.88-1.96-1.42.22-1.01Z"/><path class="cls-10" d="m230.1,356.02l-.63,4.5s-3.47,2.76-11.74,2.63c-8.27-.13-7.51-1.52-7.51-1.52,0,0-.98.51-.98,2.18s.38,1.93,3.76,2.24c3.38.32,10.73.47,14.01-.47s4.55-2.18,4.55-2.87.28-6.72-1.26-8.05l-.19,1.36Z"/><path class="cls-9" d="m203.5,157.56s32.76,87.5,34.71,135.73l-7.34,2.86s-22.09,5.98-45.4,7.36l-1.17,1.89s-44.27-.88-49.7-6.31l-6.45-4.42s17.59-116.03,24.34-137.11h51.02Z"/><path class="cls-2" d="m200.83,201.62s11.46,38.63,13.39,91.16"/><path class="cls-2" d="m147.46,221.57s-7.32,50-8.08,73.99"/><line class="cls-2" x1="167.16" y1="174.85" x2="158.32" y2="263.99"/><line class="cls-2" x1="181.55" y1="271.82" x2="182.81" y2="300.35"/><polygon class="cls-5" points="149.47 95.56 165.2 88.98 185.3 88.15 205.97 95.56 210.42 117.01 204.39 120.33 151.05 120.33 147.38 106.96 149.47 95.56"/><path class="cls-6" d="m160.55,50.38s-2.58,2.1-3.28,3.23c-.7,1.13-.63,4.97-.63,4.97,0,0,.14,1.01.43,1.57.29.56.64-1.89.64-1.89l2.97-7.27-.12-.61Z"/><path class="cls-6" d="m185.05,66.08v22.9s-9.62,7.75-15.22,7.47-4.88-5.46-4.88-5.46v-10.12s-7.9-4.38-7.9-10.77v-12.78s4.95-9.69,4.95-9.69l15.94,4.24,7.11,7.47v6.75Z"/><path class="cls-1" d="m167.67,70.67s-3.8-.86-3.88-2.8c-.07-1.94,3.88-.86,3.88-.86v-1.72"/><path class="cls-1" d="m178.37,63.93s-3.37-2.8-6.25,0"/><path class="cls-1" d="m164.72,63.93s-3.37-2.8-6.25,0"/><path class="cls-1" d="m172.56,74.19s-.29,1.79-3.09,1.79-3.02-1.44-3.02-1.44"/><path class="cls-11" d="m164.95,80.87s9.55,3.3,15.79-4.02c0,0-1.72,9.98-15.79,9.83v-5.81Z"/><path class="cls-3" d="m175.24,31.47c1.78,0,3.42.62,4.72,1.64-.01-.1-.02-.2-.02-.3,0-1.39,1.13-2.53,2.53-2.53.71,0,1.36.3,1.81.77,1.2-.79,2.64-1.26,4.19-1.26,4.22,0,7.64,3.42,7.64,7.64,0,1.36-.36,2.64-.98,3.74,1.05.79,1.74,2.04,1.74,3.45,0,.41-.06.8-.17,1.18.58.73.92,1.65.92,2.66,0,1.78-1.08,3.31-2.62,3.97.12.4.19.83.19,1.27,0,2.38-1.93,4.31-4.31,4.31s-4.15-1.78-4.29-4.03c-.77.26-1.59.41-2.45.41-4.22,0-7.64-3.42-7.64-7.64,0-.04,0-.08,0-.11-.42.07-.84.11-1.28.11-4.22,0-7.64-3.42-7.64-7.64,0-4.22,3.42-7.64,7.64-7.64Z"/><path class="cls-7" d="m157.06,60.15s-3.08-5.56,1.19-9.4c0,0-1.29-11.57,9.94-8.68,0,0,6.91-3.1,11.56,1.22,0,0,6.75-.59,7.72,6.32,0,0,4.42,3.2,1.61,8,0,0,1.74,4.06-.86,6.16,0,0-4.7,3.79-5.78,0-1.08-3.79-.97-5.09-4.05-5.25s-6.27.11-9.02-6-14.53-2.16-12.32,7.62Z"/><circle class="cls-6" cx="184.11" cy="65.29" r="3.8"/><path class="cls-5" d="m204.14,156.82l-4.23-12.91,2.09-21.35,2.39-2.23-22.78-6.01-30.56,6.01.96,2.51,3.45,20.88-4.15,13.1s-4.85,3.06,26.42,3.06,26.42-3.06,26.42-3.06Z"/><path class="cls-6" d="m208.65,141.08l-2.78,2.11s-4.64-.96-5.26-.43c-.62.53-1.48,2.49-.62,4.69.86,2.2,4.15,9.38,4.15,9.38,0,0,.78.81,3.32-1.48s3.54-3.78,4.59-4.88,4.45-4.4,4.45-4.4c0,0-2.63-3.25-7.85-4.98Z"/><path class="cls-6" d="m146.79,141.08l2.78,2.11s4.64-.96,5.26-.43,1.48,2.49.62,4.69c-.86,2.2-4.15,9.38-4.15,9.38,0,0-.78.81-3.32-1.48-2.54-2.3-3.54-3.78-4.59-4.88s-4.45-4.4-4.45-4.4c0,0,2.63-3.25,7.85-4.98Z"/><path class="cls-12" d="m579.15,182.33c-13.86-19.66-40.87-33.36-71.16-32.83-26.89.47-46.35,13.52-99-9.35-20.17-8.76-31.96-20.05-40.68-32.05.24-.32.46-.62.68-.93.04-.05.08-.1.12-.15.04-.04.09-.09.09-.1l.07-.07.06-.08c.44-.54.79-1.12,1.06-1.73,1.04-2.05,1.03-3.81.44-5.42,0,0,0-.02,0-.03-.08-.29-.19-.57-.3-.86-.02.03-.03.05-.05.08-.58-1.16-1.44-2.23-2.4-3.28-3.3-3.59-29.07-23.33-29.07-23.33l-20.68-7.42h-.25s0-19.18,0-19.18c1.65-.42,2.87-1.9,2.87-3.68,0-.4-.08-.78-.19-1.14.31-.21.51-.37.51-.37,2.59-2.1.86-6.16.86-6.16,0,0,0,0,0,0,.55.25,1.15.41,1.8.41,2.38,0,4.31-1.93,4.31-4.31,0-.44-.07-.87-.19-1.27,1.54-.66,2.62-2.18,2.62-3.97,0-1-.35-1.93-.92-2.66.11-.37.17-.77.17-1.18,0-1.42-.69-2.67-1.74-3.45.62-1.11.98-2.38.98-3.74,0-4.22-3.42-7.64-7.64-7.64-1.55,0-2.99.46-4.2,1.26-.46-.47-1.1-.77-1.81-.77-1.39,0-2.53,1.13-2.53,2.53,0,.1,0,.2.02.3-1.3-1.02-2.94-1.64-4.72-1.64-4.22,0-7.64,3.42-7.64,7.64,0,1.05.21,2.05.6,2.96h0c-11.23-2.9-9.94,8.68-9.94,8.68-4.17,3.75-1.33,9.13-1.2,9.38v9.97c0,6.39,7.9,10.77,7.9,10.77v8.22l-15.47,6.48s-25.77,19.74-29.07,23.33c-3.3,3.59-5.46,7.54,1.08,13.78,6.53,6.25,12.18,19,17.47,13.38,0,0,3.4,3.3,4.45,4.4,1.05,1.1,2.06,2.58,4.59,4.88,2.18,1.98,3.06,1.65,3.27,1.52-.18.15-.71.72,1.03,1.34-6.88,22.64-24.14,136.48-24.14,136.48l6.45,4.42c1.87,1.87,8.37,3.2,16.07,4.15l3.22,33.44h12.57l2.4-31.9c8.62.49,15.44.63,15.44.63l1.17-1.89c6.45-.38,12.81-1.12,18.63-1.98l10.98,35.15h11.5l-4.02-38.55c5.17-1.13,8.31-1.98,8.31-1.98l7.34-2.86c-.62-15.34-4.35-34.64-9.16-53.84,1.19-.86,2.47-1.37,3.86-1.42,13.38-.44,28.03,33.98,44.3,33.98,10.87,0,11.41-28.93,22.49-31.23,11.08-2.31,38.33,19.39,53.81,16.7,8.76-1.52,13.2-18.43,22.83-29.47,12.75-14.61,32.38-24.28,65.74-16.44,3.41.8,6.07-3.02,4.05-5.88Zm-291.29-62.93c-.62-.53-5.26.43-5.26.43l-2.78-2.11-10.67-13.35,14.93-7.39.96,2.51,3.45,20.88c-.19-.45-.42-.79-.62-.97Z"/></svg>