<?xml version="1.0" encoding="UTF-8"?>
<svg xmlns="http://www.w3.org/2000/svg" viewBox="0 0 944 944">
  <defs>
    <style>
      .cls-1 {
        fill: #023156;
      }

      .cls-2 {
        fill: #fff;
        stroke-linejoin: round;
        stroke-width: 14.58px;
      }

      .cls-2, .cls-3 {
        stroke: #023156;
        stroke-linecap: round;
      }

      .cls-3 {
        fill: none;
        stroke-miterlimit: 10;
        stroke-width: 14.29px;
      }
    </style>
  </defs>
  <g id="Layer_1" data-name="Layer 1">
    <circle class="cls-2" cx="472" cy="472" r="424.21"/>
  </g>
  <g id="_1" data-name="1">
    <g>
      <path class="cls-3" d="m417.97,282.73h-248.38c-17.5,0-31.69,14.19-31.69,31.69v147.48c0,17.5,14.19,31.69,31.69,31.69h137.79l83.04,68.75c8.57,7.09,21.17-1.08,18.19-11.8l-15.86-56.95h25.23c17.5,0,31.69-14.19,31.69-31.69v-147.48c0-17.5-14.19-31.69-31.69-31.69Z"/>
      <path class="cls-3" d="m526.03,442.12h248.38c17.5,0,31.69,14.19,31.69,31.69v147.48c0,17.5-14.19,31.69-31.69,31.69h-137.79s-83.04,68.75-83.04,68.75c-8.57,7.09-21.17-1.08-18.19-11.8l15.86-56.95h-25.23c-17.5,0-31.69-14.19-31.69-31.69v-147.48c0-17.5,14.19-31.69,31.69-31.69Z"/>
      <g>
        <circle class="cls-1" cx="588.92" cy="551.39" r="17.56"/>
        <circle class="cls-1" cx="650.22" cy="551.39" r="17.56"/>
        <circle class="cls-1" cx="711.52" cy="551.39" r="17.56"/>
      </g>
    </g>
  </g>
</svg>