<?xml version="1.0" encoding="UTF-8"?><svg id="Layer_1" xmlns="http://www.w3.org/2000/svg" viewBox="0 0 100 100"><defs><style>.cls-1{stroke:#3f2a56;}.cls-1,.cls-2{fill:none;}.cls-1,.cls-2,.cls-3{stroke-linecap:round;stroke-linejoin:round;stroke-width:2px;}.cls-2,.cls-3{stroke:#da797a;}.cls-3{fill:#fff;}.cls-4{fill:#3f2a56;}.cls-5{opacity:.25;}</style></defs><g class="cls-5"><circle class="cls-4" cx="50" cy="50" r="50"/></g><path class="cls-4" d="m50,5c24.81,0,45,20.19,45,45s-20.19,45-45,45S5,74.81,5,50,25.19,5,50,5m0-5C22.39,0,0,22.39,0,50s22.39,50,50,50,50-22.39,50-50S77.61,0,50,0h0Z"/><polygon class="cls-3" points="34.75 26.84 76.58 26.84 76.58 75.9 68.92 83.98 34.75 83.98 34.75 26.84"/><polyline class="cls-2" points="68.92 83.98 68.92 75.9 76.58 75.9"/><polyline class="cls-1" points="30.05 78.62 30.05 22.86 71.95 22.86"/><polyline class="cls-1" points="25.17 74.27 25.17 17.97 65.97 17.97"/><line class="cls-1" x1="41.09" y1="36.47" x2="70.06" y2="36.47"/><line class="cls-1" x1="41.09" y1="43.76" x2="70.06" y2="43.76"/><line class="cls-1" x1="41.09" y1="50.91" x2="55.67" y2="50.91"/></svg>