<?xml version="1.0" encoding="UTF-8"?><svg id="_1" xmlns="http://www.w3.org/2000/svg" viewBox="0 0 300 300"><defs><style>.cls-1,.cls-2{fill:#fff;}.cls-3{fill:#164c7a;}.cls-2{stroke-width:3.7px;}.cls-2,.cls-4{stroke:#000e2f;stroke-linecap:round;stroke-linejoin:round;}.cls-4{fill:none;fill-rule:evenodd;stroke-width:3.7px;}</style></defs><path class="cls-3" d="m299.62,150c0,82.83-67.16,150-150.02,150S-.39,232.83-.39,150,66.77,0,149.61,0s150.02,67.16,150.02,150Z"/><path class="cls-1" d="m259.64,149.39c0,60.76-49.28,110.03-110.03,110.03s-110.01-49.27-110.01-110.03,49.26-110.03,110.01-110.03,110.03,49.27,110.03,110.03Z"/><polyline class="cls-2" points="165.39 249.72 108.73 193.05 139.79 161.99 196.46 218.65"/><path class="cls-1" d="m192.68,179.29l-8.26,8.51s-.9,14.45-4.26,21.42-5.42,14.32-6.45,18.58c-1.03,4.26-5.16,10.97-10.19,7.87-5.03-3.1.65-21.16.65-21.16l-27.22,26.58s-7.87.26-6.84-6.58l-7.87,6.06s-11.62-1.31-5.03-9.81l3.61-3.35s-7.45-.39-6.76-5.03,5.21-8.39,5.21-8.39c0,0-10.69-2.21-5.21-9.81,5.49-7.59,33.59-31.87,33.59-31.87l12.39-4.77,11.35-9.29,21.29,21.03Z"/><path class="cls-4" d="m193.53,178.43l-8.91,8.91s-.71,15.25-5.31,23.27c-4.6,8.02-4.53,17.74-8.61,22.71s-13.73,1.26-5.57-19.67l-24.42,24.42s-4.45,5.79-8.91,1.34.67-8.39.67-8.39l18.01-18.06"/><path class="cls-4" d="m142.65,205.85l-24.35,24.35s-4.23,3.93-.22,7.94c4.01,4.01,7.77-.55,11.78-4.55"/><path class="cls-4" d="m127.95,220.54c-4.01,4.01-7.77,8.56-11.78,4.55-4.01-4.01.22-7.94.22-7.94l20.71-20.71"/><path class="cls-4" d="m127.01,206.51c-4.01,4.01-7.77,8.56-11.78,4.55s.22-7.94.22-7.94l20.71-20.71,5.92-5.92s9.4-8.57,18.53-9.08l10.95-10.95"/><polyline class="cls-2" points="248.61 132.65 191.95 189.31 160.88 158.25 217.55 101.59"/><path class="cls-1" d="m179.34,106.22l8.51,8.26s14.45.9,21.42,4.26c6.97,3.35,14.32,5.42,18.58,6.45,4.26,1.03,10.97,5.16,7.87,10.19-3.1,5.03-21.16-.65-21.16-.65l26.58,27.22s.26,7.87-6.58,6.84l6.06,7.87s-1.31,11.62-9.81,5.03l-3.35-3.61s-.39,7.45-5.03,6.76-8.39-5.21-8.39-5.21c0,0-2.21,10.69-9.81,5.21-7.59-5.49-31.87-33.59-31.87-33.59l-4.77-12.39-9.29-11.35,21.03-21.29Z"/><path class="cls-4" d="m178.48,105.37l8.91,8.91s15.25.71,23.27,5.31c8.02,4.6,17.74,4.53,22.71,8.61,4.97,4.08,1.26,13.73-19.67,5.57l24.42,24.42s5.79,4.45,1.34,8.91c-4.45,4.45-8.39-.67-8.39-.67l-18.06-18.01"/><path class="cls-4" d="m205.9,156.25l24.35,24.35s3.93,4.23,7.94.22c4.01-4.01-.55-7.77-4.55-11.78"/><path class="cls-4" d="m220.59,170.96c4.01,4.01,8.56,7.77,4.55,11.78s-7.94-.22-7.94-.22l-20.71-20.71"/><path class="cls-4" d="m206.56,171.89c4.01,4.01,8.56,7.77,4.55,11.78-4.01,4.01-7.94-.22-7.94-.22l-20.71-20.71-5.92-5.92s-8.57-9.4-9.08-18.53l-10.95-10.95"/><polyline class="cls-2" points="132.7 50.29 189.36 106.96 158.3 138.02 101.64 81.36"/><path class="cls-1" d="m106.55,118.75l8.26-8.51s.9-14.45,4.26-21.42,5.42-14.32,6.45-18.58,5.16-10.97,10.19-7.87c5.03,3.1-.65,21.16-.65,21.16l27.22-26.58s7.87-.26,6.84,6.58l7.87-6.06s11.62,1.31,5.03,9.81l-3.61,3.35s7.45.39,6.76,5.03c-.69,4.64-5.21,8.39-5.21,8.39,0,0,10.69,2.21,5.21,9.81-5.49,7.59-33.59,31.87-33.59,31.87l-12.39,4.77-11.35,9.29-21.29-21.03Z"/><path class="cls-4" d="m105.7,119.61l8.91-8.91s.71-15.25,5.31-23.27c4.6-8.02,4.53-17.74,8.61-22.71,4.08-4.97,13.73-1.26,5.57,19.67l24.42-24.42s4.45-5.79,8.91-1.34-.67,8.39-.67,8.39l-18.01,18.06"/><path class="cls-4" d="m156.58,92.18l24.35-24.35s4.23-3.93.22-7.94-7.77.55-11.78,4.55"/><path class="cls-4" d="m171.29,77.5c4.01-4.01,7.77-8.56,11.78-4.55,4.01,4.01-.22,7.94-.22,7.94l-20.71,20.71"/><path class="cls-4" d="m172.22,91.53c4.01-4.01,7.77-8.56,11.78-4.55,4.01,4.01-.22,7.94-.22,7.94l-20.71,20.71-5.92,5.92s-9.4,8.57-18.53,9.08l-10.95,10.95"/><polyline class="cls-2" points="50.63 165.39 107.29 108.73 138.35 139.79 81.69 196.45"/><path class="cls-1" d="m119.71,194.07l-8.51-8.26s-14.45-.9-21.42-4.26c-6.97-3.35-14.32-5.42-18.58-6.45s-10.97-5.16-7.87-10.19c3.1-5.03,21.16.65,21.16.65l-26.58-27.22s-.26-7.87,6.58-6.84l-6.06-7.87s1.31-11.62,9.81-5.03l3.35,3.61s.39-7.45,5.03-6.76,8.39,5.21,8.39,5.21c0,0,2.21-10.69,9.81-5.21s31.87,33.59,31.87,33.59l4.77,12.39,9.29,11.35-21.03,21.29Z"/><path class="cls-4" d="m120.57,194.92l-8.91-8.91s-15.25-.71-23.27-5.31c-8.02-4.6-17.74-4.53-22.71-8.61s-1.26-13.73,19.67-5.57l-24.42-24.42s-5.79-4.45-1.34-8.91c4.45-4.45,8.39.67,8.39.67l18.06,18.01"/><path class="cls-4" d="m93.14,144.04l-24.35-24.35s-3.93-4.23-7.94-.22.55,7.77,4.55,11.78"/><path class="cls-4" d="m78.46,129.33c-4.01-4.01-8.56-7.77-4.55-11.78,4.01-4.01,7.94.22,7.94.22l20.71,20.71"/><path class="cls-4" d="m92.49,128.4c-4.01-4.01-8.56-7.77-4.55-11.78,4.01-4.01,7.94.22,7.94.22l20.71,20.71,5.92,5.92s8.57,9.4,9.08,18.53l10.95,10.95"/><path class="cls-2" d="m147.2,169.4l-7.41-7.41-31.06,31.06,8.4,8.4,23.61-23.61s5.26-4.79,8.45-6.46l-1.98-1.98Z"/></svg>