<?xml version="1.0" encoding="UTF-8"?><svg id="_1" xmlns="http://www.w3.org/2000/svg" viewBox="0 0 300 300"><defs><style>.cls-1{fill:#fff;}.cls-2{fill:#000e2f;}.cls-3{fill:none;stroke:#000e2f;stroke-linecap:round;stroke-linejoin:round;stroke-width:3.7px;}</style></defs><path class="cls-2" d="m300,150c0,82.83-67.15,150-150.01,150S0,232.83,0,150,67.16,0,149.99,0s150.01,67.16,150.01,150Z"/><path class="cls-1" d="m260.01,149.39c0,60.76-49.26,110.03-110.03,110.03s-110.02-49.27-110.02-110.03,49.26-110.03,110.02-110.03,110.03,49.27,110.03,110.03Z"/><rect class="cls-3" x="94.72" y="104.48" width="17.68" height="94.44" rx="4.33" ry="4.33"/><rect class="cls-3" x="77.04" y="112.01" width="17.68" height="79.38" rx="3.97" ry="3.97"/><rect class="cls-3" x="59.36" y="123.82" width="17.68" height="55.76" rx="3.33" ry="3.33"/><rect class="cls-3" x="187.26" y="104.28" width="17.68" height="94.44" rx="4.33" ry="4.33" transform="translate(392.2 303) rotate(180)"/><rect class="cls-3" x="204.94" y="111.81" width="17.68" height="79.38" rx="3.97" ry="3.97" transform="translate(427.56 303) rotate(180)"/><rect class="cls-3" x="222.62" y="123.62" width="17.68" height="55.76" rx="3.33" ry="3.33" transform="translate(462.91 303) rotate(180)"/><rect class="cls-3" x="112.39" y="144.13" width="74.87" height="16.85"/></svg>