<?xml version="1.0" encoding="UTF-8"?><svg id="_1" xmlns="http://www.w3.org/2000/svg" viewBox="0 0 300 300"><defs><style>.cls-1,.cls-2,.cls-3{fill:#fff;}.cls-1,.cls-4,.cls-3{stroke:#000e2f;stroke-linecap:round;stroke-linejoin:round;stroke-width:3.7px;}.cls-5{fill:#343e50;}.cls-4{fill:none;}.cls-3{fill-rule:evenodd;}</style></defs><path class="cls-5" d="m301.39,151.5c0,82.83-67.16,150-150.01,150S1.4,234.33,1.4,151.5,68.55,1.5,151.38,1.5s150.01,67.16,150.01,150Z"/><path class="cls-2" d="m261.4,157c0,60.76-49.26,110.03-110.01,110.03s-110.02-49.27-110.02-110.03,49.28-110.03,110.02-110.03,110.01,49.27,110.01,110.03Z"/><ellipse class="cls-4" cx="150.59" cy="113.9" rx="14.23" ry="18.55"/><line class="cls-4" x1="150.59" y1="69.42" x2="150.59" y2="85.94"/><line class="cls-4" x1="172.56" y1="75.89" x2="163.06" y2="89.4"/><line class="cls-4" x1="188.19" y1="91.02" x2="174.37" y2="100.07"/><line class="cls-4" x1="112.5" y1="91.72" x2="126.32" y2="100.77"/><line class="cls-4" x1="126.86" y1="75.89" x2="136.36" y2="89.4"/><line class="cls-4" x1="195.74" y1="113.58" x2="179.22" y2="113.58"/><line class="cls-4" x1="121.81" y1="113.58" x2="105.29" y2="113.58"/><path class="cls-3" d="m212.36,183.8c-5.97-8.39-13.85-10.04-18.68-19.19-4.83-9.15-11.44-31.14-22.87-31.14,0,0-8.34,7.83-20.1,7.87-11.76-.05-20.1-7.87-20.1-7.87-11.44,0-18.05,21.99-22.87,31.14-4.83,9.15-12.71,10.8-18.68,19.19-5.97,8.39,3.56,19.95,14.94,10.9s22.42-29.2,22.42-29.2c0,11.69,6.23,29.2,6.23,29.2h-19.71c13.96,17.53,29.22,19.29,37.77,18.54,8.55.74,23.81-1.01,37.77-18.54h-19.71s6.23-17.5,6.23-29.2c0,0,11.04,20.14,22.42,29.2,11.38,9.06,20.91-2.51,14.94-10.9Z"/><rect class="cls-1" x="163.04" y="181.33" width="19.57" height="64.81" rx="9.79" ry="9.79" transform="translate(283.96 -37.66) rotate(62.81)"/><rect class="cls-1" x="116.28" y="181.33" width="19.57" height="64.81" rx="9.79" ry="9.79" transform="translate(373.78 199.28) rotate(117.19)"/></svg>