<?xml version="1.0" encoding="UTF-8"?><svg id="_1" xmlns="http://www.w3.org/2000/svg" viewBox="0 0 300 300"><defs><style>.cls-1{fill:#fff;}.cls-2,.cls-3{fill:none;stroke:#000e2f;stroke-linecap:round;stroke-linejoin:round;stroke-width:3.7px;}.cls-4{fill:#11436e;}.cls-3{fill-rule:evenodd;}</style></defs><path class="cls-4" d="m300.71,150c0,82.83-67.17,150-150,150S.7,232.83.7,150,67.86,0,150.71,0s150,67.16,150,150Z"/><path class="cls-1" d="m260.73,149.39c0,60.76-49.27,110.03-110.01,110.03s-110.03-49.27-110.03-110.03,49.25-110.03,110.03-110.03,110.01,49.27,110.01,110.03Z"/><rect class="cls-2" x="76.65" y="148.45" width="22.29" height="62.68"/><polygon class="cls-3" points="213.64 84.47 192.32 84.47 192.32 63.15 156.46 63.15 156.46 84.47 135.13 84.47 135.13 120.34 156.46 120.34 156.46 141.66 192.32 141.66 192.32 120.34 213.64 120.34 213.64 84.47"/><path class="cls-3" d="m98.95,163.96s12.76-8.72,32.87-8c20.11.73,28.59,11.39,28.59,11.39h20.84s8-.97,8.72,3.88c.73,4.85-2.34,7.75-15.59,9.94s-24.15,0-24.15,0"/><path class="cls-3" d="m98.95,199.09l60.5,1.7s10.66,1.7,25.93-6.3c15.27-8,35.38-23.02,35.38-23.02,0,0,5.33-4.12,1.21-10.66-4.12-6.54-31.99,10.42-31.99,10.42"/></svg>