<?xml version="1.0" encoding="UTF-8"?><svg id="_1" xmlns="http://www.w3.org/2000/svg" viewBox="0 0 300 300"><defs><style>.cls-1{fill:#fff;}.cls-2,.cls-3{fill:none;stroke:#000e2f;stroke-linecap:round;stroke-linejoin:round;stroke-width:3.7px;}.cls-4{fill:#023156;}.cls-3{fill-rule:evenodd;}</style></defs><path class="cls-4" d="m299.83,150c0,82.83-67.17,150-149.99,150S-.17,232.83-.17,150,66.99,0,149.83,0s149.99,67.16,149.99,150Z"/><path class="cls-1" d="m259.84,149.39c0,60.76-49.26,110.03-110.01,110.03s-110.02-49.27-110.02-110.03,49.25-110.03,110.02-110.03,110.01,49.27,110.01,110.03Z"/><path class="cls-3" d="m167.88,107.28c-16.24,0-18.26,12.98-18.26,12.98,0,0-2.03-12.98-18.26-12.98s-20.17,15.81-18.27,24.26c5.03,22.35,36.53,38,36.53,38,0,0,31.5-15.65,36.53-38,1.9-8.45-2.65-24.26-18.27-24.26"/><path class="cls-2" d="m212.07,84.7h-124.91c-8.8,0-15.94,7.14-15.94,15.94v74.16c0,8.8,7.14,15.94,15.94,15.94h69.29l41.76,34.57c4.31,3.57,10.65-.54,9.15-5.93l-7.98-28.64h12.69c8.8,0,15.94-7.14,15.94-15.94v-74.16c0-8.8-7.14-15.94-15.94-15.94Z"/></svg>