<?xml version="1.0" encoding="UTF-8"?><svg id="Layer_1" xmlns="http://www.w3.org/2000/svg" viewBox="0 0 100 100"><defs><style>.cls-1{fill:#da797a;stroke:#3f2a56;}.cls-1,.cls-2{stroke-linecap:round;stroke-linejoin:round;stroke-width:2px;}.cls-2{fill:#fff;stroke:#da797a;}.cls-3{fill:#3f2a56;}.cls-4{opacity:.25;}</style></defs><g class="cls-4"><circle class="cls-3" cx="50" cy="50" r="50"/></g><path class="cls-3" d="m50,5c24.81,0,45,20.19,45,45s-20.19,45-45,45S5,74.81,5,50,25.19,5,50,5m0-5C22.39,0,0,22.39,0,50s22.39,50,50,50,50-22.39,50-50S77.61,0,50,0h0Z"/><polygon class="cls-2" points="70.04 62.26 70.04 70.67 29.96 70.67 29.96 62.26 21.51 62.26 21.51 70.67 21.51 79.12 29.96 79.12 70.04 79.12 70.55 79.12 78.49 79.12 78.49 62.26 70.04 62.26"/><polygon class="cls-1" points="61.76 39.74 54.27 47.24 54.27 16.74 45.81 16.74 45.81 47.28 38.32 39.78 32.34 45.76 44.04 57.46 44.01 57.49 49.99 63.47 67.74 45.72 61.76 39.74"/></svg>