<?xml version="1.0" encoding="UTF-8"?><svg id="Layer_1" xmlns="http://www.w3.org/2000/svg" viewBox="0 0 100 100"><defs><style>.cls-1{fill:#fff;}.cls-2{fill:#da797a;}.cls-3{fill:#3f2a56;}.cls-4{opacity:.25;}</style></defs><g class="cls-4"><circle class="cls-3" cx="50" cy="50" r="50"/></g><path class="cls-3" d="m50,5c24.81,0,45,20.19,45,45s-20.19,45-45,45S5,74.81,5,50,25.19,5,50,5m0-5C22.39,0,0,22.39,0,50s22.39,50,50,50,50-22.39,50-50S77.61,0,50,0h0Z"/><path class="cls-1" d="m50,77.53c-15.18,0-27.53-12.35-27.53-27.53s12.35-27.53,27.53-27.53,27.53,12.35,27.53,27.53-12.35,27.53-27.53,27.53Z"/><path class="cls-3" d="m50,23.47c14.63,0,26.53,11.9,26.53,26.53s-11.9,26.53-26.53,26.53-26.53-11.9-26.53-26.53,11.9-26.53,26.53-26.53m0-2c-15.76,0-28.53,12.77-28.53,28.53s12.77,28.53,28.53,28.53,28.53-12.77,28.53-28.53-12.77-28.53-28.53-28.53h0Z"/><path class="cls-2" d="m48.66,70.56c-.31,0-.6-.12-.81-.34l-18.82-18.82c-.22-.22-.34-.51-.34-.81s.12-.59.34-.81l5.96-5.96c.22-.22.51-.34.81-.34s.6.12.81.34l12.04,12.04,27.47-27.47c.22-.22.51-.34.81-.34s.6.12.81.34l5.96,5.96c.22.22.34.51.34.81s-.12.59-.34.81l-34.24,34.25c-.22.22-.51.34-.81.34Z"/><path class="cls-3" d="m76.94,29.05c.06,0,.09.03.11.04l5.96,5.96s.04.04.04.11-.03.09-.04.11l-34.24,34.24s-.04.04-.11.04-.09-.03-.11-.04l-18.82-18.82s-.04-.04-.04-.11.03-.09.04-.11l5.96-5.96s.04-.04.11-.04.09.03.11.04l11.34,11.34,1.41,1.41,1.41-1.41,26.76-26.76s.04-.04.11-.04m0-2c-.55,0-1.1.21-1.52.63l-26.76,26.76-11.34-11.34c-.42-.42-.97-.63-1.52-.63s-1.1.21-1.52.63l-5.96,5.96c-.84.84-.84,2.2,0,3.04l18.82,18.82c.42.42.97.63,1.52.63s1.1-.21,1.52-.63l34.24-34.24c.84-.84.84-2.2,0-3.04l-5.96-5.96c-.42-.42-.97-.63-1.52-.63h0Z"/></svg>