<?xml version="1.0" encoding="UTF-8"?><svg id="Layer_1" xmlns="http://www.w3.org/2000/svg" viewBox="0 0 100 100"><defs><style>.cls-1{fill:#fff;stroke:#da797a;stroke-linecap:round;stroke-linejoin:round;stroke-width:2px;}.cls-2{fill:#3f2a56;}.cls-3{opacity:.25;}</style></defs><g class="cls-3"><circle class="cls-2" cx="50" cy="50" r="50"/></g><path class="cls-2" d="m50,5c24.81,0,45,20.19,45,45s-20.19,45-45,45S5,74.81,5,50,25.19,5,50,5m0-5C22.39,0,0,22.39,0,50s22.39,50,50,50,50-22.39,50-50S77.61,0,50,0h0Z"/><path class="cls-1" d="m71.64,75.48V20.79H30.85c-1.38,0-2.5,1.12-2.5,2.5v55.07h43.29v-2.88Z"/><path class="cls-1" d="m71.64,75.48H31.23c-1.59,0-2.88,1.29-2.88,2.88s1.29,2.88,2.88,2.88h40.41v-5.76Z"/><path class="cls-2" d="m47.56,43.89h-1.79c-.2,0-.36-.05-.49-.14-.13-.09-.22-.22-.28-.37l-.75-2.13h-4.45l-.75,2.13c-.05.13-.14.25-.27.35-.13.11-.29.16-.48.16h-1.81l4.36-11.17h2.36l4.36,11.17Zm-3.88-4.24l-1.21-3.42c-.07-.18-.15-.39-.23-.63-.08-.24-.16-.5-.23-.79-.07.29-.15.55-.23.8-.08.24-.16.46-.23.64l-1.2,3.4h3.32Z"/><path class="cls-2" d="m48.26,38.35h4.06v1.74h-4.06v-1.74Z"/><path class="cls-2" d="m62.12,33.57c0,.12-.02.24-.06.36-.04.12-.09.23-.17.33l-5.51,7.82h5.58v1.81h-8.54v-.9c0-.11.02-.21.05-.32s.09-.2.15-.29l5.53-7.85h-5.34v-1.81h8.31v.85Z"/></svg>