<?xml version="1.0" encoding="UTF-8"?><svg id="Layer_1" xmlns="http://www.w3.org/2000/svg" viewBox="0 0 100 100"><defs><style>.cls-1,.cls-2{stroke:#3f2a56;stroke-miterlimit:10;}.cls-1,.cls-2,.cls-3{stroke-linecap:round;stroke-width:2px;}.cls-1,.cls-3{fill:#fff;}.cls-2{fill:none;}.cls-3{stroke:#da797a;stroke-linejoin:round;}.cls-4{fill:#3f2a56;}.cls-5{opacity:.25;}</style></defs><g class="cls-5"><circle class="cls-4" cx="50" cy="50" r="50"/></g><path class="cls-4" d="m50,5c24.81,0,45,20.19,45,45s-20.19,45-45,45S5,74.81,5,50,25.19,5,50,5m0-5C22.39,0,0,22.39,0,50s22.39,50,50,50,50-22.39,50-50S77.61,0,50,0h0Z"/><path class="cls-3" d="m83.19,33.61H16.81c-.68,0-1.24.55-1.24,1.24v36.11c0,.68.55,1.24,1.24,1.24h27.39v2.08c0,.68.55,1.24,1.24,1.24h9.13c.68,0,1.24-.55,1.24-1.24v-2.08h27.39c.68,0,1.24-.55,1.24-1.24v-36.11c0-.68-.55-1.24-1.24-1.24Z"/><path class="cls-1" d="m50,28.18h0c-9.69-2.34-19.77-2.41-29.49-.23-.57.13-.97.64-.97,1.22v38.23c0,.79.73,1.37,1.51,1.2,9.54-2.07,19.44-1.95,28.95.34h0c8.46-2.04,24.36-.63,29.09-.15.73.07,1.36-.5,1.36-1.23V29.29c0-.63-.47-1.16-1.1-1.23-4.38-.46-20.73-1.96-29.35.12Z"/><line class="cls-1" x1="50" y1="28.18" x2="50" y2="68.95"/><line class="cls-2" x1="26.8" y1="38.74" x2="37.03" y2="38.74"/><line class="cls-2" x1="26.8" y1="43.26" x2="40.44" y2="43.26"/><line class="cls-2" x1="26.8" y1="47.88" x2="37.03" y2="47.88"/></svg>