<?xml version="1.0" encoding="UTF-8"?><svg xmlns="http://www.w3.org/2000/svg" viewBox="0 0 100 100"><defs><style>.cls-1,.cls-2{fill:#fff;}.cls-3{fill:none;}.cls-3,.cls-2{stroke:#3f2a56;stroke-linecap:round;stroke-linejoin:round;stroke-width:2px;}.cls-4{fill:#da797a;}.cls-5{fill:#3f2a56;}.cls-6{opacity:.25;}</style></defs><g id="Layer_1"><g class="cls-6"><circle class="cls-5" cx="50.05" cy="50" r="50"/></g><path class="cls-5" d="m50.05,5c24.81,0,45,20.19,45,45s-20.19,45-45,45S5.05,74.81,5.05,50,25.23,5,50.05,5m0-5C22.43,0,.05,22.39.05,50s22.39,50,50,50,50-22.39,50-50S77.66,0,50.05,0h0Z"/><rect class="cls-2" x="20.91" y="41.98" width="56.62" height="31.46"/><polyline class="cls-3" points="38.9 32.09 38.9 23.38 59.55 23.38 59.55 32.09"/><rect class="cls-2" x="16.88" y="32.09" width="64.69" height="10.26" rx="2.74" ry="2.74"/></g><g id="icon"><path class="cls-4" d="m60.08,55.99c0-.18-.15-.37-.33-.41l-2.14-.6c-.18-.04-.38-.22-.45-.4l-.63-1.51c-.08-.17-.07-.44.03-.6l1.1-1.94c.1-.15.07-.39-.06-.52l-1.67-1.67c-.13-.13-.36-.15-.52-.06l-1.94,1.1c-.16.1-.43.12-.6.03l-1.51-.63c-.18-.06-.36-.26-.4-.45l-.6-2.14c-.04-.18-.22-.33-.41-.33h-2.35c-.18,0-.37.15-.41.33l-.6,2.14c-.04.18-.22.38-.4.45l-1.51.63c-.17.08-.44.07-.6-.03l-1.94-1.1c-.15-.1-.39-.07-.52.06l-1.67,1.67c-.13.13-.15.36-.06.52l1.1,1.94c.1.16.12.43.03.6l-.63,1.51c-.06.18-.26.36-.45.4l-2.14.6c-.18.04-.33.22-.33.41v2.35c0,.18.15.37.33.41l2.14.6c.18.04.38.22.45.4l.63,1.51c.08.17.07.44-.03.6l-1.1,1.94c-.1.15-.07.39.06.52l1.67,1.67c.13.13.36.15.52.06l1.94-1.1c.16-.1.43-.12.6-.03l1.51.63c.18.06.36.26.4.45l.6,2.14c.04.18.22.33.41.33h2.35c.18,0,.37-.15.41-.33l.6-2.14c.04-.18.22-.38.4-.45l1.51-.63c.17-.08.44-.07.6.03l1.94,1.1c.15.1.39.07.52-.06l1.67-1.67c.13-.13.15-.36.06-.52l-1.1-1.94c-.1-.16-.12-.43-.03-.6l.63-1.51c.06-.18.26-.36.45-.4l2.14-.6c.18-.04.33-.22.33-.41v-2.35Zm-6.6,5.85c-1.25,1.25-2.91,1.94-4.68,1.94s-3.43-.69-4.68-1.94c-2.58-2.58-2.58-6.78,0-9.36,1.25-1.25,2.91-1.94,4.68-1.94s3.43.69,4.68,1.94c2.58,2.58,2.58,6.78,0,9.36Z"/><path class="cls-1" d="m58.16,68.94c-.66,0-1.31-.27-1.78-.74l-5.9-5.9c-.54.18-1.1.27-1.68.27-1.45,0-2.81-.56-3.83-1.59-1.29-1.29-1.84-3.13-1.47-4.93.07-.36.4-.62.77-.62.21,0,.41.08.55.23l2.46,2.46c1.21-.32,2.16-1.27,2.48-2.48l-2.46-2.46c-.2-.2-.28-.5-.2-.78.08-.28.31-.48.59-.54.36-.08.74-.11,1.11-.11,1.45,0,2.81.56,3.83,1.58,1.45,1.45,1.95,3.58,1.32,5.52l5.93,5.93c.47.47.73,1.1.72,1.77,0,.67-.28,1.29-.77,1.75-.45.43-1.04.66-1.67.66Z"/><path class="cls-1" d="m48.81,52.23c1.26,0,2.52.48,3.49,1.44,1.43,1.43,1.8,3.53,1.1,5.3l6.14,6.14c.78.78.77,2.06-.04,2.82-.37.35-.85.53-1.34.53-.52,0-1.04-.2-1.44-.6l-6.12-6.12c-.58.23-1.19.34-1.8.34-1.26,0-2.52-.48-3.49-1.44-1.22-1.22-1.67-2.92-1.34-4.49.03-.15.16-.24.3-.24.08,0,.15.03.21.09l2.46,2.46c.09.09.22.14.34.14.04,0,.08,0,.12-.02h0c1.38-.37,2.45-1.44,2.82-2.82h0c.04-.17,0-.34-.13-.47l-2.46-2.46c-.17-.17-.08-.46.15-.51.33-.07.67-.1,1.01-.1m0-.96c-.41,0-.81.04-1.21.12-.46.1-.82.43-.95.88-.13.45-.01.93.32,1.26l2.25,2.25c-.31.83-.97,1.49-1.8,1.8l-2.25-2.25c-.24-.24-.56-.37-.89-.37-.6,0-1.12.42-1.24,1.01-.4,1.95.2,3.96,1.6,5.37,1.11,1.11,2.59,1.73,4.17,1.73.52,0,1.04-.07,1.54-.2l5.7,5.7c.56.56,1.33.88,2.12.88s1.46-.28,2-.79c.58-.55.91-1.29.92-2.09.01-.8-.29-1.55-.86-2.11l-5.72-5.72c.55-2.03-.01-4.21-1.52-5.72-1.11-1.11-2.59-1.73-4.17-1.73h0Z"/><path class="cls-4" d="m47.65,52.84l2.46,2.46c.12.12.17.3.13.47h0c-.37,1.38-1.44,2.45-2.82,2.82h0c-.17.04-.34,0-.47-.13l-2.46-2.46c-.17-.17-.46-.08-.51.15-.32,1.57.12,3.27,1.34,4.49,1.43,1.43,3.52,1.8,5.29,1.1l6.12,6.12c.76.76,1.99.8,2.77.07.81-.76.82-2.04.04-2.82l-6.14-6.14c.7-1.77.33-3.87-1.1-5.3-1.22-1.22-2.93-1.67-4.5-1.34-.23.05-.32.34-.15.51Z"/></g></svg>