<?xml version="1.0" encoding="UTF-8"?><svg id="Layer_1" xmlns="http://www.w3.org/2000/svg" viewBox="0 0 100 100"><defs><style>.cls-1{fill:#da797a;}.cls-2{fill:#fff;stroke:#da797a;stroke-linecap:round;stroke-linejoin:round;stroke-width:2px;}.cls-3{fill:#3f2a56;}.cls-4{opacity:.25;}</style></defs><g class="cls-4"><circle class="cls-3" cx="50" cy="50" r="50"/></g><path class="cls-3" d="m50,5c24.81,0,45,20.19,45,45s-20.19,45-45,45S5,74.81,5,50,25.19,5,50,5m0-5C22.39,0,0,22.39,0,50s22.39,50,50,50,50-22.39,50-50S77.61,0,50,0h0Z"/><path class="cls-2" d="m73.68,41.38c.01-.19.03-.38.03-.58,0-6.02-4.88-10.9-10.9-10.9-2.89,0-5.51,1.13-7.46,2.97-1.75-7.16-8.19-12.48-15.89-12.48-9.04,0-16.38,7.33-16.38,16.38,0,1.67.25,3.29.72,4.81-4.21.89-7.37,4.62-7.37,9.09,0,5.13,4.16,9.3,9.3,9.3h47.63c5.13,0,9.3-4.16,9.3-9.3s-3.99-9.1-8.96-9.28Z"/><circle class="cls-1" cx="56.32" cy="66.99" r="3.45"/><circle class="cls-1" cx="66.18" cy="75.15" r="3.45"/></svg>