<?xml version="1.0" encoding="UTF-8"?><svg id="Layer_1" xmlns="http://www.w3.org/2000/svg" viewBox="0 0 1170 400"><defs><style>.cls-1{fill:#000e2f;}.cls-2{fill:#8dabc4;}.cls-3{fill:none;stroke:#000e2f;stroke-linecap:round;stroke-linejoin:round;stroke-width:3px;}.cls-4{fill:#5581a7;}.cls-5{fill:#c6d5e2;}</style></defs><path class="cls-1" d="m935.34,14.55c-.73,5.95-.45,12.13.76,18,1.33,6.44,2.71,13.06,5.78,18.92,1.69-6.32,3.6-12.57,5.49-18.83,3.17-10.45,6.21-20.92,7.75-31.75.67-4.69,1.19-9.42,1.25-14.16.04-3.94-.1-8.23-1.64-11.93-2.9,4.3-5.87,8.55-8.65,12.93-5.23,8.23-9.54,17.02-10.74,26.81Z"/><path class="cls-1" d="m995.03,220.53l-2.35,1.17c-14.5-29.23-29.48-59.46-39.9-91.05-11.68-35.43-15.99-68.49-12.79-98.28l2.61.28c-3.16,29.41,1.11,62.11,12.67,97.18,10.36,31.41,25.3,61.55,39.76,90.7Z"/><path class="cls-1" d="m904.14,25.32c.05,4.73,1,9.39,2.55,13.86,7.58,21.9,26.99,34.87,37,55.5-1.72-23.13-17.28-58.9-39.48-69.32-.03-.01-.05-.03-.07-.04Z"/><path class="cls-1" d="m973.38,12.21c-.28-.1-.57-.17-.88-.21-2.32-.29-4.37,1.44-5.96,3.15-8.71,9.33-13.95,21.47-16.87,33.9-3.64,15.52-6.37,34.42-3.74,50.29.76-14.27,5.97-28.27,14.74-39.56,3.21-4.13,6.89-7.92,9.75-12.3,5.67-8.68,6.59-18.23,6.66-28.28.02-2.8-1.19-6.08-3.69-6.99Z"/><path class="cls-1" d="m907.89,91.98c-.63,6.58.36,13.16,3.43,19.08,5.23,10.07,14.87,17.05,24.15,23.12,8.29,5.42,17.1,10.29,24.77,16.61-2.47-4.41-4.76-8.91-7.09-13.39-9.93-19.12-22.06-41.44-45.26-45.41Z"/><path class="cls-1" d="m961.79,148.36c1.19-3.36,2.76-6.61,4.47-9.72,6.42-11.71,15.15-22.09,18.97-35.09,3.67-12.48,2.86-25.46,2.83-38.31-5.18,3.55-9.4,8.27-12.66,13.66-12.6,20.86-11.7,45.81-13.62,69.46Z"/><path class="cls-1" d="m778.41,391.52c73.74-13.09,139.6-35.07,195.75-65.32,64.16-34.57,117.72-81.34,154.89-135.26l-3.57-2.46c-36.78,53.36-89.82,99.66-153.38,133.9-55.74,30.03-121.16,51.85-194.45,64.86l.76,4.27Z"/><path class="cls-1" d="m1075.67,274.2c10.64-3.8,21.34-6.5,32.42-8.71,7.75-1.54,15.53-3.11,23.01-5.64-5.91,5.95-13.2,10.43-20.72,14.17-12.72,6.32-26.08,10.74-39.88,14.01-7.05,1.67-14.2,3.09-21.41,3.78-3.79.36-8.53.94-12.39-.29,12.6-6.59,25.53-12.52,38.98-17.32Z"/><path class="cls-1" d="m1071.65,253.33c10.37-9.19,21.9-17.06,34.23-23.36,15.4-7.87,28.04-15.34,45.13-19.54,3.54-.87,7.08-1.73,10.59-2.75,1.11-.32,2.29-.64,3.43-1.04-2.53,5.85-6.97,11.02-12.07,15.5-22.88,20.06-51.63,28.53-81.31,31.19Z"/><path class="cls-1" d="m1065.02,321.99c-14.46,5.31-29.74,8.27-45.07,9.48-7.67.61-15.49.85-23.14-.17-4.61-.62-10.45-1.64-13.91-5.14.24-.21.36-.54.17-.93-.69-1.46-1.87-2.57-3.04-3.69,1.17-.48,2.34-.95,3.52-1.43,5.83-2.39,11.47-4.71,17.61-6.21,6.42-1.57,12.93-2.78,19.46-3.75,12.6-1.86,25.31-2.81,38.03-3.34,9.42-.4,18.83-.49,28.25-.65,3.63-.06,7.26-.14,10.88-.4-10.56,6.13-21.29,12.02-32.77,16.24Z"/><path class="cls-1" d="m952.09,305.49c-7.83,14.49-16.98,28.58-28.48,40.44-.9-5.64.04-11.88.94-17.12,2.96-17.24,9.24-34.02,16.1-50.05,3.88-9.06,7.94-18,13.56-26.14,6.45-9.34,14.25-17.61,21.89-25.98.11-.12.18-.25.21-.38.46,8.57-.81,17.18-2.76,25.52-4.41,18.78-12.32,36.78-21.46,53.71Z"/><path class="cls-1" d="m1076.72,214.86c1.54-9.44,3.2-18.95,6.79-27.82,3.59-8.87,9.31-17.15,17.44-22.18,3.6,21.18-.69,43.61-11.85,61.97-4.65,7.65-10.16,15.47-16.16,22.05-3.59-8.24,2.34-25.06,3.78-34.02Z"/><path class="cls-1" d="m1029.39,242.61c4.67-19.93,12.9-40.85,30.44-51.39,2.21,6.66,2.4,13.82,1.94,20.82-1.33,20.32-8.13,40.23-19.27,57.26-5.03,7.69-14.12,17.36-14.12,17.36,0,0-1.29-34.18,1.02-44.05Z"/><path class="cls-1" d="m1130.95,162.57c10.98-17.28,25.65-34.32,45.69-38.48-.11,7.01-2.3,13.84-5.04,20.3-7.96,18.75-20.94,35.3-37.08,47.7-7.28,5.6-19.06,11.73-19.06,11.73,0,0,10.05-32.7,15.49-41.25Z"/><path class="cls-1" d="m1014.18,226.39c6.26,10.65,5.4,24.06,2.41,36.05-3.2,12.87-32.12,54.27-32.12,54.27,0,0-.92,1.82.34-18.26,1.65-26.35,11.96-52.16,29.37-72.07Z"/><path class="cls-1" d="m967.87,367.02c28.77,5.53,58.27-1.86,86.63-9.2-5.99,1.55-23.93-7.56-30.61-9.06-11.34-2.55-22.85-4.28-34.43-5.19-20.64-1.62-47.61-3.05-67.2,4.45,5.88,10.48,34.2,16.8,45.62,19Z"/><path class="cls-1" d="m1014.42,79.44c3.42-1.11,7.39-.78,10.71.5,3.68,1.42,6.33,4.35,7.88,7.92,1.64,3.77,2.14,8.01,2.25,12.09.11,4.09-.2,8.17-.63,12.23-.28,2.67-.83,5.31-1.31,7.95-.61,3.37-1.23,6.73-1.78,10.11-1.2,7.34-2.22,14.81-2.04,22.26.05,2.13.18,4.47.58,6.77,2.76,5.62,6,11.01,9.69,16.08,5.76-7.42,11.24-15.07,16.34-23,9.01-14.02,16.71-28.82,23.04-44.17-.03-.03-.06-.07-.09-.11-5.34-7.21-9.48-15.58-12.12-24.4-2.37-4.65-4.53-9.41-6.42-14.27-2.2-5.65-3.89-11.39-5.34-17.27-.85-3.47-1.62-6.96-2.08-10.51-.51-3.92-.78-8.05.02-11.95.63-3.08,2.12-6.28,5.32-7.34,1.93-.64,4.01-.49,5.97-.09,2.55.51,4.92,1.67,6.76,3.52,3.58,3.61,4.82,8.95,5.3,13.86.51,5.24.22,10.54-.63,15.72-1.74,10.61-4.74,21.06-5.49,31.8,2.38,6.68,5.65,13.01,9.74,18.73,2.46-6.11,4.69-12.31,6.71-18.58.9-9.12.74-18.3.27-27.44-.48-9.24-1.26-18.46-1.53-27.71-.14-4.7-.15-9.4.07-14.09.12-2.57.62-5.11,1.24-7.61,1.28-5.12,3.18-10.7,6.81-14.67,1.47-1.61,3.35-2.97,5.57-3.21,2.63-.28,5.11,1.05,7.12,2.61,5.16,4.01,7.32,10.27,7.48,16.63.17,6.83-1.47,13.61-3.5,20.09-1.93,6.16-4.39,12.12-6.57,18.19-2.75,7.66-5.19,15.42-8.15,23-1.42,3.64-2.95,7.25-4.77,10.72-.51.97-1.06,1.94-1.63,2.88-.4,1.26-.8,2.52-1.22,3.77-1.77,5.32-3.7,10.57-5.77,15.76,8.37-7.51,16.15-15.72,23.24-24.51.05-.07.1-.13.14-.2,2.36-3.47,4.2-7.33,6.03-11.09.95-1.95,1.88-3.91,2.83-5.86.73-1.5,1.51-2.98,2.09-4.55,2.03-5.5,3.21-11.29,4.98-16.87,1.66-5.22,3.72-11.19,8.04-14.83,1.81-1.53,4.27-2.67,6.6-3.11,1.56-.29,3.23-.15,4.51.87,1.24.98,1.93,2.52,2.33,4.01.55,1.99.68,4.07.64,6.13-.08,4.56-.97,9.16-2.5,13.45-.6,1.69-1.31,3.36-2.31,4.86-2.17,3.26-4.96,6.19-7.73,8.94-6.08,6.02-12.97,11.15-19.86,16.2-1.21.89-2.39,1.79-3.57,2.72-8.16,10.19-17.24,19.63-27.06,28.1-.07.06-.14.09-.22.13-5.43,12.95-11.82,25.45-19.08,37.37,10.67-2.34,20.16-6.81,28.45-12.31.99-1.47,2.15-2.82,3.32-4.15,1.46-1.66,2.94-3.29,4.3-5.03,1.44-1.85,2.67-3.87,3.88-5.88,2.56-4.25,4.82-8.66,7.12-13.05,2.32-4.42,4.68-8.82,7.43-12.99,1.81-2.75,3.89-5.3,5.99-7.84,4.02-4.88,8.44-9.94,14.04-13.05,2.46-1.37,5.23-2.31,8.08-2.14,2.45.15,4.95,1.15,6.77,2.82,3.12,2.85,3.17,7.16,2.17,10.99-1.3,4.98-3.99,9.58-6.84,13.82-2.7,4.02-5.71,7.83-8.93,11.45-4.76,5.35-10.09,10.23-15.83,14.52-6.09,4.55-12.81,8.67-20.21,10.54-2.83.72-5.78,1.31-8.71,1.28-.21,0-.43,0-.65-.02-10.18,6.89-20.88,11.45-31.92,13.57,0,0,0,0,0,0-.64,1.02-1.27,2.03-1.92,3.04-5.24,8.16-10.89,16.01-16.82,23.63.35.47.26,1.13-.21,1.49-.32.24-.72.28-1.06.13-16.68,21.2-35.49,40.58-53.85,59.48-.41.42-1.08.43-1.5.03,0,0,0,0,0,0-.42-.41-.43-1.09-.02-1.51,18.43-18.96,37.3-38.4,53.97-59.65-2.13-2.9-4.12-5.9-5.96-9-.61-.33-1.2-.69-1.76-1.09-2.7-1.92-4.92-4.51-6.85-7.18-2.28-3.16-4.21-6.56-5.95-10.04-3.35-6.68-6.04-13.7-8.24-20.84-1.62-5.27-2.99-10.61-3.83-16.06-1.02-6.65-1.53-13.61-.38-20.28.93-5.38,3.34-11.32,8.97-13.16Z"/><path class="cls-1" d="m1003.46,405.46c14.18-3.52,28.15-7.66,41.9-12.38-4.97-2.51-9.66-5.86-13.49-9.77-2.22-2.27-4.34-4.95-5.17-8.07-.76-2.87.12-5.61,2.16-7.73,1.32-1.37,2.9-2.58,4.71-2.89.49-.09,1.1-.06,1.76.12.4.11,1.23.55,1.58.82,3.09,2.42,4.72,6.81,6.05,10.49,1.92,5.3,3.33,10.77,4.75,16.22,7.26-2.53,14.46-5.23,21.59-8.09-3.89-2.95-7.76-5.93-11.39-9.28-2.8-2.58-5.54-5.37-7.66-8.6-1.6-2.44-2.99-5.39-2.52-8.27.53-3.25,3.31-5.47,5.9-6.83,2.57-1.35,5.45-.83,7.93,1.06,2.9,2.22,5.03,5.56,6.76,8.78,1.88,3.51,3.36,7.26,4.49,11.05.8,2.69,1.49,5.49,1.5,8.26,0,.6-.02,1.2-.05,1.81,6.68-2.77,13.31-5.68,19.87-8.73-.79-.51-1.57-1.04-2.33-1.58-2.84-2.04-5.55-4.3-8.09-6.76-2.49-2.41-4.85-5-6.9-7.84-1.63-2.25-3.18-4.79-3.86-7.5-.52-2.06-.39-4.08.87-5.56,1.82-2.12,5.11-2.85,7.81-2.97,3.06-.14,5.98,1.18,8.17,3.69,2.43,2.79,3.88,6.4,4.92,9.9,1.65,5.54,2.46,11.27,2.9,16.98,7.19-3.42,14.31-7.02,21.34-10.78-5.13-5.16-9.73-10.93-13.64-17.14-1.89-3-3.69-6.77-2.37-9.8.94-2.14,3.27-3.23,5.57-3.23,5.42.01,10.26,5.3,11.95,10.91s1,11.46.28,17.08c-.06.43-.11.87-.17,1.3,6.88-3.72,13.68-7.61,20.4-11.65l-.98-.37c.36.1.72.2,1.07.31.07-.04.14-.09.21-.13-6.45-3.04-12.44-6.95-17.77-11.61-2.4-2.1-4.85-4.94-4.12-8.21.51-2.31,2.58-4.15,4.82-4.97,5.28-1.93,10.97,1.24,13.66,5.82,2.69,4.59,3.1,10.24,3.45,15.69.07,1.05.13,2.09.2,3.14,3.15-1.9,6.29-3.84,9.4-5.82,2.58-1.64,5.1-3.29,7.45-5.09-1.31-.75-2.65-1.45-3.98-2.14-3.04-1.57-6.12-3.11-8.96-5.03-2.64-1.78-5.11-3.96-6.6-6.82-1.66-3.19-1.52-6.69-.76-10.11.4-1.8,1.09-4.44,2.57-5.31.43-.25.84-.28,1.4-.16.51.11,1.3.59,1.81,1,1.68,1.35,3.01,3.11,4.22,4.87,1.53,2.23,2.89,4.59,4.16,6.98,1.95,3.67,3.79,7.47,5.24,11.37.51,1.37,1.07,2.72,1.68,4.06.33-.04.65-.08.98-.13,1.12-.94,2.19-1.92,3.19-2.98,1.82-1.92,3.91-4.63,5.24-7.93.05-.63.13-1.26.22-1.89.46-3.28,1.28-6.5,2.33-9.64,1.13-3.38,2.53-6.71,4.42-9.74,1.55-2.5,3.52-5.04,6.18-6.42,2.67-1.38,5.32-.95,7.91.38,2.55,1.32,5.16,3.42,5.3,6.52.13,2.92-1.66,5.68-3.39,7.88-2.35,2.99-5.23,5.56-8.19,7.93-4.45,3.57-9.22,6.78-14.17,9.64,0,0-.01-.01-.02-.02-1.23,2.02-2.64,3.73-3.92,5.09-.18.19-.36.36-.54.54,1.05-.1,2.11-.14,3.18-.06,1.26.09,2.48.17,3.72.42,3.05.6,6.03,1.62,8.81,2.99,2.31,1.14,4.93,2.63,6.3,4.9,1.3,2.15.06,4.07-1.8,5.41-2.53,1.82-5.65,3.09-8.81,2.77-2.87-.3-5.54-1.73-7.79-3.48-3.18-2.48-5.84-5.6-8.13-8.98-2.48,1.92-5.14,3.66-7.86,5.38-2.65,1.68-5.32,3.33-8,4.97,5.33,1.99,10.29,4.86,14.6,8.47,2.18,1.82,4.31,4.08,4.52,7,.32,4.52-4.6,8.6-9.14,8.44-4.54-.15-8.23-3.54-10.06-7.57-1.83-4.03-2.15-8.66-2.44-13.18-.03-.53-.07-1.06-.1-1.59-6.83,4.1-13.78,8.04-20.82,11.82.12.11.23.22.35.33,5.34,4.22,10.06,9.38,13.85,15.17,1.73,2.64,3.34,5.7,2.98,8.72-.56,4.67-6.06,6.96-10.37,5.13-4.31-1.83-7.19-6.61-8.17-11.35-.98-4.74-.39-9.52.2-14.18.15-1.15.29-2.29.44-3.44-6.74,3.6-13.57,7.06-20.47,10.36,1.96,1.4,3.8,2.95,4.37,3.46,4.46,3.97,8.14,8.94,10.6,14.47.88,1.98,1.62,4.1,1.51,6.19-.15,2.74-1.88,5.16-4.3,6s-5.39.05-7.36-1.95c-1.11-1.13-1.89-2.57-2.59-4-3.38-6.93-5.37-14.39-7.16-21.84-4.64,2.16-9.32,4.24-14.02,6.26-1.77.76-3.55,1.5-5.33,2.24,3.18,3.6,6.25,7.3,9.11,11.18,2.14,2.91,4.18,5.93,5.85,9.15,1.25,2.4,2.5,5.22,2.57,7.81.06,2.24-.89,3.84-2.86,4.71-2.74,1.22-6.41,1.24-9.3-.18-3.06-1.51-4.96-4.77-6.12-7.95-1.45-3.97-2.05-8.22-2.42-12.34-.32-3.6-.43-7.2-.5-10.8-.02-.02-.04-.03-.06-.05-7.58,3.07-15.25,5.96-22.98,8.66,3.96,1.95,8.45,9.71,10.66,12.79,1.51,2.11,3.07,4.33,3.41,6.9.33,2.47-.62,5.12-2.59,6.64-1.97,1.52-4.93,1.73-6.97.31-2.15-1.49-2.94-4.27-3.47-6.84-1.16-5.56-3.33-13.68-2.11-19.42-14.35,4.98-28.91,9.31-43.56,12.95-.66.16-1.32-.2-1.55-.82-.02-.04-.03-.09-.04-.13-.17-.7.25-1.41.96-1.59Z"/><path class="cls-1" d="m263.15,33.92c-1.49,5.81-4,11.46-7.27,16.49-3.58,5.51-7.29,11.17-12.28,15.52.73-6.5,1.23-13.02,1.75-19.53.86-10.89,1.84-21.74,4.35-32.39,1.09-4.61,2.32-9.2,4-13.64,1.4-3.69,3.09-7.63,5.88-10.51,1.13,5.06,2.35,10.1,3.34,15.19,1.87,9.57,2.68,19.33.23,28.88Z"/><path class="cls-1" d="m132.49,203.97l1.76,1.94c24.15-21.94,49.13-44.62,70.34-70.24,23.79-28.73,39.85-57.95,47.74-86.86l-2.53-.69c-7.78,28.54-23.67,57.43-47.23,85.87-21.1,25.47-46,48.09-70.09,69.97Z"/><path class="cls-1" d="m288.27,55.33c-1.77,4.39-4.35,8.38-7.43,11.98-15.04,17.63-37.84,22.64-54.69,38.2,10.03-20.91,37.56-48.55,62.03-50.16.03,0,.06,0,.08-.01Z"/><path class="cls-1" d="m228.58,17.88c.3,0,.59.05.9.12,2.27.58,3.54,2.93,4.4,5.11,4.71,11.86,5.16,25.08,3.35,37.71-2.27,15.78-6.62,34.38-14.85,48.19,4.5-13.56,4.74-28.5.69-42.21-1.48-5.02-3.53-9.88-4.59-15.01-2.11-10.15.51-19.38,4.11-28.76,1-2.62,3.33-5.23,5.98-5.16Z"/><path class="cls-1" d="m260.48,116.03c-1.81,6.36-5.13,12.13-10.15,16.51-8.54,7.47-20.07,10.46-30.92,12.72-9.7,2.02-19.68,3.34-29.12,6.44,3.9-3.2,7.68-6.56,11.48-9.88,16.22-14.19,35.65-30.55,58.7-25.79Z"/><path class="cls-1" d="m189.74,148.88c.11-3.57-.17-7.16-.62-10.68-1.71-13.25-6.06-26.09-4.88-39.59,1.13-12.96,6.62-24.75,11.33-36.71,3.53,5.19,5.74,11.13,6.81,17.34,4.13,24.02-5.81,46.93-12.64,69.65Z"/><path class="cls-1" d="m390.46,393.1c-73.74-13.09-139.6-35.07-195.75-65.32-64.16-34.57-117.72-81.34-154.89-135.26l3.57-2.46c36.78,53.36,89.82,99.66,153.38,133.9,55.74,30.03,121.16,51.85,194.45,64.86l-.76,4.27Z"/><path class="cls-1" d="m93.2,275.78c-10.64-3.8-21.34-6.5-32.42-8.71-7.75-1.54-15.53-3.11-23.01-5.64,5.91,5.95,13.2,10.43,20.72,14.17,12.72,6.32,26.08,10.74,39.88,14.01,7.05,1.67,14.2,3.09,21.41,3.78,3.79.36,8.53.94,12.39-.29-12.6-6.59-25.53-12.52-38.98-17.32Z"/><path class="cls-1" d="m97.22,254.91c-10.37-9.19-21.9-17.06-34.23-23.36-15.4-7.87-28.04-15.34-45.13-19.54-3.54-.87-7.08-1.73-10.59-2.75-1.11-.32-2.29-.64-3.43-1.04,2.53,5.85,6.97,11.02,12.07,15.5,22.88,20.06,51.63,28.53,81.31,31.19Z"/><path class="cls-1" d="m103.85,323.57c14.46,5.31,29.74,8.27,45.07,9.48,7.67.61,15.49.85,23.14-.17,4.61-.62,10.45-1.64,13.91-5.14-.24-.21-.36-.54-.17-.93.69-1.46,1.87-2.57,3.04-3.69-1.17-.48-2.34-.95-3.52-1.43-5.83-2.39-11.47-4.71-17.61-6.21-6.42-1.57-12.93-2.78-19.46-3.75-12.6-1.86-25.31-2.81-38.03-3.34-9.42-.4-18.83-.49-28.25-.65-3.63-.06-7.26-.14-10.88-.4,10.56,6.13,21.29,12.02,32.77,16.24Z"/><path class="cls-1" d="m216.78,307.07c7.83,14.49,16.98,28.58,28.48,40.44.9-5.64-.04-11.88-.94-17.12-2.96-17.24-9.24-34.02-16.1-50.05-3.88-9.06-7.94-18-13.56-26.14-6.45-9.34-14.25-17.61-21.89-25.98-.11-.12-.18-.25-.21-.38-.46,8.57.81,17.18,2.76,25.52,4.41,18.78,12.32,36.78,21.46,53.71Z"/><path class="cls-1" d="m92.15,216.45c-1.54-9.44-3.2-18.95-6.79-27.82-3.59-8.87-9.31-17.15-17.44-22.18-3.6,21.18.69,43.61,11.85,61.97,4.65,7.65,10.16,15.47,16.16,22.05,3.59-8.24-2.34-25.06-3.78-34.02Z"/><path class="cls-1" d="m139.47,244.19c-4.67-19.93-12.9-40.85-30.44-51.39-2.21,6.66-2.4,13.82-1.94,20.82,1.33,20.32,8.13,40.23,19.27,57.26,5.03,7.69,14.12,17.36,14.12,17.36,0,0,1.29-34.18-1.02-44.05Z"/><path class="cls-1" d="m37.92,164.15c-10.98-17.28-25.65-34.32-45.69-38.48.11,7.01,2.3,13.84,5.04,20.3,7.96,18.75,20.94,35.3,37.08,47.7,7.28,5.6,19.06,11.73,19.06,11.73,0,0-10.05-32.7-15.49-41.25Z"/><path class="cls-1" d="m154.69,227.97c-6.26,10.65-5.4,24.06-2.41,36.05,3.2,12.87,32.12,54.27,32.12,54.27,0,0,.92,1.82-.34-18.26-1.65-26.35-11.96-52.16-29.37-72.07Z"/><path class="cls-1" d="m201,368.61c-28.77,5.53-58.27-1.86-86.63-9.2,5.99,1.55,23.93-7.56,30.61-9.06,11.34-2.55,22.85-4.28,34.43-5.19,20.64-1.62,47.61-3.05,67.2,4.45-5.88,10.48-34.2,16.8-45.62,19Z"/><path class="cls-1" d="m154.45,81.02c-3.42-1.11-7.39-.78-10.71.5-3.68,1.42-6.33,4.35-7.88,7.92-1.64,3.77-2.14,8.01-2.25,12.09-.11,4.09.2,8.17.63,12.23.28,2.67.83,5.31,1.31,7.95.61,3.37,1.23,6.73,1.78,10.11,1.2,7.34,2.22,14.81,2.04,22.26-.05,2.13-.18,4.47-.58,6.77-2.76,5.62-6,11.01-9.69,16.08-5.76-7.42-11.24-15.07-16.34-23-9.01-14.02-16.71-28.82-23.04-44.17.03-.03.06-.07.09-.11,5.34-7.21,9.48-15.58,12.12-24.4,2.37-4.65,4.53-9.41,6.42-14.27,2.2-5.65,3.89-11.39,5.34-17.27.85-3.47,1.62-6.96,2.08-10.51.51-3.92.78-8.05-.02-11.95-.63-3.08-2.12-6.28-5.32-7.34-1.93-.64-4.01-.49-5.97-.09-2.55.51-4.92,1.67-6.76,3.52-3.58,3.61-4.82,8.95-5.3,13.86-.51,5.24-.22,10.54.63,15.72,1.74,10.61,4.74,21.06,5.49,31.8-2.38,6.68-5.65,13.01-9.74,18.73-2.46-6.11-4.69-12.31-6.71-18.58-.9-9.12-.74-18.3-.27-27.44.48-9.24,1.26-18.46,1.53-27.71.14-4.7.15-9.4-.07-14.09-.12-2.57-.62-5.11-1.24-7.61-1.28-5.12-3.18-10.7-6.81-14.67-1.47-1.61-3.35-2.97-5.57-3.21-2.63-.28-5.11,1.05-7.12,2.61-5.16,4.01-7.32,10.27-7.48,16.63-.17,6.83,1.47,13.61,3.5,20.09,1.93,6.16,4.39,12.12,6.57,18.19,2.75,7.66,5.19,15.42,8.15,23,1.42,3.64,2.95,7.25,4.77,10.72.51.97,1.06,1.94,1.63,2.88.4,1.26.8,2.52,1.22,3.77,1.77,5.32,3.7,10.57,5.77,15.76-8.37-7.51-16.15-15.72-23.24-24.51-.05-.07-.1-.13-.14-.2-2.36-3.47-4.2-7.33-6.03-11.09-.95-1.95-1.88-3.91-2.83-5.86-.73-1.5-1.51-2.98-2.09-4.55-2.03-5.5-3.21-11.29-4.98-16.87-1.66-5.22-3.72-11.19-8.04-14.83-1.81-1.53-4.27-2.67-6.6-3.11-1.56-.29-3.23-.15-4.51.87-1.24.98-1.93,2.52-2.33,4.01-.55,1.99-.68,4.07-.64,6.13.08,4.56.97,9.16,2.5,13.45.6,1.69,1.31,3.36,2.31,4.86,2.17,3.26,4.96,6.19,7.73,8.94,6.08,6.02,12.97,11.15,19.86,16.2,1.21.89,2.39,1.79,3.57,2.72,8.16,10.19,17.24,19.63,27.06,28.1.07.06.14.09.22.13,5.43,12.95,11.82,25.45,19.08,37.37-10.67-2.34-20.16-6.81-28.45-12.31-.99-1.47-2.15-2.82-3.32-4.15-1.46-1.66-2.94-3.29-4.3-5.03-1.44-1.85-2.67-3.87-3.88-5.88-2.56-4.25-4.82-8.66-7.12-13.05-2.32-4.42-4.68-8.82-7.43-12.99-1.81-2.75-3.89-5.3-5.99-7.84-4.02-4.88-8.44-9.94-14.04-13.05-2.46-1.37-5.23-2.31-8.08-2.14-2.45.15-4.95,1.15-6.77,2.82-3.12,2.85-3.17,7.16-2.17,10.99,1.3,4.98,3.99,9.58,6.84,13.82,2.7,4.02,5.71,7.83,8.93,11.45,4.76,5.35,10.09,10.23,15.83,14.52,6.09,4.55,12.81,8.67,20.21,10.54,2.83.72,5.78,1.31,8.71,1.28.21,0,.43,0,.65-.02,10.18,6.89,20.88,11.45,31.92,13.57,0,0,0,0,0,0,.64,1.02,1.27,2.03,1.92,3.04,5.24,8.16,10.89,16.01,16.82,23.63-.35.47-.26,1.13.21,1.49.32.24.72.28,1.06.13,16.68,21.2,35.49,40.58,53.85,59.48.41.42,1.08.43,1.5.03,0,0,0,0,0,0,.42-.41.43-1.09.02-1.51-18.43-18.96-37.3-38.4-53.97-59.65,2.13-2.9,4.12-5.9,5.96-9,.61-.33,1.2-.69,1.76-1.09,2.7-1.92,4.92-4.51,6.85-7.18,2.28-3.16,4.21-6.56,5.95-10.04,3.35-6.68,6.04-13.7,8.24-20.84,1.62-5.27,2.99-10.61,3.83-16.06,1.02-6.65,1.53-13.61.38-20.28-.93-5.38-3.34-11.32-8.97-13.16Z"/><path class="cls-1" d="m165.41,407.05c-14.18-3.52-28.15-7.66-41.9-12.38,4.97-2.51,9.66-5.86,13.49-9.77,2.22-2.27,4.34-4.95,5.17-8.07.76-2.87-.12-5.61-2.16-7.73-1.32-1.37-2.9-2.58-4.71-2.89-.49-.09-1.1-.06-1.76.12-.4.11-1.23.55-1.58.82-3.09,2.42-4.72,6.81-6.05,10.49-1.92,5.3-3.33,10.77-4.75,16.22-7.26-2.53-14.46-5.23-21.59-8.09,3.89-2.95,7.76-5.93,11.39-9.28,2.8-2.58,5.54-5.37,7.66-8.6,1.6-2.44,2.99-5.39,2.52-8.27-.53-3.25-3.31-5.47-5.9-6.83-2.57-1.35-5.45-.83-7.93,1.06-2.9,2.22-5.03,5.56-6.76,8.78-1.88,3.51-3.36,7.26-4.49,11.05-.8,2.69-1.49,5.49-1.5,8.26,0,.6.02,1.2.05,1.81-6.68-2.77-13.31-5.68-19.87-8.73.79-.51,1.57-1.04,2.33-1.58,2.84-2.04,5.55-4.3,8.09-6.76,2.49-2.41,4.85-5,6.9-7.84,1.63-2.25,3.18-4.79,3.86-7.5.52-2.06.39-4.08-.87-5.56-1.82-2.12-5.11-2.85-7.81-2.97-3.06-.14-5.98,1.18-8.17,3.69-2.43,2.79-3.88,6.4-4.92,9.9-1.65,5.54-2.46,11.27-2.9,16.98-7.19-3.42-14.31-7.02-21.34-10.78,5.13-5.16,9.73-10.93,13.64-17.14,1.89-3,3.69-6.77,2.37-9.8-.94-2.14-3.27-3.23-5.57-3.23-5.42.01-10.26,5.3-11.95,10.91s-1,11.46-.28,17.08c.06.43.11.87.17,1.3-6.88-3.72-13.68-7.61-20.4-11.65l.98-.37c-.36.1-.72.2-1.07.31-.07-.04-.14-.09-.21-.13,6.45-3.04,12.44-6.95,17.77-11.61,2.4-2.1,4.85-4.94,4.12-8.21-.51-2.31-2.58-4.15-4.82-4.97-5.28-1.93-10.97,1.24-13.66,5.82-2.69,4.59-3.1,10.24-3.45,15.69-.07,1.05-.13,2.09-.2,3.14-3.15-1.9-6.29-3.84-9.4-5.82-2.58-1.64-5.1-3.29-7.45-5.09,1.31-.75,2.65-1.45,3.98-2.14,3.04-1.57,6.12-3.11,8.96-5.03,2.64-1.78,5.11-3.96,6.6-6.82,1.66-3.19,1.52-6.69.76-10.11-.4-1.8-1.09-4.44-2.57-5.31-.43-.25-.84-.28-1.4-.16-.51.11-1.3.59-1.81,1-1.68,1.35-3.01,3.11-4.22,4.87-1.53,2.23-2.89,4.59-4.16,6.98-1.95,3.67-3.79,7.47-5.24,11.37-.51,1.37-1.07,2.72-1.68,4.06-.33-.04-.65-.08-.98-.13-1.12-.94-2.19-1.92-3.19-2.98-1.82-1.92-3.91-4.63-5.24-7.93-.05-.63-.13-1.26-.22-1.89-.46-3.28-1.28-6.5-2.33-9.64-1.13-3.38-2.53-6.71-4.42-9.74-1.55-2.5-3.52-5.04-6.18-6.42-2.67-1.38-5.32-.95-7.91.38-2.55,1.32-5.16,3.42-5.3,6.52-.13,2.92,1.66,5.68,3.39,7.88,2.35,2.99,5.23,5.56,8.19,7.93,4.45,3.57,9.22,6.78,14.17,9.64,0,0,.01-.01.02-.02,1.23,2.02,2.64,3.73,3.92,5.09.18.19.36.36.54.54-1.05-.1-2.11-.14-3.18-.06-1.26.09-2.48.17-3.72.42-3.05.6-6.03,1.62-8.81,2.99-2.31,1.14-4.93,2.63-6.3,4.9-1.3,2.15-.06,4.07,1.8,5.41,2.53,1.82,5.65,3.09,8.81,2.77,2.87-.3,5.54-1.73,7.79-3.48,3.18-2.48,5.84-5.6,8.13-8.98,2.48,1.92,5.14,3.66,7.86,5.38,2.65,1.68,5.32,3.33,8,4.97-5.33,1.99-10.29,4.86-14.6,8.47-2.18,1.82-4.31,4.08-4.52,7-.32,4.52,4.6,8.6,9.14,8.44,4.54-.15,8.23-3.54,10.06-7.57,1.83-4.03,2.15-8.66,2.44-13.18.03-.53.07-1.06.1-1.59,6.83,4.1,13.78,8.04,20.82,11.82-.12.11-.23.22-.35.33-5.34,4.22-10.06,9.38-13.85,15.17-1.73,2.64-3.34,5.7-2.98,8.72.56,4.67,6.06,6.96,10.37,5.13s7.19-6.61,8.17-11.35c.98-4.74.39-9.52-.2-14.18-.15-1.15-.29-2.29-.44-3.44,6.74,3.6,13.57,7.06,20.47,10.36-1.96,1.4-3.8,2.95-4.37,3.46-4.46,3.97-8.14,8.94-10.6,14.47-.88,1.98-1.62,4.1-1.51,6.19.15,2.74,1.88,5.16,4.3,6s5.39.05,7.36-1.95c1.11-1.13,1.89-2.57,2.59-4,3.38-6.93,5.37-14.39,7.16-21.84,4.64,2.16,9.32,4.24,14.02,6.26,1.77.76,3.55,1.5,5.33,2.24-3.18,3.6-6.25,7.3-9.11,11.18-2.14,2.91-4.18,5.93-5.85,9.15-1.25,2.4-2.5,5.22-2.57,7.81-.06,2.24.89,3.84,2.86,4.71,2.74,1.22,6.41,1.24,9.3-.18,3.06-1.51,4.96-4.77,6.12-7.95,1.45-3.97,2.05-8.22,2.42-12.34.32-3.6.43-7.2.5-10.8.02-.02.04-.03.06-.05,7.58,3.07,15.25,5.96,22.98,8.66-3.96,1.95-8.45,9.71-10.66,12.79-1.51,2.11-3.07,4.33-3.41,6.9-.33,2.47.62,5.12,2.59,6.64,1.97,1.52,4.93,1.73,6.97.31,2.15-1.49,2.94-4.27,3.47-6.84,1.16-5.56,3.33-13.68,2.11-19.42,14.35,4.98,28.91,9.31,43.56,12.95.66.16,1.32-.2,1.55-.82.02-.04.03-.09.04-.13.17-.7-.25-1.41-.96-1.59Z"/><path class="cls-4" d="m181.16,286.19v35.78s-53.96,6.75-78.01,25.52c-24.05,18.77-36.95,56.31-36.95,56.31h351.94s-54.55-95.02-157.79-89.74v-31.97s10.85.59,15.54,4.4c4.69,3.81,22.88,3.23,26.69-7.92,3.81-11.14,7.92-15.54,17.01-18.77,9.09-3.23,11.73-7.04,9.68-24.05-2.05-17.01,4.99-16.72,5.28-25.22s-13.2-12.61-11.73-19.36c1.47-6.75,4.4-20.24-5.57-25.81-9.97-5.57-2.05-24.05-10.56-28.74-8.51-4.69-20.24-3.81-22.58-11.73-2.35-7.92-8.51-24.64-25.52-24.93s-23.76-3.52-34.9-11.14c-11.14-7.63-31.09,5.87-36.95,12.02s-19.94,2.35-31.09.59c-11.14-1.76-15.54,5.28-19.06,13.78s-15.54,2.93-18.48,14.37c-2.93,11.44-4.11,13.78-9.68,21.12s6.16,17.6,4.4,26.69-4.4,23.76,6.16,32.26c10.56,8.51,4.4,14.96,11.14,27.57s13.78,6.45,13.78,6.45c0,0,7.04,38.42,37.25,42.53Z"/><path class="cls-3" d="m181.16,286.19v35.78s-53.96,6.75-78.01,25.52c-24.05,18.77-36.95,56.31-36.95,56.31h351.94s-54.55-95.02-157.79-89.74v-31.97s10.85.59,15.54,4.4c4.69,3.81,22.88,3.23,26.69-7.92,3.81-11.14,7.92-15.54,17.01-18.77,9.09-3.23,11.73-7.04,9.68-24.05-2.05-17.01,4.99-16.72,5.28-25.22s-13.2-12.61-11.73-19.36,4.4-20.24-5.57-25.81c-9.97-5.57-2.05-24.05-10.56-28.74-8.51-4.69-20.24-3.81-22.58-11.73-2.35-7.92-8.51-24.64-25.52-24.93s-23.76-3.52-34.9-11.14c-11.14-7.63-31.09,5.87-36.95,12.02s-19.94,2.35-31.09.59c-11.14-1.76-15.54,5.28-19.06,13.78s-15.54,2.93-18.48,14.37-4.11,13.78-9.68,21.12,6.16,17.6,4.4,26.69-4.4,23.76,6.16,32.26c10.56,8.51,4.4,14.96,11.14,27.57s13.78,6.45,13.78,6.45c0,0,7.04,38.42,37.25,42.53Z"/><path class="cls-3" d="m260.35,282.08c-19.65-3.52.29-47.51.29-47.51,20.24-7.04,30.21-33.43,11.73-39.89-18.48-6.45-25.52,7.92-25.52,7.92-12.9-3.52-15.54-14.66-24.05-25.22s-18.77-9.39-31.97-16.42c-13.2-7.04-19.85-24.64-19.85-24.64,0,0-22.39,6.75-32.36,43.41,0,0,2.32,53.79,5.28,63.94"/><path class="cls-3" d="m224.86,267.42s-6.16,12.32-33.14,18.18"/><path class="cls-3" d="m270.91,206.12s-12.61-4.69-17.89,7.92"/><path class="cls-3" d="m268.27,217.56s-6.58-2.57-8.72-10.97"/><path class="cls-3" d="m270.91,313.86s-17.01,66.47-53.08,67.65c-36.07,1.17-50.62-57.27-50.62-57.27"/><path class="cls-5" d="m631.54,406.29c-34.32-87-143.5-104.65-143.5-104.65-10.15-10.11-41.37-25.75-41.37-25.75l-1.85-43.14c37.08-27.69,17.48-49.62,17.48-49.62-3.65-13.74,13.35-66.94,9.07-76.94-4.28-10-29.62-7.49-29.62-7.49,0,0,7.85-18-10.17-29.41s-36.09,2.86-36.09,2.86c-23.48-16.72-29.99,8.17-29.99,8.17-35.85-12.63-32.34,22.13-32.34,22.13-24.28-6.34-17.36,17.02-17.36,17.02,0,0-10.44-4.81-10.89,17.65-.45,22.47,19.06,22.18,19.06,22.18,0,0-3.55,67.19,5.79,98.38,9.34,31.2,31.32,23.49,31.32,23.49-16.28,7.2-37.72,24.92-37.72,24.92-100.36,22.03-126.87,100.2-126.87,100.2h435.06Z"/><path class="cls-3" d="m323.96,159.46s-3.4,67.74,5.79,98.38,31.32,23.49,31.32,23.49v19.74s37.11,14.64,86.47-4.77l-2.72-63.4s34.38-25.12,18.72-47.92-39.83-9.53-44.26-2.72-19.74,0-22.13-19.06c0,0-22.13,5.11-28.6-24.17,0,0-10.55,17.36-25.87,1.7,0,0-3.06,19.74-18.72,18.72Z"/><path class="cls-3" d="m398.52,270.78s-16.68,9.53-35.74,10.55"/><path class="cls-3" d="m323.96,159.46s-19.06.34-19.06-20.43,10.89-19.4,10.89-19.4c0,0-5.45-11.57,3.4-17.02s13.96,0,13.96,0c0,0-1.02-35.06,32.34-22.13,0,0,6.19-24.85,29.99-8.17,0,0,16.99-15.32,37.41-2.04,0,0,16,11.91,8.85,28.6,0,0,22.47-4.09,29.62,7.49s-12.75,53.57-9.07,76.94"/><path class="cls-3" d="m426.09,203.72s4.09-20.43,25.87-12.6"/><path class="cls-3" d="m444.13,203.72s-8.05-4.13-7.43-13.3"/><path class="cls-3" d="m361.07,281.33s-44.26,20.43-60.94,53.45l34.38,1.7-11.17,10.89s17.3,47.66,18.66,69.45"/><path class="cls-3" d="m446.67,276.06s46.83,18.21,64.87,55.66l-34.38,2.38,11.91,14.98s-32,59.91-33.02,79.66"/><path class="cls-3" d="m359.03,315.04s54.81,20.77,92.94-3.74"/><path class="cls-3" d="m196.47,406.46s26.51-78.17,126.87-100.2"/><path class="cls-3" d="m488.04,301.81s110.31,18.55,143.5,104.65"/><path class="cls-2" d="m527.45,291.09s-115.66,12.64-126.38,110.49h329.87s-52.14-108.7-130.89-109.13l-33.36-16-39.23,14.64Z"/><path class="cls-2" d="m527.2,289.82l.26-23.23c-13.53,2.81-43.15,0-43.15,0,0,0-15.83-83.74,11.74-127.66s72.51-27.06,72.51-27.06c0,0,27.57-13.28,52.09,4.6s25.53,48.51,25.53,48.51l-5.11,2.55-.51,51.06s3.06,67.4-40.85,55.83l.34,18.04"/><path class="cls-3" d="m641.07,167.52s-11.49,2.81-17.36,2.04c0,0,.51-10.72-5.87-15.06v15.2s-43.15,5.48-67.91,17.23c0,0-5.11-15.57-22.72-15.06s-24.26,16.3-19.66,29.72,24.26,25.17,24.26,25.17c0,0,12.26,16.6,15.57,34.47,0,0-19.66,10.3-63.06,5.36,0,0-11.23-61.8,0-97.79,11.23-36,30.64-69.02,84.26-56.93,0,0,27.36-9.82,46.62,1.13s27.76,31.04,31,51.97l-5.11,2.55Z"/><path class="cls-3" d="m566.69,262.5s10.21,8.51,29.28,11.57"/><path class="cls-3" d="m527.45,266.58v24.51s4.34,35.49,45.7,34.98c0,0,27.32,1.28,26.55-31.91l.28-4.76-.28-14.99c45.96,11.23,41.36-62.64,41.36-62.64v-44.26"/><path class="cls-3" d="m521.75,189.65s18.72-5.74,20.09,11.94"/><path class="cls-3" d="m527.45,201.58s8.79-3.06,8.35-11.07"/><path class="cls-3" d="m401.07,401.58s6.13-93.3,126.38-110.49"/><path class="cls-3" d="m600.05,292.45s67.57-8.81,130.89,109.13"/><line class="cls-3" x1="467.45" y1="401.58" x2="475.11" y2="372.91"/><line class="cls-3" x1="646.17" y1="377.05" x2="665.49" y2="401.58"/><path class="cls-2" d="m902.24,93.49s36.34-16.17,67.23,0c0,0,4,2.36,15.63,3.09s20.35,1.45,27.62,14.17,11.27,18.57,15.26,29.27c4,10.7-3.63,18.7-5.45,29.24-1.82,10.54-.36,25.44-17.08,25.44,0,0-2.18,46.15-16.35,57.42s-19.99,7.63-19.99,7.63l-.73,25.08s9.45,9.09,28.35,10.54l2.18-3.72s123.56,20.8,143.19,116.02h-410.66s44.7-117.75,135.92-110.12l1.82,3.27s21.81-5.45,27.98-26.17l.73-59.55s-22.17-4.05-21.44-30.94c0,0-9.99-19.26-10.18-25.08,0,0-8,10.18-3.09,21.99s10.18,13.81,6.36,25.8c-3.82,11.99-8.54,14.35-6.36,24.71s7.81,10.9,6.54,20.17c-1.27,9.27-4.91,13.26-3.63,18.53s6,13.45,5.81,19.08h-89.04s-.18-24.71,4.91-40.7c5.09-15.99,8-17.63,5.81-30.71-2.18-13.08,4.54-19.26,7.45-25.08s-.36-15.08,5.63-24.53c6-9.45,13.08-8.18,13.81-20.35.73-12.17-2.36-16.54,2.54-22.17,4.91-5.63,7.09-10.9,8.72-17.08,1.64-6.18,13.81-10.54,21.44-10.18s15.26-9.09,24.89-10.9,24.17,5.81,24.17,5.81Z"/><path class="cls-3" d="m901.75,93.49s36.34-16.17,67.23,0c0,0,4,2.36,15.63,3.09,11.63.73,20.35,1.45,27.62,14.17,7.27,12.72,11.27,18.57,15.26,29.27,4,10.7-3.63,18.7-5.45,29.24-1.82,10.54-.36,25.44-17.08,25.44,0,0-2.18,46.15-16.35,57.42-14.17,11.27-19.99,7.63-19.99,7.63l-.73,25.08s9.45,9.09,28.35,10.54l2.18-3.72s123.56,20.8,143.19,116.02h-410.66s44.7-117.75,135.92-110.12l1.82,3.27s21.81-5.45,27.98-26.17l.73-59.55s-22.17-4.05-21.44-30.94c0,0-9.99-19.26-10.18-25.08,0,0-8,10.18-3.09,21.99s10.18,13.81,6.36,25.8-8.54,14.35-6.36,24.71,7.81,10.9,6.54,20.17c-1.27,9.27-4.91,13.26-3.63,18.53s6,13.45,5.81,19.08h-89.04s-.18-24.71,4.91-40.7c5.09-15.99,8-17.63,5.81-30.71-2.18-13.08,4.54-19.26,7.45-25.08s-.36-15.08,5.63-24.53,13.08-8.18,13.81-20.35c.73-12.17-2.36-16.54,2.54-22.17,4.91-5.63,7.09-10.9,8.72-17.08,1.64-6.18,13.81-10.54,21.44-10.18s15.26-9.09,24.89-10.9,24.17,5.81,24.17,5.81Z"/><path class="cls-3" d="m904.42,194.06s-5.84-12.02-16.63-6.81"/><path class="cls-3" d="m889.97,197.33s9.11-1.42,8.91-9.57"/><path class="cls-3" d="m1005.45,194.7l1.45-28.44s-9.27-5.18-8.72-13.36c0,0-12.81-6-10.36-13.08,0,0-11.18,9.81-24.26,8.72-13.08-1.09-16.9,4.36-23.17,11.18s-15.26,8.72-21.53,13.08-7.63,8.45-7.63,8.45c0,0-20.81-19.81-34.8,2.91"/><path class="cls-3" d="m933.49,246.98s15.98,12.43,29.44,12.41"/><path class="cls-3" d="m996.24,295.37s-15.14,28.71-62.74,29.8c-47.61,1.09-64.82-24.35-64.82-24.35"/><path class="cls-3" d="m901.75,93.49s-32.22,17.66-35.49,46.54"/><path class="cls-3" d="m986.19,132.55s1.45-20.71-6.18-30.89"/><path class="cls-4" d="m512.34,405.43s82.98-87.56,179.49-98.54v-20.43s-19.91,3.32-26.3-19.66-10.47-45.7-7.4-83.74c0,0,2.81-24.51,5.62-31.15,0,0-9.96-11.49-8.94-30.89s23.74-27.06,43.66-29.36,71.49-7.15,94.21,6.38,16.34,44.17,16.34,44.17c0,0,9.96,31.15-3.06,58.98,0,0,12.77,40.85-29.36,44.17l-1.28,62.3s97.53,1.6,158.3,94.25l-421.28,3.53Z"/><path class="cls-3" d="m663.75,151.91s12.85,13.79,42.13,8.68c29.28-5.11,62.3-15.66,69.45,32.68,0,0,21.79-8.68,30.64,7.91,0,0,13.96-30.38,3.06-58.98,0,0,7.48-21.44-10.56-39.83s-96.85-17.42-127.4-3.27c0,0-32.43,10.41-7.32,52.79Z"/><path class="cls-3" d="m779.41,155.15s21.11-5.59,27.23-10.29"/><path class="cls-3" d="m696.34,286.89s22.63-.34,37.36-9.87"/><path class="cls-3" d="m771.92,215.06s13.96,1.36,19.4-4.77"/><path class="cls-3" d="m779.41,228.34s5.09-6.88,4.08-13.99"/><path class="cls-3" d="m663.75,151.91s-10.63,45.73-4.85,83.71,7.99,50.41,32.93,50.84v20.43s-80.6,1.25-179.49,98.54"/><path class="cls-3" d="m805.96,201.19s12.77,41.79-29.36,44.17l-1.28,62.3s102.47,2.96,158.3,94.25"/><path class="cls-3" d="m680.34,405.43l11.49-98.54s9.45,38.55,83.49.77l1.7,97.77"/></svg>